<svg xmlns="http://www.w3.org/2000/svg" width="48" height="48" viewBox="0 0 48 48"><g transform="translate(0 -1004.362)"><circle cx="657.054" cy="437.094" r="15.268" fill="#9257a2" fill-rule="evenodd" transform="matrix(1.57193 0 0 1.57193 -1008.842 341.28)"/><path fill="#fff" d="M 3.5,2 A 0.50005,0.50005 0 0 0 3,2.5 l 0,24.990234 a 0.50005,0.50005 0 0 0 0.5,0.5 l 2.265625,0 1.5136719,0 -0.5507813,1.648438 a 0.50005,0.50005 0 0 0 0.6328125,0.632812 l 4.2402339,-1.414062 a 0.50004994,0.50004994 0 0 0 0.119141,-0.05859 0.50005,0.50005 0 0 0 0.01367,-0.0078 0.50004994,0.50004994 0 0 0 0.002,-0.002 0.50005,0.50005 0 0 0 0.0078,-0.0059 0.50004994,0.50004994 0 0 0 0.04883,-0.04102 0.50005,0.50005 0 0 0 0.01953,-0.01758 l 0.779297,-0.779297 a 0.50005,0.50005 0 0 0 0.210937,0.04492 l 4.947266,0 4.75,0 a 0.50005,0.50005 0 0 0 0.5,-0.5 L 23,22.75 l 0,-3.220703 0,-1.699219 a 0.50005,0.50005 0 0 0 -0.05664,-0.240234 l 4.386719,-4.386719 a 0.50004994,0.50004994 0 0 0 0.02539,-0.02344 0.50004994,0.50004994 0 0 0 0.03516,-0.03711 l 1.025391,-1.023437 c 0.09681,-0.09681 0.183163,-0.20222 0.255859,-0.3125 0,0 0,-0.002 0,-0.002 0.07256,-0.11025 0.133163,-0.225844 0.181641,-0.345704 0,0 0,-0.002 0,-0.002 0.04835,-0.119842 0.08508,-0.243533 0.109375,-0.36914 0,0 0,-0.002 0,-0.002 C 28.987183,10.959699 29,10.833253 29,10.705078 29,10.576908 28.987183,10.448499 28.962891,10.322266 28.890013,9.9435527 28.707528,9.5825406 28.416016,9.2910156 L 27.708984,8.5839844 C 27.611814,8.4868094 27.507212,8.4010939 27.396484,8.328125 27.064301,8.1092141 26.679498,8 26.294922,8 c -0.384576,0 -0.769379,0.1092141 -1.101563,0.328125 -0.110727,0.07297 -0.215329,0.1586844 -0.3125,0.2558594 l -1.035156,1.0351562 a 0.50004994,0.50004994 0 0 0 -0.02539,0.025391 L 23,10.464844 23,9.5253906 a 0.50005,0.50005 0 0 0 0,-0.033203 L 23,8.53125 23,6.6015625 A 0.50005,0.50005 0 0 0 22.767578,6.1699219 L 18.765625,2.1777344 A 0.45504551,0.45504551 0 0 0 18.533203,2.0546875 0.50005,0.50005 0 0 0 18.300781,2 L 16.5,2 3.5,2 Z m 0.5,1 12.5,0 1.488281,0 0,3.546875 A 0.45504551,0.45504551 0 0 0 18.443359,7 L 22,7 22,8.4960938 a 0.50005,0.50005 0 0 0 0,0.035156 l 0,0.9609375 0,1.7011717 a 0.50005,0.50005 0 0 0 0.04883,0.220703 L 20,13.464844 20,12 20,11.5 20,10.5 20,9 19.5,9 19,9 18.5,9 18,9 17.5,9 16.5,9 16,9 15.5,9 14.5,9 14,9 13.5,9 12.5,9 12,9 11.5,9 10.5,9 10,9 9.5,9 9,9 8.5,9 8,9 7.5,9 7,9 6.5,9 6,9 l 0,1 0,0.5 0,1 0,0.5 0,8 0,1 6.462891,0 -4.1992191,4.199219 a 0.50004994,0.50004994 0 0 0 -0.070312,0.0918 0.50004994,0.50004994 0 0 0 -0.023437,0.04297 0.50004994,0.50004994 0 0 0 -0.019531,0.04687 0.50005,0.50005 0 0 0 -0.00586,0.01563 0.50004994,0.50004994 0 0 0 -0.00781,0.02344 l -0.5234376,1.570312 -1.8476562,0 L 4,26.990234 4,3 Z m 14.898438,0.5957031 2.503906,2.4960938 -2.503906,0 0,-2.4960938 z M 6,4 6,5 6,5.5 6,6.5 6,7 7,7 7.5,7 8.5,7 9,7 9.5,7 10.5,7 11,7 11.5,7 12,7 12,6.5 12,5.5 12,5 12,4.5 12,4 11.5,4 10.5,4 10,4 9.5,4 8.5,4 8,4 7.5,4 6.5,4 6,4 Z M 7,5 7.5,5 8,5 8.5,5 9.5,5 10,5 10.5,5 11,5 11,5.5 11,6 10.5,6 9.5,6 9,6 8.5,6 7.5,6 7,6 7,5.5 7,5 Z m 19.294922,3.9921875 c 0.254094,0 0.508102,0.1000281 0.707031,0.2988281 l 0.707031,0.7070313 c 0.298395,0.2983501 0.373806,0.7196841 0.22461,1.0800781 0,0 0,0.002 0,0.002 -0.04973,0.119592 -0.125547,0.232982 -0.22461,0.332031 l -0.707031,0.707032 -0.707031,-0.707032 -0.707031,-0.707031 -0.707032,-0.7070311 0.707032,-0.7070313 c 0.198925,-0.1989 0.452937,-0.2988281 0.707031,-0.2988281 z M 7,10 7.5,10 8,10 8,11 7.5,11 7,11 7,10.5 7,10 Z m 2,0 0.5,0 0.5,0 0.5,0 1,0 0.5,0 0.5,0 1,0 0.5,0 0.5,0 0.5,0 0,1 -0.5,0 -1,0 -0.5,0 -0.5,0 -1,0 -0.5,0 -0.5,0 -1,0 -0.5,0 0,-1 z m 7,0 0.5,0 1,0 0.5,0 0.5,0 0.5,0 0,0.5 0,0.5 -0.5,0 -1,0 -0.5,0 -0.5,0 -0.5,0 0,-1 z m 8.173828,0.705078 0.707031,0.707031 L 10.03125,26.261719 9.3242188,25.552734 24.173828,10.705078 Z M 7,12 7.5,12 8,12 8,20 7,20 7,12 Z m 2,0 0.5,0 1,0 0.5,0 0.5,0 1,0 0.5,0 0.5,0 1,0 0.5,0 0,6.462891 L 13.462891,20 9,20 9,12 Z m 7,0 0.5,0 0.5,0 0.5,0 1,0 0.5,0 0,2.464844 -3,2.998047 L 16,12 Z m 9.587891,0.119141 0.707031,0.707031 L 11.447266,27.675781 10.738281,26.96875 25.587891,12.119141 Z M 22,18.535156 l 0,0.957032 a 0.50005,0.50005 0 0 0 0,0.03711 l 0,3.220703 0,4.240234 -4.25,0 -4.203125,0 L 22,18.535156 Z m -13.1640625,7.945313 1.6835935,1.683593 -2.5253904,0.841797 0.8417969,-2.52539 z" color="#000" font-family="sans-serif" font-weight="400" overflow="visible" transform="translate(11 1012.362)" white-space="normal" style="line-height:normal;text-indent:0;text-align:start;text-decoration-line:none;text-decoration-style:solid;text-decoration-color:#000;text-transform:none;block-progression:tb;isolation:auto;mix-blend-mode:normal"/></g></svg>