<?xml version="1.0" encoding="iso-8859-1"?>
<!-- Generator: Adobe Illustrator 19.0.0, SVG Export Plug-In . SVG Version: 6.00 Build 0)  -->
<svg version="1.1" id="Capa_1" xmlns="http://www.w3.org/2000/svg" xmlns:xlink="http://www.w3.org/1999/xlink" x="0px" y="0px"
	 viewBox="0 0 409.6 409.6" style="enable-background:new 0 0 409.6 409.6;" xml:space="preserve">
<path style="fill:#3A556A;" d="M204.803,409.6C91.875,409.6,0.002,317.726,0.002,204.802C0.002,91.874,91.875,0,204.803,0
	c112.921,0,204.795,91.874,204.795,204.802c0,19.401-2.712,38.592-8.055,57.046c-1.589,5.519-7.359,8.674-12.864,7.091
	c-5.512-1.596-8.684-7.359-7.088-12.867c4.795-16.577,7.23-33.827,7.23-51.27c0-101.471-82.547-184.025-184.018-184.025
	S20.779,103.331,20.779,204.802s82.554,184.021,184.025,184.021c32.356,0,54.973-3.02,81.816-18.954
	c9.624-5.712,13.804-10.267,12.086-58.415c-0.203-5.735,4.274-10.547,10.01-10.754c5.607-0.25,10.544,4.274,10.754,10.01
	c1.704,47.658-1.143,64.502-22.245,77.028C266.418,406.022,240.007,409.6,204.803,409.6z"/>
<path style="fill:#27A2DB;" d="M340.531,314.868c7.394-6.861,5.862-22.235-1.258-29.379l-20.785-17.413
	c-19.978-16.394-34.8-29.878-63.331-4.175c-8.131,7.325-16.388,28.818-42.408,10.866c-21.569-14.882-66.071-56.822-64.81-82.382
	c0.708-14.356,13.624-21.918,20.557-26.705c24.256-16.748,14.048-41.301-2.277-61.335c0,0-13.553-16.795-18.395-22.111
	c-6.792-7.457-16.649-5.958-25.828-0.044c0,0-40.16,25.36-43.429,74.828c-2.346,35.502,11.207,65.122,64.53,126.846
	c26.319,30.466,77.036,76.318,147.694,64.191C305.868,345.469,311.13,342.152,340.531,314.868z"/>
<g>
	<path style="fill:#2F4859;" d="M316.481,333.45l-63.036-67.822c3.244-3.844,10.143-8.482,10.143-8.482l66.806,67.036
		c0,0-8.435,7.672-12.403,10.783L316.481,333.45z"/>
	<path style="fill:#2F4859;" d="M108.508,93.382l66.53,66.759c0,0-0.592,1.578-15.985,12.376l-63.462-63.68
		C95.591,108.837,104.839,95.736,108.508,93.382z"/>
</g>
<g>
</g>
<g>
</g>
<g>
</g>
<g>
</g>
<g>
</g>
<g>
</g>
<g>
</g>
<g>
</g>
<g>
</g>
<g>
</g>
<g>
</g>
<g>
</g>
<g>
</g>
<g>
</g>
<g>
</g>
</svg>
