<?xml version="1.0" encoding="iso-8859-1"?>
<!-- Generator: Adobe Illustrator 19.0.0, SVG Export Plug-In . SVG Version: 6.00 Build 0)  -->
<svg version="1.1" id="Layer_1" xmlns="http://www.w3.org/2000/svg" xmlns:xlink="http://www.w3.org/1999/xlink" x="0px" y="0px"
	 viewBox="0 0 511.982 511.982" style="enable-background:new 0 0 511.982 511.982;" xml:space="preserve">
<circle style="fill:#88EB92;" cx="255.991" cy="255.991" r="255.991"/>
<path style="fill:#73D17C;" d="M493.674,351.229L284.396,141.95l0,0l0,0c-15.064-20.048-37.769-34.342-64.561-38.154
	c-26.774-3.812-52.558,3.61-72.606,18.674s-34.361,37.769-38.154,64.543c-3.812,26.792,3.61,52.576,18.674,72.624
	c4.087,5.461,8.76,10.482,13.927,14.99l0,0l216.243,216.261C419.565,464.097,468.605,413.775,493.674,351.229z"/>
<g>
	<g>
		<path style="fill:#F8F8F8;" d="M219.834,103.796c-26.774-3.812-52.558,3.61-72.606,18.674s-34.361,37.769-38.154,64.543
			c-3.812,26.792,3.61,52.576,18.674,72.624c15.045,20.048,37.769,34.342,64.543,38.154c26.774,3.793,52.576-3.61,72.625-18.674
			c20.048-15.064,34.342-37.769,38.154-64.543c3.793-26.792-3.61-52.576-18.674-72.624
			C269.332,121.902,246.626,107.608,219.834,103.796z M161.925,142.024c15.027-11.289,34.379-16.86,54.482-14.001
			c20.085,2.859,37.128,13.579,48.435,28.625c11.289,15.027,16.86,34.379,14.001,54.482c-2.859,20.103-13.579,37.128-28.625,48.435
			c-15.045,11.289-34.397,16.86-54.482,14.001c-20.103-2.859-37.146-13.579-48.435-28.625
			c-11.307-15.027-16.86-34.379-14.001-54.482C136.141,170.355,146.88,153.331,161.925,142.024z"/>
		<path style="fill:#F8F8F8;" d="M213.384,149.336c-14.221-2.016-27.892,1.906-38.539,9.896
			c-10.629,7.99-18.216,20.048-20.232,34.251c-2.016,14.202,1.906,27.892,9.896,38.539c7.99,10.629,20.048,18.216,34.251,20.232
			c14.202,2.016,27.892-1.924,38.52-9.914c10.647-7.99,18.234-20.03,20.25-34.232c2.016-14.221-1.924-27.892-9.914-38.539
			C239.626,158.938,227.586,151.351,213.384,149.336z M182.652,169.622c7.972-6.011,18.234-8.961,28.9-7.44
			c10.666,1.521,19.7,7.202,25.693,15.192c5.992,7.972,8.943,18.234,7.44,28.9c-1.521,10.666-7.22,19.7-15.192,25.693
			c-7.972,5.992-18.252,8.943-28.9,7.44c-10.666-1.521-19.718-7.22-25.711-15.192c-5.992-7.972-8.943-18.234-7.422-28.9
			S174.662,175.615,182.652,169.622z"/>
	</g>
	<polygon style="fill:#68606E;" points="354.436,386.323 297.242,328.047 266.07,358.633 206.072,200.794 362.756,263.743 
		331.584,294.346 388.778,352.622 	"/>
</g>
<path style="fill:#58515E;" d="M354.436,386.323l-57.194-58.276l5.296-5.204l57.194,58.276l0,0L354.436,386.323z M271.366,353.428
	l-5.296,5.204l-59.998-157.839l8.576,3.445L271.366,353.428z"/>
<g>
</g>
<g>
</g>
<g>
</g>
<g>
</g>
<g>
</g>
<g>
</g>
<g>
</g>
<g>
</g>
<g>
</g>
<g>
</g>
<g>
</g>
<g>
</g>
<g>
</g>
<g>
</g>
<g>
</g>
</svg>
