<?xml version="1.0" encoding="iso-8859-1"?>
<!-- Generator: Adobe Illustrator 19.0.0, SVG Export Plug-In . SVG Version: 6.00 Build 0)  -->
<svg version="1.1" id="Layer_1" xmlns="http://www.w3.org/2000/svg" xmlns:xlink="http://www.w3.org/1999/xlink" x="0px" y="0px"
	 viewBox="0 0 511.982 511.982" style="enable-background:new 0 0 511.982 511.982;" xml:space="preserve">
<circle style="fill:#FF8C8A;" cx="255.991" cy="255.991" r="255.991"/>
<path style="fill:#FA7876;" d="M511.579,270.45c-7.367,132.293-115.177,237.793-248.422,241.44L120.051,368.785L391.949,150.82
	L511.579,270.45z"/>
<polygon style="fill:#F8F8F8;" points="216.407,114.205 355.334,114.205 391.949,150.82 391.949,339.501 216.407,339.501 "/>
<polygon style="fill:#D9D9DD;" points="355.334,114.205 355.334,150.82 391.949,150.82 "/>
<path style="fill:#F7F7F8;" d="M381.375,399.701l-24.63-42.387l-47.738,15.98l24.08,9.309
	c-11.93,24.373-55.618,45.503-104.768,7.477c30.622,50.322,105.098,50.212,128.243,1.979L381.375,399.701z"/>
<g>
	<polygon style="fill:#B3B3BD;" points="237.922,157.93 370.434,157.93 370.434,164.528 237.922,164.528 	"/>
	<polygon style="fill:#B3B3BD;" points="237.922,176.036 370.434,176.036 370.434,182.633 237.922,182.633 	"/>
	<polygon style="fill:#B3B3BD;" points="237.922,195.223 370.434,195.223 370.434,201.82 237.922,201.82 	"/>
	<polygon style="fill:#B3B3BD;" points="237.922,214.593 370.434,214.593 370.434,221.19 237.922,221.19 	"/>
	<polygon style="fill:#B3B3BD;" points="237.922,232.681 370.434,232.681 370.434,239.278 237.922,239.278 	"/>
	<polygon style="fill:#B3B3BD;" points="237.922,251.868 370.434,251.868 370.434,258.465 237.922,258.465 	"/>
	<polygon style="fill:#B3B3BD;" points="237.922,269.992 363.086,269.992 363.086,276.589 237.922,276.589 	"/>
	<polygon style="fill:#B3B3BD;" points="237.922,289.179 328.212,289.179 328.212,295.776 237.922,295.776 	"/>
</g>
<polygon style="fill:#F8F8F8;" points="120.051,143.49 258.978,143.49 295.593,180.104 295.593,368.785 120.051,368.785 "/>
<polygon style="fill:#D9D9DD;" points="258.978,143.49 258.978,180.104 295.593,180.104 "/>
<g>
	<polygon style="fill:#B3B3BD;" points="140.539,189.725 273.052,189.725 273.052,196.323 140.539,196.323 	"/>
	<polygon style="fill:#B3B3BD;" points="140.539,207.813 273.052,207.813 273.052,214.41 140.539,214.41 	"/>
	<polygon style="fill:#B3B3BD;" points="140.539,227 273.052,227 273.052,233.597 140.539,233.597 	"/>
	<polygon style="fill:#B3B3BD;" points="140.539,246.37 273.052,246.37 273.052,252.985 140.539,252.985 	"/>
	<polygon style="fill:#B3B3BD;" points="140.539,264.476 273.052,264.476 273.052,271.073 140.539,271.073 	"/>
	<polygon style="fill:#B3B3BD;" points="140.539,283.663 273.052,283.663 273.052,290.26 140.539,290.26 	"/>
	<polygon style="fill:#B3B3BD;" points="140.539,301.787 265.685,301.787 265.685,308.384 140.539,308.384 	"/>
	<polygon style="fill:#B3B3BD;" points="140.539,320.974 230.811,320.974 230.811,327.571 140.539,327.571 	"/>
</g>
<g>
</g>
<g>
</g>
<g>
</g>
<g>
</g>
<g>
</g>
<g>
</g>
<g>
</g>
<g>
</g>
<g>
</g>
<g>
</g>
<g>
</g>
<g>
</g>
<g>
</g>
<g>
</g>
<g>
</g>
</svg>
