<?xml version="1.0" encoding="iso-8859-1"?>
<!-- Generator: Adobe Illustrator 19.0.0, SVG Export Plug-In . SVG Version: 6.00 Build 0)  -->
<svg version="1.1" id="Capa_1" xmlns="http://www.w3.org/2000/svg" xmlns:xlink="http://www.w3.org/1999/xlink" x="0px" y="0px"
	 viewBox="0 0 512 512" style="enable-background:new 0 0 512 512;" xml:space="preserve">
<circle style="fill:#FFDA00;" cx="256" cy="256" r="256"/>
<path style="fill:#FFB600;" d="M512,256c0-4.082-0.106-8.139-0.295-12.174l-91.848-91.848l-23.656,21.416L299.807,77L202,146.381
	L92.144,371.333L231.651,510.84c8.016,0.756,16.135,1.16,24.349,1.16C397.385,512,512,397.385,512,256z"/>
<rect x="92.14" y="151.98" style="fill:#8F8FF7;" width="327.71" height="219.36"/>
<g>
	<rect x="255.57" y="151.98" style="fill:#6666ED;" width="164.28" height="219.36"/>
	<path style="fill:#6666ED;" d="M419.856,371.333L297.532,256.901c-23.372-21.864-59.693-21.864-83.065,0L92.144,371.333H419.856z"
		/>
</g>
<g>
	<path style="fill:#5A54E0;" d="M297.532,256.901c-11.798-11.037-26.895-16.494-41.961-16.388v130.82h164.285L297.532,256.901z"/>
	<path style="fill:#5A54E0;" d="M92.144,151.977l118.368,110.732c25.598,23.946,65.378,23.946,90.976,0l118.368-110.732
		L92.144,151.977L92.144,151.977z"/>
</g>
<path style="fill:#3A41CC;" d="M255.571,151.978V280.66c16.487,0.105,33.006-5.872,45.917-17.95l118.369-110.731L255.571,151.978
	L255.571,151.978z"/>
<rect x="125.67" y="79.65" style="fill:#FFFFFF;" width="26.5" height="201.02"/>
<rect x="137.12" y="79.65" style="fill:#EBEBF0;" width="15.05" height="201.02"/>
<polygon style="fill:#FA5D0F;" points="299.807,187.541 125.667,187.541 125.667,77 299.807,77 254.379,132.271 "/>
<polygon style="fill:#D84C0F;" points="125.667,132.271 125.667,187.542 299.807,187.542 254.379,132.271 "/>
<g>
</g>
<g>
</g>
<g>
</g>
<g>
</g>
<g>
</g>
<g>
</g>
<g>
</g>
<g>
</g>
<g>
</g>
<g>
</g>
<g>
</g>
<g>
</g>
<g>
</g>
<g>
</g>
<g>
</g>
</svg>
