<svg height="511pt" viewBox="0 -91 511.99976 511" width="511pt" xmlns="http://www.w3.org/2000/svg"><path d="m511.996094 21.019531c0-12.296875-9.644532-20.445312-19.738282-20.519531h-62.671874v329.65625h53.953124c14.980469 0 27.742188-12.019531 28.425782-27.554688.050781-1.109374.03125-279.644531.03125-281.582031zm0 0" fill="#b66652"/><path d="m486.246094 83.359375c0-45.269531-25.367188-82.859375-56.660156-82.859375-31.292969 0-56.660157 37.589844-56.660157 82.859375s25.367188 81.96875 56.660157 81.96875c31.292968 0 56.660156-36.699219 56.660156-81.96875zm0 0" fill="#ff5368"/><path d="m429.585938 165.328125c-31.292969 0-56.660157 37.59375-56.660157 82.859375 0 45.269531 25.367188 81.96875 56.660157 81.96875 31.292968 0 56.660156-36.695312 56.660156-81.96875 0-45.265625-25.367188-82.859375-56.660156-82.859375zm0 0" fill="#ec4b62"/><path d="m351.292969 72.796875v185.015625c0 26.742188 14.535156 52.230469 40 70.144531 4.953125 3.480469 12.191406 2.652344 15.785156-1.21875 3.242187-3.492187 5.082031-7.585937 5.914063-11.644531 2.558593-12.359375-4.457032-17.453125-1.773438-25.296875 2.414062-7.09375 9.648438-5.941406 17.742188-14.796875 7.601562-8.207031 7.019531-18.945312-2.320313-26.632812-5.949219-4.90625-4.882813-12.03125 2.472656-16.128907 15.441407-8.585937 16.945313-24.09375 3.25-33.832031-6.535156-4.652344-6.136719-11.820312.742188-16.167969 14.53125-9.191406 14.539062-24.671875.003906-33.863281-6.914063-4.371094-7.253906-11.539062-.746094-16.171875 13.695313-9.738281 12.191407-25.246094-3.25-33.828125-7.246093-4.042969-8.5-11.164062-2.472656-16.132812 6.25-5.140626 8.566406-11.628907 7.164063-17.816407-1.933594-8.398437-10.96875-14.554687-15.097657-16.464843-9.132812-4.289063-9.230469-10.589844-6.625-18.261719 3.109375-8.929688 1.167969-19.261719-4.921875-25.738281-3.894531-4.144532-11.257812-4.546876-15.867187-1.308594-26.050781 18.324218-40 44.023437-40 70.144531zm0 0" fill="#28d05b"/><path d="m360.558594.511719h-51.507813l-61.8125 329.644531c2.722657 0 104.660157 0 104.222657 0 15.632812 0 28.957031-12.019531 29.667968-27.554688.050782-1.105468.035156-279.632812.035156-281.570312 0-12.292969-10.066406-20.441406-20.605468-20.519531zm0 0" fill="#b66652"/><path d="m20.644531 330.15625h279.914063c17.070312 0 30.90625-13.757812 30.90625-30.734375v-278.390625c0-18.253906-22.191406-27.398438-35.171875-14.488281l-290.21875 288.632812c-12.976563 12.910157-3.785157 34.980469 14.570312 34.980469zm0 0" fill="#ffc98c"/><g fill="#ffb578"><path d="m300.558594 3.257812v295.996094h-297.691406c-7.851563 12.988282 1.238281 30.902344 17.777343 30.902344h279.914063c17.066406 0 30.90625-13.757812 30.90625-30.734375v-278.390625c0-16.378906-17.859375-25.40625-30.90625-17.773438zm0 0"/><path d="m235.261719 135.992188c0 4.269531-3.457031 7.726562-7.726563 7.726562-4.265625 0-7.726562-3.457031-7.726562-7.726562 0-4.265626 3.460937-7.726563 7.726562-7.726563 4.269532 0 7.726563 3.460937 7.726563 7.726563zm0 0"/><path d="m266.167969 187.503906c0 4.269532-3.457031 7.726563-7.722657 7.726563-4.269531 0-7.726562-3.457031-7.726562-7.726563 0-4.265625 3.457031-7.726562 7.726562-7.726562 4.265626 0 7.722657 3.460937 7.722657 7.726562zm0 0"/><path d="m129.320312 237.039062c0 4.265626-3.457031 7.726563-7.726562 7.726563-4.265625 0-7.726562-3.460937-7.726562-7.726563 0-4.265624 3.460937-7.726562 7.726562-7.726562 4.269531 0 7.726562 3.460938 7.726562 7.726562zm0 0"/><path d="m185.332031 278.535156c0 4.269532-3.457031 7.726563-7.726562 7.726563-4.265625 0-7.726563-3.457031-7.726563-7.726563 0-4.265625 3.460938-7.726562 7.726563-7.726562 4.269531 0 7.726562 3.460937 7.726562 7.726562zm0 0"/><path d="m203.277344 210.730469c0 4.269531-3.460938 7.726562-7.726563 7.726562-4.269531 0-7.726562-3.457031-7.726562-7.726562 0-4.265625 3.457031-7.726563 7.726562-7.726563 4.265625 0 7.726563 3.460938 7.726563 7.726563zm0 0"/><path d="m279.574219 289.464844c0 4.269531-3.457031 7.726562-7.726563 7.726562-4.265625 0-7.726562-3.457031-7.726562-7.726562 0-4.265625 3.460937-7.726563 7.726562-7.726563 4.269532 0 7.726563 3.460938 7.726563 7.726563zm0 0"/></g></svg>