<?xml version="1.0" encoding="iso-8859-1"?>
<!-- Generator: Adobe Illustrator 19.0.0, SVG Export Plug-In . SVG Version: 6.00 Build 0)  -->
<svg version="1.1" id="Layer_1" xmlns="http://www.w3.org/2000/svg" xmlns:xlink="http://www.w3.org/1999/xlink" x="0px" y="0px"
	 viewBox="0 0 496 496" style="enable-background:new 0 0 496 496;" xml:space="preserve">
<g>
	<g>
		<g>
			<path d="M400.32,306.768c-0.384-0.336-0.816-0.656-1.232-0.96c-0.32-0.208-0.624-0.4-0.944-0.608
				c-0.112-0.064-0.24-0.144-0.368-0.224c-0.096-0.064-0.208-0.128-0.336-0.192c-4.224-2.464-8.192-3.488-11.344-4.288
				c-0.432-0.144-0.896-0.288-1.344-0.416c-10.72-3.552-21.168-11.344-29.44-21.936c-3.872-5.04-6.96-10.032-9.184-14.944
				c0.368-0.176,0.784-0.336,1.248-0.528c0.4-0.096,0.8-0.208,1.2-0.352c6.944-2.4,14.272-5.216,21.68-11.168
				c0.64-0.48,1.248-0.976,1.824-1.52c1.712-1.664,3.936-4.016,5.664-7.456c2.944-5.696,3.28-12.688,0.944-18.624
				c-0.208-0.576-0.432-1.12-0.688-1.648c-3.76-7.664-9.984-11.2-12.64-12.72c-6.72-3.808-14.928-4.784-22.496-2.576
				c0.048-1.248,0.08-2.496,0.096-3.696l0.048-1.936c0.304-10.352,0.624-21.072-0.992-32.464c0-0.048,0-0.08-0.016-0.128
				c-0.032-0.288-0.08-0.544-0.128-0.832c-3.904-21.072-17.168-40.928-36.432-54.496c-12.608-8.816-27.904-14.272-44.048-15.76
				c-4.352-0.432-8.672-0.624-12.992-0.624l-1.76,0.016c-16.16,0.096-39.632,3.52-59.68,19.232
				c-12.72,9.92-22.816,23.072-29.392,38.496c-6.064,15.328-5.824,30.272-4.992,45.392l0.384,6.688
				c0.016,0.24,0.032,0.448,0.048,0.672l-1.824-0.544c-0.352-0.112-0.72-0.208-1.056-0.288c-7.408-1.616-15.264-0.048-21.632,4.336
				c-0.336,0.208-0.64,0.416-0.96,0.656c-9.232,6.352-11.44,14.368-11.68,20.624c0,1.008,0.16,2.848,0.368,3.84
				c1.056,5.504,4.112,10.624,8.576,14.384c1.28,1.072,2.48,1.936,3.792,2.8c0.368,0.32,0.768,0.608,1.152,0.864
				c6.448,4.32,13.088,6.672,18.416,8.56l2.096,0.832c-0.256,0.592-0.576,1.28-0.96,2.08c-5.776,11.376-14.288,21.136-24.608,28.208
				c-5.024,3.44-10.944,6.128-17.072,7.792v0.048c-0.688,0.16-1.36,0.368-1.696,0.464c-2.832,0.816-10.384,2.976-15.12,10.16
				c-0.928,1.248-2.064,3.44-2.592,4.912c-2.608,7.328-1.04,15.696,3.968,21.664c2.672,3.264,5.584,5.152,7.664,6.304
				c0.096,0.048,0.176,0.096,0.256,0.144v0.016c7.808,4.48,15.904,6.512,22.4,8.16l1.584,0.384c0.272,0.08,0.528,0.144,0.816,0.208
				l0.16,0.048c0.064,0.016,0.144,0.016,0.208,0.032l3.088,0.656c0.512,2.32,1.056,4.72,1.76,7.04
				c2.016,6.848,7.616,12.08,14.816,13.68c4.656,0.976,9.536,0.272,11.968-0.464c9.84-1.68,18.944-2.624,24.496-1.232
				c5.44,1.424,11.184,5.136,17.84,9.44c2.464,1.6,4.944,3.184,7.488,4.736c0.096,0.08,0.208,0.144,0.336,0.224
				c8.496,5.28,18.928,10.752,31.664,11.232c2.096,0.112,4.192,0.16,6.272,0.16c5.392,0,10.688-0.32,14.88-0.576
				c0.528,0,1.168-0.032,1.696-0.08c7.936-0.784,15.6-3.36,22.288-7.472c0.096-0.048,0.176-0.112,0.272-0.16
				c4.208-2.416,8.256-4.976,12.224-7.504c5.84-3.728,11.36-7.248,16.704-9.648c0.992-0.16,2.928-0.256,4.4-0.336l2.928-0.176
				c0.016,0,0.048-0.016,0.064-0.016l4.352-0.064c6.336,0,12.8,0.432,18.88,1.248c1.488,0.24,3.872,0.256,5.344,0.096
				c5.344-0.656,10.512-3.584,13.6-7.616c2.784-3.52,3.616-6.848,3.744-7.344c0.112-0.336,0.224-0.704,0.32-1.056
				c0-0.016,0.016-0.032,0.016-0.048l1.024-3.552c0.016-0.096,0.048-0.192,0.08-0.304c7.088-1.216,13.248-3.488,18.8-5.504
				l1.92-0.704c0.576-0.208,1.152-0.432,1.712-0.688l0.016,0.016c3.152-1.28,9.728-3.968,14.608-10.784
				c0.256-0.336,0.464-0.688,0.688-1.04c3.056-4.768,4.144-10.592,3.008-16.16C407.472,314.64,404.528,309.984,400.32,306.768z
				 M344.352,330.432c-3.136,3.584-4.88,7.536-6.128,11.36c-6.176-0.496-12.288-0.624-18.448-0.448c-0.384,0-0.768,0.016-1.12,0.048
				l-2.896,0.16c-4.24,0.24-9.024,0.496-13.936,2.256c-0.736,0.272-1.44,0.608-2.112,0.96c-7.392,3.344-14.096,7.6-20.576,11.744
				c-3.408,2.144-6.832,4.352-10.432,6.432c-0.464,0.24-0.928,0.48-1.36,0.768c-2.624,1.68-5.712,2.736-8.528,3.008
				c-4.544,0.288-9.152,0.608-13.824,0.608c-1.136,0-2.272-0.032-3.776-0.08c-0.384-0.048-0.8-0.08-1.216-0.016
				c-5.216-0.192-10.592-3.056-15.664-6.176c-0.208-0.128-0.4-0.256-0.608-0.384c-2.416-1.456-4.768-2.976-7.104-4.48
				c-8.224-5.312-16.72-10.816-27.312-13.584c-9.344-2.32-20.56-1.984-31.024-0.4c-0.288-1.088-0.656-2.224-1.088-3.488
				l-0.816-2.096c-0.192-0.544-0.72-1.856-0.992-2.384c-1.712-3.392-4.544-6.08-8.048-7.568c-3.552-1.52-7.008-2.32-10.384-3.008
				c2-1.152,3.936-2.368,5.84-3.648c14.768-10.128,26.88-24.016,35.152-40.304c3.392-6.864,7.024-16.032,4.704-25.856
				c-1.216-5.2-4.144-9.824-8.592-13.616c5.168-1.808,9.264-6.48,10.592-11.856c0.176-0.736,0.32-1.488,0.4-2.256
				c0.752-7.44,0.288-14.656-0.16-21.648l-0.368-6.32c-0.656-11.984-0.896-22.656,2.656-31.648
				c4.272-10,10.992-18.768,19.488-25.392c10.096-7.92,24.368-12.336,41.728-12.448c3.216,0,6.448,0.128,9.92,0.48
				c10.768,0.992,20.72,4.48,28.752,10.096c12.32,8.688,20.8,20.976,23.28,33.792c1.216,8.688,0.96,17.584,0.672,27.008
				l-0.064,2.256c-0.032,2.496-0.144,4.976-0.24,7.408c-0.192,4.48-0.352,8.864-0.208,13.184c0,0.24,0.192,2.768,0.208,3.008
				c0.48,6.208,4.528,11.584,10.368,13.776c0.544,0.208,1.104,0.384,1.68,0.56c-1.952,1.6-3.776,3.472-5.392,5.664
				c-0.016,0.032-0.048,0.064-0.064,0.096c-4.64,6.224-5.76,14.64-3.168,23.248c0.16,0.56,0.32,1.12,0.528,1.664
				c3.376,9.024,8.512,18.016,15.328,26.832c8.416,10.8,18.272,19.488,29.088,25.696
				C353.616,323.968,348.672,326.176,344.352,330.432z"/>
			<path d="M363.968,0H131.984C59.2,0,0,59.2,0,131.984v231.984C0,436.768,59.2,496,131.984,496h231.984
				C436.768,496,496,436.768,496,363.968V131.984C496,59.2,436.768,0,363.968,0z M464,363.968C464,419.12,419.12,464,363.968,464
				H131.984C76.864,464,32,419.12,32,363.968V131.984C32,76.864,76.864,32,131.984,32h231.984C419.12,32,464,76.864,464,131.984
				V363.968z"/>
		</g>
	</g>
</g>
<g>
</g>
<g>
</g>
<g>
</g>
<g>
</g>
<g>
</g>
<g>
</g>
<g>
</g>
<g>
</g>
<g>
</g>
<g>
</g>
<g>
</g>
<g>
</g>
<g>
</g>
<g>
</g>
<g>
</g>
</svg>
