<svg height="480pt" viewBox="0 0 480 480" width="480pt" xmlns="http://www.w3.org/2000/svg"><path d="m320 0h-16v72h-304v16h320zm0 0"/><path d="m384 352h96v-16h-80v-168h80v-16h-96zm0 0"/><path d="m400 72v-72h-16v88h96v-16zm0 0"/><path d="m384 480h16v-48h80v-16h-96zm0 0"/><path d="m181.335938 464h-181.335938v16h186.664062l64-48h53.335938v48h16v-64h-74.664062zm0 0"/><path d="m304 336h-74.664062l-64 48h-21.335938v16h26.664062l64-48h85.335938v-200h-320v16h304zm0 0"/><path d="m112 200c-39.746094.042969-71.957031 32.253906-72 72 0 36.800781 58.71875 122.847656 65.414062 132.542969l6.585938 9.535156 6.585938-9.535156c6.695312-9.695313 65.414062-95.742188 65.414062-132.542969-.042969-39.746094-32.253906-71.957031-72-72zm0 185.695312c-20.136719-30.457031-56-89.695312-56-113.695312 0-30.929688 25.070312-56 56-56s56 25.070312 56 56c0 24-35.871094 83.199219-56 113.695312zm0 0"/><path d="m112 240c-17.671875 0-32 14.328125-32 32s14.328125 32 32 32 32-14.328125 32-32-14.328125-32-32-32zm0 48c-8.835938 0-16-7.164062-16-16s7.164062-16 16-16 16 7.164062 16 16-7.164062 16-16 16zm0 0"/><path d="m0 384h80v16h-80zm0 0"/><path d="m440 112h16v16h-16zm0 0"/><path d="m408 112h16v16h-16zm0 0"/><path d="m376 112h16v16h-16zm0 0"/><path d="m344 112h16v16h-16zm0 0"/><path d="m344 152h16v16h-16zm0 0"/><path d="m344 184h16v16h-16zm0 0"/><path d="m344 216h16v16h-16zm0 0"/><path d="m344 248h16v16h-16zm0 0"/><path d="m344 280h16v16h-16zm0 0"/><path d="m344 312h16v16h-16zm0 0"/><path d="m344 344h16v16h-16zm0 0"/><path d="m344 376h16v16h-16zm0 0"/><path d="m312 376h16v16h-16zm0 0"/><path d="m280 376h16v16h-16zm0 0"/><path d="m248 376h16v16h-16zm0 0"/><path d="m215.027344 389.65625 11.3125-11.316406 11.316406 11.316406-11.316406 11.3125zm0 0"/><path d="m191.027344 413.652344 11.3125-11.3125 11.316406 11.3125-11.316406 11.3125zm0 0"/><path d="m168 424h16v16h-16zm0 0"/><path d="m136 424h16v16h-16zm0 0"/><path d="m104 424h16v16h-16zm0 0"/></svg>