<svg height="512pt" viewBox="0 0 511 512" width="512pt" xmlns="http://www.w3.org/2000/svg"><path d="m512.5 261.605469c0 138.269531-112.097656 250.363281-250.378906 250.363281s-250.378906-112.09375-250.378906-250.363281c0-138.273438 112.097656-250.363281 250.378906-250.363281s250.378906 112.089843 250.378906 250.363281zm0 0" fill="#5592ca"/><path d="m268.164062 34.875c1.082032.425781 1.601563 115.707031 1.824219 189.941406h-34.4375v-183.941406c0-5.644531 4.574219-10.21875 10.21875-10.21875 7.910157 0 15.453125 1.484375 22.394531 4.21875zm-206.703124 37.039062c-7.359376-.8125-15.144532-.308593-22.726563 1.722657-5.449219 1.460937-8.6875 7.0625-7.226563 12.515625l37.160157 138.664062h35.738281c-18.148438-67.734375-40.257812-150.269531-40.28125-150.394531-.269531-1.363281-1.285156-2.355469-2.664062-2.507813zm268.011718 3.835938c-6.941406-2.730469-14.480468-4.21875-22.390625-4.21875-5.644531 0-10.222656 4.578125-10.222656 10.21875v143.066406h34.296875c-.273438-69.40625-.785156-148.714844-1.683594-149.066406zm-145.019531-75.75c-5.644531 0-10.21875 4.574219-10.21875 10.21875v214.597656h34.519531c-.160156-66.890625-.660156-220.109375-1.910156-220.601562-6.941406-2.730469-14.480469-4.214844-22.390625-4.214844zm-61.320313 40.875c-5.640624 0-10.21875 4.574219-10.21875 10.21875v173.722656h34.40625c-.238281-74.125-.757812-179.320312-1.792968-179.726562-6.941406-2.730469-14.480469-4.214844-22.394532-4.214844zm0 0" fill="#f1ca50"/><path d="m358.183594 337.207031h-20.4375c-5.644532 0-10.21875-4.574219-10.21875-10.21875v-245.253906c0-2.238281.726562-4.304687 1.945312-5.984375 22.789063 8.945312 38.929688 31.117188 38.929688 57.078125v194.160156c0 5.644531-4.574219 10.21875-10.21875 10.21875zm-51.089844-51.09375v-194.160156c0-25.960937-16.144531-48.136719-38.929688-57.078125-1.222656 1.679688-1.949218 3.746094-1.949218 5.984375v245.253906c0 5.644531 4.574218 10.21875 10.21875 10.21875h20.441406c5.644531 0 10.21875-4.578125 10.21875-10.21875zm-61.316406-30.65625v-194.160156c0-25.960937-16.144532-48.136719-38.933594-57.082031-1.21875 1.683594-1.945312 3.75-1.945312 5.984375v245.257812c0 5.640625 4.574218 10.21875 10.21875 10.21875h20.4375c5.644531 0 10.222656-4.578125 10.222656-10.21875zm-61.320313 40.875v-194.160156c0-25.960937-16.140625-48.136719-38.929687-57.082031-1.21875 1.683594-1.949219 3.75-1.949219 5.988281v245.253906c0 5.644531 4.578125 10.21875 10.222656 10.21875h20.4375c5.644531 0 10.21875-4.574219 10.21875-10.21875zm-20.367187 8.203125-50.257813-187.542968c-6.71875-25.074219-28.046875-42.335938-52.371093-45.078126-.746094 1.941407-.917969 4.140626-.335938 6.304688l63.480469 236.894531c1.460937 5.453125 7.0625 8.6875 12.515625 7.226563l19.742187-5.289063c5.449219-1.460937 8.6875-7.0625 7.226563-12.515625zm0 0" fill="#fdf385"/><path d="m414.4375 180.332031-51.570312 172.035157-46.050782 153.625c-17.605468 3.921874-35.90625 6.007812-54.695312 6.007812-74.46875 0-141.332032-32.523438-187.195313-84.121094l-22.636719-75.511718-51.570312-172.035157c-.984375-3.28125 1.472656-6.578125 4.894531-6.578125h118.210938c3.597656 0 6.980469 1.863282 8.773437 4.980469 8.8125 15.339844 25.355469 25.675781 44.320313 25.675781h61.320312c18.960938 0 35.503907-10.335937 44.320313-25.675781 1.792968-3.117187 5.175781-4.980469 8.773437-4.980469h118.210938c3.421875 0 5.878906 3.296875 4.894531 6.578125zm0 0" fill="#fc544d"/><path d="m414.4375 180.296875-65.269531 217.738281c-14.917969 49.773438-60.730469 83.863282-112.695313 83.863282s-97.773437-34.089844-112.695312-83.863282l-68.800782-224.3125h68.847657c3.597656 0 6.980469 1.859375 8.773437 4.980469 8.816406 15.339844 25.359375 25.675781 44.324219 25.675781h61.316406c18.964844 0 35.507813-10.335937 44.324219-25.675781 1.789062-3.121094 5.175781-4.980469 8.773438-4.980469h118.207031c3.421875 0 5.878906 3.296875 4.894531 6.574219zm0 0" fill="#fd6c55"/><path d="m409.429688 511.96875h-143.367188c-39.429688 0-71.390625-31.964844-71.390625-71.390625v-.183594c0-11.265625 9.132813-20.398437 20.398437-20.398437h245.351563c11.265625 0 20.398437 9.132812 20.398437 20.398437v.183594c0 39.425781-31.964843 71.390625-71.390624 71.390625zm0 0" fill="#ebae56"/><path d="m409.429688 511.96875h-92.269532c-39.429687 0-71.390625-31.964844-71.390625-71.390625v-.183594c0-11.265625 9.132813-20.398437 20.398438-20.398437h194.253906c11.265625 0 20.398437 9.132812 20.398437 20.398437v.183594c0 39.425781-31.964843 71.390625-71.390624 71.390625zm0 0" fill="#fbc56d"/><path d="m486.949219 429.195312c0 16.929688-15.414063 30.65625-34.429688 30.65625-2.792969 0-5.507812-.296874-8.105469-.855468-2.152343-.464844-4.363281.265625-5.851562 1.886718-5.207031 5.667969-12.453125 9.1875-20.476562 9.1875-9.625 0-18.140626-5.0625-23.347657-12.832031-1.820312-2.71875-5.449219-3.582031-8.234375-1.871093-4.617187 2.828124-10.210937 4.484374-16.238281 4.484374-5.582031 0-10.789063-1.421874-15.195313-3.875-2.789062-1.554687-6.300781-.828124-8.101562 1.804688-5.03125 7.371094-14.132812 12.289062-24.527344 12.289062-10.390625 0-19.492187-4.917968-24.527344-12.289062-1.800781-2.632812-5.3125-3.359375-8.097656-1.804688-4.40625 2.453126-9.613281 3.875-15.195312 3.875-8.324219 0-15.816406-3.160156-21.058594-8.199218-2.253906-2.171875-5.8125-2.324219-8.175781-.273438-6.03125 5.242188-14.277344 8.472656-23.371094 8.472656-18.488281 0-33.476563-13.34375-33.476563-29.804687s14.988282-29.804687 33.476563-29.804687c13.640625 0 25.367187 7.265624 30.582031 17.6875 5.265625-5.605469 13.175782-9.171876 22.023438-9.171876 12.835937 0 23.703125 7.503907 27.367187 17.855469 5.207031-4.710937 12.445313-7.636719 20.453125-7.636719 8.011719 0 15.25 2.925782 20.457032 7.636719 3.664062-10.351562 14.53125-17.855469 27.367187-17.855469 10.503906 0 19.6875 5.027344 24.6875 12.527344 5.21875-7.59375 13.636719-12.527344 23.132813-12.527344 2.667968 0 5.246093.398438 7.699218 1.125 6.3125-6.921874 15.941406-11.34375 26.734375-11.34375 19.015625 0 34.429688 13.722657 34.429688 30.65625zm0 0" fill="#0ed1b2"/><path d="m246.488281 450.621094c-.125.09375-10.363281 10.125-24.472656 9.230468-18.449219-1.167968-33.476563-13.34375-33.476563-29.804687s14.988282-29.804687 33.476563-29.804687c9.292969 0 30.421875 4.136718 23.753906 8.820312-22.484375 15.789062.71875 41.558594.71875 41.558594zm0 0" fill="#0ab59e"/><path d="m439.941406 429.195312h-204.390625c-16.933593 0-30.660156-13.726562-30.660156-30.660156v-10.214844c0-16.933593 13.726563-30.65625 30.660156-30.65625h204.390625c16.933594 0 30.660156 13.722657 30.660156 30.65625v10.214844c0 16.933594-13.726562 30.660156-30.660156 30.660156zm0 0" fill="#b55c3c"/><path d="m439.941406 429.195312h-153.292968c-16.933594 0-30.660157-13.726562-30.660157-30.660156v-10.214844c0-16.933593 13.726563-30.65625 30.660157-30.65625h153.292968c16.933594 0 30.660156 13.722657 30.660156 30.65625v10.214844c0 16.933594-13.726562 30.660156-30.660156 30.660156zm0 0" fill="#cc7556"/><path d="m263.507812 378.101562h-48.417968c-5.632813 0-10.199219-4.566406-10.199219-10.199218v-.042969c0-5.628906 4.566406-10.195313 10.199219-10.195313h48.417968c5.632813 0 10.199219 4.566407 10.199219 10.195313v.042969c0 5.632812-4.566406 10.199218-10.199219 10.199218zm0 0" fill="#f1ca50"/><path d="m470.578125 368.5625c-.351563 5.429688-5.105469 9.539062-10.546875 9.539062h-49.085938c-2.941406 0-5.734374 1.269532-7.675781 3.480469-7.035156 8.011719-15.019531 15.179688-23.808593 21.332031l-5.710938 3.996094c-3.519531 2.464844-8.199219 2.464844-11.71875 0l-5.71875-4c-8.785156-6.152344-16.769531-13.316406-23.800781-21.328125-1.941407-2.207031-4.734375-3.480469-7.675781-3.480469h-68.496094c-5.441406 0-10.195313-4.109374-10.546875-9.539062-.386719-5.953125 4.328125-10.898438 10.195312-10.898438h204.390625c5.871094 0 10.582032 4.945313 10.199219 10.898438zm0 0" fill="#fdf385"/><path d="m480.820312 328.03125v10.214844c0 11.289062-9.152343 20.4375-20.441406 20.4375h-245.269531c-11.289063 0-20.4375-9.148438-20.4375-20.4375v-10.214844c0-39.507812 32.027344-71.535156 71.535156-71.535156h143.074219c39.511719 0 71.539062 32.027344 71.539062 71.535156zm0 0" fill="#ebae56"/><path d="m480.820312 328.03125v10.214844c0 11.289062-9.152343 20.4375-20.441406 20.4375h-194.171875c-11.285156 0-20.4375-9.148438-20.4375-20.4375v-10.214844c0-39.507812 32.027344-71.535156 71.535157-71.535156h91.976562c39.511719 0 71.539062 32.027344 71.539062 71.535156zm0 0" fill="#fbc56d"/><path d="m307.085938 255.472656c0 5.644532-4.574219 10.21875-10.21875 10.21875-5.644532 0-10.21875-4.574218-10.21875-10.21875 0-5.644531 4.574218-10.21875 10.21875-10.21875 5.644531 0 10.21875 4.574219 10.21875 10.21875zm20.441406 20.4375c-5.644532 0-10.222656 4.574219-10.222656 10.21875 0 5.644532 4.578124 10.21875 10.222656 10.21875 5.644531 0 10.21875-4.574218 10.21875-10.21875 0-5.644531-4.574219-10.21875-10.21875-10.21875zm-71.539063 10.21875c-5.644531 0-10.21875 4.574219-10.21875 10.21875 0 5.644532 4.574219 10.21875 10.21875 10.21875s10.21875-4.574218 10.21875-10.21875c0-5.644531-4.574219-10.21875-10.21875-10.21875zm102.195313-20.4375c-5.644532 0-10.21875 4.574219-10.21875 10.21875 0 5.644532 4.574218 10.21875 10.21875 10.21875 5.644531 0 10.21875-4.574218 10.21875-10.21875 0-5.644531-4.574219-10.21875-10.21875-10.21875zm51.097656 30.65625c-5.644531 0-10.21875 4.578125-10.21875 10.21875 0 5.644532 4.574219 10.21875 10.21875 10.21875s10.21875-4.574218 10.21875-10.21875c0-5.640625-4.574219-10.21875-10.21875-10.21875zm35.769531-35.765625c-5.644531 0-10.21875 4.574219-10.21875 10.21875s4.574219 10.21875 10.21875 10.21875 10.21875-4.574219 10.21875-10.21875-4.574219-10.21875-10.21875-10.21875zm0 0" fill="#ffdf8e"/></svg>