<?xml version="1.0" encoding="iso-8859-1"?>
<!-- Generator: Adobe Illustrator 19.0.0, SVG Export Plug-In . SVG Version: 6.00 Build 0)  -->
<svg version="1.1" id="Capa_1" xmlns="http://www.w3.org/2000/svg" xmlns:xlink="http://www.w3.org/1999/xlink" x="0px" y="0px"
	 viewBox="0 0 512 512" style="enable-background:new 0 0 512 512;" xml:space="preserve">
<circle style="fill:#FFCF35;" cx="256" cy="256" r="256"/>
<path style="fill:#FFB344;" d="M512,256c0-6.888-0.281-13.711-0.814-20.462L379.981,104.333l-20.572,85.611L254.212,84.746
	L105.805,398.333l110.619,110.619C229.324,510.955,242.54,512,256,512C397.385,512,512,397.385,512,256z"/>
<rect x="105.81" y="127" style="fill:#983262;" width="84.67" height="271.33"/>
<rect x="148.21" y="127" style="fill:#662E57;" width="42.26" height="271.33"/>
<rect x="295.31" y="104.33" style="fill:#FF6838;" width="84.67" height="294"/>
<rect x="336.9" y="104.33" style="fill:#AE4E32;" width="43.08" height="294"/>
<rect x="190.472" y="88.986" transform="matrix(-0.9911 0.1329 -0.1329 -0.9911 495.9286 454.1909)" style="fill:#0074A3;" width="84.668" height="309.321"/>
<polygon style="fill:#005C83;" points="254.212,84.746 207.116,91.06 254.523,396.805 295.314,391.337 "/>
<rect x="295.31" y="149" style="fill:#AE4E32;" width="84.67" height="62"/>
<rect x="336.9" y="149" style="fill:#933D2A;" width="43.08" height="62"/>
<rect x="105.81" y="319" style="fill:#590F38;" width="84.67" height="51.33"/>
<rect x="148.21" y="319" style="fill:#3F0829;" width="42.26" height="51.33"/>
<g>
</g>
<g>
</g>
<g>
</g>
<g>
</g>
<g>
</g>
<g>
</g>
<g>
</g>
<g>
</g>
<g>
</g>
<g>
</g>
<g>
</g>
<g>
</g>
<g>
</g>
<g>
</g>
<g>
</g>
</svg>
