<svg height="512pt" viewBox="0 0 512 512" width="512pt" xmlns="http://www.w3.org/2000/svg"><path d="m294.023438 74.378906-19.957032 19.875 143.464844 143.464844 19.914062-19.914062zm0 0"/><path d="m195.925781 415.886719 21.242188 21.242187 179.015625-178.273437-21.242188-21.242188zm0 0"/><path d="m156.597656 376.5625 178.644532-178.644531 21.242187 21.238281-178.644531 178.644531zm0 0"/><path d="m458.992188 196.257812 52.855468-52.855468v-6.222656c0-75.640626-61.539062-137.179688-137.179687-137.179688h-6.222657l-53.160156 53.160156 143.402344 143.402344zm0 0"/><path d="m0 512 95.914062-28.828125-67.640624-67.640625zm52.417969-72.035156 19.15625 19.15625zm0 0"/><path d="m274.023438 136.695312-21.242188-21.242187-179.015625 178.273437 21.238281 21.242188zm0 0"/><path d="m37.90625 382.679688 90.671875 90.671874 63.300781-19.027343-135.3125-135.316407zm0 0"/><path d="m114.042969 334.003906 178.640625-178.640625 21.242187 21.238281-178.644531 178.644532zm0 0"/></svg>