<svg height="512pt" viewBox="0 -48 512 512" width="512pt" xmlns="http://www.w3.org/2000/svg"><path d="m400 31h15v64h-15zm0 0"/><path d="m400 111h15v16h-15zm0 0"/><path d="m239 15h193v144h15v-159h-223v119h15zm0 0"/><path d="m316.894531 207 74.105469 74.105469v-42.105469h80v-63h-80v-43.105469zm139.105469-16v33h-80v20.894531l-37.894531-37.894531 37.894531-37.894531v21.894531zm0 0"/><path d="m152 102.5c26.191406 0 47.5-21.308594 47.5-47.5s-21.308594-47.5-47.5-47.5-47.5 21.308594-47.5 47.5 21.308594 47.5 47.5 47.5zm0-80c17.921875 0 32.5 14.578125 32.5 32.5s-14.578125 32.5-32.5 32.5-32.5-14.578125-32.5-32.5 14.578125-32.5 32.5-32.5zm0 0"/><path d="m160 247h15v16h-15zm0 0"/><path d="m135 210.105469v-59.105469h-15v52.894531l-53.554688 53.800781 10.484376 10.609376zm0 0"/><path d="m447 400v-145h-15v145h-164.894531l-28.105469-28.105469v-92.894531h-15v77.894531l-9-9v-154.789062l9 9v60.894531h15v-67.105469l-24-24v-26.789062l41 41v76.894531h15v-83.105469l-59.894531-59.894531h-123.105469v67.894531l-45.554688 45.800781 10.484376 10.609376 50.070312-50.199219v-59.105469h97v219.105469l45.894531 45.894531h-34.789062l-36.105469-36.105469v-83.894531h-18.105469l-44.894531 43.894531v76.105469h-25v-85.894531l32-32v-35.105469h-15v28.894531l-32 32v92.105469h-72v15h512v-15zm-320-69.894531 33-33v73l29.894531 29.894531h-62.894531zm0 0"/></svg>