<?xml version="1.0" encoding="iso-8859-1"?>
<!-- Generator: Adobe Illustrator 18.0.0, SVG Export Plug-In . SVG Version: 6.00 Build 0)  -->
<!DOCTYPE svg PUBLIC "-//W3C//DTD SVG 1.1//EN" "http://www.w3.org/Graphics/SVG/1.1/DTD/svg11.dtd">
<svg version="1.1" id="Capa_1" xmlns="http://www.w3.org/2000/svg" xmlns:xlink="http://www.w3.org/1999/xlink" x="0px" y="0px"
	 viewBox="0 0 50 50" style="enable-background:new 0 0 50 50;" xml:space="preserve">
<path d="M48.5,44.833h-3V24.038l1.968,1.395c0.456,0.324,1.057,0.367,1.556,0.109c0.499-0.257,0.812-0.771,0.812-1.333v-4
	c0-0.486-0.235-0.942-0.633-1.224L40,12.462V6.083c0-0.829-0.672-1.5-1.5-1.5S37,5.254,37,6.083v4.252L25.867,2.443
	c-0.52-0.368-1.215-0.368-1.734,0L0.799,18.985c-0.397,0.281-0.633,0.737-0.633,1.224v4c0,0.561,0.313,1.075,0.812,1.333
	c0.217,0.112,0.453,0.167,0.688,0.167c0.306,0,0.609-0.093,0.867-0.276L4.5,24.038v20.795h-3c-0.828,0-1.5,0.671-1.5,1.5
	s0.672,1.5,1.5,1.5H6h13.936h10.13H44h4.5c0.828,0,1.5-0.671,1.5-1.5S49.328,44.833,48.5,44.833z M31.565,44.833V27.82
	c0-0.829-0.672-1.5-1.5-1.5h-10.13c-0.828,0-1.5,0.671-1.5,1.5v17.013H7.5V22.249c0-0.108-0.012-0.212-0.034-0.313L25,9.506
	l17.534,12.429c-0.022,0.101-0.034,0.206-0.034,0.314v22.584H31.565z"/>
<g>
</g>
<g>
</g>
<g>
</g>
<g>
</g>
<g>
</g>
<g>
</g>
<g>
</g>
<g>
</g>
<g>
</g>
<g>
</g>
<g>
</g>
<g>
</g>
<g>
</g>
<g>
</g>
<g>
</g>
</svg>
