<?xml version="1.0" encoding="iso-8859-1"?>
<!-- Generator: Adobe Illustrator 21.0.0, SVG Export Plug-In . SVG Version: 6.00 Build 0)  -->
<svg xmlns="http://www.w3.org/2000/svg" xmlns:xlink="http://www.w3.org/1999/xlink" version="1.1" id="Capa_1" x="0px" y="0px" viewBox="0 0 512 512" style="enable-background:new 0 0 512 512;" xml:space="preserve" width="512" height="512">
<g>
	<g>
		<g>
			<g>
				<g>
					<g>
						<g>
							<g>
								<g>
									<g>
										<circle style="fill:#555A66;" cx="256" cy="256" r="256"/>
									</g>
								</g>
							</g>
						</g>
					</g>
				</g>
			</g>
		</g>
	</g>
	<path style="fill:#333940;" d="M278.47,511.007C409.329,499.625,512,389.812,512,256c0-30.877-5.468-60.477-15.486-87.885   L429.28,100.88L88.367,243.309l106.673,106.673l-54.366,23.23L278.47,511.007z"/>
	<g>
		<rect x="140.675" y="119.566" style="fill:#19CFFC;" width="173.763" height="253.646"/>
	</g>
	<g>
		<rect x="140.675" y="255.905" style="fill:#41B3E5;" width="173.763" height="117.307"/>
	</g>
	<g>
		<polygon style="fill:#DCE1EB;" points="429.28,391.897 314.438,373.212 314.438,119.566 429.28,100.88   "/>
	</g>
	<g>
		<polygon style="fill:#CDD2E1;" points="314.438,255.905 314.438,373.212 429.28,391.897 429.28,255.905   "/>
	</g>
	<g>
		<path style="fill:#FFFFFF;" d="M200.101,250.398c22.395,0,40.55-18.155,40.55-40.55c0-20.068-14.581-36.72-33.725-39.967    c-7.02-19.373-25.579-33.217-47.376-33.217c-21.587,0-39.995,13.581-47.166,32.662c-0.371-0.01-0.741-0.028-1.114-0.028    c-22.395,0-40.55,18.155-40.55,40.551c0,22.395,18.155,40.55,40.55,40.55H200.101z"/>
	</g>
	<g>
		<path style="fill:#FFFFFF;" d="M268.941,242.062c-0.454-0.012-0.906-0.035-1.363-0.035c-27.391,0-49.597,22.205-49.597,49.597    c0,27.391,22.205,49.596,49.597,49.596h46.859V203.323C293.452,207.537,276.325,222.415,268.941,242.062z"/>
	</g>
	<g>
		<path style="fill:#F2F6FC;" d="M233.189,255.905c-9.369,9.022-15.208,21.685-15.208,35.72c0,27.391,22.205,49.596,49.597,49.596    h46.859v-85.316H233.189z"/>
	</g>
</g>















</svg>
