<svg height="512pt" viewBox="-39 0 512 512.00024" width="512pt" xmlns="http://www.w3.org/2000/svg"><path d="m226.742188 389.246094h-20.269532c-64.445312 0-123.679687 36.601562-151.367187 94.796875-4.105469 8.632812-7.871094 17.9375-11.140625 27.957031h345.308594c-2.972657-9.105469-6.351563-17.621094-10.027344-25.582031-27.417969-59.375-87.101563-97.171875-152.503906-97.171875zm0 0" fill="#64dcfc"/><path d="m389.28125 512h-25.902344c-2.972656-9.109375-6.355468-17.617188-10.027344-25.582031-26.988281-58.445313-85.246093-95.984375-149.441406-97.140625.847656-.019532 1.703125-.03125 2.558594-.03125h20.269531c65.402344 0 125.097657 37.796875 152.503907 97.171875 3.683593 7.964843 7.054687 16.472656 10.039062 25.582031zm0 0" fill="#00d1fc"/><path d="m213.707031 454.234375h5.832031c18.546876 0 35.59375-10.535156 43.5625-27.28125 1.183594-2.484375 2.265626-5.164063 3.207032-8.046875h-99.378906c.855468 2.621094 1.828124 5.074219 2.886718 7.363281 7.890625 17.085938 25.066406 27.964844 43.890625 27.964844zm0 0" fill="#ffbfab"/><path d="m38.191406 197.9375c0-98.546875 79.886719-178.429688 178.429688-178.429688 98.542968 0 178.429687 79.882813 178.429687 178.429688l-.007812 47.234375v45.539063c0 70.984374-57.054688 128.621093-127.6875 129.214843-.378907.011719-.742188.011719-1.117188.011719h-99.246093c-.359376 0-.738282 0-1.101563-.011719-70.621094-.59375-127.699219-58.230469-127.699219-129.214843zm0 0" fill="#ffcebf"/><path d="m395.054688 197.9375-.007813 47.234375v45.542969c0 70.980468-57.054687 128.621094-127.695313 129.210937-.371093.007813-.734374.007813-1.113281.007813h-25.015625c.371094 0 .730469 0 1.113282-.007813 70.628906-.589843 127.683593-58.230469 127.683593-129.210937v-45.542969l.007813-47.234375c0-94.335938-73.207032-171.574219-165.910156-177.992188 4.136718-.289062 8.304687-.433593 12.5-.433593 98.546874 0 178.4375 79.882812 178.4375 178.425781zm0 0" fill="#ffbfab"/><path d="m40.253906 207.046875h-2.25c-20.988281 0-38.003906 17.070313-38.003906 38.125 0 21.058594 17.015625 38.128906 38.003906 38.128906h2.25zm0 0" fill="#ffcebf"/><path d="m392.984375 207.046875h2.253906c20.984375 0 38 17.070313 38 38.125 0 21.058594-17.015625 38.128906-38 38.128906h-2.253906zm0 0" fill="#ffbfab"/><path d="m142.792969 282.6875c-4.144531 0-7.5-3.359375-7.5-7.5v-19.007812c0-4.144532 3.355469-7.5 7.5-7.5 4.140625 0 7.5 3.355468 7.5 7.5v19.007812c0 4.140625-3.359375 7.5-7.5 7.5zm0 0" fill="#727272"/><path d="m290.449219 282.6875c-4.144531 0-7.5-3.359375-7.5-7.5v-19.007812c0-4.144532 3.355469-7.5 7.5-7.5 4.140625 0 7.5 3.355468 7.5 7.5v19.007812c0 4.140625-3.359375 7.5-7.5 7.5zm0 0" fill="#727272"/><path d="m216.871094 349.054688c-9.207032 0-17.722656-4.179688-23.363282-11.46875-2.535156-3.273438-1.933593-7.984376 1.34375-10.519532 3.277344-2.535156 7.984376-1.933594 10.519532 1.339844 2.777344 3.589844 6.96875 5.648438 11.5 5.648438 4.535156 0 8.726562-2.058594 11.503906-5.652344 2.535156-3.273438 7.246094-3.875 10.523438-1.339844 3.273437 2.53125 3.875 7.242188 1.339843 10.519531-5.640625 7.292969-14.15625 11.472657-23.367187 11.472657zm0 0" fill="#7c7b7b"/><path d="m134.441406 309.195312c0 10.246094-8.304687 18.550782-18.550781 18.550782s-18.554687-8.304688-18.554687-18.550782c0-10.246093 8.308593-18.554687 18.554687-18.554687s18.550781 8.308594 18.550781 18.554687zm0 0" fill="#ff9a9a"/><path d="m335.902344 309.195312c0 10.246094-8.304688 18.550782-18.550782 18.550782-10.246093 0-18.550781-8.304688-18.550781-18.550782 0-10.246093 8.304688-18.554687 18.550781-18.554687 10.246094 0 18.550782 8.308594 18.550782 18.554687zm0 0" fill="#ff9a9a"/><path d="m162.78125 21.785156c-3.355469 4.992188-5.714844 10.664063-6.734375 16.835938-9.578125 57.789062 65.738281 87.449218 110.894531 80.449218 4.910156-.757812 7.59375-6.164062 5.246094-10.542968-5.707031-10.632813-10.449219-19.640625-12.441406-31.402344-2.160156-12.769531-1.90625-27.105469-5.097656-39.199219-5.363282-20.324219-23.472657-35.035156-44.148438-37.566406-18.753906-2.292969-37.691406 6.507813-47.71875 21.425781zm0 0" fill="#7c7b7b"/><path d="m266.9375 119.074219c-2.875.445312-5.890625.746093-8.992188.890625.121094-1.332032-.136718-2.714844-.828124-4.003906-5.703126-10.625-10.449219-19.640626-12.4375-31.398438-2.167969-12.773438-1.910157-27.109375-5.097657-39.199219-5.363281-20.320312-23.476562-35.03125-44.148437-37.558593-7.078125-.867188-14.175782-.15625-20.808594 1.867187 10.089844-7.253906 23.023438-10.882813 35.878906-9.304687 20.671875 2.527343 38.785156 17.238281 44.148438 37.558593 3.1875 12.089844 2.929687 26.429688 5.097656 39.199219 1.992188 11.757812 6.734375 20.773438 12.441406 31.398438 2.339844 4.382812-.34375 9.789062-5.253906 10.550781zm0 0" fill="#727272"/></svg>