<?xml version="1.0" encoding="iso-8859-1"?>
<!-- Generator: Adobe Illustrator 19.0.0, SVG Export Plug-In . SVG Version: 6.00 Build 0)  -->
<svg version="1.1" id="Capa_1" xmlns="http://www.w3.org/2000/svg" xmlns:xlink="http://www.w3.org/1999/xlink" x="0px" y="0px"
	 viewBox="0 0 512 512" style="enable-background:new 0 0 512 512;" xml:space="preserve">
<path style="fill:#CA5F5B;" d="M289.374,34.875L68.511,7.974c-8.147-0.992-15.455,4.263-15.455,11.114v28.469l247.862,30.19V45.99
	C300.918,40.415,296.004,35.683,289.374,34.875z"/>
<g>
	<polygon style="fill:#D96D5D;" points="292.749,246.52 63.522,196.325 63.522,48.467 292.749,77.748 	"/>
	<path style="fill:#D96D5D;" d="M512,470.333c-0.797-5.213-1.594-10.427-2.391-15.64c-1.976-12.926-11.465-23.421-24.11-26.667
		l-48.212-12.376c-31.192-8.007-60.811-21.233-87.607-39.12l-52.855-35.282c-20.626-13.768-33.016-36.954-33.016-61.783v-17.096
		V127.943L90.166,91.437v160.4c0,15.826-3.558,31.448-10.411,45.708l0,0c-6.853,14.259-10.411,29.882-10.411,45.708v76.622
		l161.053,20.143l92.758,44.308H495.77L512,470.333z"/>
</g>
<g>
	<path style="fill:#C15151;" d="M61.226,270.553c-4.512,0-8.169-3.664-8.169-8.184V47.557c0-2.356,1.014-4.597,2.781-6.151
		c1.767-1.553,4.113-2.27,6.449-1.963L293.81,69.815c4.068,0.533,7.109,4.006,7.109,8.115v183.14c0,4.52-3.657,8.184-8.169,8.184
		s-8.169-3.664-8.169-8.184V142.057L69.395,113.829v148.54C69.395,266.889,65.738,270.553,61.226,270.553z"/>
	<path style="fill:#C15151;" d="M119.106,251.795c-4.512,0-8.169-3.664-8.169-8.184V113.393c0-4.52,3.657-8.184,8.169-8.184
		s8.169,3.664,8.169,8.184V243.61C127.276,248.131,123.619,251.795,119.106,251.795z"/>
	<path style="fill:#C15151;" d="M90.166,219.653c-4.512,0-8.169-3.664-8.169-8.184V91.437c0-4.52,3.657-8.184,8.169-8.184
		s8.169,3.664,8.169,8.184v120.032C98.336,215.989,94.679,219.653,90.166,219.653z"/>
	<path style="fill:#C15151;" d="M148.047,285.466c-4.512,0-8.169-3.664-8.169-8.184V97.389c0-4.52,3.657-8.184,8.169-8.184
		s8.169,3.664,8.169,8.184v179.893C156.216,281.802,152.559,285.466,148.047,285.466z"/>
	<path style="fill:#C15151;" d="M176.988,319.449c-4.512,0-8.169-3.664-8.169-8.184V120.668c0-4.52,3.657-8.184,8.169-8.184
		s8.169,3.664,8.169,8.184v190.597C185.157,315.785,181.5,319.449,176.988,319.449z"/>
	<path style="fill:#C15151;" d="M205.928,269.254c-4.512,0-8.169-3.664-8.169-8.184V116.667c0-4.52,3.657-8.184,8.169-8.184
		s8.169,3.664,8.169,8.184V261.07C214.097,265.59,210.44,269.254,205.928,269.254z"/>
	<path style="fill:#C15151;" d="M234.868,309.992c-4.512,0-8.169-3.664-8.169-8.184V102.481c0-4.52,3.657-8.184,8.169-8.184
		s8.169,3.664,8.169,8.184v199.326C243.038,306.328,239.381,309.992,234.868,309.992z"/>
	<path style="fill:#C15151;" d="M263.809,287.648c-4.512,0-8.169-3.664-8.169-8.184V127.943c0-4.52,3.657-8.184,8.169-8.184
		s8.169,3.664,8.169,8.184v151.521C271.979,283.984,268.322,287.648,263.809,287.648z"/>
</g>
<path style="fill:#DE7B69;" d="M69.344,343.252v76.622l161.053,20.143l92.757,44.308h172.615L512,470.333
	c-0.797-5.213-1.594-10.427-2.391-15.64c-1.976-12.926-11.465-23.421-24.11-26.667l-48.212-12.376
	c-31.192-8.007-60.811-21.233-87.607-39.12l-52.855-35.282l0,0c-13.766,27.475-43.577,42.999-73.934,38.501l-103.132-26.647
	c-18.145-4.688-32.106-19.217-36.093-37.56l-3.911-17.997l0,0C72.902,311.804,69.344,327.427,69.344,343.252z"/>
<path style="fill:#CA5F5B;" d="M512,470.333H358.366c-26.979,0-43.858-5.638-68.538-16.554l-57.123-25.265
	c-12.881-5.697-26.807-8.64-40.887-8.64H69.344c-2.289,0-4.145,1.859-4.145,4.152l11.833,66.944
	c1.347,7.622,7.96,13.176,15.686,13.176h100.867c4.379,0,7.937-3.541,7.966-7.928l0.073-41.279c0.023-3.512,3.406-6.018,6.765-5.011
	l71.296,31.611c24.725,10.962,51.464,16.625,78.502,16.625h126.03C499.561,498.164,512,485.704,512,470.333L512,470.333z"/>
<path style="fill:#C15151;" d="M135.126,490.97l-11.833-66.944c0-2.293,1.856-4.152,4.145-4.152H69.344
	c-2.289,0-4.145,1.859-4.145,4.152l11.833,66.944c1.347,7.622,7.96,13.176,15.687,13.176h58.094
	C143.086,504.146,136.473,498.592,135.126,490.97z"/>
<path style="fill:#FBDC40;" d="M71.222,381.407l29.325-21.506c2.23-1.636,5.338,0.162,5.04,2.915l-3.929,36.195
	c-0.15,1.38,0.61,2.699,1.878,3.259l33.254,14.689c2.529,1.117,2.529,4.712,0,5.83l-33.254,14.689
	c-1.268,0.56-2.028,1.879-1.878,3.259l3.929,36.195c0.299,2.753-2.809,4.551-5.04,2.915l-29.325-21.506
	c-1.118-0.82-2.638-0.82-3.757,0L38.14,479.847c-2.23,1.636-5.338-0.162-5.04-2.915l3.929-36.195c0.15-1.38-0.61-2.699-1.878-3.259
	L1.897,422.789c-2.529-1.117-2.529-4.712,0-5.83l33.254-14.689c1.268-0.56,2.028-1.879,1.878-3.259L33.1,362.816
	c-0.299-2.753,2.809-4.551,5.04-2.915l29.325,21.506C68.584,382.228,70.104,382.228,71.222,381.407z"/>
<ellipse style="fill:#DB4D4D;" cx="69.34" cy="419.87" rx="8.169" ry="8.184"/>
<g>
</g>
<g>
</g>
<g>
</g>
<g>
</g>
<g>
</g>
<g>
</g>
<g>
</g>
<g>
</g>
<g>
</g>
<g>
</g>
<g>
</g>
<g>
</g>
<g>
</g>
<g>
</g>
<g>
</g>
</svg>
