<?xml version="1.0" encoding="iso-8859-1"?>
<!-- Generator: Adobe Illustrator 19.0.0, SVG Export Plug-In . SVG Version: 6.00 Build 0)  -->
<svg version="1.1" id="Layer_1" xmlns="http://www.w3.org/2000/svg" xmlns:xlink="http://www.w3.org/1999/xlink" x="0px" y="0px"
	 viewBox="0 0 512.004 512.004" style="enable-background:new 0 0 512.004 512.004;" xml:space="preserve">
<g transform="translate(0 -1)">
	<path style="fill:#CE995B;" d="M406.071,71.625c-7.142-6.744-30.199-19.076-52.966-26.483c1.501,1.88-28.487,38.841-40.483,42.717
		c-11.485,3.708-21.954,0.547-32.433-4.378c-8.086-3.805-15.969-8.422-24.188-11.953c-8.218,3.531-16.102,8.148-24.188,11.953
		c-10.478,4.926-20.948,8.086-32.433,4.378c-11.997-3.875-41.984-40.836-40.483-42.717c-22.766,7.406-45.824,19.738-52.966,26.483
		c-19.862,18.759-67.31,295.177-88.276,397.241l61.793,8.828c0,0,39.724-220.142,45.798-238.345
		c6.065-18.211,24.638-61.608,24.638-61.608c8.898,25.194,16.49,61.334,17.611,96.918h-8.598
		c-3.293,15.819-5.455,34.004-8.828,52.966h7.203c-10.417,46.654-24.858,119.958-24.858,167.724
		c35.31,17.655,88.276,17.655,123.586,17.655s88.276,0,123.586-17.655c0-47.766-14.442-121.07-24.858-167.724h7.203
		c-3.372-18.962-5.535-37.146-8.828-52.966h-8.598c1.121-35.584,8.713-71.724,17.611-96.918c0,0,18.573,43.396,24.638,61.608
		c6.073,18.202,45.798,238.345,45.798,238.345l61.793-8.828C473.382,366.802,425.933,90.384,406.071,71.625"/>
	<polygon style="fill:#895C34;" points="256.002,71.524 317.795,1 194.209,1 	"/>
	<g>
		<path style="fill:#AA7948;" d="M194.209,1.004l61.793,70.515c-8.218,3.54-16.11,8.166-24.188,11.961
			c-10.47,4.926-20.948,8.086-32.433,4.378c-11.997-3.875-41.984-40.836-40.483-42.717L194.209,1.004z"/>
		<path style="fill:#AA7948;" d="M317.795,1.004l-61.793,70.515c8.218,3.54,16.11,8.166,24.188,11.961
			c10.47,4.926,20.948,8.086,32.433,4.378c11.997-3.875,41.984-40.836,40.483-42.717L317.795,1.004z"/>
		<path style="fill:#AA7948;" d="M308.977,283.487c-0.583,0-1.174-0.062-1.766-0.185c-4.776-0.962-7.865-5.623-6.886-10.399
			c11.467-56.505,11.458-117.76-0.044-182.069c-0.865-4.793,2.33-9.384,7.133-10.24c4.811-0.874,9.384,2.33,10.24,7.133
			c11.908,66.507,11.891,129.995-0.035,188.69C316.771,280.601,313.09,283.487,308.977,283.487"/>
		<path style="fill:#AA7948;" d="M247.175,159.901c0-4.873-3.955-8.828-8.828-8.828s-8.828,3.955-8.828,8.828
			c0,4.873,3.955,8.828,8.828,8.828S247.175,164.774,247.175,159.901"/>
		<path style="fill:#AA7948;" d="M291.313,159.901c0-4.873-3.955-8.828-8.828-8.828s-8.828,3.955-8.828,8.828
			c0,4.873,3.955,8.828,8.828,8.828S291.313,164.774,291.313,159.901"/>
		<path style="fill:#AA7948;" d="M247.175,212.866c0-4.873-3.955-8.828-8.828-8.828s-8.828,3.955-8.828,8.828
			c0,4.873,3.955,8.828,8.828,8.828S247.175,217.739,247.175,212.866"/>
		<path style="fill:#AA7948;" d="M291.313,212.866c0-4.873-3.955-8.828-8.828-8.828s-8.828,3.955-8.828,8.828
			c0,4.873,3.955,8.828,8.828,8.828S291.313,217.739,291.313,212.866"/>
		<path style="fill:#AA7948;" d="M247.175,389.418c0-4.873-3.955-8.828-8.828-8.828s-8.828,3.955-8.828,8.828
			s3.955,8.828,8.828,8.828S247.175,394.291,247.175,389.418"/>
		<path style="fill:#AA7948;" d="M247.175,442.384c0-4.873-3.955-8.828-8.828-8.828s-8.828,3.955-8.828,8.828
			s3.955,8.828,8.828,8.828S247.175,447.257,247.175,442.384"/>
		<path style="fill:#AA7948;" d="M291.313,389.418c0-4.873-3.955-8.828-8.828-8.828s-8.828,3.955-8.828,8.828
			s3.955,8.828,8.828,8.828S291.313,394.291,291.313,389.418"/>
		<path style="fill:#AA7948;" d="M291.313,442.384c0-4.873-3.955-8.828-8.828-8.828s-8.828,3.955-8.828,8.828
			s3.955,8.828,8.828,8.828S291.313,447.257,291.313,442.384"/>
	</g>
	<path style="fill:#F9EBB0;" d="M256.002,336.453L256.002,336.453c-14.627,0-26.483-11.855-26.483-26.483v-17.655
		c0-14.627,11.855-26.483,26.483-26.483c14.627,0,26.483,11.855,26.483,26.483v17.655
		C282.485,324.597,270.63,336.453,256.002,336.453"/>
	<g>
		<path style="fill:#AA7948;" d="M229.519,309.97v-17.655c0-6.815,2.648-12.959,6.877-17.655h-77.497
			c-3.293,15.819-5.455,34.004-8.828,52.966h86.325C232.168,322.929,229.519,316.785,229.519,309.97"/>
		<path style="fill:#AA7948;" d="M282.485,309.97v-17.655c0-6.815-2.648-12.959-6.877-17.655h77.497
			c3.293,15.819,5.455,34.004,8.828,52.966h-86.325C279.837,322.929,282.485,316.785,282.485,309.97"/>
		<path style="fill:#AA7948;" d="M264.83,301.142c0-4.873-3.955-8.828-8.828-8.828c-4.873,0-8.828,3.955-8.828,8.828
			c0,4.873,3.955,8.828,8.828,8.828C260.875,309.97,264.83,306.015,264.83,301.142"/>
		<path style="fill:#AA7948;" d="M317.493,325.333c-1.271-4.714-6.162-7.495-10.823-6.232c-4.705,1.271-7.495,6.109-6.232,10.823
			c11.441,42.461,11.37,99.778-0.212,180.383c-0.088,0.627,0.062,1.201,0.106,1.81c5.835-0.318,11.741-0.75,17.655-1.342
			C329.781,427.697,329.631,370.424,317.493,325.333"/>
	</g>
</g>
<g>
</g>
<g>
</g>
<g>
</g>
<g>
</g>
<g>
</g>
<g>
</g>
<g>
</g>
<g>
</g>
<g>
</g>
<g>
</g>
<g>
</g>
<g>
</g>
<g>
</g>
<g>
</g>
<g>
</g>
</svg>
