<?xml version="1.0" encoding="iso-8859-1"?>
<!-- Generator: Adobe Illustrator 19.0.0, SVG Export Plug-In . SVG Version: 6.00 Build 0)  -->
<svg version="1.1" id="Capa_1" xmlns="http://www.w3.org/2000/svg" xmlns:xlink="http://www.w3.org/1999/xlink" x="0px" y="0px"
	 viewBox="0 0 512 512" style="enable-background:new 0 0 512 512;" xml:space="preserve">
<path style="fill:#FFD764;" d="M342.993,274.859l-14.975,0.864l11.669,202.219l-24.552,8.185c-3.93,1.31-6.053,5.557-4.744,9.487
	c1.048,3.143,3.974,5.13,7.114,5.13c0.786,0,1.586-0.125,2.373-0.387l29.999-10c3.214-1.071,5.311-4.165,5.116-7.547
	L342.993,274.859z"/>
<path style="fill:#FFB751;" d="M396.017,274.859l14.975,0.864l-11.669,202.219l24.552,8.185c3.93,1.31,6.053,5.557,4.744,9.487
	c-1.048,3.143-3.974,5.13-7.114,5.13c-0.786,0-1.586-0.125-2.373-0.387l-29.999-10c-3.214-1.071-5.311-4.165-5.116-7.547
	L396.017,274.859z"/>
<path style="fill:#63352F;" d="M142.512,11.257l15,199.994h29.999c16.499,0,29.999-13.5,29.999-29.999V86.254
	C217.509,44.896,183.86,11.257,142.512,11.257z"/>
<path style="fill:#864941;" d="M142.512,11.257c24.809,0,44.999,33.639,44.999,74.998v94.997c0,16.499-13.5,29.999-29.999,29.999
	H82.513c-24.849,0-44.999-20.149-44.999-44.999c0-10.74,3.77-20.599,10.05-28.339c-0.02-0.55-0.05-1.1-0.05-1.66
	c0-15.6,7.94-29.339,19.999-37.419v-12.58C67.514,44.896,101.163,11.257,142.512,11.257z"/>
<path style="fill:#CC8073;" d="M169.515,50.256c-4.043,5.382-8.678,10.294-13.804,14.644l-13.2,66.352
	c24.852,0,44.999-20.146,44.999-44.999C187.51,71.535,180.441,58.466,169.515,50.256z"/>
<path style="fill:#E59F8F;" d="M157.511,86.254c0-7.732-0.655-14.999-1.8-21.353c-15.692,13.318-36.005,21.353-58.198,21.353
	c0,24.852,20.146,44.999,44.999,44.999C150.796,131.253,157.511,111.107,157.511,86.254z"/>
<polygon style="fill:#E44670;" points="246.508,493.242 216.509,493.242 196.14,470.142 "/>
<path style="fill:#FF6288;" d="M216.139,490.142L97.513,266.249c-15.05,11.32-25.709,28.159-28.949,47.518L38.515,493.242h177.994
	L216.139,490.142z"/>
<g>
	<path style="fill:#E59F8F;" d="M7.5,91.254c4.142,0,7.5,3.358,7.5,7.5c0,45.49,37.008,82.497,82.497,82.497h19.999v15H97.497
		C43.737,196.251,0,152.514,0,98.754C0,94.612,3.358,91.254,7.5,91.254z"/>
	<path style="fill:#E59F8F;" d="M157.511,161.252l19.99,54.998l-79.998-19.999l0.009-15c0-11.05,8.95-19.999,19.999-19.999H157.511z
		"/>
</g>
<polygon style="fill:#FF6288;" points="167.511,196.251 167.511,296.248 97.513,266.249 97.513,196.251 "/>
<path style="fill:#FFA4A9;" d="M324.506,181.251c-27.316,0-51.852,12.133-68.503,31.291l-9.128,2.503v10
	c-8.321,13.707-13.116,29.78-13.116,46.954c0,18.547,5.558,36.384,16.074,51.58l12.335-8.535
	c-8.772-12.677-13.409-27.562-13.409-43.046c0-11.545,2.596-22.494,7.235-32.295l7.936-3.174c0,0,0-10,1.187-11.497
	c13.887-17.522,35.348-28.782,59.39-28.782h19.999v-15L324.506,181.251L324.506,181.251z"/>
<g>
	<path style="fill:#CC8073;" d="M256.004,239.708c4.639,9.802,7.246,20.745,7.246,32.29c0,15.475-4.64,30.359-13.417,43.044
		c-2.357,3.406-1.506,8.078,1.9,10.435c1.302,0.901,2.789,1.333,4.261,1.333c2.379,0,4.718-1.129,6.174-3.233
		c10.521-15.204,16.082-33.041,16.082-51.579c0-17.172-4.796-33.246-13.117-46.953C261.563,229.55,258.488,234.461,256.004,239.708z
		"/>
	<path style="fill:#CC8073;" d="M187.502,181.251h-19.999v15h19.999c24.042,0,45.488,11.273,59.374,28.795
		c2.689-4.429,5.746-8.611,9.129-12.503C239.354,193.385,214.818,181.251,187.502,181.251z"/>
</g>
<path style="fill:#FFD764;" d="M167.511,161.252h-10v134.996l29.999-29.999v-84.997C187.51,170.202,178.56,161.252,167.511,161.252z
	"/>
<path style="fill:#FF973E;" d="M216.459,313.767c-3.24-19.359-13.9-36.199-28.949-47.518h-12.98l41.609,223.893
	c9.81,2.03,19.959,3.1,30.369,3.1L216.459,313.767z"/>
<path style="fill:#FFB751;" d="M195.13,313.767c-2.31-19.359-9.89-36.199-20.599-47.518H97.513v77.998
	c0,71.878,50.898,131.876,118.626,145.895L195.13,313.767z"/>
<path style="fill:#CC8073;" d="M369.504,36.256v94.997c24.852,0,44.999-20.146,44.999-44.999V66.255L369.504,36.256z"/>
<path style="fill:#E59F8F;" d="M324.506,66.255v19.999c0,24.852,20.146,44.999,44.999,44.999c8.284,0,15-20.146,15-44.999V41.256
	L324.506,66.255z"/>
<path style="fill:#FFD764;" d="M384.504,11.257l-20.419,29.929l20.419,25.069h29.999V41.256
	C414.503,24.756,401.003,11.257,384.504,11.257z"/>
<polygon style="fill:#FFE29E;" points="384.084,41.186 354.505,66.255 384.504,66.255 384.504,41.256 "/>
<path style="fill:#FFF1CF;" d="M384.504,11.257v24.999c0,1.68-0.14,3.33-0.42,4.93c-2.36,14.18-14.76,25.069-29.579,25.069h-29.999
	V41.256c0-16.499,13.5-29.999,29.999-29.999C354.505,11.257,384.504,11.257,384.504,11.257z"/>
<path style="fill:#FFB751;" d="M369.504,251.249v74.998c24.852,0,44.999-20.146,44.999-44.999L369.504,251.249z"/>
<path style="fill:#FFD764;" d="M384.504,281.248l-29.999-29.999l-29.999,29.999c0,24.852,20.146,44.999,44.999,44.999
	C377.789,326.247,384.504,306.1,384.504,281.248z"/>
<g>
	<path style="fill:#FF849B;" d="M504.5,91.254c-4.142,0-7.5,3.358-7.5,7.5c0,45.49-37.008,82.497-82.497,82.497h-19.999v15h19.999
		c53.76,0,97.497-43.737,97.497-97.497C512,94.612,508.642,91.254,504.5,91.254z"/>
	<path style="fill:#FF849B;" d="M394.504,161.252h-29.999l19.999,119.996h29.999v-99.997
		C414.503,170.206,405.549,161.252,394.504,161.252z"/>
</g>
<path style="fill:#FFA4A9;" d="M364.505,161.252h-19.999c-11.046,0-19.999,8.954-19.999,19.999v99.997h59.998v-99.997
	C384.504,170.206,375.55,161.252,364.505,161.252z"/>
<path style="fill:#FF6288;" d="M369.504,198.751c-4.142,0-7.5-3.357-7.5-7.5v-29.999c0-4.143,3.358-7.5,7.5-7.5s7.5,3.357,7.5,7.5
	v29.999C377.004,195.394,373.646,198.751,369.504,198.751z"/>
<g>
</g>
<g>
</g>
<g>
</g>
<g>
</g>
<g>
</g>
<g>
</g>
<g>
</g>
<g>
</g>
<g>
</g>
<g>
</g>
<g>
</g>
<g>
</g>
<g>
</g>
<g>
</g>
<g>
</g>
</svg>
