<?xml version="1.0" encoding="iso-8859-1"?>
<!-- Generator: Adobe Illustrator 19.0.0, SVG Export Plug-In . SVG Version: 6.00 Build 0)  -->
<svg version="1.1" id="Capa_1" xmlns="http://www.w3.org/2000/svg" xmlns:xlink="http://www.w3.org/1999/xlink" x="0px" y="0px"
	 viewBox="0 0 512.006 512.006" style="enable-background:new 0 0 512.006 512.006;" xml:space="preserve">
<path style="fill:#FF7058;" d="M133.443,209.947v-16.896c-2.997-51.317-3.872-90.144-3.872-90.144
	C144.344-42.053,295.576-0.037,309.048,28.208c14.891-4,68.16-13.589,73.397,74.699c0,0-1.003,38.837-4,90.144v16.853
	c0,46.955,21.515,91.339,58.379,120.448c-122.443,55.701-242.965,54.688-361.685,0C111.96,301.232,133.443,256.88,133.443,209.947"
	/>
<rect x="198.861" y="231.483" style="fill:#F8B64C;" width="114.293" height="163.563"/>
<path style="fill:#E8EAEA;" d="M329.048,419.526c-14.997-15.605-38.016-24.533-71.872-24.48c0,0-40.949,7.275-59.093,22.283v94.667
	h130.965V419.526z"/>
<path style="fill:#F2F2F2;" d="M255.757,395.046c0,0,46.965,22.709,44.299,37.621l28.64-91.008l-14.379-33.387
	C314.317,308.272,315.736,345.616,255.757,395.046"/>
<path style="fill:#334A5E;" d="M285.773,512.006h226.229l-6.987-61.707c-2.549-22.528-16.832-42.027-37.536-51.264l-121.664-54.229
	c0,0-23.083-31.904-31.499-36.533c0,0,6.997,25.781,0,49.643C311.021,369.126,298.328,439.942,285.773,512.006"/>
<path style="fill:#40596B;" d="M286.776,512.006h47.093l36.032-77.227l-31.712-19.467l21.12-11.68l-15.168-61.099
	c-5.408-7.328-22.763-30.368-29.845-34.261c0,0,4.928,23.051,0,49.643C312.707,366.598,299.832,438.715,286.776,512.006"/>
<path style="fill:#F2F2F2;" d="M256.237,395.046c0,0-46.965,22.709-44.299,37.621l-28.629-91.008l14.368-33.387
	C197.677,308.272,196.259,345.616,256.237,395.046"/>
<path style="fill:#334A5E;" d="M226.232,512.006c-12.565-72.064-25.259-142.88-28.544-154.08c-6.997-23.861,0-49.643,0-49.643
	c-8.437,4.629-31.52,36.533-31.52,36.533L44.525,399.035c-20.704,9.227-34.987,28.725-37.547,51.264l-6.976,61.707H226.232z"/>
<path style="fill:#40596B;" d="M178.125,512.006h47.371c-12.981-73.333-25.877-145.472-27.808-154.08c-6.4-28.331,0-49.643,0-49.643
	c-7.083,3.893-24.437,26.933-29.845,34.261l-15.168,61.099l21.131,11.68l-31.712,19.467L178.125,512.006z"/>
<path style="fill:#FFD15C;" d="M158.712,60.912c-9.141,25.92-14.379,55.829-14.379,87.723c0,98.624,50.005,178.645,111.627,178.645
	s111.627-80.021,111.627-178.645c0-5.483-0.149-10.933-0.512-16.299c2.069-1.589,3.723-4.576,4.235-9.056
	c2.251-19.125,1.664-41.664-2.603-62.368C368.707,60.912,158.712,60.912,158.712,60.912z"/>
<path style="fill:#40596B;" d="M338.883,270.118h-71.371v-13.333h71.371c25.184,0,45.664-20.491,45.664-45.675v-26.805h13.333
	v26.805C397.88,243.654,371.405,270.118,338.883,270.118"/>
<path style="fill:#FF7058;" d="M150.072,193.094c5.355-24.651,5.803-46.251,12.565-72.384c0,0,132.416,29.589,187.264-23.979
	c0,0,17.109,54.571,13.205,96.363h15.317c3.019-51.328,3.979-90.187,3.979-90.187c-5.205-88.277-58.453-78.709-73.376-74.677
	c-13.483-28.277-164.693-70.293-179.477,74.677c0,0,0.896,38.869,3.893,90.187H150.072z"/>
<g>
	<path style="fill:#54C0EB;" d="M128.365,177.179v-21.227c0-71.744,58.368-130.101,130.101-130.101s130.091,58.368,130.091,130.101
		v21.227h19.296v-21.227c0-82.368-67.019-149.387-149.387-149.387S109.091,73.584,109.091,155.952v21.227H128.365z"/>
	<path style="fill:#54C0EB;" d="M402.317,145.008c-9.877-4.459-21.685-7.307-34.475-7.936v73.952
		c12.789-0.64,24.608-3.467,34.475-7.925c3.349-1.525,5.547-4.832,5.547-8.533v-41.035
		C407.853,149.84,405.667,146.512,402.317,145.008"/>
</g>
<path style="fill:#E8EAEA;" d="M375.651,207.536V140.55c0-5.621-4.565-10.165-10.187-10.165c-5.611,0-10.165,4.544-10.165,10.165
	v66.987c0,5.611,4.555,10.176,10.165,10.176C371.085,217.712,375.651,213.147,375.651,207.536"/>
<path style="fill:#54C0EB;" d="M114.627,203.088c9.877,4.448,21.675,7.296,34.475,7.915v-73.941
	c-12.8,0.64-24.608,3.477-34.475,7.936c-3.36,1.525-5.547,4.832-5.547,8.523v41.045
	C109.091,198.256,111.267,201.563,114.627,203.088"/>
<path style="fill:#E8EAEA;" d="M141.293,140.55v66.976c0,5.621,4.555,10.187,10.176,10.187c5.611,0,10.176-4.565,10.176-10.187
	V140.55c0-5.611-4.565-10.165-10.176-10.165C145.848,130.384,141.293,134.928,141.293,140.55"/>
<path style="fill:#40596B;" d="M288.707,263.44c0,8.331-9.504,15.061-21.216,15.061c-11.712,0-21.227-6.731-21.227-15.061
	c0-8.309,9.515-15.051,21.227-15.051C279.203,248.39,288.707,255.131,288.707,263.44"/>
<g>
</g>
<g>
</g>
<g>
</g>
<g>
</g>
<g>
</g>
<g>
</g>
<g>
</g>
<g>
</g>
<g>
</g>
<g>
</g>
<g>
</g>
<g>
</g>
<g>
</g>
<g>
</g>
<g>
</g>
</svg>
