<svg height="512pt" viewBox="-110 0 512 512.00328" width="512pt" xmlns="http://www.w3.org/2000/svg"><path d="m291.59375 288.230469-38.324219-137.585938-.027343.007813c-7.191407-24.226563-29.613282-41.902344-56.175782-41.902344h-101.839844c-26.5625 0-48.984374 17.675781-56.175781 41.902344l-.027343-.007813-38.324219 137.589844c-2.796875 10.03125 3.070312 20.425781 13.101562 23.222656 10.03125 2.792969 20.429688-3.074219 23.222657-13.105469l34.371093-123.386718c1.253907-4.5 5.355469-7.617188 10.027344-7.617188 6.800781 0 11.777344 6.417969 10.082031 13.007813l-36.769531 142.933593-5.886719 22.886719c-.8125 3.164063 1.574219 6.246094 4.84375 6.246094h41.160156v140.273437c0 10.222657 7.949219 18.929688 18.167969 19.296876 10.722657.382812 19.539063-8.203126 19.539063-18.84375v-140.726563h27.175781v140.722656c0 10.414063 8.441406 18.855469 18.851563 18.855469 10.414062 0 18.855468-8.441406 18.855468-18.855469v-140.722656h41.160156c3.265626 0 5.65625-3.085937 4.84375-6.25l-5.886718-22.886719-36.773438-142.933594c-1.691406-6.585937 3.28125-13.003906 10.085938-13.003906 4.671875 0 8.773437 3.113282 10.027344 7.617188l34.367187 123.382812c2.796875 10.03125 13.191406 15.898438 23.222656 13.101563 10.03125-2.792969 15.898438-13.191407 13.105469-23.21875zm0 0" fill="#ff94d4"/><path d="m196.054688 49.910156c0 27.5625-22.34375 49.90625-49.90625 49.90625-27.566407 0-49.910157-22.34375-49.910157-49.90625 0-27.566406 22.34375-49.910156 49.910157-49.910156 27.5625 0 49.90625 22.34375 49.90625 49.910156zm0 0" fill="#ff94d4"/><g fill="#ff73c6"><path d="m146.148438 0c-3.648438 0-7.199219.402344-10.621094 1.144531 22.460937 4.867188 39.289062 24.847657 39.289062 48.765625 0 23.917969-16.828125 43.894532-39.289062 48.761719 3.421875.746094 6.972656 1.144531 10.621094 1.144531 27.5625 0 49.90625-22.34375 49.90625-49.90625 0-27.566406-22.34375-49.910156-49.90625-49.910156zm0 0"/><path d="m71.394531 174.964844c1.253907-4.503906 5.355469-7.617188 10.027344-7.617188h-18.714844c-4.675781 0-8.777343 3.113282-10.03125 7.617188l-34.367187 123.386718c-1.386719 4.972657-4.644532 8.914063-8.792969 11.292969 1.324219.757813 2.75 1.382813 4.285156 1.808594 10.03125 2.796875 20.429688-3.070313 23.222657-13.101563zm0 0"/><path d="m291.59375 288.230469-38.324219-137.585938-.027343.007813c-7.191407-24.226563-29.613282-41.902344-56.171876-41.902344h-18.71875c26.5625 0 48.984376 17.675781 56.171876 41.902344l.03125-.007813 38.324218 137.585938c2.367188 8.492187-1.492187 17.230469-8.820312 21.410156 4.222656 2.421875 9.375 3.21875 14.433594 1.808594 10.027343-2.792969 15.894531-13.191407 13.101562-23.21875zm0 0"/><path d="m113.84375 493.144531c0 6.988281-3.8125 13.066407-9.457031 16.324219 2.550781 1.496094 5.480469 2.40625 8.628906 2.519531 10.726563.382813 19.542969-8.199219 19.542969-18.84375v-140.722656h-13.515625c-2.871094 0-5.199219 2.328125-5.199219 5.199219zm0 0"/><path d="m178.726562 493.144531c0 7.003907-3.828124 13.105469-9.496093 16.355469 2.757812 1.582031 5.949219 2.5 9.359375 2.5 10.410156 0 18.851562-8.441406 18.851562-18.851562v-140.726563h-13.515625c-2.871093 0-5.199219 2.328125-5.199219 5.199219zm0 0"/><path d="m200.789062 180.351562c-1.695312-6.585937 3.277344-13.003906 10.082032-13.003906h-18.71875c-6.800782 0-11.777344 6.417969-10.082032 13.003906l44.265626 172.070313h12.265624c3.269532 0 5.65625-3.085937 4.84375-6.25zm0 0"/></g></svg>