<svg id="Capa_1" enable-background="new 0 0 511 511" height="512" viewBox="0 0 511 511" width="512" xmlns="http://www.w3.org/2000/svg"><g><g id="Filled_41_"><circle cx="318.5" cy="215.5" fill="#c7efbc" r="180"/><path d="m480.926 230.932c-16.887-22.518-41.099-35.432-66.426-35.432-10.317 0-20.447 2.101-30 6.165-9.553-4.064-19.683-6.165-30-6.165-25.327 0-49.539 12.914-66.426 35.432-9.592 12.79-16.457 28.056-20.223 44.568h-3.877c-4.477-18.836-13.123-36.599-25.402-51.764-7.618-9.407-11.568-21.902-11.122-35.199.033-1.009.05-2.021.05-3.037 0-35.556-20.727-66.359-50.731-80.97-23.974 30.576-38.269 69.103-38.269 110.97 0 62.615 31.978 117.754 80.486 150h199.027c38.186-25.385 66.118-64.957 76.279-111.196-3.575-8.411-8.044-16.277-13.366-23.372z" fill="#aae79a"/><g fill="#fff"><path d="m318.5 35.5c27.614 0 50 80.589 50 180s-22.386 180-50 180c66.274 0 120-80.589 120-180s-53.726-180-120-180z"/><path d="m268.5 215.5c0-99.411 22.386-180 50-180-66.274 0-120 80.589-120 180s53.726 180 120 180c-27.614 0-50-80.589-50-180z"/></g><path d="m267.85 275.5h-3.877c-4.477-18.836-13.123-36.599-25.402-51.764-7.618-9.407-11.568-21.902-11.122-35.199.033-1.009.05-2.021.05-3.037 0-19.048-5.953-36.728-16.089-51.29-8.255 24.419-12.911 52.038-12.911 81.29 0 62.615 21.319 117.754 53.658 150h38.7c-9.719-23.26-17.048-58.43-20.378-99.728-.996 3.187-1.877 6.432-2.629 9.728z" fill="#eaeaeb"/><path d="m438.5 215.5c0-5.469-.172-10.877-.49-16.222-7.594-2.481-15.495-3.778-23.51-3.778-10.317 0-20.447 2.101-30 6.165-5.268-2.241-10.715-3.862-16.268-4.886.177 6.154.268 12.399.268 18.721 0 62.615-8.883 117.754-22.357 150h38.7c32.338-32.246 53.657-87.385 53.657-150z" fill="#eaeaeb"/><path d="m488.5 335.5h-466c-8.284 0-15-6.716-15-15 0-8.284 6.716-15 15-15h466c8.284 0 15 6.716 15 15 0 8.284-6.716 15-15 15z" fill="#decba0"/><path d="m423.163 475.5h-335.326c-18.862 0-35.16-13.176-39.112-31.619l-23.225-108.381h460l-23.225 108.381c-3.952 18.443-20.25 31.619-39.112 31.619z" fill="#decba0"/><path d="m430.453 445.5h-349.906c-15.015 0-28.467-8.008-35.836-20.348l4.013 18.729c3.952 18.443 20.251 31.619 39.112 31.619h335.327c18.862 0 35.16-13.176 39.112-31.619l4.013-18.729c-7.368 12.34-20.819 20.348-35.835 20.348z" fill="#d4b981"/><path d="m93.359 93.316c19.132 11.046 47.141-1.651 47.141-1.651s-3.009-30.605-22.141-41.651-47.141 1.651-47.141 1.651 3.009 30.606 22.141 41.651z" fill="#c7efbc"/><path d="m474.5 305.5c0-44.183-26.863-80-60-80-10.929 0-21.175 3.898-30 10.705-8.825-6.807-19.071-10.705-30-10.705-33.137 0-60 35.817-60 80z" fill="#e46a4a"/><path d="m237.5 305.5c0-23.826-8.333-45.705-22.243-62.883-12.549-15.497-18.46-35.141-17.791-55.07.023-.679.034-1.362.034-2.047 0-33.137-26.863-60-60-60s-60 26.863-60 60c0 .685.011 1.367.034 2.047.669 19.929-5.243 39.573-17.791 55.07-13.91 17.178-22.243 39.057-22.243 62.883z" fill="#faef93"/><path d="m37.5 305.5h200c0-10.452-1.605-20.53-4.58-30h-190.84c-2.975 9.47-4.58 19.548-4.58 30z" fill="#f8e868"/><path d="m294.5 305.5h180c0-10.613-1.564-20.733-4.378-30h-171.244c-2.814 9.267-4.378 19.387-4.378 30z" fill="#db380e"/></g><g id="Outline_41_"><path d="m488.5 298h-6.757c-1.309-20.167-7.865-38.966-18.817-53.568-12.783-17.045-29.981-26.432-48.426-26.432-7.713 0-15.32 1.696-22.5 4.96v-3.285c0-23.551-14.815-44.93-36.867-53.198l-5.267 14.045c16.229 6.086 27.133 21.82 27.133 39.153v3.285c-7.18-3.265-14.787-4.96-22.5-4.96-19.681 0-38.31 11.018-51.11 30.228l12.482 8.318c9.972-14.964 24.051-23.546 38.629-23.546 8.874 0 17.664 3.162 25.419 9.144l4.581 3.533 4.581-3.533c7.756-5.981 16.546-9.144 25.419-9.144 19.017 0 35.704 14.036 44.916 35h-29.916v15h34.899c1.138 4.803 1.933 9.818 2.32 15h-62.362v15h84.143c4.136 0 7.5 3.364 7.5 7.5s-3.364 7.5-7.5 7.5h-250-15-201c-4.136 0-7.5-3.364-7.5-7.5s3.364-7.5 7.5-7.5h101.857v-15h-79.042c.415-5.073 1.256-10.089 2.49-15h30.695v-15h-25.536c2.32-5.238 5.126-10.262 8.391-15h36.145v-15h-25.378c8.414-13.899 12.963-30.361 12.963-47.418 0-1.095-.019-2.191-.055-3.283-.02-.597-.03-1.197-.03-1.799 0-6.721 1.25-13.262 3.716-19.442l-13.933-5.559c-3.174 7.957-4.783 16.368-4.783 25.001 0 .768.013 1.532.039 2.3.031.929.047 1.855.047 2.782 0 17.634-5.743 34.437-16.171 47.314-13.846 17.1-22.085 38.203-23.628 60.104h-7.787c-12.407 0-22.5 10.094-22.5 22.5 0 11.351 8.45 20.76 19.39 22.28l22.001 102.672c4.662 21.757 24.195 37.548 46.445 37.548h335.327c22.25 0 41.783-15.791 46.445-37.548l22.002-102.672c10.94-1.52 19.39-10.929 19.39-22.28 0-12.406-10.093-22.5-22.5-22.5zm-75.217 45-16.603 16.603-16.603-16.603zm8.08 62.5-24.683 24.683-24.683-24.683 24.683-24.683zm-35.29-35.29-24.683 24.683-24.693-24.693 24.683-24.683zm-35.29 35.29-24.693 24.693-24.693-24.693 24.693-24.693zm-8.1-62.5-16.593 16.593-16.593-16.593zm-27.2 27.2-24.693 24.693-24.683-24.683 24.693-24.693zm-35.3 35.3-24.683 24.683-24.683-24.683 24.683-24.683zm-8.08-62.5-16.603 16.603-16.603-16.603zm-27.21 27.21-24.683 24.683-24.693-24.693 24.683-24.683zm-35.29 35.29-24.693 24.693-24.693-24.693 24.693-24.693zm-8.1-62.5-16.593 16.593-16.593-16.593zm-27.2 27.2-24.693 24.693-24.683-24.683 24.693-24.693zm-35.3 35.3-24.683 24.683-24.683-24.683 24.683-24.683zm-8.08-62.5-16.603 16.603-16.603-16.603zm-94.062 9.724-2.084-9.724h41.726l27.21 27.21-24.683 24.683zm14.883 69.455-9.098-42.456 25.777 25.777zm26.295 44.286c-10.871-3.481-19.501-12.583-21.98-24.155l-.57-2.66 23.542-23.542 24.683 24.683zm19.678 1.535 16.603-16.603 16.603 16.603zm27.21-27.21 24.683-24.683 24.693 24.693-24.683 24.683zm43.39 27.21 16.593-16.593 16.593 16.593zm27.2-27.2 24.693-24.693 24.683 24.683-24.693 24.693zm43.38 27.2 16.603-16.603 16.603 16.603zm27.21-27.21 24.683-24.683 24.693 24.693-24.683 24.683zm43.39 27.21 16.593-16.593 16.593 16.593zm27.2-27.2 24.693-24.693 24.683 24.683-24.693 24.693zm43.38 27.2 16.603-16.603 16.603 16.603zm74.865-25.69c-2.48 11.572-11.11 20.675-21.98 24.155l-25.675-25.675 24.683-24.683 23.542 23.542zm4.314-20.131-16.679-16.679 25.776-25.777zm14.883-69.455-42.169 42.169-24.683-24.683 27.21-27.21h41.726z"/><path d="m89.609 99.812c7.085 4.091 15.011 5.497 22.563 5.497 6.931 0 13.544-1.186 18.905-2.568-.707 3.563-1.077 7.222-1.077 10.936v4.752c-18.671 2.107-35.885 11.993-47.077 27.347l12.121 8.836c9.864-13.533 25.735-21.612 42.456-21.612 28.949 0 52.5 23.552 52.5 52.5 0 .602-.01 1.202-.03 1.798-.036 1.096-.055 2.19-.055 3.284 0 21.059 6.93 41.215 19.513 56.754 11.69 14.437 18.745 32.194 20.257 50.664h-90.328v15h250v-15h-87.072c.787-10.394 3.2-20.457 7.098-29.459l-13.765-5.961c-4.699 10.851-7.544 22.968-8.364 35.42h-42.541c-1.543-21.901-9.782-43.004-23.628-60.104-10.428-12.878-16.17-29.681-16.17-47.314 0-.928.016-1.856.047-2.787.025-.763.038-1.527.038-2.295 0-34.684-26.298-63.329-60-67.073v-4.751c0-17.333 10.904-33.067 27.133-39.153l-5.267-14.045c-8.663 3.248-16.202 8.526-22.172 15.158-3.345-10.884-9.923-24.805-22.586-32.116-22.213-12.824-52.7.731-53.987 1.315l-4.894 2.218.526 5.348c.139 1.405 3.643 34.585 25.856 47.411zm25-43.302c11.114 6.417 15.748 21.931 17.492 30.307-8.132 2.678-23.882 6.418-34.992.005-11.113-6.416-15.748-21.93-17.492-30.306 8.131-2.68 23.88-6.421 34.992-.006z"/><path d="m491 215.5c0 13.627-1.605 27.225-4.772 40.415l14.586 3.502c3.441-14.337 5.186-29.112 5.186-43.917 0-32.536-8.465-64.591-24.482-92.698l-13.032 7.426c14.729 25.849 22.514 55.335 22.514 85.272z"/><path d="m181.482 110.709c18.371-23.983 42.02-42.256 68.723-53.742-.432.402-.864.802-1.293 1.212-19.608 18.748-35.315 45.06-45.422 76.091l14.263 4.645c14.776-45.368 42.025-78.229 73.296-90.557-5.676 9.453-10.758 22.116-15.13 37.857-9.621 34.632-14.919 80.546-14.919 129.285 0 19.276.836 38.29 2.487 56.515l14.938-1.354c-1.609-17.775-2.425-36.335-2.425-55.161 0-47.421 5.104-91.909 14.371-125.271 9.683-34.86 21.205-47.229 28.129-47.229 6.704 0 14.822 10.403 21.717 27.829 7.997 20.209 14.071 48.377 17.568 81.459l14.917-1.576c-2.148-20.322-9.211-73.098-26.636-102.384 45.568 17.881 80.738 78.916 84.581 153.493l14.98-.771c-2.395-46.479-16.366-89.724-39.338-121.766-5.944-8.29-12.357-15.646-19.149-22.016 29.365 12.744 55.062 33.584 73.719 60.787l12.37-8.484c-35.031-51.078-92.874-81.571-154.729-81.571-.812 0-1.623.012-2.434.035-28.797.359-56.358 7.067-81.951 19.99-25.084 12.667-47.402 31.188-64.542 53.563z"/></g><g fill="#fff"><path d="m112.5 238h15v15h-15z"/><path d="m399.5 268h15v15h-15z"/></g></g></svg>