<svg id="Capa_1" enable-background="new 0 0 512 512" height="512" viewBox="0 0 512 512" width="512" xmlns="http://www.w3.org/2000/svg"><path d="m215.593 70.13s-62.63-62.63-135.362-62.63c-42.427 0-58.589 28.285-58.589 56.569s17.173 56.569 48.488 56.569h145.463z" fill="#fbe77b"/><path d="m215.593 70.13s-62.63-62.63-135.362-62.63c-42.427 0-58.589 28.285-58.589 56.569s17.173 56.569 48.488 56.569h145.463z" fill="#fbe77b"/><path d="m197.411 54.476v35.858c0 5.579-4.523 10.102-10.102 10.102h-154.989c8.188 11.991 20.943 20.203 37.81 20.203h145.463v-50.509s-6.671-6.67-18.182-15.654z" fill="#fcdd2e"/><path d="m296.406 70.13s62.63-62.63 135.362-62.63c42.427 0 58.589 28.285 58.589 56.569s-17.173 56.569-48.488 56.569h-145.463z" fill="#fbe77b"/><path d="m314.589 54.476v35.858c0 5.579 4.523 10.102 10.102 10.102h154.989c-8.188 11.991-20.943 20.203-37.81 20.203h-145.464v-50.509s6.672-6.67 18.183-15.654z" fill="#fcdd2e"/><path d="m296.406 120.638h-80.813v-50.65c0-7.732 6.268-14 14-14h52.813c7.732 0 14 6.268 14 14z" fill="#fbe77b"/><path d="m215.593 100.435h80.813v20.203h-80.813z" fill="#fcdd2e"/><path d="m7.5 120.638h497v80.813h-497z" fill="#fb636f"/><path d="m478.236 120.638h26.264v80.813h-26.264z" fill="#fa4954"/><path d="m195.39 120.638h121.22v80.813h-121.22z" fill="#fbe77b"/><path d="m33.764 201.451h444.472v303.049h-444.472z" fill="#fb636f"/><path d="m33.764 201.451h444.472v24.244h-444.472z" fill="#fa4954"/><path d="m215.593 201.451h80.813v303.049h-80.813z" fill="#fbe77b"/><path d="m215.593 201.451h80.813v24.244h-80.813z" fill="#fcdd2e"/><path d="m504.5 113.138h-25.687c1.754-1.729 3.423-3.582 4.976-5.588 9.073-11.725 14.069-27.167 14.069-43.481 0-17.108-5.418-32.681-15.257-43.849-11.654-13.228-29.231-20.22-50.833-20.22-60.014 0-112.375 39.834-132.243 57.092-3.955-5.223-10.22-8.604-17.261-8.604h-52.528c-7.041 0-13.306 3.382-17.261 8.604-19.868-17.258-72.229-57.092-132.243-57.092-21.602 0-39.179 6.992-50.833 20.22-9.838 11.168-15.257 26.741-15.257 43.849 0 16.314 4.997 31.756 14.069 43.481 1.552 2.006 3.222 3.859 4.976 5.588h-25.687c-4.142 0-7.5 3.358-7.5 7.5v80.813c0 4.142 3.358 7.5 7.5 7.5h18.764v93.12c0 4.142 3.358 7.5 7.5 7.5s7.5-3.358 7.5-7.5v-93.12h166.829v288.049h-166.829v-159.375c0-4.142-3.358-7.5-7.5-7.5s-7.5 3.358-7.5 7.5v166.875c0 4.142 3.358 7.5 7.5 7.5h444.472c4.142 0 7.5-3.358 7.5-7.5v-166.875c0-4.142-3.358-7.5-7.5-7.5s-7.5 3.358-7.5 7.5v159.375h-166.829v-159.375c0-4.142-3.358-7.5-7.5-7.5s-7.5 3.358-7.5 7.5v159.375h-65.813v-288.049h65.813v93.038c0 4.142 3.358 7.5 7.5 7.5s7.5-3.358 7.5-7.5v-93.038h166.829v93.12c0 4.142 3.358 7.5 7.5 7.5s7.5-3.358 7.5-7.5v-93.12h18.764c4.142 0 7.5-3.358 7.5-7.5v-80.813c0-4.142-3.358-7.5-7.5-7.5zm-21.642-49.069c0 24.384-14.079 49.069-40.988 49.069h-137.963v-14.122c4.284-2.03 11.627-5.224 19.789-7.525 3.987-1.124 6.308-5.267 5.184-9.253s-5.266-6.309-9.253-5.184c-5.852 1.649-11.291 3.686-15.719 5.541v-9.248c11.478-10.64 66.395-58.347 127.86-58.347 47.406 0 51.09 37.558 51.09 49.069zm-279.968 129.882v-65.813h106.22v65.813zm26.846-130.463h52.528c3.662 0 6.642 2.979 6.643 6.641v.004 24.215.058 18.733h-65.813v-18.734c0-.019 0-.039 0-.058v-24.215c0-.001 0-.003 0-.004 0-3.661 2.98-6.64 6.642-6.64zm-200.594.581c0-11.511 3.684-49.069 51.09-49.069 61.344 0 116.369 47.721 127.861 58.351v9.244c-4.428-1.855-9.867-3.892-15.719-5.541-3.983-1.124-8.129 1.197-9.253 5.184s1.197 8.129 5.184 9.253c8.124 2.29 15.49 5.493 19.789 7.529v14.118h-137.964c-26.909 0-40.988-24.684-40.988-49.069zm-14.142 64.069h172.89v65.813h-172.89zm482 65.813h-172.89v-65.813h172.89z"/></svg>