<svg id="Capa_1" enable-background="new 0 0 512 512" height="512" viewBox="0 0 512 512" width="512" xmlns="http://www.w3.org/2000/svg"><g><g><path d="m87.924 486.194v-269.938c0-2.98 3.31-4.768 5.802-3.135l33.393 21.885c1.715 1.124 3.933 1.124 5.647 0l36.372-23.837c1.715-1.124 3.933-1.124 5.647 0l36.372 23.837c1.715 1.124 3.933 1.124 5.647 0l36.372-23.837c1.715-1.124 3.933-1.124 5.647 0l36.372 23.837c1.715 1.124 3.932 1.124 5.647 0l36.372-23.837c1.715-1.124 3.932-1.124 5.647 0l36.372 23.837c1.715 1.124 3.933 1.124 5.647 0l33.393-21.885c2.492-1.634 5.802.155 5.802 3.135v269.938c0 14.253-11.554 25.806-25.806 25.806h-284.538c-14.253 0-25.807-11.554-25.807-25.806z" fill="#ffc89f"/></g><g><path d="m405.495 221.496v264.698c0 14.252-11.554 25.806-25.807 25.806h18.581c14.252 0 25.806-11.554 25.806-25.806v-269.938c0-2.98-3.31-4.768-5.802-3.135z" fill="#f7b081"/></g><path d="m132.767 235.006 36.372-23.837c1.715-1.124 3.933-1.124 5.647 0l36.372 23.837c1.715 1.124 3.933 1.124 5.647 0l1.2-.786c1.242-20.803 1.908-41.612 1.908-61.661 0-124.484-25.521-172.559-57.003-172.559-31.481 0-57.002 48.075-57.002 172.558 0 16.096.43 32.681 1.241 49.36l19.97 13.088c1.715 1.124 3.933 1.124 5.648 0z" fill="#e7a561"/><g><path d="m162.91 0c-3.164 0-6.267.495-9.29 1.495 27.062 8.95 47.712 59.092 47.712 171.064 0 17.91-.534 36.427-1.533 55.004l11.359 7.444c1.715 1.124 3.933 1.124 5.647 0l1.2-.786c1.242-20.803 1.908-41.612 1.908-61.661 0-124.485-25.521-172.56-57.003-172.56z" fill="#e49542"/></g><path d="m227.943 227.706 25.233-16.538c1.715-1.124 3.933-1.124 5.647 0l36.372 23.837c1.715 1.124 3.932 1.124 5.647 0l36.372-23.837c1.715-1.124 3.932-1.124 5.647 0l20.706 13.57c3.623-10.889 6.078-23.008 6.883-35.938 2.551-40.989-35.51-57.744-75.208-57.744s-77.76 16.755-75.208 57.744c.879 14.118 3.724 27.269 7.909 38.906z" fill="#dd636e"/><g><path d="m295.242 131.057c-3.113 0-6.216.103-9.29.313 36.128 2.464 68.269 19.657 65.918 57.432-.561 9.008-1.938 17.611-3.938 25.691l15.635 10.247c3.623-10.889 6.078-23.008 6.883-35.938 2.551-40.99-35.509-57.745-75.208-57.745z" fill="#da4a54"/></g><path d="m411.69 170.758c0 20.646-4.193 39.19-11.261 54.057l-15.546 10.189c-.814.525-1.731.814-2.648.845-1.04.031-2.091-.247-2.998-.845l-15.67-10.261c3.626-10.89 6.078-23.016 6.882-35.945 2.555-40.983-35.513-57.745-75.208-57.745-36.172 0-70.973 13.929-74.94 47.412-.103-2.514-.154-5.079-.154-7.706 0-10.199 2.606-19.791 7.181-28.146-5.707-6.439-9.179-14.897-9.179-24.17 0-15.227 9.334-28.27 22.593-33.72-2.194-4.688-3.42-9.911-3.42-15.423 0-20.131 16.319-36.45 36.45-36.45 1.999 0 3.956.165 5.872.474.907-9.406 5.388-17.761 12.064-23.696 6.718-5.871 15.265-9.21 24.211-9.21 18.915 0 34.462 14.403 36.264 32.844 17.514 2.658 30.928 17.782 30.928 36.038 0 5.512-1.226 10.735-3.42 15.423 13.249 5.45 22.593 18.493 22.593 33.72 0 5.584-1.267 10.869-3.513 15.598 8.077 10.054 12.919 22.819 12.919 36.717z" fill="#b7e445"/><g><path d="m411.69 170.758c0 20.646-4.193 39.19-11.261 54.057l-15.546 10.189c-.814.525-1.731.814-2.648.845 6.274-15.382 12.342-38.387 12.342-56.571 0-13.898-4.842-26.652-12.919-36.708 2.246-4.739 3.513-10.024 3.513-15.608 0-15.227-9.344-28.259-22.593-33.72 2.194-4.688 3.42-9.911 3.42-15.423 0-18.256-13.414-33.37-30.928-36.038-1.803-18.441-17.349-32.844-36.264-32.844-2.431 0-4.801.237-7.098.69 6.718-5.871 15.265-9.21 24.211-9.21 18.915 0 34.462 14.403 36.264 32.844 17.514 2.658 30.928 17.782 30.928 36.038 0 5.512-1.226 10.735-3.42 15.423 13.249 5.45 22.593 18.493 22.593 33.72 0 5.584-1.267 10.869-3.513 15.598 8.077 10.055 12.919 22.82 12.919 36.718z" fill="#9dc63d"/></g><g fill="#aa593d"><path d="m175.567 94.134c4.276 0 7.742-3.466 7.742-7.742s-3.466-7.742-7.742-7.742h-25.313c-4.276 0-7.742 3.466-7.742 7.742s3.466 7.742 7.742 7.742z"/><path d="m134.06 127.66c0 4.276 3.466 7.742 7.742 7.742h42.218c4.276 0 7.742-3.466 7.742-7.742s-3.466-7.742-7.742-7.742h-42.218c-4.276 0-7.742 3.466-7.742 7.742z"/><path d="m141.801 176.669h42.218c4.276 0 7.742-3.466 7.742-7.742s-3.466-7.742-7.742-7.742h-42.218c-4.276 0-7.742 3.466-7.742 7.742.001 4.276 3.467 7.742 7.742 7.742z"/></g><path d="m321.888 157.743c-2.647-3.348-7.507-3.916-10.853-1.27-.043.034-3.061 2.32-8.019 3.745-.8-13.002-6.001-35.826-30.881-50.283-3.689-2.143-8.418-.891-10.563 2.799-2.144 3.69-.891 8.419 2.799 10.563 18.246 10.602 22.406 27.232 23.178 36.967-5.086-1.429-8.245-3.786-8.252-3.791-3.347-2.647-8.207-2.078-10.853 1.27s-2.077 8.207 1.27 10.853c1.06.838 10.781 8.187 25.443 8.19.006 0 .013.001.019.001.029 0 .057-.004.085-.004 14.613-.032 24.299-7.352 25.357-8.188 3.347-2.646 3.916-7.505 1.27-10.852z" fill="#c32430"/></g></svg>