<svg height="512" viewBox="0 0 55 58" width="512" xmlns="http://www.w3.org/2000/svg"><g id="009---Lipstick" fill="none" transform="translate(0 -1)"><path id="Shape" d="m40 15.67c-4.04-4.04-8.99-2.64-11.79-1.3-1.3948603.68005-3.0251397.68005-4.42 0-2.8-1.34-7.75-2.74-11.79 1.3-6 6-5 8.33-12 13.33l10 12c6.659 7.991 19.075 8.787 27 4.21l3-5.21c0-.5522847.4477153-1 1-1h1c0-12-.03-13.16.02-13.26.1324394-.9933028.9779137-1.7362954 1.98-1.74l-3-7.3c-.31-.33-.64-.67-1-1.03z" fill="#ff5364"/><path id="Shape" d="m39 33.85v5.15h-1c-.5522847 0-1 .4477153-1 1v5.21c-7.843 4.529-20.283 3.85-27-4.21l-10-12c1.55501579.0541093 3.11169696-.0362786 4.65-.27 7.95 8.116 24.988 8.87 34.35 5.12z" fill="#df4d60"/><path id="Shape" d="m39.01 25.8c-.016.094-.01-.343-.01 8.05-9.48 3.793-26.448 2.95-34.35-5.12 2.94314334-.3827677 5.7700092-1.3921191 8.29-2.96 5.129 3.071 21.175 2.91 26.07.03z" fill="#59474e"/><path id="Shape" d="m55 40v15c0 2.209139-1.790861 4-4 4h-10c-2.209139 0-4-1.790861-4-4v-15c0-.5522847.4477153-1 1-1h16c.5522847 0 1 .4477153 1 1z" fill="#f0c419"/><path id="Shape" d="m39.02 25.74c-.0081444.0188947-.0115762.0394852-.01.06-5 2.942-21.03 2.987-26.07-.03.3660727-.2386554.7198568-.4956495 1.06-.77 4.56-3.65 5.79-3.97 10.52-2.48.9638621.3000035 1.9961379.3000035 2.96 0 4.73-1.49 5.96-1.17 10.52 2.48.3268104.2643537.6672793.5113606 1.02.74z" fill="#fff"/><path id="Shape" d="m53 26v13h-14c0-12-.03-13.16.02-13.26.1324394-.9933028.9779137-1.7362954 1.98-1.74h10c1.1032019.0032948 1.9967052.8967981 2 2z" fill="#f3d55b"/><path id="Shape" d="m51 7.2v16.8h-10.0000003l.0000003-16.8c-.000224-.41572369.1291042-.82118521.37-1.16l3-4.2c.3751677-.52766577.9825573-.84107809 1.63-.84107809s1.2548323.31341232 1.63.84107809c3.219 4.507 3.37 4.506 3.37 5.36z" fill="#df4d60"/><path id="Shape" d="m42 39v7c0 .5522847-.4477153 1-1 1s-1-.4477153-1-1v-7z" fill="#f9eab0"/><g fill="#fb7b76"><path id="Shape" d="m19 43c-.3464401-.000185-.6681037-.1796678-.8501945-.4743943-.1820909-.2947265-.1986643-.6627032-.0438055-.9726057l1-2c.2468713-.4942948.8477051-.6948712 1.342-.448.4942948.2468713.6948713.8477052.448 1.342l-1 2c-.1695854.3393743-.5166139.553556-.896.553z"/><path id="Shape" d="m33 43c-.3808256.0020788-.7297741-.2123306-.9-.553l-1-2c-.1596977-.3197527-.1366785-.7004141.0603866-.9985928.1970651-.2981786.5382372-.4685741.895-.447.3567629.0215741.6749157.2318401.8346134.5515928l1 2c.1545455.3092668.1383796.6764236-.0427493.9709106-.1811288.294487-.5015228.4745236-.8472507.4760894z"/><path id="Shape" d="m24 44c-.5522847 0-1-.4477153-1-1v-2c0-.5522847.4477153-1 1-1s1 .4477153 1 1v2c0 .5522847-.4477153 1-1 1z"/><path id="Shape" d="m28 44c-.5522847 0-1-.4477153-1-1v-2c0-.5522847.4477153-1 1-1s1 .4477153 1 1v2c0 .5522847-.4477153 1-1 1z"/></g></g></svg>