<?xml version="1.0" encoding="iso-8859-1"?>
<!-- Generator: Adobe Illustrator 19.0.0, SVG Export Plug-In . SVG Version: 6.00 Build 0)  -->
<svg version="1.1" id="Capa_1" xmlns="http://www.w3.org/2000/svg" xmlns:xlink="http://www.w3.org/1999/xlink" x="0px" y="0px"
	 viewBox="0 0 512 512" style="enable-background:new 0 0 512 512;" xml:space="preserve">
<rect x="128" style="fill:#FF8800;" width="256" height="256"/>
<rect x="256" style="fill:#E47700;" width="128" height="256"/>
<polygon style="fill:#FFDB0C;" points="213.976,0 213.976,84.047 256,70.385 298.024,84.047 298.024,0 "/>
<polygon style="fill:#FBBF00;" points="256,0 256,70.385 298.024,84.047 298.024,0 "/>
<rect y="256" style="fill:#82D2FF;" width="256" height="256"/>
<rect x="128" y="256" style="fill:#08B7FC;" width="128" height="256"/>
<polygon style="fill:#FFDB0C;" points="85.976,256 85.976,340.047 128,326.385 170.024,340.047 170.024,256 "/>
<polygon style="fill:#FBBF00;" points="128,256 128,326.385 170.024,340.047 170.024,256 "/>
<rect x="256" y="256" style="fill:#FFDB0C;" width="256" height="256"/>
<rect x="384" y="256" style="fill:#FBBF00;" width="128" height="256"/>
<polygon style="fill:#FDE888;" points="341.976,256 341.976,340.047 384,326.385 426.024,340.047 426.024,256 "/>
<polygon style="fill:#FFDB0C;" points="384,256 384,326.385 426.024,340.047 426.024,256 "/>
<g>
</g>
<g>
</g>
<g>
</g>
<g>
</g>
<g>
</g>
<g>
</g>
<g>
</g>
<g>
</g>
<g>
</g>
<g>
</g>
<g>
</g>
<g>
</g>
<g>
</g>
<g>
</g>
<g>
</g>
</svg>
