<?xml version="1.0" encoding="iso-8859-1"?>
<!-- Generator: Adobe Illustrator 19.0.0, SVG Export Plug-In . SVG Version: 6.00 Build 0)  -->
<svg version="1.1" id="Layer_1" xmlns="http://www.w3.org/2000/svg" xmlns:xlink="http://www.w3.org/1999/xlink" x="0px" y="0px"
	 viewBox="0 0 512.001 512.001" style="enable-background:new 0 0 512.001 512.001;" xml:space="preserve">
<g>
	<path style="fill:#F99A98;" d="M329.916,142.031c0,10.043,9.317,15.432,14.244,25.473c3.094,6.295,4.873,24.865-16.764,24.933
		c-39.965,0.122-57.634-14.803-65.4-28.642c-1.908,0.524-3.923,0.803-5.998,0.803c-2.073,0-4.088-0.279-5.998-0.805
		c-7.763,13.841-25.433,28.765-65.398,28.644c-21.636-0.067-19.857-18.638-16.764-24.933c4.927-10.041,14.245-15.43,14.245-25.473
		c0-10.041-9.317-15.431-14.245-25.47c-3.094-6.298-4.873-24.868,16.764-24.935c39.965-0.122,57.634,14.804,65.398,28.644
		c1.911-0.523,3.926-0.804,5.998-0.804c2.075,0,4.09,0.282,5.998,0.808c7.765-13.842,25.435-28.768,65.4-28.646
		c21.636,0.067,19.857,18.637,16.764,24.935C339.234,126.599,329.916,131.99,329.916,142.031L329.916,142.031z M136.386,19.286
		L46.337,51.763c-24.876,8.969-17.072,45.067-3.882,81.415c18.506,50.99,11.313,66.029,58.818,66.098
		c-0.092,56.268-0.188,87.392-0.277,143.659c-0.067,41.174-7.115,55.095,26.605,60.232c36.042,5.486,90.676,19.299,90.676,91.467
		c0,9.219,25.147,6.241,37.721,6.241c12.576,0,37.723,2.977,37.723-6.241c0-72.167,54.635-85.982,90.676-91.467
		c33.72-5.136,26.67-19.058,26.602-60.232c-0.087-56.268-0.181-87.392-0.273-143.659c47.505-0.069,40.313-15.108,58.814-66.098
		c13.194-36.348,21-72.445-3.875-81.415l-90.05-32.477c-22.375-8.069-29.337-15.112-40.645,1.5
		c-17.174,25.243-46.136,41.825-78.971,41.825c-32.833,0-61.796-16.582-78.971-41.825C165.723,4.173,158.76,11.218,136.386,19.286z"
		/>
	<g>
		<path style="fill:#F9EACD;" d="M344.161,167.504c-4.927-10.041-14.244-15.43-14.244-25.473c0-10.041,9.317-15.431,14.244-25.47
			c3.094-6.298,4.873-24.868-16.764-24.935c-39.965-0.122-57.634,14.804-65.4,28.644c9.555,2.628,16.572,11.377,16.572,21.762
			c0,10.389-7.017,19.137-16.572,21.764c7.765,13.839,25.435,28.763,65.4,28.642C349.034,192.37,347.255,173.8,344.161,167.504z"/>
		<path style="fill:#F9EACD;" d="M233.432,142.031c0-10.386,7.017-19.134,16.57-21.762c-7.763-13.839-25.433-28.764-65.398-28.644
			c-21.636,0.067-19.857,18.637-16.764,24.935c4.927,10.039,14.245,15.429,14.245,25.47c0,10.043-9.317,15.432-14.245,25.473
			c-3.094,6.295-4.873,24.865,16.764,24.933c39.965,0.122,57.634-14.803,65.398-28.642
			C240.448,161.168,233.432,152.42,233.432,142.031z"/>
	</g>
	<path style="fill:#7BA9D6;" d="M250.001,120.269c-9.553,2.628-16.57,11.377-16.57,21.762c0,10.389,7.017,19.137,16.57,21.764
		c1.911,0.524,3.926,0.803,5.998,0.803c2.075,0,4.09-0.279,5.998-0.803c9.555-2.627,16.572-11.376,16.572-21.764
		c0-10.386-7.017-19.134-16.572-21.759c-1.908-0.526-3.923-0.808-5.998-0.808C253.927,119.464,251.912,119.746,250.001,120.269z"/>
</g>
<g>
	<path style="fill:#000003;" d="M488.48,59.047c-3.836-8.185-10.473-14.174-19.195-17.318L379.234,9.251
		c-3.59-1.294-6.853-2.596-9.73-3.745C361.795,2.43,355.707,0,349.276,0c-11.576,0-18.438,7.9-23.125,14.785
		c-15.83,23.267-42.055,37.158-70.152,37.158c-28.096,0-54.32-13.891-70.152-37.161C181.164,7.901,174.301,0,162.726,0
		c-6.431,0-12.519,2.43-20.226,5.506c-2.879,1.149-6.14,2.45-9.732,3.745L42.719,41.727c-8.722,3.145-15.36,9.134-19.197,17.318
		c-7.53,16.065-4.781,40.05,8.907,77.771c3.587,9.881,6.171,18.337,8.451,25.798c4.912,16.082,8.463,27.702,17.205,35.834
		c8.163,7.594,19.018,10.374,32.506,11.199c-0.039,23.043-0.081,41.981-0.121,60.877c-0.048,22.036-0.094,44.019-0.14,72.394
		c-0.011,6.539-0.204,12.466-0.378,17.696c-0.9,27.501-1.55,47.372,36.044,53.1c40.359,6.142,81.615,20.56,81.615,80.921
		c0,2.814,0.994,12.267,13.771,15.744c4.073,1.108,9.249,1.624,16.285,1.624c3.688,0,7.471-0.138,10.811-0.26
		c2.787-0.101,5.421-0.198,7.521-0.198c2.1,0,4.734,0.096,7.524,0.198c3.34,0.122,7.124,0.26,10.811,0.26
		c7.038,0,12.211-0.515,16.285-1.624c12.778-3.475,13.771-12.929,13.771-15.744c0-60.361,41.257-74.779,81.615-80.921
		c37.594-5.727,36.942-25.598,36.039-53.1c-0.171-5.229-0.367-11.157-0.378-17.694c-0.046-29.132-0.092-51.524-0.14-74.156
		c-0.039-18.316-0.077-36.788-0.116-59.116c13.489-0.825,24.343-3.604,32.506-11.199c8.742-8.133,12.292-19.753,17.205-35.835
		c2.277-7.461,4.861-15.916,8.446-25.796C493.261,99.097,496.009,75.113,488.48,59.047z M459.513,129.538
		c-3.773,10.398-6.442,19.134-8.796,26.841c-4.086,13.381-6.788,22.22-11.332,26.448c-4.33,4.029-12.905,5.757-28.675,5.781
		c-2.829,0.004-5.54,1.132-7.538,3.136c-1.998,2.003-3.117,4.719-3.113,7.548c0.044,27.14,0.09,48.431,0.133,69.514
		c0.048,22.627,0.096,45.017,0.14,74.145c0.013,6.871,0.212,12.975,0.389,18.359c0.375,11.437,0.671,20.472-1.427,24.618
		c-0.625,1.238-2.29,4.527-16.501,6.692c-19.018,2.894-43.423,8.084-63.508,22.635c-23.018,16.677-35.173,41.869-36.164,74.925
		c-1.721,0.255-4.471,0.485-8.788,0.485c-3.298,0-6.721-0.125-10.032-0.245c-2.99-0.11-5.813-0.212-8.302-0.212
		s-5.312,0.103-8.3,0.212c-3.311,0.121-6.734,0.245-10.032,0.245c-4.317,0-7.067-0.23-8.788-0.485
		c-0.992-33.056-13.146-58.248-36.164-74.925c-20.084-14.552-44.49-19.741-63.506-22.635c-14.213-2.165-15.878-5.454-16.506-6.693
		c-2.098-4.146-1.802-13.18-1.427-24.618c0.177-5.385,0.375-11.489,0.387-18.359c0.046-28.372,0.092-50.35,0.14-72.382
		c0.046-21.664,0.092-43.38,0.138-71.277c0.004-2.829-1.115-5.545-3.113-7.548c-1.998-2.003-4.709-3.132-7.538-3.136
		c-15.769-0.022-24.345-1.752-28.675-5.781c-4.546-4.227-7.246-13.067-11.334-26.447c-2.354-7.708-5.023-16.444-8.798-26.843
		C41.353,98.867,38.109,78.196,42.841,68.1c1.458-3.111,3.652-5.054,7.117-6.303l90.049-32.477c3.93-1.417,7.367-2.789,10.403-4
		c5.356-2.138,9.984-3.985,12.315-3.985c1.544,0,4.098,3.417,5.484,5.452C188.017,55.899,220.836,73.278,256,73.278
		c35.167,0,67.985-17.38,87.791-46.49c1.386-2.036,3.942-5.453,5.485-5.453c2.332,0,6.96,1.848,12.32,3.986
		c3.034,1.211,6.473,2.584,10.401,4l90.053,32.477c3.46,1.248,5.657,3.193,7.113,6.302
		C473.894,78.197,470.647,98.868,459.513,129.538z"/>
	<path style="fill:#000003;" d="M125.707,57.155l-0.118,0.043c-5.572,1.915-8.534,7.984-6.619,13.556
		c1.521,4.423,5.659,7.203,10.086,7.203c1.15,0,2.321-0.188,3.469-0.582l0.49-0.175c5.535-2.018,8.388-8.14,6.369-13.675
		C137.363,57.988,131.242,55.135,125.707,57.155z"/>
	<path style="fill:#000003;" d="M96.986,67.509L69.789,77.32c-5.542,1.999-8.413,8.112-6.413,13.654
		c1.567,4.346,5.665,7.05,10.034,7.05c1.202,0,2.423-0.205,3.618-0.636l27.198-9.81c5.542-1.999,8.413-8.112,6.413-13.654
		C108.641,68.383,102.53,65.509,96.986,67.509z"/>
	<path style="fill:#000003;" d="M353.736,121.26c3.491-7.113,4.667-18.926-1.002-28.055c-3.454-5.562-10.648-12.201-25.304-12.247
		c-0.175,0-0.339,0-0.512,0c-39.539,0-59.798,13.979-70.164,27.859c-0.25-0.005-0.5-0.019-0.754-0.019
		c-0.252,0-0.502,0.014-0.754,0.019c-10.363-13.88-30.616-27.859-70.164-27.859c-0.169,0-0.339,0-0.511,0
		c-14.655,0.046-21.849,6.685-25.304,12.247c-5.669,9.129-4.494,20.942-1.002,28.054c2.407,4.903,5.421,8.669,8.082,11.992
		c3.24,4.045,5.071,6.447,5.071,8.779c0,2.334-1.832,4.735-5.071,8.78c-2.66,3.323-5.675,7.089-8.082,11.992
		c-3.489,7.113-4.665,18.927,1.004,28.054c3.452,5.561,10.647,12.201,25.302,12.246c0.175,0.001,0.339,0.001,0.512,0.001
		c39.539,0,59.798-13.978,70.162-27.857c0.252,0.005,0.502,0.019,0.754,0.019c0.254,0,0.502-0.014,0.754-0.019
		c10.365,13.879,30.62,27.857,70.166,27.857c0.169,0,0.339,0,0.511-0.001c14.655-0.046,21.849-6.685,25.302-12.246
		c5.669-9.128,4.494-20.941,1.004-28.055c-2.407-4.903-5.421-8.669-8.082-11.992c-3.24-4.045-5.071-6.447-5.071-8.78
		c0-2.332,1.832-4.734,5.071-8.779C348.315,129.929,351.33,126.163,353.736,121.26z M267.902,142.031
		c0,6.563-5.34,11.903-11.903,11.903c-6.563,0-11.9-5.339-11.9-11.903c0-6.561,5.338-11.899,11.9-11.899
		C262.563,130.131,267.902,135.47,267.902,142.031z M185.081,181.771c-0.148,0-0.295,0-0.444-0.001
		c-1.777-0.005-6.04-0.227-7.246-2.168c-1.229-1.98-0.673-5.974,0.027-7.401c1.373-2.797,3.417-5.352,5.581-8.055
		c4.346-5.426,9.753-12.179,9.753-22.115c0-9.934-5.406-16.688-9.751-22.113c-2.167-2.704-4.21-5.259-5.583-8.057
		c-0.702-1.427-1.257-5.419-0.025-7.4c1.204-1.94,5.467-2.162,7.242-2.168c0.15,0,0.295,0,0.444,0
		c22.152,0,38.835,5.068,49.028,14.765c-6.947,6.096-11.343,15.029-11.343,24.974c0,9.946,4.396,18.88,11.343,24.976
		C223.914,176.704,207.232,181.771,185.081,181.771z M329.002,164.147c2.164,2.704,4.208,5.258,5.581,8.055
		c0.7,1.427,1.257,5.421,0.027,7.401c-1.206,1.94-5.469,2.162-7.244,2.168c-22.343,0.054-39.2-5.008-49.47-14.766
		c6.944-6.096,11.34-15.028,11.34-24.973c0-9.946-4.398-18.879-11.345-24.974c10.195-9.697,26.876-14.765,49.028-14.765
		c0.148,0,0.298,0,0.444,0c1.777,0.005,6.04,0.227,7.244,2.168c1.231,1.981,0.677,5.973-0.025,7.401
		c-1.373,2.798-3.417,5.352-5.583,8.056c-4.344,5.426-9.751,12.179-9.751,22.113C319.249,151.967,324.656,158.721,329.002,164.147z"
		/>
	<path style="fill:#000003;" d="M368.174,351.568c-5.89,0-10.667,4.776-10.667,10.667v0.254c0,5.892,4.777,10.667,10.667,10.667
		c5.892,0,10.667-4.776,10.667-10.667v-0.254C378.842,356.344,374.067,351.568,368.174,351.568z"/>
	<path style="fill:#000003;" d="M368.179,281.26c-5.889,0-10.667,4.776-10.667,10.667v39.664c0,5.892,4.778,10.667,10.667,10.667
		c5.892,0,10.667-4.776,10.667-10.667v-39.664C378.846,286.036,374.071,281.26,368.179,281.26z"/>
</g>
<g>
</g>
<g>
</g>
<g>
</g>
<g>
</g>
<g>
</g>
<g>
</g>
<g>
</g>
<g>
</g>
<g>
</g>
<g>
</g>
<g>
</g>
<g>
</g>
<g>
</g>
<g>
</g>
<g>
</g>
</svg>
