<svg id="Layer_1" enable-background="new 0 0 512 512" height="512" viewBox="0 0 512 512" width="512" xmlns="http://www.w3.org/2000/svg"><g fill="#c40955"><path d="m42.751 306.472c-4.206 0-7.615 3.409-7.615 7.615v63.829c0 4.206 3.41 7.615 7.615 7.615s7.615-3.409 7.615-7.615v-63.829c0-4.206-3.409-7.615-7.615-7.615z"/><path d="m257.787 443.298c-4.206 0-7.615 3.409-7.615 7.615v53.471c0 4.206 3.41 7.615 7.615 7.615s7.615-3.409 7.615-7.615v-53.471c0-4.206-3.409-7.615-7.615-7.615z"/><path d="m469.259 306.324c-4.206 0-7.615 3.409-7.615 7.615v63.562c0 4.206 3.41 7.615 7.615 7.615s7.615-3.409 7.615-7.615v-63.561c.001-4.207-3.409-7.616-7.615-7.616z"/><path d="m95.422 348.104c-4.206 0-7.615 3.409-7.615 7.615v55.356c0 4.206 3.41 7.615 7.615 7.615 4.206 0 7.615-3.409 7.615-7.615v-55.356c0-4.206-3.409-7.615-7.615-7.615z"/><path d="m149.124 380.523c-4.206 0-7.615 3.409-7.615 7.615v55.356c0 4.206 3.41 7.615 7.615 7.615s7.615-3.409 7.615-7.615v-55.356c.001-4.206-3.409-7.615-7.615-7.615z"/><path d="m202.826 414.145c-4.206 0-7.615 3.409-7.615 7.615v55.357c0 4.206 3.41 7.615 7.615 7.615s7.615-3.409 7.615-7.615v-55.357c.001-4.206-3.409-7.615-7.615-7.615z"/><path d="m417.635 348.104c-4.206 0-7.615 3.409-7.615 7.615v55.356c0 4.206 3.41 7.615 7.615 7.615s7.615-3.409 7.615-7.615v-55.356c.001-4.206-3.409-7.615-7.615-7.615z"/><path d="m363.933 380.523c-4.206 0-7.615 3.409-7.615 7.615v55.356c0 4.206 3.41 7.615 7.615 7.615s7.615-3.409 7.615-7.615v-55.356c0-4.206-3.409-7.615-7.615-7.615z"/><path d="m310.231 414.145c-4.206 0-7.615 3.409-7.615 7.615v55.357c0 4.206 3.41 7.615 7.615 7.615 4.206 0 7.615-3.409 7.615-7.615v-55.357c0-4.206-3.409-7.615-7.615-7.615z"/></g><path d="m466.822 330.777-197.946 119.834c-7.524 4.569-17.302 4.579-24.836.02l-198.84-119.834c-8.164-4.924-11.89-14.083-9.22-22.663 4.228-13.605 79.515-255.877 84.458-271.784 6.682-21.515 28.228-36.35 52.749-36.35h166.399c24.572 0 46.138 14.895 52.789 36.462 45.328 147.235 75.767 246.13 83.646 271.723 2.63 8.559-1.086 17.677-9.199 22.592z" fill="#e20a62"/><path d="m326.152 0-65.095 112.842c-2.254 3.892-7.879 3.892-10.133 0l-65.096-112.842z" fill="#e5554e"/><path d="m293.468 435.725-24.592 14.885c-7.524 4.569-17.302 4.579-24.836.02l-198.84-119.833c-8.164-4.924-11.89-14.083-9.22-22.663 1.051-3.381 75.983-244.514 84.458-271.784 6.011-19.373 24.074-33.324 45.509-35.914-4.488 5.097-7.93 11.047-9.971 17.637-1.755 5.648-82.076 264.119-84.458 271.784-2.67 8.58 1.056 17.739 9.22 22.663l198.84 119.834c4.193 2.539 9.087 3.656 13.89 3.371z" fill="#c40955"/><path d="m256.476 115.735v338.306c-4.333.01-8.657-1.127-12.432-3.41l-15.142-9.124-15.223-9.174-26.64-16.055v-414.187l26.64 46.187 15.223 26.387 22.023 38.179c1.217 2.1 3.43 3.064 5.551 2.891z" fill="#f76c57"/><path d="m325.913.426v415.659l-26.65 16.126-15.223 9.225-15.162 9.174c-3.765 2.273-8.078 3.42-12.402 3.43v-338.305c1.806-.152 3.542-1.116 4.577-2.892l22.987-39.844 15.223-26.387z" fill="#f76c57"/><path d="m228.902 74.664v366.843l-15.223-9.174v-384.056z" fill="#fed22b"/><path d="m299.263 46.613v385.598l-15.223 9.225v-368.437z" fill="#fed22b"/><path d="m394.741 44.157-28.954 28.954-37.66-37.66c-1.189-1.189-1.189-3.117 0-4.306l28.628-28.628c16.979 5.095 30.588 17.608 35.622 33.947z" fill="#24d3b5"/><path d="m353.121 31.143 10.507-10.507c1.191-1.191 3.123-1.191 4.314 0l10.507 10.507c1.191 1.191 1.191 3.123 0 4.314l-10.507 10.507c-1.191 1.191-3.123 1.191-4.314 0l-10.507-10.507c-1.191-1.191-1.191-3.123 0-4.314z" fill="#fed22b"/><path d="m403.445 115.142-37.659 37.659-37.659-37.659c-1.189-1.189-1.189-3.117 0-4.306l37.659-37.659 37.659 37.659c1.189 1.19 1.189 3.117 0 4.306z" fill="#24d3b5"/><path d="m353.121 110.832 10.507-10.507c1.191-1.191 3.123-1.191 4.314 0l10.507 10.507c1.191 1.191 1.191 3.123 0 4.314l-10.507 10.507c-1.191 1.191-3.123 1.191-4.314 0l-10.507-10.507c-1.191-1.191-1.191-3.122 0-4.314z" fill="#fed22b"/><path d="m403.445 194.768-37.659 37.659-37.659-37.659c-1.189-1.189-1.189-3.117 0-4.306l37.659-37.659 37.659 37.659c1.189 1.189 1.189 3.117 0 4.306z" fill="#24d3b5"/><path d="m353.121 190.458 10.507-10.507c1.191-1.191 3.123-1.191 4.314 0l10.507 10.507c1.191 1.191 1.191 3.123 0 4.314l-10.507 10.507c-1.191 1.191-3.123 1.191-4.314 0l-10.507-10.507c-1.191-1.192-1.191-3.123 0-4.314z" fill="#fed22b"/><path d="m403.445 274.327-37.659 37.659-37.659-37.659c-1.189-1.189-1.189-3.117 0-4.306l37.659-37.659 37.659 37.659c1.189 1.189 1.189 3.117 0 4.306z" fill="#24d3b5"/><path d="m353.121 270.017 10.507-10.507c1.191-1.191 3.123-1.191 4.314 0l10.507 10.507c1.191 1.191 1.191 3.123 0 4.314l-10.507 10.507c-1.191 1.191-3.123 1.191-4.314 0l-10.507-10.507c-1.191-1.191-1.191-3.122 0-4.314z" fill="#fed22b"/><path d="m403.445 354.017-37.659 37.659-37.659-37.659c-1.189-1.189-1.189-3.117 0-4.306l37.659-37.659 37.659 37.659c1.189 1.189 1.189 3.117 0 4.306z" fill="#24d3b5"/><path d="m353.121 349.707 10.507-10.507c1.191-1.191 3.123-1.191 4.314 0l10.507 10.507c1.191 1.191 1.191 3.123 0 4.314l-10.507 10.507c-1.191 1.191-3.123 1.191-4.314 0l-10.507-10.507c-1.191-1.192-1.191-3.123 0-4.314z" fill="#fed22b"/><path d="m184.825 35.451-37.66 37.66-29.106-29.106 2.385-7.652c5.074-16.329 18.704-28.822 35.713-33.876l28.669 28.669c1.188 1.188 1.188 3.116-.001 4.305z" fill="#24d3b5"/><path d="m134.502 31.143 10.507-10.507c1.191-1.191 3.123-1.191 4.314 0l10.507 10.507c1.191 1.191 1.191 3.123 0 4.314l-10.507 10.507c-1.191 1.191-3.123 1.191-4.314 0l-10.507-10.507c-1.191-1.191-1.191-3.123 0-4.314z" fill="#fed22b"/><path d="m184.825 115.142-37.659 37.659-37.659-37.659c-1.189-1.189-1.189-3.117 0-4.306l37.659-37.659 37.659 37.659c1.189 1.19 1.189 3.117 0 4.306z" fill="#24d3b5"/><path d="m134.502 110.832 10.507-10.507c1.191-1.191 3.123-1.191 4.314 0l10.507 10.507c1.191 1.191 1.191 3.123 0 4.314l-10.507 10.507c-1.191 1.191-3.123 1.191-4.314 0l-10.507-10.507c-1.191-1.191-1.191-3.122 0-4.314z" fill="#fed22b"/><path d="m184.825 194.768-37.659 37.659-37.659-37.659c-1.189-1.189-1.189-3.117 0-4.306l37.659-37.659 37.659 37.659c1.189 1.189 1.189 3.117 0 4.306z" fill="#24d3b5"/><path d="m134.502 190.458 10.507-10.507c1.191-1.191 3.123-1.191 4.314 0l10.507 10.507c1.191 1.191 1.191 3.123 0 4.314l-10.507 10.507c-1.191 1.191-3.123 1.191-4.314 0l-10.507-10.507c-1.191-1.192-1.191-3.123 0-4.314z" fill="#fed22b"/><path d="m184.825 274.327-37.659 37.659-37.659-37.659c-1.189-1.189-1.189-3.117 0-4.306l37.659-37.659 37.659 37.659c1.189 1.189 1.189 3.117 0 4.306z" fill="#24d3b5"/><path d="m134.502 270.017 10.507-10.507c1.191-1.191 3.123-1.191 4.314 0l10.507 10.507c1.191 1.191 1.191 3.123 0 4.314l-10.507 10.507c-1.191 1.191-3.123 1.191-4.314 0l-10.507-10.507c-1.191-1.191-1.191-3.122 0-4.314z" fill="#fed22b"/><path d="m184.825 354.017-37.659 37.659-37.659-37.659c-1.189-1.189-1.189-3.117 0-4.306l37.659-37.659 37.659 37.659c1.189 1.189 1.189 3.117 0 4.306z" fill="#24d3b5"/><path d="m134.502 349.707 10.507-10.507c1.191-1.191 3.123-1.191 4.314 0l10.507 10.507c1.191 1.191 1.191 3.123 0 4.314l-10.507 10.507c-1.191 1.191-3.123 1.191-4.314 0l-10.507-10.507c-1.191-1.192-1.191-3.123 0-4.314z" fill="#fed22b"/></svg>