<?xml version="1.0" encoding="iso-8859-1"?>
<!-- Generator: Adobe Illustrator 19.0.0, SVG Export Plug-In . SVG Version: 6.00 Build 0)  -->
<svg version="1.1" id="Capa_1" xmlns="http://www.w3.org/2000/svg" xmlns:xlink="http://www.w3.org/1999/xlink" x="0px" y="0px"
	 viewBox="0 0 512 512" style="enable-background:new 0 0 512 512;" xml:space="preserve">
<path style="fill:#012231;" d="M71.25,239.564h-30c-6.203,0-11.25-5.047-11.25-11.25s5.047-11.25,11.25-11.25h30
	c6.203,0,11.25,5.047,11.25,11.25h30c0-22.745-18.505-41.25-41.25-41.25h-30c-22.745,0-41.25,18.505-41.25,41.25
	s18.505,41.25,41.25,41.25h30c6.203,0,11.25,5.047,11.25,11.25s-5.047,11.25-11.25,11.25h-30c-6.203,0-11.25-5.047-11.25-11.25H0
	c0,22.745,18.505,41.25,41.25,41.25h30c22.745,0,41.25-18.505,41.25-41.25S93.995,239.564,71.25,239.564z"/>
<polygon points="499.989,219.936 512,219.936 512,189.936 455.374,189.936 455.374,219.936 461.997,219.936 440.374,247.764 
	418.75,219.936 425.374,219.936 425.374,189.936 338.099,189.936 338.099,275.31 283.292,189.936 236.187,189.936 236.187,219.936 
	249.5,219.936 249.5,294.936 236.187,294.936 236.187,324.936 292.813,324.936 292.813,294.936 279.5,294.936 279.5,239.561 
	334.307,324.936 368.099,324.936 368.099,219.936 380.758,219.936 425.374,277.353 425.374,294.936 412.06,294.936 412.06,324.936 
	468.687,324.936 468.687,294.936 455.374,294.936 455.374,277.353 "/>
<path style="fill:#012231;" d="M177.5,187.064c-37.22,0-67.5,30.28-67.5,67.5s30.28,67.5,67.5,67.5s67.5-30.28,67.5-67.5
	S214.72,187.064,177.5,187.064z M177.5,292.064c-20.678,0-37.5-16.822-37.5-37.5s16.822-37.5,37.5-37.5s37.5,16.822,37.5,37.5
	S198.178,292.064,177.5,292.064z"/>
<g>
</g>
<g>
</g>
<g>
</g>
<g>
</g>
<g>
</g>
<g>
</g>
<g>
</g>
<g>
</g>
<g>
</g>
<g>
</g>
<g>
</g>
<g>
</g>
<g>
</g>
<g>
</g>
<g>
</g>
</svg>
