<svg height="512" viewBox="0 0 44 60" width="512" xmlns="http://www.w3.org/2000/svg"><g id="057---Dress" fill="none"><path id="Shape" d="m44 51s-6 9-22 9-22-9-22-9c2.44-5.7 8.81-16.64 12-22h20c3.18 5.34 9.56 16.29 12 22z" fill="#26b99a"/><g fill="#14a085"><path id="Shape" d="m32.68 30.14c-.21.28-.44.57-.68.86 0 0-3.33 2-10 2s-10-2-10-2c-.24-.29-.47-.58-.68-.86l.68-1.14s3.33 2 10 2 10-2 10-2z"/><path id="Shape" d="m22 42c-.5522847 0-1-.4477153-1-1v-10c0-.5522847.4477153-1 1-1s1 .4477153 1 1v10c0 .5522847-.4477153 1-1 1z"/><path id="Shape" d="m14 37c-.3317301.0003213-.642028-.1638849-.828344-.4383504-.186316-.2744656-.2243964-.6234617-.101656-.9316496.7731878-1.975744 1.7554389-3.8631412 2.93-5.63.3092795-.4583963.9316037-.5792795 1.39-.27s.5792795.9316037.27 1.39c-1.0872937 1.6506949-1.9925743 3.4143158-2.7 5.26-.15876.3871692-.5417977.6345478-.96.62z"/><path id="Shape" d="m30 37c-.4098038.0003967-.7783727-.249279-.93-.63-.7074257-1.8456842-1.6127063-3.6093051-2.7-5.26-.2036484-.4434784-.0574582-.9691808.3458992-1.2438598s.9460672-.2181047 1.2841008.1338598c1.1647943 1.7713406 2.1369796 3.6620735 2.9 5.64.1168043.3021849.0799774.6422311-.098813.9124032-.1787903.270172-.4773871.4369882-.801187.4475968z"/></g><path id="Shape" d="m36 19c-1.525625-3.8085787-2.207944-7.9024931-2-12 .2172456-1.61905132.8474515-3.1549631 1.83-4.46.2257665-.45328389.0770568-1.00378476-.3462413-1.28173351-.423298-.27794875-.9875537-.19559976-1.3137587.19173351-2.11 3.16-2.17 5.32-2.17 5.55s.06.79.13 1.38c-.5180861.63373477-.9925122 1.30194045-1.42 2-1.5794698-.72388306-3.4456179-.3453657-4.6182084.9367275-1.1725906 1.2820932-1.3834387 3.1745327-.5217916 4.6832725-1.3435782-.1809434-2.6873623.3309744-3.57 1.36-.8826377-1.0290256-2.2264218-1.5409434-3.57-1.36.845637-1.5076944.6270729-3.388028-.5418447-4.6615569-1.1689175-1.2735289-3.0236769-1.65206896-4.5981553-.9384431-.4235906-.69820494-.8947023-1.36644852-1.41-2 .0644022-.46425299.104457-.93155909.12-1.4 0-.24-.06-2.39-2.17-5.55-.1793781-.33440654-.53258209-.5384678-.91188262-.52683412-.37930054.01163367-.71933469.2369575-.87788146.58172867-.15854678.34477117-.10828462.74957701.12976408 1.04510545.9904997 1.35318019 1.62026996 2.93620927 1.83 4.6.1909409 4.0477254-.49115739 8.0891578-2 11.85 0 0-1 4 4 10 0 0 3.33 2 10 2s10-2 10-2c5-6 4-10 4-10z" fill="#ecf0f1"/><path id="Shape" d="m32 29s-3.33 2-10 2-10-2-10-2c-4.85-5.82-4.06-9.75-4-10 .23 1.75 1.13 4.54 4 8 0 0 3.33 2 10 2s10-2 10-2c2.87-3.45 3.77-6.24 4-8 .06.25.85 4.18-4 10z" fill="#d1d4d1"/></g></svg>