<svg height="512" viewBox="0 0 64 64" width="512" xmlns="http://www.w3.org/2000/svg" xmlns:xlink="http://www.w3.org/1999/xlink"><linearGradient id="linear-gradient" gradientUnits="userSpaceOnUse" x1="32" x2="32" y1="-38.133" y2="93.286"><stop offset="0" stop-color="#22e0ff"/><stop offset="1" stop-color="#009cba"/></linearGradient><linearGradient id="linear-gradient-2" x1="32" x2="32" xlink:href="#linear-gradient" y1="-39.182" y2="63.581"/><g id="Bookmark"><path d="m6 59.134v-54.276a4.872 4.872 0 0 1 4.875-4.858h42.25a4.872 4.872 0 0 1 4.875 4.858v54.276a4.874 4.874 0 0 1 -7.366 4.176l-18.634-11.036-18.634 11.036a4.874 4.874 0 0 1 -7.366-4.176z" fill="url(#linear-gradient)"/><path d="m13.366 63.31 18.634-11.036 18.634 11.036a4.874 4.874 0 0 0 7.366-4.176v-43.209s-4.49 31.275-52 27.403v15.806a4.874 4.874 0 0 0 7.366 4.176z" fill="url(#linear-gradient-2)"/><g fill="#fff"><path d="m53.908 47.449a1 1 0 0 1 -1-1v-13.456a1 1 0 1 1 2 0v13.456a1 1 0 0 1 -1 1z"/><path d="m26.207 5h-1.835a1 1 0 0 1 0-2h1.835a1 1 0 0 1 0 2z"/><path d="m10.092 12.673a1 1 0 0 1 -1-1v-6.816a1.86 1.86 0 0 1 1.858-1.857h7.568a1 1 0 0 1 0 2h-7.426v6.673a1 1 0 0 1 -1 1z"/></g></g></svg>