<svg height="512" viewBox="0 0 64 64" width="512" xmlns="http://www.w3.org/2000/svg" xmlns:xlink="http://www.w3.org/1999/xlink"><linearGradient id="linear-gradient" gradientUnits="userSpaceOnUse" x1="32" x2="32" y1="-23.642" y2="113.009"><stop offset="0" stop-color="#f3f7ff"/><stop offset="1" stop-color="#cdd9ff"/></linearGradient><linearGradient id="linear-gradient-2" x1="32" x2="32" xlink:href="#linear-gradient" y1="14.664" y2="58.742"/><linearGradient id="linear-gradient-3" gradientUnits="userSpaceOnUse" x1="32" x2="32" y1="12.888" y2="87.569"><stop offset="0" stop-color="#22e0ff"/><stop offset="1" stop-color="#009cba"/></linearGradient><linearGradient id="linear-gradient-4" x1="43.64" x2="43.64" xlink:href="#linear-gradient-3" y1="12.888" y2="87.569"/><g id="Add_Photo" data-name="Add Photo"><path d="m59.333 6.5h-54.666a4.672 4.672 0 0 0 -4.667 4.667v41.666a4.672 4.672 0 0 0 4.667 4.667h54.666a4.672 4.672 0 0 0 4.667-4.667v-41.666a4.672 4.672 0 0 0 -4.667-4.667z" fill="url(#linear-gradient)"/><path d="m4.667 57.5h54.666a4.672 4.672 0 0 0 4.667-4.667v-16.57c-.19 2.639-4.034 16.57-64 16.57a4.672 4.672 0 0 0 4.667 4.667z" fill="url(#linear-gradient-2)"/><g fill="#fff"><path d="m60 46.743a1 1 0 0 1 -1-1v-14.33a1 1 0 1 1 2 0v14.33a1 1 0 0 1 -1 1z"/><path d="m18.809 11.5h-2.49a1 1 0 0 1 0-2h2.49a1 1 0 0 1 0 2z"/><path d="m4 18.1a1 1 0 0 1 -1-1v-5.933a1.669 1.669 0 0 1 1.667-1.667h6.306a1 1 0 0 1 0 2h-5.973v5.6a1 1 0 0 1 -1 1z"/></g><path d="m52.247 42.94a2.673 2.673 0 0 1 -3.774 0l-4.36-4.367a.671.671 0 0 0 -.946 0l-3.14 3.147a2.673 2.673 0 0 1 -3.774 0l-9.14-9.147a.671.671 0 0 0 -.946 0l-10.64 10.647a2.668 2.668 0 0 1 -3.774-3.773l10.64-10.64a6.008 6.008 0 0 1 8.487 0l7.26 7.253 1.253-1.253a6.008 6.008 0 0 1 8.487 0l4.367 4.36a2.671 2.671 0 0 1 0 3.773z" fill="url(#linear-gradient-3)"/><path d="m49.973 24.667a2.665 2.665 0 0 1 -2.666 2.666h-1v1a2.667 2.667 0 0 1 -5.334 0v-1h-1a2.667 2.667 0 0 1 0-5.333h1v-1a2.667 2.667 0 0 1 5.334 0v1h1a2.665 2.665 0 0 1 2.666 2.667z" fill="url(#linear-gradient-4)"/></g></svg>