<svg id="Layer_1" enable-background="new 0 0 128 128" height="512" viewBox="0 0 128 128" width="512" xmlns="http://www.w3.org/2000/svg"><g><path d="m108.893 38.458c-.344 0-.681.014-1.02.026l-11.848-15.694c-1.349-1.785-3.488-2.852-5.724-2.853l-77.221-.044c-.002 0-.003 0-.005 0-1.915 0-3.716.745-5.071 2.1-1.356 1.354-2.103 3.157-2.104 5.073l-.025 43.483c-.001 1.917.744 3.72 2.099 5.076 1.355 1.355 3.157 2.104 5.073 2.104l8.161.005v28.372c0 3.309 2.691 6 6 6h47c3.309 0 6-2.691 6-6v-28.337l10.06.006h.004c2.234 0 4.373-1.064 5.724-2.847l11.918-15.749c.326.01.648.029.979.029 9.663 0 17.232-4.558 17.232-10.375s-7.569-10.375-17.232-10.375zm-15.232 10.375c0-1.898 1.178-3.395 2.344-4.412 1.346 1.017 2.222 2.626 2.22 4.44-.001 1.789-.854 3.378-2.17 4.396-1.502-1.294-2.394-2.812-2.394-4.424zm.455 5.389c-.464.126-.95.199-1.454.199-.001 0-.002 0-.003 0-1.487-.001-2.884-.58-3.935-1.632s-1.628-2.449-1.627-3.935c.001-1.487.58-2.884 1.632-3.935 1.051-1.049 2.447-1.627 3.932-1.627h.003c.495 0 .972.072 1.429.194-1.588 1.599-2.432 3.421-2.432 5.346 0 1.991.903 3.827 2.455 5.39zm15.301 2.971 3.025-3.997c1.926-2.548 1.928-6.107.004-8.655l-3.072-4.069c8.043.146 14.752 3.91 14.752 8.361-.001 4.443-6.685 8.201-14.709 8.36z" fill="#e6e7e8"/><g><g><g><path d="m107.651 41.097-16.419-21.747c-1.168-1.547-2.994-2.456-4.932-2.456h-77.245c-3.413 0-6.18 2.767-6.18 6.18v43.476c0 3.413 2.767 6.18 6.18 6.18h77.218c1.936 0 3.76-.907 4.928-2.451l16.447-21.733c1.666-2.202 1.667-5.244.003-7.449zm-19.034 10.279c-3.625 0-6.564-2.939-6.564-6.564s2.939-6.564 6.564-6.564 6.564 2.939 6.564 6.564-2.938 6.564-6.564 6.564z" fill="#fa759e"/><g><path d="m5.875 66.55v-43.477c0-3.413 2.767-6.18 6.18-6.18h-3c-3.413 0-6.18 2.767-6.18 6.18v43.477c0 3.413 2.767 6.18 6.18 6.18h3c-3.413 0-6.18-2.767-6.18-6.18z" fill="#fff"/></g></g><g fill="#fff"><path d="m37.074 49.782-.82-2.156h-6.984l-.82 2.203c-.32.859-.594 1.439-.82 1.74s-.598.451-1.113.451c-.438 0-.824-.16-1.16-.48s-.504-.684-.504-1.09c0-.234.039-.477.117-.727s.207-.598.387-1.043l4.395-11.156c.125-.32.275-.705.451-1.154s.363-.822.563-1.119.461-.537.785-.721.725-.275 1.201-.275c.484 0 .889.092 1.213.275s.586.42.785.709.367.6.504.932.311.775.521 1.33l4.488 11.086c.352.844.527 1.457.527 1.84 0 .398-.166.764-.498 1.096s-.732.498-1.201.498c-.273 0-.508-.049-.703-.146s-.359-.23-.492-.398-.275-.426-.428-.773-.284-.656-.394-.922zm-6.89-4.769h5.133l-2.59-7.09z"/><path d="m46.754 36.364v12.504h7.055c.563 0 .994.137 1.295.41s.451.617.451 1.031c0 .422-.148.764-.445 1.025s-.73.393-1.301.393h-8.402c-.758 0-1.303-.168-1.635-.504s-.498-.879-.498-1.629v-13.23c0-.703.158-1.23.475-1.582s.732-.527 1.248-.527c.523 0 .947.174 1.271.521s.486.877.486 1.588z"/><path d="m65.996 37.419h-3.797v12.481c0 .719-.16 1.252-.48 1.6s-.734.521-1.242.521c-.516 0-.936-.176-1.26-.527s-.486-.883-.486-1.594v-12.48h-3.797c-.594 0-1.035-.131-1.324-.393s-.434-.607-.434-1.037c0-.445.15-.797.451-1.055s.736-.387 1.307-.387h11.063c.602 0 1.049.133 1.342.398s.439.613.439 1.043-.148.775-.445 1.037-.743.393-1.337.393z"/></g><path d="m70.208 62.107h-47c-2.761 0-5 2.239-5 5v35c0 2.761 2.239 5 5 5h47c2.761 0 5-2.239 5-5v-35c0-2.762-2.239-5-5-5z" fill="#d4fbff"/><path d="m59.658 77.93-13.121 12.734c-1.055 1.024-2.696 1.132-3.877.257l-11.702-8.682c-1.044-.774-2.467-.789-3.526-.035l-9.224 6.561v13.342c0 2.761 2.239 5 5 5h47c2.761 0 5-2.239 5-5v-13.558l-11.413-10.659c-1.169-1.092-2.989-1.075-4.137.04z" fill="#6dc9f7"/><g fill="#3a2c60"><path d="m38.117 17.893h6.667c.553 0 1-.447 1-1s-.447-1-1-1h-6.667c-.553 0-1 .447-1 1s.447 1 1 1z"/><path d="m104.896 34.413c-.344 0-.681.014-1.02.026l-11.846-15.692c-1.349-1.787-3.491-2.854-5.73-2.854h-36.886c-.553 0-1 .447-1 1s.447 1 1 1h36.886c1.615 0 3.161.77 4.135 2.059l16.418 21.748c1.388 1.838 1.386 4.405-.005 6.243l-3.89 5.14c-3.612-.266-6.864-1.258-9.251-2.693 1.516-1.384 2.474-3.369 2.474-5.579 0-4.171-3.394-7.563-7.564-7.563s-7.563 3.393-7.563 7.563 3.393 7.564 7.563 7.564c1.164 0 2.263-.272 3.249-.744 2.448 1.695 5.803 2.894 9.665 3.337l-11.129 14.708c-.973 1.287-2.517 2.055-4.13 2.055h-10.064v-4.623c0-3.309-2.691-6-6-6h-47c-3.309 0-6 2.691-6 6v4.623h-8.153c-2.856 0-5.18-2.324-5.18-5.181v-43.477c0-2.856 2.323-5.18 5.18-5.18h24.729c.553 0 1-.447 1-1s-.447-1-1-1h-24.729c-3.959 0-7.18 3.221-7.18 7.18v43.477c0 3.959 3.221 7.181 7.18 7.181h8.153v28.377c0 3.309 2.691 6 6 6h47c3.309 0 6-2.691 6-6v-28.378h10.064c2.236 0 4.376-1.064 5.726-2.848l11.918-15.749c.326.01.649.029.98.029 9.662 0 17.231-4.558 17.231-10.375s-7.569-10.374-17.231-10.374zm-10.714 10.398c0 1.778-.842 3.361-2.144 4.38-1.489-1.29-2.372-2.8-2.372-4.404 0-1.888 1.164-3.376 2.322-4.393 1.33 1.018 2.194 2.617 2.194 4.417zm-11.128 0c0-3.067 2.496-5.563 5.563-5.563.509 0 1 .075 1.469.203-1.581 1.595-2.422 3.414-2.422 5.337 0 1.986.899 3.818 2.445 5.379-.476.133-.975.209-1.492.209-3.067 0-5.563-2.496-5.563-5.565zm-8.846 57.296c0 2.206-1.794 4-4 4h-47c-2.206 0-4-1.794-4-4v-35c0-2.206 1.794-4 4-4h47c2.206 0 4 1.794 4 4zm31.211-48.959 3.025-3.998c1.927-2.548 1.93-6.106.005-8.655l-3.071-4.068c8.042.146 14.75 3.91 14.75 8.361 0 4.443-6.685 8.201-14.709 8.36z"/></g><circle cx="43.458" cy="74.69" fill="#6dc9f7" r="4.5"/></g></g></g></svg>