<?xml version="1.0" encoding="UTF-8"?>
<svg width="30px" height="30px" viewBox="0 0 30 30" version="1.1" xmlns="http://www.w3.org/2000/svg" xmlns:xlink="http://www.w3.org/1999/xlink">
    <!-- Generator: Sketch 56.2 (81672) - https://sketch.com -->
    <title>user</title>
    <desc>Created with Sketch.</desc>
    <g id="Page-2" stroke="none" stroke-width="1" fill="none" fill-rule="evenodd">
        <g id="Iconscout-Header-New" transform="translate(-1293.000000, -108.000000)">
            <g id="Group-18" transform="translate(70.000000, 83.000000)">
                <g id="Group-17" transform="translate(20.000000, 18.000000)">
                    <g id="Group-78-Copy" transform="translate(1196.000000, 0.000000)">
                        <g id="Group-77">
                            <g id="user" transform="translate(7.000000, 7.000000)">
                                <g id="Layer_1">
                                    <circle id="Oval" fill="#FFFFFF" cx="15" cy="15" r="14.2857143"></circle>
                                    <path d="M15,20.2380952 C10.8809524,20.2380952 7.19047619,21.9761905 4.57142857,24.7619048 C7.16666667,27.547619 10.8809524,29.2857143 15,29.2857143 C19.1190476,29.2857143 22.8095238,27.547619 25.4285714,24.7619048 C22.8095238,21.9761905 19.1190476,20.2380952 15,20.2380952 Z" id="Path" fill="#EFC71D"></path>
                                    <path d="M15,30 C10.8571429,30 6.88095238,28.2619048 4.04761905,25.2619048 C3.80952381,25 3.78571429,24.6190476 4,24.3333333 C4.02380952,24.3095238 4.02380952,24.2857143 4.04761905,24.2857143 C6.88095238,21.2619048 10.8809524,19.5238095 15,19.5238095 C17.9047619,19.5238095 20.7142857,20.3571429 23.1428571,21.9285714 C23.4761905,22.1428571 23.5714286,22.5952381 23.3571429,22.9285714 C23.1428571,23.2619048 22.6904762,23.3571429 22.3571429,23.1428571 C20.1904762,21.7142857 17.6190476,20.952381 15,20.952381 C11.4285714,20.952381 8.11904762,22.3095238 5.57142857,24.7619048 C8.11904762,27.2142857 11.4285714,28.5714286 15,28.5714286 C22.4761905,28.5714286 28.5714286,22.4761905 28.5714286,15 C28.5714286,7.52380952 22.4761905,1.42857143 15,1.42857143 C7.52380952,1.42857143 1.42857143,7.52380952 1.42857143,15 C1.42857143,17.1904762 1.95238095,19.3809524 2.97619048,21.3095238 C3.16666667,21.6666667 3.02380952,22.0952381 2.66666667,22.2857143 C2.30952381,22.4761905 1.88095238,22.3333333 1.69047619,21.9761905 C0.595238095,19.8333333 0,17.4285714 0,15 C0,6.73809524 6.73809524,0 15,0 C23.2619048,0 30,6.73809524 30,15 C30,23.2619048 23.2619048,30 15,30 Z" id="Path" fill="#444B54"></path>
                                    <path d="M15,5.71428571 C11.8571429,5.71428571 9.28571429,8.28571429 9.28571429,11.4285714 C9.28571429,14.5714286 11.8571429,17.1428571 15,17.1428571 C18.1428571,17.1428571 20.7142857,14.5714286 20.7142857,11.4285714 C20.7142857,8.28571429 18.1428571,5.71428571 15,5.71428571 Z" id="Path" fill="#D3D8DD"></path>
                                </g>
                            </g>
                        </g>
                    </g>
                </g>
            </g>
        </g>
    </g>
</svg>