<?xml version="1.0" encoding="UTF-8"?>
<svg width="45px" height="17px" viewBox="0 0 45 17" version="1.1" xmlns="http://www.w3.org/2000/svg" xmlns:xlink="http://www.w3.org/1999/xlink">
    <!-- Generator: Sketch 48.2 (47327) - http://www.bohemiancoding.com/sketch -->
    <title>Paddle</title>
    <desc>Created with Sketch.</desc>
    <defs></defs>
    <g id="Home-page" stroke="none" stroke-width="1" fill="none" fill-rule="evenodd" transform="translate(-1095.000000, -6730.000000)">
        <g id="Group-5" transform="translate(0.000000, 6207.000000)">
            <g id="Paddle" transform="translate(1088.000000, 519.000000)">
                <g id="paddle" transform="translate(7.000000, 4.000000)" fill="#636C7E">
                    <path d="M15.0678,9.93902884 C15.0678,10.8000556 13.96305,11.5227852 12.8916,11.5227852 C12.1554,11.5227852 11.4525,11.0408123 11.4525,10.3520828 C11.4525,9.5948938 11.8206,9.18138039 12.7575,8.87170479 C13.5612,8.59602919 14.29785,8.45819139 15.0678,8.35527249 L15.0678,9.93902884 Z M13.5279,3.60308453 C12.5235,3.60308453 11.26125,4.01154388 11.26125,4.01154388 C10.84905,4.12824655 10.46475,4.57484103 10.4022,5.00903011 L10.2726,5.91186772 C11.4327,5.51443539 12.38985,5.01500308 13.4946,5.01500308 C14.16375,5.01500308 15.0678,5.29067869 15.0678,6.97781339 C14.5323,7.01227284 13.59495,7.15011064 12.6909,7.3913268 C10.84995,7.87284019 9.7785,8.97508315 9.7785,10.4210017 C9.7785,11.9018391 10.9503,12.9347037 12.3228,12.9347037 C13.59495,12.9347037 14.4648,12.6273254 15.0678,11.8701365 C15.1011,12.1798121 15.09795,12.0410553 15.09795,12.0410553 C15.2289,12.4587039 15.6825,12.7968659 16.11045,12.7968659 L16.75035,12.7968659 L16.75035,6.30884059 C16.75035,4.72003019 15.36885,3.60308453 13.5279,3.60308453 Z M4.9626,11.3321096 C4.21875,11.3854068 3.58335,11.1846231 3.1581,10.7440016 L3.1581,5.5346516 C3.68505,5.41794893 4.11705,5.33478678 4.2993,5.32192192 C5.66595,5.22405708 6.8283,5.97435419 6.9606,7.90408342 C7.0578,9.3247317 6.56235,11.2167853 4.9626,11.3316501 L4.9626,11.3321096 Z M3.996,3.62054398 C3.3624,3.66603046 1.1421,4.17648978 1.1421,4.17648978 C0.72495,4.26930057 0.32085,4.69338154 0.23985,5.12205711 L0,6.38924597 C0.3942,6.22613791 1.4058,5.95092176 2.35935,5.72027317 L2.5083,5.92748933 L1.5822,7.19329982 C1.4544,7.36789437 1.35045,7.68675915 1.35045,7.9054618 L1.35045,17 L2.2689,16.6315136 C2.7603,16.4344056 3.1581,15.8375679 3.1581,15.2981626 L3.1581,12.64892 C3.6261,12.9448119 4.3371,13.1037848 5.1561,13.0454334 C7.4223,12.8837038 8.9667,10.8542719 8.7651,7.90500234 C8.5482,4.73703018 6.6285,3.43216565 3.996,3.62054398 Z M30.02895,11.5319744 C28.4841,11.5319744 27.91305,10.2657044 27.91305,8.31529953 C27.91305,6.74119183 28.3833,5.09862468 29.92815,5.09862468 C31.60755,5.09862468 32.1111,6.63873239 32.1111,8.1439212 C32.1111,10.2317044 31.50675,11.5319744 30.02895,11.5319744 Z M32.51565,4.37262691e-06 L31.9977,4.37262691e-06 L31.9977,4.86843555 C31.52745,4.0813817 30.5433,3.62743587 29.60325,3.62743587 C27.4203,3.62743587 26.16705,5.47859756 26.16705,8.42143464 C26.16705,11.2613528 27.45405,12.9347037 29.5695,12.9347037 C30.81195,12.9347037 31.5846,12.4554877 32.05485,11.6688933 C32.0886,12.010731 32.08995,11.9813256 32.08995,11.9813256 C32.14485,12.4132174 32.53995,12.7633254 32.9697,12.7633254 L33.68205,12.7633254 L33.68205,1.18449055 C33.6812157,0.869491937 33.5578585,0.567733363 33.3391158,0.345598864 C33.1203731,0.123464366 32.8241634,-0.000849776612 32.51565,4.37262691e-06 Z M41.8851,4.97962471 C42.55785,4.97962471 43.3125,5.37797596 43.3125,6.16686765 C43.3125,7.95094827 40.56525,8.3065698 39.3543,8.4094887 C39.3543,6.29873248 40.4388,4.97962471 41.8851,4.97962471 Z M39.5163,9.81313698 C40.5594,9.67529918 45,9.43546141 45,6.14205685 C45,4.42643567 43.7553,3.60308453 41.87115,3.60308453 C39.3147,3.60308453 37.6659,5.66146238 37.6659,8.30335359 C37.6659,11.1506231 39.04515,12.9347037 41.66955,12.9347037 C42.57765,12.9347037 43.79715,12.6107849 43.79715,12.6107849 C44.21745,12.5152174 44.6337,12.0874607 44.7291,11.6610825 L45,10.4545422 C43.7787,11.2457312 42.91425,11.5282987 41.70285,11.5282987 C40.79475,11.5282987 39.6846,11.0137042 39.5163,9.81267752 L39.5163,9.81313698 Z M21.51855,11.5319744 C19.9737,11.5319744 19.40265,10.2657044 19.40265,8.31529953 C19.40265,6.74119183 19.8729,5.09862468 21.41775,5.09862468 C23.09715,5.09862468 23.6007,6.63873239 23.6007,8.1439212 C23.6007,10.2317044 22.99635,11.5319744 21.51855,11.5319744 Z M24.09525,4.37262691e-06 L23.5773,4.37262691e-06 L23.5773,4.86843555 C23.10705,4.0813817 22.1229,3.62743587 21.1824,3.62743587 C18.9999,3.62743587 17.74665,5.47859756 17.74665,8.42143464 C17.74665,11.2613528 19.0332,12.9347037 21.14865,12.9347037 C22.39155,12.9347037 23.1642,12.4554877 23.63445,11.6688933 C23.66775,12.010731 23.66955,11.9813256 23.66955,11.9813256 C23.72445,12.4132174 24.11955,12.7633254 24.5493,12.7633254 L25.26165,12.7633254 L25.26165,1.18449055 C25.2608157,0.869491937 25.1374585,0.567733363 24.9187158,0.345598864 C24.6999731,0.123464366 24.4037634,-0.000849776612 24.09525,4.37262691e-06 Z M35.80965,4.37248579e-06 L34.9497,4.37248579e-06 L34.9497,11.9611094 C34.9497,12.3975958 35.3052,12.7500011 35.74305,12.7500011 L36.67005,12.7500011 L36.67005,0.853679829 C36.67005,0.382274544 36.28485,4.37248579e-06 35.80965,4.37248579e-06 Z" id="Shape"></path>
                </g>
                <rect id="Rectangle-12" fill-opacity="0" fill="#FFFFFF" x="0" y="0" width="60" height="24"></rect>
            </g>
        </g>
    </g>
</svg>