<?xml version="1.0" encoding="UTF-8"?>
<svg width="52px" height="14px" viewBox="0 0 52 14" version="1.1" xmlns="http://www.w3.org/2000/svg" xmlns:xlink="http://www.w3.org/1999/xlink">
    <!-- Generator: Sketch 48.2 (47327) - http://www.bohemiancoding.com/sketch -->
    <title>Paypal</title>
    <desc>Created with Sketch.</desc>
    <defs></defs>
    <g id="Home-page" stroke="none" stroke-width="1" fill="none" fill-rule="evenodd" transform="translate(-1024.000000, -6732.000000)">
        <g id="Group-5" transform="translate(0.000000, 6207.000000)">
            <g id="Paypal" transform="translate(1020.000000, 519.000000)">
                <rect id="Rectangle-12" fill-opacity="0" fill="#FFFFFF" x="0" y="0" width="60" height="24"></rect>
                <path d="M55.4716406,6 L53.9527404,6 C53.9518838,6 53.9510278,6.00028481 53.9504566,6.00028481 L53.9496005,6 C53.6019174,6 53.2490965,6.26572305 53.1506149,6.60378656 C53.1466186,6.6174572 53.1397673,6.63055823 53.1366275,6.64479848 C53.1366275,6.64479848 53.1003749,6.80970056 53.0375752,7.09479035 L50.9511922,16.5303794 C50.9029504,16.7436983 50.8706941,16.8826832 50.8609887,16.9188534 L50.864985,16.9239799 C50.7927652,17.253784 50.9914411,17.5266272 51.317715,17.5571014 L51.3219968,17.5633671 L52.8985589,17.5633671 C53.2439583,17.5633671 53.5944954,17.3002073 53.6961173,16.9664158 C53.7009702,16.950182 53.708677,16.9350873 53.712388,16.9188534 L55.9883124,6.64422887 L55.9848868,6.64308965 C56.0622452,6.2916403 55.8353091,6 55.4716406,6 Z M47.6808144,15.2734504 C47.4701494,15.4058847 47.2474953,15.5192371 47.0142794,15.615786 C46.700851,15.7419546 46.4036934,15.8080293 46.1288013,15.8080293 C45.7069004,15.8080293 45.3826247,15.7485051 45.1633961,15.6211972 C44.943882,15.5004399 44.828844,15.2905387 44.832555,14.9900694 C44.832555,14.643177 44.9127675,14.3740362 45.0789017,14.1629957 C45.2461777,13.9599298 45.4948081,13.7964517 45.8030984,13.6745552 C46.1096759,13.5708862 46.4867605,13.4854447 46.9220778,13.4242116 C47.3091534,13.37551 48.0744554,13.2875052 48.1723661,13.2869356 C48.2702768,13.2860812 48.3353603,13.2322531 48.2916858,13.4925648 C48.272275,13.6056324 48.0513336,14.5107426 47.9499975,14.9222858 C47.9205957,15.0456064 47.7561742,15.2253183 47.6808144,15.2734504 C47.6808144,15.2734504 47.7561742,15.2253183 47.6808144,15.2734504 Z M50.6843608,8.9120463 C50.0398058,8.55319202 49.0315825,8.37177125 47.6519835,8.37177125 C46.9697486,8.37177125 46.2840883,8.42645381 45.5961442,8.53297087 C45.0911762,8.61015302 45.0392236,8.62296925 44.7255097,8.69103764 C44.0800984,8.83116169 43.9804749,9.47596017 43.9804749,9.47596017 L43.7732354,10.3263878 C43.6556284,10.8703654 43.9662022,10.8478658 44.1046474,10.8057146 C44.3863904,10.7208427 44.5391083,10.6365405 45.1140125,10.5066694 C45.6635114,10.3822096 46.2441247,10.2890784 46.7074165,10.2927809 C47.3867968,10.2927809 47.9034685,10.367115 48.2468696,10.5100871 C48.5905561,10.6596097 48.7606866,10.9142253 48.7606866,11.2784909 C48.7618285,11.3650716 48.7641121,11.4468107 48.7327122,11.5182967 C48.7044522,11.5849411 48.650216,11.649307 48.4877927,11.671237 C47.5181056,11.7287676 46.8221689,11.8170571 45.9840761,11.9389537 C45.1571161,12.0551541 44.4334904,12.2542327 43.8286134,12.529924 C43.183773,12.8152986 42.7013559,13.197222 42.368802,13.6811058 C42.0450972,14.1672678 41.8823885,14.7559597 41.8815321,15.4494599 C41.8815321,16.1047961 42.1176025,16.6393751 42.5743288,17.0543359 C43.0364788,17.4638855 43.6376448,17.6666667 44.3649814,17.6666667 C44.8194241,17.6635338 45.1750997,17.6307812 45.4300101,17.5672697 C45.6823514,17.5037582 45.957529,17.413475 46.248121,17.287876 C46.4653515,17.197308 46.6997092,17.0662978 46.9471977,16.9019653 C47.1949718,16.7370632 47.3665296,16.6200084 47.5866146,16.4761818 L47.5946073,16.4898525 L47.5326638,16.7624108 C47.5323784,16.7649741 47.5286675,16.7663981 47.5286675,16.7689613 L47.5306656,16.7740878 C47.459873,17.102468 47.6576926,17.375596 47.983681,17.4077789 L47.9876774,17.413475 L48.0165082,17.413475 L48.01765,17.4148991 C48.2340241,17.4148991 48.9767753,17.4146142 49.3238873,17.413475 L49.5662377,17.413475 C49.5822231,17.413475 49.5839358,17.4086333 49.5902158,17.4049309 C49.9230551,17.3642037 50.2421926,17.093639 50.317267,16.7689613 L51.5569934,11.4302919 C51.5855388,11.304693 51.6080897,11.1597272 51.6215061,10.9928315 C51.6369205,10.8242269 51.6551896,10.6855269 51.649766,10.5852756 C51.6526205,9.82968795 51.327203,9.27118538 50.6843608,8.9120463 Z M43.2190942,7.69601367 C43.0075728,7.28532488 42.6881499,6.9546663 42.2842325,6.6972026 C41.8700388,6.4403085 41.3779163,6.26116617 40.8081502,6.15664274 C40.2446641,6.05810022 39.5747037,6.00170883 38.8113999,6 L35.2597819,6.00170883 C34.8941155,6.00797454 34.5352998,6.29448835 34.4508054,6.64736172 L32.0629833,17.0148327 C31.9759198,17.3671365 32.2134175,17.6607704 32.5725185,17.6587768 L34.2766786,17.6556439 C34.6380633,17.6587768 35.0062988,17.3671365 35.0916495,17.0148327 L35.6676956,14.4988655 C35.7484791,14.1462769 36.1158583,13.8509341 36.4832375,13.8560607 L36.9676529,13.8560607 C39.0463285,13.8560607 40.6580014,13.4299924 41.8120917,12.5818432 C42.9633274,11.7294218 43.542799,10.6112775 43.542799,9.22057474 C43.5390881,8.61337052 43.4354683,8.10186077 43.2190942,7.69601367 Z M39.5550074,11.0869018 C39.0463285,11.4560091 38.3324081,11.6411323 37.4138174,11.6411323 L36.9913456,11.6411323 C36.6259645,11.6454043 36.3898941,11.3506312 36.4766721,10.9971882 L36.9859219,8.79678492 C37.0618527,8.44875324 37.4326573,8.15255605 37.7929002,8.15540411 L38.3509627,8.15255605 C39.0023685,8.15540411 39.4896384,8.26419961 39.8261886,8.48036659 C40.1570297,8.69909682 40.3174549,9.03829955 40.3200239,9.49028506 C40.3214512,10.1792283 40.0659699,10.7092504 39.5550074,11.0869018 Z" id="pal" fill="#636C7E" fill-rule="nonzero"></path>
                <path d="M31.1797321,8.3679113 C30.8567598,8.3679113 30.4331439,8.63017257 30.2326171,8.9471246 C30.2326171,8.9471246 28.0722013,12.6635525 27.860013,13.034941 C27.7446658,13.2346258 27.6277975,13.1076924 27.6082772,13.0334147 C27.5925595,12.9431113 26.9387561,8.97154466 26.9387561,8.97154466 C26.8652381,8.6517945 26.5323789,8.3773232 26.1161148,8.37859508 L24.7689604,8.38063008 C24.4442135,8.38063008 24.2416587,8.64161947 24.3139092,8.95704525 C24.3139092,8.95704525 25.3436685,14.8137897 25.5444488,16.1912337 C25.6445854,16.9530887 25.5340549,17.0881622 25.5340549,17.0881622 L24.199069,19.4238392 C24.0036124,19.7405368 24.1105938,20 24.4338196,20 L25.9949368,19.9987281 C26.3181626,19.9987281 26.7463417,19.7405368 26.9387561,19.4233304 L32.9444182,9.23126218 C32.9444182,9.23126218 33.5188728,8.36053441 32.989036,8.3679113 C32.6277836,8.37299881 31.1797321,8.3679113 31.1797321,8.3679113 Z M19.9044096,15.258176 C19.6940194,15.3903922 19.4719408,15.5029892 19.2390292,15.5996634 C18.9260095,15.7250556 18.6278142,15.7915901 18.3541358,15.7915901 C17.9339256,15.7915901 17.6092176,15.7318796 17.3899899,15.6053501 C17.1710472,15.4845074 17.0555892,15.2749519 17.0592952,14.9746932 C17.0592952,14.6292251 17.1402584,14.3596747 17.3058908,14.1492661 C17.4732337,13.9462503 17.7203994,13.7827572 18.0282876,13.6613457 C18.3353205,13.5572788 18.7130536,13.4731154 19.1463776,13.4119832 C19.5329483,13.3633617 20.2981073,13.2757863 20.3956052,13.2743646 C20.492533,13.2740803 20.5578167,13.2197721 20.5141991,13.4796551 C20.4953838,13.5925365 20.2744455,14.4967245 20.1732415,14.9073055 C20.1427378,15.0309917 19.9785308,15.2104076 19.9044096,15.258176 C19.9044096,15.258176 19.9785308,15.2104076 19.9044096,15.258176 Z M22.9040382,8.90696551 C22.260324,8.54870231 21.2537009,8.36786469 19.8759014,8.36786469 C19.1942714,8.36786469 18.5097904,8.42188851 17.8224587,8.52851446 C17.3172941,8.60500081 17.2665495,8.61808026 16.9529598,8.68603654 C16.3081052,8.82649846 16.2088968,9.46966622 16.2088968,9.46966622 L16.0019275,10.3192618 C15.884759,10.862059 16.1952129,10.8395965 16.3329073,10.7975148 C16.6137127,10.7127827 16.7670866,10.6289036 17.3412409,10.4986778 C17.8891678,10.3749917 18.469879,10.2822982 18.9319962,10.2854259 C19.6110606,10.2854259 20.1264882,10.3593532 20.4694413,10.5020898 C20.8129647,10.6513661 20.982018,10.9061311 20.982018,11.2695123 C20.9842987,11.3559504 20.9860092,11.4378392 20.9555055,11.5086388 C20.9267122,11.5757421 20.8719766,11.6397176 20.7097651,11.6613272 C19.7424832,11.719616 19.0477394,11.8074758 18.2093144,11.9291716 C17.383433,12.0451806 16.6610362,12.2439314 16.0566632,12.5188842 C15.4126639,12.8037887 14.9314461,13.1856518 14.5998962,13.6684542 C14.2754734,14.1535311 14.1132619,14.7412534 14.1126918,15.4338956 C14.1126918,16.0878681 14.3487393,16.6218509 14.8042997,17.0358439 C15.2661319,17.4447189 15.8659436,17.6474504 16.5923316,17.6474504 C17.0464665,17.6443227 17.4013931,17.6110554 17.6568263,17.5482172 C17.9085533,17.4842416 18.183657,17.3946758 18.4727298,17.2692837 C18.6905322,17.1788649 18.924014,17.0475017 19.1714648,16.8837242 C19.4183455,16.7193781 19.5905348,16.6025161 19.8111879,16.4589264 L19.8180299,16.4722902 L19.7561672,16.7441153 C19.755597,16.7466744 19.752176,16.7483804 19.752176,16.751508 L19.7547418,16.7557731 C19.6840415,17.0844653 19.8810329,17.3568591 20.2068812,17.3884204 L20.2108723,17.3946758 L20.2393805,17.3946758 L20.2402357,17.3966662 C20.4568978,17.3966662 21.1989651,17.3955288 21.5447692,17.3946758 L21.7870885,17.3946758 C21.8033382,17.3946758 21.8056188,17.3892734 21.8107503,17.3858614 C22.1440107,17.344064 22.4615916,17.0745136 22.5374233,16.751508 L23.7755327,11.4210633 C23.8034707,11.2959556 23.8262772,11.1512286 23.8388208,10.9848921 C23.8553555,10.8157123 23.8733157,10.6778094 23.8684693,10.5780075 C23.8713201,9.82309572 23.5457569,9.26551306 22.9040382,8.90696551 Z M15.1595751,7.69322015 C14.9483296,7.28320782 14.6293233,6.95309386 14.2259329,6.69605423 C13.8122794,6.43958327 13.3207988,6.260736 12.7517759,6.15638473 C12.1890248,6.05800452 11.5199383,6.00170601 10.7576301,6 L7.21064478,6.00170601 C6.84545525,6.0079614 6.48710767,6.2940033 6.40272351,6.64629545 L4.01801591,16.9966901 C3.93106602,17.3484136 4.16825391,17.6415639 4.52688657,17.6395735 L6.22882374,17.6364458 C6.58973705,17.6395735 6.95749231,17.3484136 7.04273171,16.9966901 L7.61802639,14.484867 C7.69870448,14.1328591 8.06560451,13.8380028 8.43250453,13.8431209 L8.91628799,13.8431209 C10.9922522,13.8431209 12.601823,13.4177544 13.7544079,12.5710022 C14.904142,11.7199849 15.4828577,10.6036822 15.4828577,9.21527011 C15.4791516,8.60906602 15.3756669,8.09839878 15.1595751,7.69322015 Z M11.5002677,11.0785231 C10.9922522,11.4470224 10.2792631,11.6318407 9.36187054,11.6318407 L8.9399498,11.6318407 C8.57504533,11.6361058 8.33928284,11.3418181 8.42594765,10.9889573 L8.93453324,8.79217832 C9.01036494,8.44471988 9.38068594,8.14901057 9.7404589,8.15185393 L10.2977935,8.14901057 C10.9483497,8.15185393 11.434984,8.26047023 11.7710952,8.47628116 C12.1015048,8.69465112 12.2617206,9.03329515 12.2642864,9.48453619 C12.2657118,10.1723447 12.0105637,10.7014937 11.5002677,11.0785231 Z" id="pay" fill="#636C7E" fill-rule="nonzero"></path>
            </g>
        </g>
    </g>
</svg>