<?xml version="1.0" encoding="UTF-8"?>
<svg width="16px" height="16px" viewBox="0 0 16 16" version="1.1" xmlns="http://www.w3.org/2000/svg" xmlns:xlink="http://www.w3.org/1999/xlink">
    <!-- Generator: Sketch 52.5 (67469) - http://www.bohemiancoding.com/sketch -->
    <title>Dropdown Down</title>
    <desc>Created with Sketch.</desc>
    <defs>
        <path d="M8,8.58578644 L10.2928932,6.29289322 C10.6834175,5.90236893 11.3165825,5.90236893 11.7071068,6.29289322 C12.0976311,6.68341751 12.0976311,7.31658249 11.7071068,7.70710678 L8.70710678,10.7071068 C8.31658249,11.0976311 7.68341751,11.0976311 7.29289322,10.7071068 L4.29289322,7.70710678 C3.90236893,7.31658249 3.90236893,6.68341751 4.29289322,6.29289322 C4.68341751,5.90236893 5.31658249,5.90236893 5.70710678,6.29289322 L8,8.58578644 Z" id="path-1"></path>
    </defs>
    <g id="Product-Page" stroke="none" stroke-width="1" fill="none" fill-rule="evenodd">
        <g id="Dropdown-Down" transform="translate(-2.000000, -2.000000)">
            <rect id="Rectangle" fill-rule="nonzero" x="0" y="0" width="20" height="20"></rect>
            <g id="Group-26-Copy-13" transform="translate(10.000000, 10.000000) rotate(-360.000000) translate(-10.000000, -10.000000) translate(2.000000, 2.000000)">
                <circle id="Mask" fill="#FFFFFF" cx="8" cy="8" r="8"></circle>
                <g id="Rectangle">
                    <g id="Group-25">
                        <rect id="Primary-Color" x="0" y="0" width="16" height="16"></rect>
                        <mask id="mask-2" fill="white">
                            <use xlink:href="#path-1"></use>
                        </mask>
                        <use id="Mask" fill="#577EE8" fill-rule="nonzero" xlink:href="#path-1"></use>
                    </g>
                </g>
            </g>
        </g>
    </g>
</svg>