<svg xmlns="http://www.w3.org/2000/svg" xmlns:xlink="http://www.w3.org/1999/xlink" viewBox="0 0 24 24"><defs><radialGradient id="a" cx="2347.0381" cy="6770.59836" r="0.01" gradientTransform="translate(-5378637.61963 -15407484.31466) scale(2291.66992 2275.64088)" gradientUnits="userSpaceOnUse"><stop offset="0" stop-color="#4b2b36" stop-opacity="0.98"/><stop offset="1" stop-color="#250012"/></radialGradient></defs><title>InDesign</title><path d="M3,1.02565H21a2.02613,2.02613,0,0,1,2,2.05128V20.92308a2.02613,2.02613,0,0,1-2,2.05128H3a2.02613,2.02613,0,0,1-2-2.05128V3.07693A2.02613,2.02613,0,0,1,3,1.02565Z" fill="url(#a)"/><path d="M3,1.02565H21a2.02613,2.02613,0,0,1,2,2.05128V20.92308a2.02613,2.02613,0,0,1-2,2.05128H3a2.02613,2.02613,0,0,1-2-2.05128V3.07693A2.02613,2.02613,0,0,1,3,1.02565ZM3,24H21a3.0392,3.0392,0,0,0,3-3.07692V3.07692A3.0392,3.0392,0,0,0,21,0H3A3.0392,3.0392,0,0,0,0,3.07692V20.92308A3.0392,3.0392,0,0,0,3,24ZM15.18,10.99486a1.38856,1.38856,0,0,0-.59-.10257c-1.29,0-2.19,1.02565-2.19,2.7077,0,1.92821.92,2.70769,2.07,2.70769a1.75992,1.75992,0,0,0,.71-.12307Zm-.53-1.6718a4.49687,4.49687,0,0,1,.53,0V6.59486a.09183.09183,0,0,1,.07873-.10257.087.087,0,0,1,.02127,0H16.9c.08,0,.1,0,.1.08205v9.58975a7.93071,7.93071,0,0,0,0,1.02564c0,.0718,0,.082-.09.12307a5.98326,5.98326,0,0,1-2.62.60513c-2.21,0-3.79-1.40513-3.79-4.26667A4.06781,4.06781,0,0,1,14.24063,9.2989q.17945-.01159.35937-.00662Zm-5.9,8.33849c0,.10257,0,.13333-.13.13333H7.11c-.1,0-.13-.05128-.13-.13333V6.64616c0-.10257.05-.13334.13-.13334H8.66c.08,0,.12,0,.12.12307Z" fill="#ff408b"/></svg>