<?xml version="1.0" encoding="UTF-8"?>
<svg width="36px" height="44px" viewBox="0 0 36 44" version="1.1" xmlns="http://www.w3.org/2000/svg" xmlns:xlink="http://www.w3.org/1999/xlink">
    <!-- Generator: Sketch 48.2 (47327) - http://www.bohemiancoding.com/sketch -->
    <title>Ai</title>
    <desc>Created with Sketch.</desc>
    <defs></defs>
    <g id="Bundle-Public-Profile-:-Laptop" stroke="none" stroke-width="1" fill="none" fill-rule="evenodd" transform="translate(-501.000000, -874.000000)">
        <g id="Ai" transform="translate(501.000000, 874.000000)" fill-rule="nonzero">
            <path d="M31.7619038,43 L4.23809514,43 C2.44974458,43 1,41.5535354 1,39.7692308 L1,4.23077018 C1,2.44646565 2.44974458,1.00000103 4.23809514,1.00000103 L25.2857136,1.00000103 C26.1408055,0.999320208 26.9614554,1.33612878 27.5685706,1.93692408 L34.0447609,8.30153931 C34.6568247,8.90859499 35.0006828,9.73431341 34.999999,10.5953854 L34.999999,39.7692308 C34.999999,41.5535354 33.5502544,43 31.7619038,43 Z" id="Shape" fill="#261402"></path>
            <path d="M32.5714276,42 C33.3661412,42 33.9999989,41.3742687 33.9999989,40.6153847 L33.9999996,10.0507032 C34.0002914,9.68714603 33.8528677,9.33687867 33.5943033,9.0831143 L26.7322133,2.41059483 C26.4642307,2.14820808 26.0985113,1.99969902 25.7142849,2.00000108 L3.42857133,2.00000108 C2.63385768,2.00000108 2,2.62573238 2,3.38461638 L2,40.6153847 C2,41.3742687 2.63385768,42 3.42857133,42 L32.5714276,42 Z M32.5714276,44 L3.42857133,44 C1.53502367,44 0,42.4846561 0,40.6153847 L0,3.38461638 C0,1.51534497 1.53502367,1.07920577e-06 3.42857133,1.07920577e-06 L25.7142849,1.07920577e-06 C26.6196764,-0.000712163529 27.4885999,0.352134916 28.1314277,0.981539517 L34.9885704,7.64923166 C35.6366379,8.28519475 36.000723,9.1502331 35.9999989,10.0523085 L35.9999989,40.6153847 C35.9999989,42.4846561 34.4649753,44 32.5714276,44 Z" id="Shape" fill="#FF860D"></path>
            <path d="M12.2304549,25.8161538 L11.0458395,30.3007692 C11.0458395,30.4192308 11.0458395,30.4530769 10.8258395,30.4530769 L8.62583953,30.4530769 C8.47353183,30.4530769 8.43968568,30.4530769 8.47353183,30.2330769 L12.7212241,15.3407692 C12.8247693,14.9372113 12.8759588,14.5220076 12.8735318,14.1053846 C12.8735318,14.0038462 12.8735318,13.9530769 12.9919934,13.9530769 L16.1396857,13.9530769 C16.2412241,13.9530769 16.2919934,13.9530769 16.3258395,14.1053846 L21.0812241,30.2669231 C21.0812241,30.3853846 21.0812241,30.47 20.9627626,30.47 L18.4750703,30.47 C18.3566088,30.47 18.2719934,30.47 18.2550703,30.3346154 L16.9858395,25.8161538 L12.2304549,25.8161538 Z M16.3935318,23.3961538 C15.9704549,21.7038462 14.9889164,18.1161538 14.6166088,16.3561538 C14.2950703,18.0484615 13.5166088,21.0776923 12.9243011,23.3961538 L16.3935318,23.3961538 Z M23.1627626,15.07 C23.1627626,14.2241547 23.8484557,13.5384615 24.6943011,13.5384615 C25.5401464,13.5384615 26.2258395,14.2241547 26.2258395,15.07 C26.2519303,15.4874203 26.095056,15.8955278 25.7960875,16.187997 C25.4971189,16.4804663 25.0856626,16.6283344 24.6689164,16.5930769 C24.2604553,16.6192636 23.8608895,16.4659827 23.5747409,16.1733307 C23.2885922,15.8806787 23.1443279,15.4777696 23.1796857,15.07 L23.1627626,15.07 Z M23.3489164,18.4546154 C23.3489164,18.3361538 23.3489164,18.2684615 23.5350703,18.2684615 L25.887378,18.2684615 C26.0058395,18.2684615 26.0735318,18.2684615 26.0735318,18.4546154 L26.0735318,30.3007692 C26.0735318,30.4192308 26.0735318,30.4869231 25.887378,30.4869231 L23.5350703,30.4869231 C23.3827626,30.4869231 23.3319934,30.4869231 23.3319934,30.2838462 L23.3319934,18.4376923 L23.3489164,18.4546154 Z" id="Shape" fill="#FF860D"></path>
        </g>
    </g>
</svg>