<?xml version="1.0" encoding="UTF-8"?>
<svg width="166px" height="32px" viewBox="0 0 166 32" version="1.1" xmlns="http://www.w3.org/2000/svg" xmlns:xlink="http://www.w3.org/1999/xlink">
    <!-- Generator: Sketch 56.2 (81672) - https://sketch.com -->
    <title>Group 19 Copy</title>
    <desc>Created with Sketch.</desc>
    <defs>
        <path d="M3.70561178,20.4505191 L0.501511368,20.4505191 L0.501511368,6.88185044 L3.70561178,6.88185044 L3.70561178,20.4505191 Z M0,2.11749244 C0,0.947299251 0.947299251,0 2.0896307,0 C3.25982389,0 4.20712314,0.947299251 4.20712314,2.11749244 C4.20712314,3.28768564 3.25982389,4.20712314 2.0896307,4.20712314 C0.947299251,4.20712314 0,3.28768564 0,2.11749244 Z M13.7915626,9.44513077 C11.8133789,9.44513077 10.0580891,10.9218031 10.0580891,13.6522539 C10.0580891,16.3827047 11.8133789,17.9151005 13.8472861,17.9151005 C15.9647786,17.9151005 16.9399395,16.4384282 17.2464187,15.4075437 L20.0883165,16.4384282 C19.4474964,18.5559206 17.4135892,20.8684453 13.8472861,20.8684453 C9.86305691,20.8684453 6.82612695,17.7757918 6.82612695,13.6522539 C6.82612695,9.47299251 9.86305691,6.4639243 13.7637009,6.4639243 C17.4135892,6.4639243 19.4196346,8.7485872 19.9768695,10.9218031 L17.0792483,11.9805493 C16.7727691,10.7824944 15.8533316,9.44513077 13.7915626,9.44513077 Z M28.6418715,17.970824 C30.6479169,17.970824 32.4310685,16.4941517 32.4310685,13.6522539 C32.4310685,10.8382179 30.6479169,9.38940728 28.6418715,9.38940728 C26.6636877,9.38940728 24.8526745,10.8382179 24.8526745,13.6522539 C24.8526745,16.4662899 26.6636877,17.970824 28.6418715,17.970824 Z M28.6418715,6.4639243 C32.7096859,6.4639243 35.6908924,9.50085425 35.6908924,13.6522539 C35.6908924,17.8315153 32.7096859,20.8684453 28.6418715,20.8684453 C24.6019188,20.8684453 21.6207123,17.8315153 21.6207123,13.6522539 C21.6207123,9.50085425 24.6019188,6.4639243 28.6418715,6.4639243 Z M42.0433697,12.6213694 L42.0433697,20.4505191 L38.8114075,20.4505191 L38.8114075,6.88185044 L41.9597845,6.88185044 L41.9597845,8.69286371 C42.8513602,7.13260612 44.4673413,6.49178604 45.9718754,6.49178604 C49.2874228,6.49178604 50.8755421,8.88789591 50.8755421,11.8691024 L50.8755421,20.4505191 L47.64358,20.4505191 L47.64358,12.4263372 C47.64358,10.7546327 46.8913129,9.41726902 44.8574057,9.41726902 C43.0185307,9.41726902 42.0433697,10.8382179 42.0433697,12.6213694 Z M53.6059929,16.7727691 L56.4200289,15.9926403 C56.5314759,17.218557 57.4509134,18.3051649 59.1783414,18.3051649 C60.5157051,18.3051649 61.2122487,17.5807596 61.2122487,16.7449073 C61.2122487,16.020502 60.7107373,15.4632672 59.6241293,15.2403732 L57.6180838,14.7945854 C55.221974,14.2652122 53.9681956,12.7049547 53.9681956,10.8382179 C53.9681956,8.46996977 56.1414115,6.4639243 58.9554475,6.4639243 C62.7446445,6.4639243 63.9705612,8.91575766 64.1934551,10.2531213 L61.4630043,11.0332501 C61.3515574,10.2531213 60.7664608,8.99934288 58.9554475,8.99934288 C57.813116,8.99934288 57.0051255,9.72374819 57.0051255,10.5596005 C57.0051255,11.2840058 57.5344986,11.8133789 58.3703509,11.9805493 L60.4321199,12.3984755 C62.9954002,12.9557103 64.3327638,14.5159679 64.3327638,16.5220134 C64.3327638,18.5837824 62.6610593,20.8684453 59.2062032,20.8684453 C55.2776975,20.8684453 53.7731634,18.3051649 53.6059929,16.7727691 Z M73.2791694,9.44513077 C71.3009857,9.44513077 69.5456959,10.9218031 69.5456959,13.6522539 C69.5456959,16.3827047 71.3009857,17.9151005 73.3348929,17.9151005 C75.4523853,17.9151005 76.4275463,16.4384282 76.7340255,15.4075437 L79.5759232,16.4384282 C78.9351032,18.5559206 76.901196,20.8684453 73.3348929,20.8684453 C69.3506637,20.8684453 66.3137337,17.7757918 66.3137337,13.6522539 C66.3137337,9.47299251 69.3506637,6.4639243 73.2513077,6.4639243 C76.901196,6.4639243 78.9072414,8.7485872 79.4644763,10.9218031 L76.566855,11.9805493 C76.2603759,10.7824944 75.3409384,9.44513077 73.2791694,9.44513077 Z M88.1294782,17.970824 C90.1355237,17.970824 91.9186753,16.4941517 91.9186753,13.6522539 C91.9186753,10.8382179 90.1355237,9.38940728 88.1294782,9.38940728 C86.1512945,9.38940728 84.3402812,10.8382179 84.3402812,13.6522539 C84.3402812,16.4662899 86.1512945,17.970824 88.1294782,17.970824 Z M88.1294782,6.4639243 C92.1972927,6.4639243 95.1784991,9.50085425 95.1784991,13.6522539 C95.1784991,17.8315153 92.1972927,20.8684453 88.1294782,20.8684453 C84.0895256,20.8684453 81.1083191,17.8315153 81.1083191,13.6522539 C81.1083191,9.50085425 84.0895256,6.4639243 88.1294782,6.4639243 Z M106.96123,18.945985 C106.292548,20.1719017 104.704429,20.8405835 103.11631,20.8405835 C99.8843475,20.8405835 97.989749,18.4444736 97.989749,15.4354054 L97.989749,6.88185044 L101.221711,6.88185044 L101.221711,14.8503088 C101.221711,16.5220134 102.00184,17.9429623 103.952162,17.9429623 C105.818899,17.9429623 106.79406,16.6891839 106.79406,14.9060323 L106.79406,6.88185044 L110.026022,6.88185044 L110.026022,17.970824 C110.026022,19.0852937 110.109607,19.9490078 110.165331,20.4505191 L107.072677,20.4505191 C107.016954,20.14404 106.96123,19.5032199 106.96123,18.945985 Z M118.300959,2.73045078 L118.300959,6.88185044 L121.114995,6.88185044 L121.114995,9.75160994 L118.300959,9.75160994 L118.300959,16.0483638 C118.300959,17.2464187 118.830333,17.7479301 120.028387,17.7479301 C120.474175,17.7479301 121.003548,17.6643449 121.142857,17.6364831 L121.142857,20.3112104 C120.947825,20.3947956 120.334867,20.6176896 119.164673,20.6176896 C116.657117,20.6176896 115.096859,19.1131555 115.096859,16.5777369 L115.096859,9.75160994 L112.589302,9.75160994 L112.589302,6.88185044 L113.285846,6.88185044 C114.734656,6.88185044 115.375476,5.96241293 115.375476,4.764358 L115.375476,2.73045078 L118.300959,2.73045078 Z" id="path-1"></path>
        <path d="M18.2857143,21.7142857 C15.1298014,21.7142857 12.5714286,19.1559129 12.5714286,16 C12.5714286,12.8440871 15.1298014,10.2857143 18.2857143,10.2857143 C21.4416271,10.2857143 24,12.8440871 24,16 C24,19.1559129 21.4416271,21.7142857 18.2857143,21.7142857 Z M35.971897,14.1 C36.3715847,14.7 36.5714286,15.3 36.5714286,16 C36.5714286,16.7 36.3715847,17.4 35.971897,17.9 L30.4761905,27.9 C29.9765808,28.9 28.5776737,28.9 27.9781421,28 L25.0804059,23.5 C24.7806401,23 24.8805621,22.3 25.2802498,21.8 C26.8790008,19.9 27.6783763,17.4 27.2786885,14.6 C26.6791569,10.8 23.5815769,7.6 19.7845433,7 C13.3895394,5.9 7.99375486,11.6 9.392662,18.1 C9.9921936,20.9 12.1904762,23.4 14.8883685,24.5 C16.9867291,25.4 18.9851678,25.4 20.7837627,24.9 C21.2833723,24.7 21.9828259,25 22.2825917,25.5 L24.980484,29.8 C25.5800156,30.7 24.8805621,32 23.7814207,32 L10.2919594,32 C8.99297423,32 7.89383297,31.3 7.29430131,30.2 L0.599531617,17.9 C0.199843872,17.4 0,16.7 0,16 C0,15.3 0.199843872,14.7 0.599531617,14.1 L7.29430131,1.8 C7.89383297,0.7 8.99297423,0 10.2919594,0 L26.2794691,0 C27.5784543,0 28.6775956,0.7 29.2771273,1.8 L35.971897,14.1 Z" id="path-3"></path>
    </defs>
    <g id="Page-2" stroke="none" stroke-width="1" fill="none" fill-rule="evenodd">
        <g id="Group-19-Copy">
            <g id="Color/Foreground/Darkest" transform="translate(44.571429, 3.428571)">
                <mask id="mask-2" fill="white">
                    <use xlink:href="#path-1"></use>
                </mask>
                <use id="Mask" fill="#FFFFFF" xlink:href="#path-1"></use>
                <g mask="url(#mask-2)" fill="#161A21" id="Primary-Color">
                    <g transform="translate(-3.428571, -1.142857)">
                        <rect x="0" y="0" width="124.571429" height="29.7142857"></rect>
                    </g>
                </g>
            </g>
            <g id="Color/Primary">
                <mask id="mask-4" fill="white">
                    <use xlink:href="#path-3"></use>
                </mask>
                <use id="Mask" fill="#192027" fill-rule="nonzero" xlink:href="#path-3"></use>
                <g mask="url(#mask-4)" fill="#6563FF" id="Primary-Color">
                    <rect x="0" y="0" width="36.5714286" height="32"></rect>
                </g>
            </g>
        </g>
    </g>
</svg>