<?xml version="1.0" encoding="UTF-8"?>
<svg width="30px" height="30px" viewBox="0 0 30 30" version="1.1" xmlns="http://www.w3.org/2000/svg" xmlns:xlink="http://www.w3.org/1999/xlink">
    <!-- Generator: Sketch 56.2 (81672) - https://sketch.com -->
    <title>Group 24 Copy</title>
    <desc>Created with Sketch.</desc>
    <g id="Page-2" stroke="none" stroke-width="1" fill="none" fill-rule="evenodd">
        <g id="Iconscout-Header-New" transform="translate(-1249.000000, -108.000000)">
            <g id="Group-18" transform="translate(70.000000, 83.000000)">
                <g id="Group-17" transform="translate(20.000000, 18.000000)">
                    <g id="Group-5" transform="translate(1152.000000, 0.000000)">
                        <g id="Group-24-Copy" transform="translate(22.000000, 22.000000) rotate(-360.000000) translate(-22.000000, -22.000000) translate(7.000000, 7.000000)">
                            <g id="Group-137">
                                <rect id="Rectangle" fill="#2B6DEF" x="0" y="0" width="30" height="30" rx="15"></rect>
                                <g id="Group-23" transform="translate(6.178146, 9.705882)" fill="#FFFFFF">
                                    <path d="M7.05882353,10.5882353 L3.52800732,10.5882353 C1.58142365,10.5882353 0,9.01024853 0,7.05882353 C0,5.11020635 1.58142365,3.52941176 3.52800732,3.52941176 C5.48020879,3.52941176 7.05882353,5.11020635 7.05882353,7.05882353 L7.05882353,10.5882353 Z" id="Fill-4" fill-opacity="0.5"></path>
                                    <path d="M7.05882353,10.5882353 L12.3543124,10.5882353 C15.2776635,10.5882353 17.6470588,8.21883997 17.6470588,5.29274647 C17.6470588,2.36939532 15.2776635,0 12.3543124,0 C9.42821885,0 7.05882353,2.36939532 7.05882353,5.29274647 L7.05882353,10.5882353 Z" id="Fill-6"></path>
                                </g>
                            </g>
                        </g>
                    </g>
                </g>
            </g>
        </g>
    </g>
</svg>