<?xml version="1.0" encoding="UTF-8"?>
<svg width="146px" height="30px" viewBox="0 0 146 30" version="1.1" xmlns="http://www.w3.org/2000/svg" xmlns:xlink="http://www.w3.org/1999/xlink">
    <!-- Generator: sketchtool 48.2 (47327) - http://www.bohemiancoding.com/sketch -->
    <title>42F02AA2-15C9-4EB1-92C0-71697E99282B</title>
    <desc>Created with sketchtool.</desc>
    <defs>
        <linearGradient x1="50%" y1="0%" x2="50%" y2="100%" id="linearGradient-1">
            <stop stop-color="#90B5F5" offset="0%"></stop>
            <stop stop-color="#577EE8" offset="100%"></stop>
        </linearGradient>
    </defs>
    <g id="Home-page" stroke="none" stroke-width="1" fill="none" fill-rule="evenodd" transform="translate(-113.000000, -6261.000000)">
        <g id="Group-5" transform="translate(0.000000, 6207.000000)">
            <g id="Color" transform="translate(113.000000, 54.000000)">
                <path d="M20.351435,24.1236248 L22.8809785,28.3760707 C23.3102369,29.0978471 22.7736291,29.9998647 21.9151123,29.9998647 L9.86534515,30 C9.0683103,30 8.33192093,29.5872857 7.93361263,28.9174707 L0.298835786,16.0824617 C-0.0996119287,15.4125113 -0.0996119287,14.587218 0.298835786,13.917403 L7.93361263,1.08252933 C8.33192093,0.412578991 9.0683103,0 9.86534515,0 L25.1347594,0 C25.9315154,0 26.6680442,0.412578991 27.0664919,1.08252933 L34.7012688,13.917403 C35.0995771,14.587218 35.0995771,15.4125113 34.7012688,16.0824617 L28.6763155,26.211012 C28.2470571,26.9327885 27.1738414,26.9327885 26.7444436,26.211012 L24.197055,21.928526 C23.9604679,21.5306965 24.0114938,21.0339508 24.3170912,20.683076 C25.6305187,19.1751127 26.4225346,17.2254773 26.4225346,15.0962775 C26.4225346,10.1776701 22.1978456,6.21683062 17.078392,6.44537963 C12.5073965,6.64957172 8.79728778,10.2507409 8.58705015,14.6874873 C8.35171784,19.6561616 12.4323913,23.7565121 17.4999826,23.7565121 C18.068377,23.7565121 18.6239453,23.7037388 19.1626444,23.6044167 C19.6340061,23.5175437 20.111502,23.7203827 20.351435,24.1236248 Z M17.4999686,10.7116007 C19.9639871,10.7116007 21.9612447,12.6502754 21.9612447,15.041718 C21.9612447,17.4332959 19.9639871,19.3718353 17.4999686,19.3718353 C15.0360895,19.3718353 13.0386926,17.4332959 13.0386926,15.041718 C13.0386926,12.6502754 15.0360895,10.7116007 17.4999686,10.7116007 Z" id="Fill-17" fill="url(#linearGradient-1)"></path>
                <path d="M43.1180286,21.6319331 L40.4549167,21.6319331 C40.4157188,21.6319331 40.3838359,21.5999877 40.3838359,21.5604031 L40.3838359,9.74948301 C40.3838359,9.71003735 40.4157188,9.67809192 40.4549167,9.67809192 L43.1180286,9.67809192 C43.1572266,9.67809192 43.1889714,9.71003735 43.1889714,9.74948301 L43.1889714,21.5604031 C43.1889714,21.5999877 43.1572266,21.6319331 43.1180286,21.6319331 M40,5.80950029 C40,4.80946943 40.8045234,4 41.7746719,4 C42.7684219,4 43.5728073,4.80946943 43.5728073,5.80950029 C43.5728073,6.80953116 42.7684219,7.59524985 41.7746719,7.59524985 C40.8045234,7.59524985 40,6.80953116 40,5.80950029 M52.0187161,11.9362172 C50.2869687,11.9362172 48.7503828,13.2372295 48.7503828,15.6427205 C48.7503828,18.0482114 50.2869687,19.398253 52.0675755,19.398253 C53.8766146,19.398253 54.7333099,18.159187 55.0230156,17.2554091 C55.0350234,17.2176302 55.0736693,17.2001296 55.1107969,17.2136023 L57.4650182,18.0730732 C57.5017318,18.0865459 57.5225729,18.1265471 57.5107031,18.1639094 C56.9278411,20.0109108 55.1524792,22 52.0675755,22 C48.579513,22 45.9209557,19.2754715 45.9209557,15.6427205 C45.9209557,11.9608013 48.579513,9.30988611 51.9944245,9.30988611 C55.1535833,9.30988611 56.9060339,11.2774468 57.416849,13.1723664 C57.4266484,13.2090342 57.4058073,13.2475076 57.3703359,13.2605636 L54.9673932,14.1440631 C54.9290234,14.1580913 54.8888594,14.1378129 54.8779557,14.0983672 C54.5918385,13.0619464 53.7830365,11.9362172 52.0187161,11.9362172 M65.0195885,19.4472823 C66.7757656,19.4472823 68.3369193,18.1464088 68.3369193,15.6427205 C68.3369193,13.1634773 66.7757656,11.8871879 65.0195885,11.8871879 C63.2878411,11.8871879 61.7022578,13.1634773 61.7022578,15.6427205 C61.7022578,18.1219636 63.2878411,19.4472823 65.0195885,19.4472823 M65.0195885,9.30988611 C68.5806641,9.30988611 71.190776,11.9853854 71.190776,15.6427205 C71.190776,19.3246396 68.5806641,22 65.0195885,22 C61.4828047,22 58.8728307,19.3246396 58.8728307,15.6427205 C58.8728307,11.9853854 61.4828047,9.30988611 65.0195885,9.30988611 M76.7519115,14.734498 L76.7519115,21.5604031 C76.7519115,21.5999877 76.7201667,21.6319331 76.6811068,21.6319331 L73.9934271,21.6319331 C73.9543672,21.6319331 73.9224844,21.5999877 73.9224844,21.5604031 L73.9224844,9.74948301 C73.9224844,9.71003735 73.9543672,9.67809192 73.9934271,9.67809192 L76.6079557,9.67809192 C76.6471536,9.67809192 76.6787604,9.71003735 76.6787604,9.74948301 C76.6787604,10.2282478 77.2264271,10.4899225 77.6001875,10.1936634 C78.3558516,9.59517269 79.2960495,9.3344702 80.1911146,9.3344702 C83.0938307,9.3344702 84.4841146,11.4453687 84.4841146,14.0716997 L84.4841146,21.5604031 C84.4841146,21.5999877 84.4523698,21.6319331 84.4131719,21.6319331 L81.7257682,21.6319331 C81.6864323,21.6319331 81.6546875,21.5999877 81.6546875,21.5604031 L81.6546875,14.5626871 C81.6546875,13.0898639 80.9960521,11.911772 79.2155833,11.911772 C77.6057083,11.911772 76.7519115,13.1634773 76.7519115,14.734498 M86.9366068,18.3746103 L89.2615677,17.7259792 C89.3024219,17.71459 89.3413438,17.7420908 89.3465885,17.7844532 C89.4759141,18.8312911 90.2779531,19.7418747 91.7528438,19.7418747 C92.9236745,19.7418747 93.5334505,19.1036606 93.5334505,18.367249 C93.5334505,17.7290348 93.0945443,17.2381864 92.1431667,17.0417914 L90.3869896,16.6491404 C88.2892109,16.1827371 87.1916693,14.8081114 87.1916693,13.1634773 C87.1916693,11.0771629 89.0941484,9.30988611 91.5578203,9.30988611 C94.8171823,9.30988611 95.9101693,11.3953671 96.1323828,12.5856817 C96.1392839,12.6227661 96.1152682,12.6561005 96.0793828,12.6665175 L93.8263307,13.3143153 C93.7865807,13.3257045 93.748763,13.3043149 93.7414479,13.2634804 C93.6192995,12.5738757 93.0890234,11.5435662 91.5578203,11.5435662 C90.5577214,11.5435662 89.8503646,12.1817803 89.8503646,12.9181919 C89.8503646,13.5562672 90.3137005,14.0226705 91.045487,14.1698972 L92.8505234,14.5382419 C95.0946042,15.0290904 96.2652969,16.4035773 96.2652969,18.170854 C96.2652969,19.987299 94.801862,22 91.7772734,22 C88.3896901,22 87.0608255,19.809099 86.8819505,18.453085 C86.8771198,18.4168339 86.9014115,18.3843328 86.9366068,18.3746103 M104.097565,11.9362172 C102.365818,11.9362172 100.829094,13.2372295 100.829094,15.6427205 C100.829094,18.0482114 102.365818,19.398253 104.146286,19.398253 C105.955326,19.398253 106.812021,18.159187 107.101727,17.2554091 C107.113872,17.2176302 107.15238,17.2001296 107.189646,17.2136023 L109.543729,18.0730732 C109.580443,18.0865459 109.601284,18.1265471 109.589414,18.1639094 C109.006552,20.0109108 107.231328,22 104.146286,22 C100.658362,22 97.9996667,19.2754715 97.9996667,15.6427205 C97.9996667,11.9608013 100.658362,9.30988611 104.073273,9.30988611 C107.232294,9.30988611 108.984883,11.2774468 109.49556,13.1723664 C109.505359,13.2090342 109.484518,13.2475076 109.449047,13.2605636 L107.046104,14.1440631 C107.007872,14.1580913 106.96757,14.1378129 106.956805,14.0983672 C106.670549,13.0619464 105.861885,11.9362172 104.097565,11.9362172 M117.098299,19.4472823 C118.854477,19.4472823 120.41563,18.1464088 120.41563,15.6427205 C120.41563,13.1634773 118.854477,11.8871879 117.098299,11.8871879 C115.366552,11.8871879 113.781107,13.1634773 113.781107,15.6427205 C113.781107,18.1219636 115.366552,19.4472823 117.098299,19.4472823 M117.098299,9.30988611 C120.659513,9.30988611 123.269487,11.9853854 123.269487,15.6427205 C123.269487,19.3246396 120.659513,22 117.098299,22 C113.561516,22 110.95168,19.3246396 110.95168,15.6427205 C110.95168,11.9853854 113.561516,9.30988611 117.098299,9.30988611 M133.680813,21.6235995 C133.604349,21.191225 133.109406,20.970246 132.753313,21.2245594 C132.065693,21.7156857 131.142195,21.9755548 130.218698,21.9755548 C127.389133,21.9755548 125.730536,19.8645174 125.730536,17.2136023 L125.730536,9.74948301 C125.730536,9.71003735 125.762281,9.67809192 125.801479,9.67809192 L128.489021,9.67809192 C128.528219,9.67809192 128.560102,9.71003735 128.560102,9.74948301 L128.560102,16.6983086 C128.560102,18.170854 129.243029,19.4228371 130.950346,19.4228371 C132.584651,19.4228371 133.43831,18.3182197 133.43831,16.747199 L133.43831,9.74948301 C133.43831,9.71003735 133.470055,9.67809192 133.509253,9.67809192 L136.196932,9.67809192 C136.235992,9.67809192 136.267737,9.71003735 136.267737,9.74948301 L136.267737,19.4472823 C136.267737,20.3732831 136.332883,21.1027501 136.381328,21.5534584 C136.385745,21.5954042 136.353172,21.6319331 136.311076,21.6319331 L133.682331,21.6319331 C133.681779,21.6291552 133.681227,21.6265163 133.680813,21.6235995 M143.512174,6.09214791 L143.512174,9.60670082 C143.512174,9.64600759 143.543781,9.67809192 143.583117,9.67809192 L145.904766,9.67809192 C145.943964,9.67809192 145.97557,9.71003735 145.97557,9.74948301 L145.97557,12.1348344 C145.97557,12.1742801 145.943964,12.2063644 145.904766,12.2063644 L143.583117,12.2063644 C143.543781,12.2063644 143.512174,12.2381709 143.512174,12.2776166 L143.512174,17.7536189 C143.512174,18.8092071 143.97551,19.2508874 145.024331,19.2508874 C145.414654,19.2508874 145.878128,19.177274 146,19.1526899 L146,21.4606778 C146,21.4899843 145.987854,21.5145684 145.96094,21.525402 C145.755427,21.6081824 145.224185,21.7792987 144.268253,21.7792987 C142.073031,21.7792987 140.707177,20.4537023 140.707177,18.2200222 L140.707177,12.2776166 C140.707177,12.2381709 140.675294,12.2063644 140.636234,12.2063644 L138.58276,12.2063644 C138.543563,12.2063644 138.51168,12.1742801 138.51168,12.1348344 L138.51168,9.67809192 L139.121594,9.67809192 C140.390005,9.67809192 140.950922,8.86806692 140.950922,7.81261767 L140.950922,6.09214791 C140.950922,6.05270224 140.982805,6.02075681 141.022003,6.02075681 L143.441094,6.02075681 C143.480292,6.02075681 143.512174,6.05270224 143.512174,6.09214791" id="Fill-21" fill="#3F4757"></path>
            </g>
        </g>
    </g>
</svg>