<?xml version="1.0" encoding="iso-8859-1"?>
<!-- Generator: Adobe Illustrator 19.0.0, SVG Export Plug-In . SVG Version: 6.00 Build 0)  -->
<svg version="1.1" id="Capa_1" xmlns="http://www.w3.org/2000/svg" xmlns:xlink="http://www.w3.org/1999/xlink" x="0px" y="0px"
	 viewBox="0 0 512.003 512.003" style="enable-background:new 0 0 512.003 512.003;" xml:space="preserve">
<g>
	<g>
		<path d="M105.07,360.931c-1.86-1.86-4.44-2.93-7.07-2.93s-5.21,1.069-7.07,2.93c-1.86,1.86-2.93,4.44-2.93,7.07
			s1.07,5.21,2.93,7.069c1.86,1.86,4.44,2.931,7.07,2.931s5.21-1.07,7.07-2.931c1.86-1.859,2.93-4.439,2.93-7.069
			S106.93,362.792,105.07,360.931z"/>
	</g>
</g>
<g>
	<g>
		<path d="M401.07,274.931c-1.86-1.86-4.44-2.93-7.07-2.93s-5.21,1.069-7.07,2.93c-1.86,1.86-2.93,4.44-2.93,7.07
			s1.07,5.21,2.93,7.069c1.86,1.86,4.44,2.931,7.07,2.931s5.21-1.07,7.07-2.931c1.86-1.859,2.93-4.439,2.93-7.069
			S402.93,276.792,401.07,274.931z"/>
	</g>
</g>
<g>
	<g>
		<path d="M354,84.001H138c-5.523,0-10,4.477-10,10v64c0,5.523,4.477,10,10,10h216c5.523,0,10-4.477,10-10v-64
			C364,88.478,359.523,84.001,354,84.001z M344,148.001H148v-44h196V148.001z"/>
	</g>
</g>
<g>
	<g>
		<path d="M354,196.001h-49c-5.523,0-10,4.477-10,10c0,5.523,4.477,10,10,10h49c5.523,0,10-4.477,10-10
			C364,200.479,359.523,196.001,354,196.001z"/>
	</g>
</g>
<g>
	<g>
		<path d="M503.815,431.121L325.432,252.737c-0.996-0.995-2.19-1.77-3.505-2.271l-94.692-36.141
			c-3.683-1.405-7.849-0.516-10.637,2.272c-2.788,2.788-3.677,6.953-2.271,10.637l24.72,64.767H148v-76h49c5.523,0,10-4.477,10-10
			c0-5.523-4.477-10-10-10h-59c-5.523,0-10,4.477-10,10v96c0,5.522,4.477,10,10,10h108.68l3.788,9.924
			c0.502,1.315,1.276,2.51,2.271,3.506l14.57,14.57H138c-5.523,0-10,4.478-10,10c0,5.522,4.477,10,10,10h149.309l28,28H138
			c-5.523,0-10,4.478-10,10c0,5.522,4.477,10,10,10h197.309l40,40H107.072c-4.704-25.014-26.713-44-53.072-44
			c-12.877,0-24.71,4.537-34,12.088V54.001c0-18.748,15.252-34,34-34s34,15.252,34,34v270.6c0,5.522,4.477,10,10,10s10-4.478,10-10
			v-260.6h266c5.514,0,10,4.486,10,10v172.294c0,5.523,4.477,10,10,10s10-4.477,10-10V74.001c0-16.542-13.458-30-30-30H107.057
			c-4.705-25.012-26.698-44-53.057-44c-29.776,0-54,24.224-54,54v404c0,29.775,24.224,54,54,54h265.452c16.542,0,30-13.458,30-30
			v-14H394c0.416,0,0.823-0.033,1.226-0.083l35.896,35.896c5.45,5.449,12.608,8.174,19.766,8.174c7.158,0,14.316-2.725,19.766-8.174
			l33.161-33.162c5.28-5.279,8.188-12.299,8.188-19.766S509.094,436.4,503.815,431.121z M329.452,482.001c0,5.514-4.486,10-10,10H54
			c-18.748,0-34-15.252-34-34s15.252-34,34-34s34,15.252,34,34c0,5.522,4.477,10,10,10h231.452V482.001z M263.65,300.377
			l-22.671-59.398l59.399,22.67L263.65,300.377z M273.953,318.36l44.408-44.408l134.473,134.474l-44.408,44.408L273.953,318.36z
			 M489.672,456.51l-33.161,33.162c-3.101,3.102-8.146,3.102-11.247,0l-22.696-22.696l44.408-44.408l22.696,22.696
			c1.502,1.502,2.329,3.499,2.329,5.623C492.001,453.011,491.175,455.008,489.672,456.51z"/>
	</g>
</g>
<g>
</g>
<g>
</g>
<g>
</g>
<g>
</g>
<g>
</g>
<g>
</g>
<g>
</g>
<g>
</g>
<g>
</g>
<g>
</g>
<g>
</g>
<g>
</g>
<g>
</g>
<g>
</g>
<g>
</g>
</svg>
