<?xml version="1.0" encoding="UTF-8"?>
<svg width="553px" height="325px" viewBox="0 0 553 325" xmlns="http://www.w3.org/2000/svg" xmlns:xlink="http://www.w3.org/1999/xlink">
 <!-- Generator: Sketch 51.3 (57544) - http://www.bohemiancoding.com/sketch -->
 <title>Group 10</title>
 <desc>Created with Sketch.</desc>
 <defs>
  <circle id="path-1" cx="22.5" cy="22.5" r="22.5"/>
  <circle id="path-3" cx="22.5" cy="22.5" r="22.5"/>
 </defs>
 <g id="Industry-Headers" fill="none" fill-rule="evenodd">
  <g id="wellness" transform="translate(-788 -216)">
   <g id="Group-10" transform="translate(789 216)">
    <path id="path3005" d="m308.76 309.99c34.986 0 65.51-16.828 81.765-41.81 14.126 5.4445 29.762 8.4728 46.213 8.4728 63.102 0 114.26-44.513 114.26-99.42 0-54.914-51.158-99.427-114.26-99.427-7.7009 0-15.228 0.66428-22.506 1.9342-14.315-22.025-41.592-36.907-72.901-36.907-13.107 0-25.503 2.6115-36.541 7.255-14.511-29.443-48.319-50.088-87.722-50.088-41.033 0-76.004 22.397-89.428 53.807-5.8662-1.0746-11.944-1.6346-18.18-1.6346-48.855 0-88.462 34.516-88.462 77.102 0 28.538 17.795 53.455 44.235 66.786-5.4434 10.804-8.4709 22.729-8.4709 35.265 0 48.974 46.092 88.675 102.94 88.675 33.378 0 63.041-13.689 81.848-34.901 17.093 15.363 40.89 24.891 67.209 24.891z" fill="#00A89C" fill-rule="nonzero" opacity=".06"/>
    <g id="Group-6" transform="translate(290 19)">
     <rect id="Rectangle-5" width="35.494" height="64.87" rx="3" fill="#fff" fill-rule="nonzero" stroke="#444" stroke-linecap="round" stroke-linejoin="round" stroke-width="1.5"/>
     <ellipse id="Oval" cx="17.631" cy="59.162" rx="2.5814" ry="2.5948" fill="#aaa" fill-rule="nonzero" stroke="#444" stroke-width="1.5"/>
     <rect id="Rectangle-5" x="4.1517" y="8.5629" width="27.104" height="44.76" fill="#ddd" fill-rule="nonzero" stroke="#444" stroke-linecap="round" stroke-linejoin="round" stroke-width="1.5"/>
     <path id="Path-15" d="m16.088 4.2166h6.4534" fill-rule="nonzero" stroke="#444" stroke-linecap="round" stroke-linejoin="round" stroke-width="1.5"/>
     <path id="Path-15" d="m13.556 4.2166h0.32267" fill-rule="nonzero" stroke="#444" stroke-linecap="round" stroke-linejoin="round" stroke-width="1.5"/>
     <path id="Combined-Shape" d="m34.686 40.463-9.3171 4.4716c-0.25059 0.12027-0.53993 0.13081-0.79861 0.029099-0.51398-0.20209-0.76682-0.78259-0.56472-1.2966l3.7684-9.5841c-1.3795-2.2893-2.162-4.9067-2.162-7.6869 0-8.9891 8.1802-16.276 18.271-16.276s18.271 7.2871 18.271 16.276-8.1802 16.276-18.271 16.276c-3.3534 0-6.4958-0.80477-9.1971-2.2093z" fill="#40E0D0" fill-rule="nonzero" stroke="#444" stroke-width="1.5"/>
     <g id="Group-5" transform="translate(39.701 18.164)" fill="#444">
      <path id="$" d="m5.6159 10.7c0-0.43017-0.12203-0.77247-0.36608-1.0269s-0.6584-0.48919-1.2431-0.70428-1.0888-0.42886-1.5126-0.64132c-0.42374-0.21246-0.78714-0.4564-1.0902-0.73182s-0.53906-0.59935-0.70802-0.97182-0.25344-0.81575-0.25344-1.3299c0-0.88658 0.28964-1.6131 0.86893-2.1797 0.57929-0.56657 1.349-0.89707 2.3091-0.9915v-1.0403c0-0.35548 0.28817-0.64366 0.64366-0.64366 0.35548 0 0.64366 0.28817 0.64366 0.64366v1.0639c0.9494 0.13115 1.6923 0.51804 2.2287 1.1607s0.80457 1.4754 0.80457 2.4984h-2.3252c0-0.62952-0.13275-1.1003-0.39826-1.4125s-0.62086-0.46821-1.0661-0.46821c-0.43983 0-0.78043 0.12197-1.0218 0.36591s-0.36206 0.58099-0.36206 1.0112c0 0.3987 0.118 0.7187 0.35401 0.96002s0.67449 0.48788 1.3155 0.73969c0.64098 0.25181 1.168 0.48919 1.581 0.71215 0.41301 0.22296 0.76166 0.47476 1.0459 0.75543 0.28428 0.28066 0.50151 0.60067 0.6517 0.96002s0.22528 0.77772 0.22528 1.2551c0 0.89183-0.28428 1.6158-0.85284 2.1718-0.56856 0.55608-1.3517 0.88395-2.3493 0.98363v0.9263c0 0.35326-0.28637 0.63963-0.63963 0.63963s-0.63963-0.28637-0.63963-0.63963v-0.91843c-1.0996-0.11541-1.9511-0.49706-2.5545-1.1449-0.60343-0.64789-0.90514-1.5095-0.90514-2.585h2.3252c0 0.62428 0.15153 1.103 0.45458 1.4361s0.73886 0.49968 1.3074 0.49968c0.47202 0 0.8448-0.12197 1.1184-0.36591s0.41033-0.57312 0.41033-0.98756z"/>
      <rect id="Rectangle-8" x="3.1371" width="1.7926" height="3.0682" fill-rule="nonzero"/>
      <rect id="Rectangle-8" x="3.1371" y="13.149" width="1.7926" height="3.0682" fill-rule="nonzero"/>
     </g>
     <path id="Path-17" d="m7.2655 42.967 17.321-25.063" fill-rule="nonzero" stroke="#444" stroke-width="1.5"/>
     <path id="Path-17" d="m7.2655 53.371 11.42-16.524" fill-rule="nonzero" stroke="#444" stroke-width="1.5"/>
     <path id="Path-17" d="m4.1517 22.316 6.9942-10.12" fill-rule="nonzero" stroke="#444" stroke-width="1.5"/>
    </g>
    <g id="Group-3" transform="translate(142 82)" fill-rule="nonzero" stroke="#444" stroke-width="1.5">
     <circle id="Oval-2" cx="27.5" cy="27.5" r="27.5" fill="#fff"/>
     <g id="Group-13" transform="translate(10.154 10.154)">
      <g id="Group-12" transform="translate(8.5673 1.5865)" stroke-linecap="round">
       <rect id="Rectangle-4" y="18.788" width="5.0101" height="5.8451" fill="#0D98BA" stroke-linejoin="round"/>
       <rect id="Rectangle-4" x="8.6007" y="14.613" width="5.0101" height="10.02" fill="#0D98BA" stroke-linejoin="round"/>
       <rect id="Rectangle-4" x="17.201" y="10.438" width="5.0101" height="14.195" fill="#0D98BA" stroke-linejoin="round"/>
       <polyline id="Path-7" points="0.083502 16.02 8.8974 7.588 11.249 9.9393 20.353 0.83502"/>
       <polyline id="Path-12" points="16.784 0 20.959 0 20.959 4.1751"/>
      </g>
      <polyline id="Path-9" points="3.3947 0.77389 3.3947 31.711 34.332 31.711" stroke-linecap="round"/>
      <path id="Path-11" d="m0.23798 3.1731h2.7764"/>
      <path id="Path-11" d="m0.23798 9.5192h2.7764"/>
      <path id="Path-11" d="m0.23798 15.865h2.7764"/>
      <path id="Path-11" d="m0.23798 22.212h2.7764"/>
      <path id="Path-11" d="m0.23798 28.558h2.7764"/>
      <path id="Path-13" d="m6.5841 32.127v2.7764"/>
      <path id="Path-13" d="m12.93 32.127v2.7764"/>
      <path id="Path-13" d="m19.276 32.127v2.7764"/>
      <path id="Path-13" d="m25.623 32.127v2.7764"/>
      <path id="Path-13" d="m31.969 32.127v2.7764"/>
     </g>
    </g>
    <g id="Group-18" transform="translate(101.44 244)">
     <g id="Group-17" transform="translate(57.088 21.59)" fill-rule="nonzero">
      <polygon id="Shape" points="25.516 29.742 25.516 24.648 12.369 24.648 12.369 29.742 18.942 35.564" fill="#fff" stroke="#444" stroke-width="1.5"/>
      <path id="Shape" d="m35.726 32.127-9.0375-2.1187c-0.13642-0.031972-0.26208-0.08627-0.37932-0.15218l-7.32 4.2542-7.0348-4.4603c-0.18213 0.17093-0.408 0.29775-0.66488 0.35794l-9.0375 2.1187c-1.3197 0.30971-2.2524 1.483-2.2524 2.8337v5.6995c0 0.80375 0.65395 1.4555 1.4608 1.4555h35.057c0.80668 0 1.4608-0.65158 1.4608-1.4555v-5.6995c-1.792e-4 -1.3505-0.9327-2.524-2.2526-2.8333z" fill="#fff" stroke="#444" stroke-linecap="round" stroke-linejoin="round" stroke-width="1.5"/>
      <polygon id="Shape" points="20.861 42.093 17.209 42.093 17.666 34.192 20.405 34.192" fill="#bbb" stroke="#444" stroke-linecap="round" stroke-linejoin="round" stroke-width="1.5"/>
      <g id="Group" transform="translate(10.218 27.863)" fill="#bbb" stroke="#444" stroke-linecap="round" stroke-linejoin="round" stroke-width="1.5">
       <path id="Shape" d="m2.1823 0.29757 6.6757 5.9864s-1.8697 0.94039-4.1768 2.8356c-0.47594 0.39098-1.1959 0.23255-1.4511-0.32704l-3.1364-6.8751 0.99221-1.4828c0.24702-0.36901 0.76527-0.43385 1.0964-0.137z"/>
       <path id="Shape" d="m15.534 0.29757-6.6757 5.9864s1.8697 0.94039 4.1768 2.8356c0.47594 0.39098 1.1959 0.23255 1.4511-0.32704l3.1364-6.8751-0.99221-1.4828c-0.24702-0.36901-0.76527-0.43385-1.0964-0.137z"/>
      </g>
      <path id="Combined-Shape" d="m9.8359 15.203-0.33499-7.3441h18.989l-0.33494 7.3429c0.08001-0.013009 0.16226-0.019785 0.24626-0.019785h0.0030475c0.98343 1.786e-4 1.7053 0.9211 1.4667 1.8719l-0.82478 3.2872c-0.097698 0.38937-0.44905 0.66265-0.85203 0.66265-0.10555 0-0.20716-0.018652-0.30145-0.05299l-0.03921 0.8596c-0.059515 1.3033-0.70073 2.5118-1.7483 3.2947l-3.0198 2.2566c-0.75846 0.56674-1.6811 0.87323-2.6292 0.87323h-1.4807c0.0066698 1.19e-4 0.01331 1.786e-4 0.01992 1.786e-4h-1.4608c-0.94811 0-1.8706-0.30632-2.6292-0.87323l-3.0198-2.2568c-1.0474-0.78286-1.6888-1.9913-1.7483-3.2947l-0.039328-0.86218c-0.09625 0.035983-0.20027 0.05557-0.30844 0.05557-0.40298 0-0.75433-0.27328-0.85203-0.66265l-0.82478-3.2872c-0.2386-0.95075 0.48329-1.8717 1.4667-1.8719h0.0030474c0.086513 0 0.17116 0.0071869 0.25343 0.020967z" fill="#FFE9AC" stroke="#444" stroke-linecap="round" stroke-linejoin="round" stroke-width="1.5"/>
      <path id="Combined-Shape" d="m10.112 15.056c0.0032089 0.50976 0.047369 0.83908 0.047369 0.83908l-0.011667 0.011625c0.0067116 0.068315 0.011667 0.10527 0.011667 0.10527l-1.4608 1.4555s0-3.6385-1.4608-5.094c0 0-0.071163-0.48046-0.067431-1.2513-0.0094137-1.9345 0.44106-5.9182 3.9567-8.5605l-0.99832-0.67931c2.2216-1.1524 6.5108-1.8415 8.7949-1.8801 3.8964-0.065911 6.163 1.3425 7.2471 2.6987 5.0052 0.50453 4.522 9.6176 4.5221 9.6178-1.8692 2.0465-1.4608 5.094-1.4608 5.094l-1.1926-1.8431c-0.13785-0.21308-0.21906-0.45778-0.23089-0.71105-0.057727-1.2419-0.42045-5.2465-2.7002-6.5542-1.1909 0.72268-3.0192 1.1582-5.6826 1.1582-2.2822 0-4.519-0.77321-7.0753 0.72767-1.9264 1.131-2.2301 3.5269-2.2385 4.8657zm0.92529-12.309c0.056466-0.043451 0.11374-0.086553 0.17183-0.12929l-0.056188-0.038233c-0.039489 0.05589-0.078031 0.11174-0.11565 0.16752z" fill="#fff" stroke="#444" stroke-linecap="round" stroke-linejoin="round" stroke-width="1.5"/>
      <path id="Shape" d="m8.1248 17.247 1.0433 3.1264c0.12359 0.37033 0.56804 0.63024 1.0778 0.63024 0.56033 0 1.0327-0.3124 1.1023-0.72877l0.53358-3.1978c0.14263-0.85516-0.74741-1.6104-1.8978-1.6104-1.2479 1.698e-4 -2.1611 0.87606-1.8592 1.7803z" fill="#FFE9AC"/>
      <path id="Shape" d="m10.414 15.182h-0.63545c-0.8997 0-1.9154 0.91349-1.6768 1.8642l0.82478 3.2872c0.097698 0.38937 0.44905 0.66265 0.85203 0.66265h0.63545" stroke="#444" stroke-linecap="round" stroke-linejoin="round" stroke-width="1.5"/>
      <path id="Shape" d="m29.871 17.054-0.82478 3.2872c-0.097698 0.38937-0.44905 0.66265-0.85203 0.66265-0.44296 0-0.81636-0.32847-0.87139-0.76625l-0.4218-3.3622c-0.11276-0.89913 0.59085-1.6932 1.5002-1.6932h0.0030475c0.98343 1.786e-4 1.7053 0.9211 1.4667 1.8719z" fill="#FFE9AC"/>
      <path id="Shape" transform="translate(28.631 18.089) scale(-1 1) translate(-28.631 -18.089)" d="m29.775 15.182h-0.63544c-0.8997 0-1.9154 0.91349-1.6768 1.8642l0.82478 3.2872c0.097698 0.38937 0.44905 0.66265 0.85203 0.66265h0.63544" stroke="#444" stroke-linecap="round" stroke-linejoin="round" stroke-width="1.5"/>
     </g>
     <g id="Message-bubble" transform="translate(40.826)" stroke="#444" stroke-linecap="round" stroke-width="1.5">
      <g id="Group-6" transform="translate(20 17.615) scale(-1 1) translate(-20 -16.667)" fill="#fff" stroke-linejoin="round">
       <path id="Path-2" d="m8.4437 25.159-0.11284 7.4603 7.3525-7.4603h20.303c1.6569 0 3-1.3431 3-3v-19.159c0-1.6569-1.3431-3-3-3l-32.857-7.585e-8c-1.6569 0-3 1.3431-3 3v8e-8l3.1e-8 19.159c4.2e-8 1.6569 1.3431 3 3 3h5.3e-7l5.3144-1.6e-6z"/>
      </g>
      <path id="Path-10" d="m5.0933 7.6178h28.862" fill-rule="nonzero"/>
      <path id="Path-10" d="m5.0933 13.333h28.862" fill-rule="nonzero"/>
      <path id="Path-10" d="m5.0933 18.731h18.675" fill-rule="nonzero"/>
     </g>
     <g id="Group-16" transform="translate(0 19.387)" fill-rule="nonzero" stroke="#444" stroke-width="1.5">
      <path id="Combined-Shape" d="m14.58 23.255c-0.38932 0.80275-1.1463 1.7179-1.1463 2.3074 0 1.4024-0.17476 2.8049-0.52413 4.0319-0.34936 1.227-1.0483 2.6295-2.2713 3.3308 0.34936-0.70126 0.52413-1.4024 0.34936-2.279-0.34936 1.2272-1.223 2.279-2.2713 2.6295-1.0483 0.35055-3.4941 0.35055-4.5424-0.17536 1.3976-0.5259 2.6206-1.5777 3.3195-2.8049s1.3976-2.8049 1.0483-4.2072c-1.4208-5.2271-1.638-10.374-1.3585-14.022-0.0033753-0.13783-0.0050771-0.27628-0.0050771-0.41529 0-6.4349 3.6465-11.651 8.1448-11.651 1.4181 0 2.7515 0.51845 3.9127 1.4301 0.75731-0.58001 1.5889-0.90046 2.4614-0.90046 3.292 0 6.0011 4.5618 6.3387 10.416 0.34341 2.3112 0.49165 4.8923 0.38948 7.591-0.17695 3.3543-0.70813 6.5319-1.4164 9.18h-10.446c-0.25788-1.3713-0.47405-2.8675-0.60796-4.448-0.20841 0.022862-0.41901 0.034504-0.63151 0.034504-0.25045 0-0.49826-0.016171-0.74294-0.047823z" fill="#fff"/>
      <path id="Shape" d="m34.148 40.376v-9.1299c0-2.458-1.557-4.3894-3.9789-5.0916-2.076-0.52672-4.152-0.87782-6.401-1.2291-1.3839-0.17563-2.2491-1.2291-2.2491-2.6336v-4.3894h-8.304v4.3894c0 1.4045-1.038 2.458-2.2491 2.6336-2.076 0.35109-4.325 0.70235-6.401 1.2291-2.2491 0.52672-3.806 2.6336-3.806 5.0916v9.1299h33.389z" fill="#fff"/>
      <path id="Shape" d="m34.148 40.757v-9.1247c0-2.4566-1.411-4.6814-3.8626-5.3832-2.1014-0.52642-4.2028-0.87731-6.4794-1.2284-0.17517 0-0.35018 0-0.52535-0.17553-0.17517 3.1585-2.967 5.9096-6.2941 5.9096-3.1521 0-5.7789-2.4566-6.1291-5.6151-0.17517 0 1.0591-0.35089-1.0423 0s-3.4814 0.58299-5.5828 1.1094c-2.2766 0.52642-4.2323 2.9266-4.2323 5.3832v9.1247h34.148z" fill="#FFC72F" stroke-linecap="round" stroke-linejoin="round"/>
      <path id="Shape" d="m23.971 8.7936c-1.5556 0-3.2842-0.88054-4.6669-1.9373-1.9013 1.2329-4.3213 1.7612-6.2225 1.9373-1.21 0.17617-2.2471 0.17617-3.4571 0.17617-0.34564 1.0567-0.51854 2.2896-0.51854 3.5223 0 5.9881 3.4569 10.743 7.7782 10.743s7.7782-4.7552 7.7782-10.743c0-1.2329-0.1729-2.6418-0.51854-3.6985h-0.17274z" fill="#FFE9AC"/>
     </g>
     <g id="Message-bubble" transform="translate(11.429 45.714)" stroke="#444" stroke-linecap="round" stroke-width="1.5">
      <g id="Group-6" transform="translate(20 17.711) scale(1 -1) translate(-20 -16.571)" fill="#0D98BA" stroke-linejoin="round">
       <path id="Path-2" d="m8.4437 25.159-0.11284 7.4603 7.3525-7.4603h20.303c1.6569 0 3-1.3431 3-3v-19.159c0-1.6569-1.3431-3-3-3l-32.857-7.585e-8c-1.6569 0-3 1.3431-3 3v8e-8l3.1e-8 19.159c4.2e-8 1.6569 1.3431 3 3 3h5.3e-7l5.3144-1.6e-6z"/>
      </g>
      <path id="Path-10" d="m5.0933 15.618h28.862" fill-rule="nonzero"/>
      <path id="Path-10" d="m5.0933 21.333h28.862" fill-rule="nonzero"/>
      <path id="Path-10" d="m5.0933 26.731h18.675" fill-rule="nonzero"/>
     </g>
    </g>
    <g id="Group" transform="translate(334 225)" fill-rule="nonzero">
     <rect id="Rectangle-2" x="15.65" y="23.408" width="47.281" height="32.771" fill="#fff" stroke="#444" stroke-linecap="round" stroke-linejoin="round" stroke-width="1.5"/>
     <rect id="Rectangle-2" x="21.797" y="32.771" width="14.184" height="23.408" fill="#FFC72F" stroke="#444" stroke-linecap="round" stroke-linejoin="round" stroke-width="1.5"/>
     <rect id="Rectangle-2" x="41.655" y="29.494" width="16.076" height="13.108" fill="#FFC72F" stroke="#444" stroke-linecap="round" stroke-linejoin="round" stroke-width="1.5"/>
     <rect id="Rectangle-2" x="47.329" y="3.2771" width="9.4563" height="6.0861" fill="#fff" stroke="#444" stroke-linecap="round" stroke-linejoin="round" stroke-width="1.5"/>
     <rect id="Rectangle-2" transform="translate(52.057 1.6386) scale(1 -1) translate(-52.057 -1.6386)" x="45.437" width="13.239" height="3.2771" fill="#fff" stroke="#444" stroke-linecap="round" stroke-linejoin="round" stroke-width="1.5"/>
     <polygon id="Rectangle-2" transform="translate(39.291 16.386) scale(1 -1) translate(-39.291 -16.386)" points="9.9764 9.3632 68.605 9.3632 62.931 23.408 15.65 23.408" fill="#fff" stroke="#444" stroke-linecap="round" stroke-linejoin="round" stroke-width="1.5"/>
     <path id="Combined-Shape" d="m48.341 54.797 0.5742-0.34116 19.128-11.001c1.8508-1.0644 4.203-0.6012 5.5121 1.0855 1.2895 1.6615 1.0859 4.035-0.46783 5.4525l-16.537 15.088c-4.8749 4.4477-11.63 6.2044-18.054 4.6952l-4.7241-1.1098c-4.0106-0.94221-8.23-0.30241-11.781 1.7864l1.4806-0.87968-2.6181 0.87968-8.849-15.483 1.8711-1.1825c6.591-4.1652 14.545-5.6009 22.176-4.0028l8.7912 1.841c1.7081 0.35771 3.0067 1.6099 3.498 3.1711z" fill="#fff"/>
     <rect id="Rectangle" transform="translate(11.833 65.604) rotate(-32) translate(-11.833 -65.604)" x="6.159" y="52.495" width="11.348" height="26.217" fill="#0D98BA" stroke="#444" stroke-linecap="round" stroke-linejoin="round" stroke-width="1.5"/>
     <ellipse id="Oval" cx="16.076" cy="72.088" rx="1.8913" ry="1.8726" fill="#fff" stroke="#444" stroke-width="1.5"/>
     <path id="Path-3" d="m12.005 54.97 1.8711-1.1825c6.591-4.1652 14.545-5.6009 22.176-4.0028l8.7912 1.841c2.4594 0.51505 4.0699 2.8844 3.6437 5.3608v0c-0.4202 2.4416-2.7402 4.0804-5.1818 3.6602-0.0055912-9.623e-4 -0.011181-0.0019351-0.016768-0.0029185l-14.632-2.5753" stroke="#444" stroke-linecap="round" stroke-linejoin="round" stroke-width="1.5"/>
     <path id="Path-2" d="m21.991 70.452v0c3.551-2.0888 7.7704-2.7286 11.781-1.7864l4.7241 1.1098c6.4241 1.5092 13.179-0.24754 18.054-4.6952l16.537-15.088c1.5537-1.4175 1.7573-3.791 0.46783-5.4525v0c-1.309-1.6867-3.6613-2.1499-5.5121-1.0855l-19.128 11.001" stroke="#444" stroke-linecap="round" stroke-linejoin="round" stroke-width="1.5"/>
     <path id="Path-4" d="m49.693 29.494v13.108" stroke="#444" stroke-width="1.5"/>
     <path id="Path-5" d="m41.655 36.048h16.076" stroke="#444" stroke-width="1.5"/>
     <path id="Path-6" d="m18.454 14.37h22.305" stroke="#444" stroke-linecap="round" stroke-width="1.5"/>
     <path id="Path-6" d="m44.968 14.37h7.5754" stroke="#444" stroke-linecap="round" stroke-width="1.5"/>
     <path id="Path-6" d="m56.331 14.37h3.3668" stroke="#444" stroke-linecap="round" stroke-width="1.5"/>
     <path id="Path-6" d="m24.346 18.538h22.305" stroke="#444" stroke-linecap="round" stroke-width="1.5"/>
     <path id="Path-6" d="m50.86 18.538h7.5754" stroke="#444" stroke-linecap="round" stroke-width="1.5"/>
    </g>
    <g id="Group-16" transform="translate(288.36 146)">
     <g id="Group-14" transform="translate(0 8.6842)">
      <mask id="mask-2" fill="white">
       <use xlink:href="#path-1"/>
      </mask>
      <use id="Mask" fill="#FFFFFF" fill-rule="nonzero" xlink:href="#path-1"/>
      <path id="Shape" d="m15.791 37.987-6.7135 3.662c-0.39396 0.21481-0.74802 0.47887-1.0775 0.7667 3.9142 3.3003 8.9669 5.2913 14.487 5.2913 5.4798 0 10.5-1.9613 14.403-5.2166-0.36-0.30396-0.75057-0.57736-1.1836-0.79302l-7.189-3.5941c-0.92887-0.46443-1.5156-1.4137-1.5156-2.4521v-2.8206c0.20208-0.23009 0.43302-0.52557 0.68009-0.87453 0.97981-1.384 1.721-2.9063 2.2347-4.5034 0.92208-0.28443 1.6013-1.136 1.6013-2.1481v-3.0108c0-0.66226-0.29462-1.2541-0.75226-1.6684v-4.3523s0.89406-6.7729-8.2783-6.7729-8.2783 6.7729-8.2783 6.7729v4.3523c-0.45849 0.41434-0.75226 1.0061-0.75226 1.6684v3.0108c0 0.79302 0.41689 1.4909 1.0409 1.8942 0.75226 3.2748 2.7221 5.6318 2.7221 5.6318v2.7509c-8.49e-4 1.0019-0.54934 1.9248-1.4298 2.4054z" fill="#9670C7" fill-rule="nonzero" mask="url(#mask-2)" stroke="#444" stroke-linecap="round" stroke-linejoin="round" stroke-width="1.5"/>
      <mask id="mask-4" fill="white">
       <use xlink:href="#path-3"/>
      </mask>
      <use id="Mask" fill-rule="nonzero" stroke="#444444" stroke-width="1.5" xlink:href="#path-3"/>
      <path id="Path-16" d="m10.627 21.21c-0.82538-9.9059 3.183-14.859 12.025-14.859 8.7786 0 12.819 4.953 12.121 14.859" fill-rule="nonzero" stroke="#444" stroke-width="1.5"/>
      <rect id="Rectangle-8" x="33.353" y="20.118" width="3.1765" height="5.2941" rx="1.5882" fill="#fff" fill-rule="nonzero" stroke="#444" stroke-width="1.5"/>
      <rect id="Rectangle-8" x="8.7353" y="20.118" width="3.1765" height="5.2941" rx="1.5882" fill="#fff" fill-rule="nonzero" stroke="#444" stroke-width="1.5"/>
      <path id="Path-17" d="m34.845 25.439c-2.2515 4.7718-5.7472 6.3637-10.487 4.7756" fill-rule="nonzero" stroke="#444" stroke-width="1.5"/>
      <circle id="Oval-6" cx="23.029" cy="29.382" r="1.3235" fill="#fff" fill-rule="nonzero" stroke="#444" stroke-width="1.5"/>
     </g>
     <g id="Group-15" transform="translate(36.658)" stroke="#444" stroke-linecap="round" stroke-linejoin="round" stroke-width="1.5">
      <path id="Combined-Shape" d="m12.822 21.727-7.1341 6.0407v-6.0407h-3.6879c-1.1046 0-2-0.89543-2-2v-17.727c-1.3527e-16 -1.1046 0.89543-2 2-2l31.526-2.2204e-16c1.1046 3.7213e-15 2 0.89543 2 2v17.727c0 1.1046-0.89543 2-2 2h-20.704z" fill="#40E0D0" fill-rule="nonzero"/>
      <path id="Path-4" d="m4.4211 5.6569h17.763"/>
      <path id="Path-4" d="m4.4211 10.214h26.911"/>
      <path id="Path-4" d="m4.4211 14.901h26.911"/>
     </g>
    </g>
    <g id="Group-9" transform="translate(466 95)" fill-rule="nonzero" stroke="#444" stroke-width="1.5">
     <polyline id="Path-25" points="13.13 48.24 8.6745 45.102 17.898 39.556 27.41 45.102 22.849 48.24" fill="#bbb" stroke-linecap="round" stroke-linejoin="round"/>
     <circle id="Oval-7" cx="18.043" cy="49.271" r="4.8577" fill="#fff"/>
     <path id="Rectangle-10" d="m23.248 91.256v6.2457c0 1.3414-1.0874 2.4289-2.4289 2.4289s-2.4289-1.0874-2.4289-2.4289v-6.2457" fill="#fff"/>
     <path id="Rectangle-10" d="m18.39 91.256v6.2457c0 1.3414-1.0874 2.4289-2.4289 2.4289s-2.4289-1.0874-2.4289-2.4289v-6.2457" fill="#fff"/>
     <path id="Combined-Shape" d="m23.447 62.17 3.3208 29.244h-16.704l2.7702-29.299c-6.2207-3.5034-9.3433-5.2584-9.3679-5.2652-1.5236-2.1066-2.5862-5.295-3.2466-8.1674-0.4403-1.9149-0.22015-3.2717 0.66046-4.0703 1.5902-0.66497 2.7264 0.34289 3.4087 3.0236 0.68227 2.6807 1.3783 4.6167 2.0882 5.8079l5.7992 3.4061 5.9339 0.058775-0.0034036-0.0033558h5.998l5.7992-3.4061c0.70985-1.1913 1.4059-3.1273 2.0882-5.8079 0.68227-2.6807 1.8185-3.6885 3.4087-3.0236 0.88061 0.79861 1.1008 2.1554 0.66046 4.0703-0.66046 2.8724-1.723 6.0608-3.2466 8.1674-0.024573 0.0067329-3.1472 1.7618-9.3679 5.2652z" fill="#fff" stroke-linecap="round" stroke-linejoin="round"/>
     <path id="Path-27" d="m10.333 46.588v5.5517" stroke-linecap="round"/>
     <polyline id="Path-25" points="53.033 48.24 48.577 45.102 57.801 39.556 67.313 45.102 62.752 48.24" fill="#bbb" stroke-linecap="round" stroke-linejoin="round"/>
     <circle id="Oval-7" cx="57.946" cy="49.271" r="4.8577" fill="#fff"/>
     <path id="Rectangle-10" d="m63.151 91.256v6.2457c0 1.3414-1.0874 2.4289-2.4289 2.4289s-2.4289-1.0874-2.4289-2.4289v-6.2457" fill="#fff"/>
     <path id="Rectangle-10" d="m58.293 91.256v6.2457c0 1.3414-1.0874 2.4289-2.4289 2.4289-1.3414 0-2.4289-1.0874-2.4289-2.4289v-6.2457" fill="#fff"/>
     <path id="Combined-Shape" d="m63.35 62.17 3.3208 29.244h-16.704l2.7702-29.299c-6.2207-3.5034-9.3433-5.2584-9.3679-5.2652-1.5236-2.1066-2.5862-5.295-3.2466-8.1674-0.4403-1.9149-0.22015-3.2717 0.66046-4.0703 1.5902-0.66497 2.7264 0.34289 3.4087 3.0236 0.68227 2.6807 1.3783 4.6167 2.0882 5.8079l5.7992 3.4061 5.9339 0.058775-0.0034035-0.0033558h5.998l5.7992-3.4061c0.70985-1.1913 1.4059-3.1273 2.0882-5.8079 0.68227-2.6807 1.8185-3.6885 3.4087-3.0236 0.88061 0.79861 1.1008 2.1554 0.66046 4.0703-0.66046 2.8724-1.723 6.0608-3.2466 8.1674-0.024573 0.0067329-3.1472 1.7618-9.3679 5.2652z" fill="#fff" stroke-linecap="round" stroke-linejoin="round"/>
     <path id="Path-27" d="m50.312 46.495v5.5517" stroke-linecap="round"/>
     <g id="Group-8" transform="translate(37.407 28.768) rotate(-20) translate(-8.9695 -8.9695)" fill="#bbb" stroke-linecap="round" stroke-linejoin="round">
      <path id="Path-28" d="m2.6662 9.4103v4.6024c3.5346 2.1911 7.9256 2.1911 13.173 0 0.016287-2.1434 0.016287-3.6776 0-4.6024"/>
      <polygon id="Rectangle-11" transform="translate(9.0215 9.0215) rotate(45) translate(-9.0215 -9.0215)" points="6.7015 6.7015 15.267 2.7759 11.342 11.342 2.7759 15.267"/>
     </g>
     <g id="Group-8" transform="translate(56.652 12.308) rotate(30) translate(-8.9695 -8.9695)" fill="#bbb" stroke-linecap="round" stroke-linejoin="round">
      <path id="Path-28" d="m2.6662 9.4103v4.6024c3.5346 2.1911 7.9256 2.1911 13.173 0 0.016287-2.1434 0.016287-3.6776 0-4.6024"/>
      <polygon id="Rectangle-11" transform="translate(9.0215 9.0215) rotate(45) translate(-9.0215 -9.0215)" points="6.7015 6.7015 15.267 2.7759 11.342 11.342 2.7759 15.267"/>
     </g>
     <g id="Group-8" transform="translate(19.477 15.002) rotate(-20) translate(-8.9695 -8.9695)" fill="#bbb" stroke-linecap="round" stroke-linejoin="round">
      <path id="Path-28" d="m2.6662 9.4103v4.6024c3.5346 2.1911 7.9256 2.1911 13.173 0 0.016287-2.1434 0.016287-3.6776 0-4.6024"/>
      <polygon id="Rectangle-11" transform="translate(9.0215 9.0215) rotate(45) translate(-9.0215 -9.0215)" points="6.7015 6.7015 15.267 2.7759 11.342 11.342 2.7759 15.267"/>
     </g>
    </g>
    <path id="Shape" d="m301.56 254.32c-3.4489 0-3.4489-5.3246-6.9371-5.3246s-3.4489 5.3246-6.9322 5.3246c-3.4834 0-3.4489-5.3246-6.9371-5.3246-3.4883 0-3.4489 5.3246-6.9322 5.3246-3.4834 0-3.4489-5.3246-6.9371-5.3246-3.4883 0-3.4489 5.3246-6.9421 5.3246s-3.4735-5.3246-6.9421-5.3246" stroke="#444" stroke-linecap="round" stroke-linejoin="round" stroke-width="1.5"/>
    <path id="Shape" d="m101.44 159c-2.8011 0-2.8011-4.3246-5.6343-4.3246s-2.8011 4.3246-5.6303 4.3246c-2.8291 0-2.8011-4.3246-5.6343-4.3246s-2.8011 4.3246-5.6303 4.3246-2.8011-4.3246-5.6343-4.3246-2.8011 4.3246-5.6383 4.3246-2.8211-4.3246-5.6383-4.3246" stroke="#444" stroke-linecap="round" stroke-linejoin="round" stroke-width="1.5"/>
    <path id="Shape" d="m115.37 207h-2.3688" stroke="#444" stroke-linecap="round" stroke-linejoin="round" stroke-width="1.5"/>
    <path id="Shape" d="m108.16 207.55h-59.156" stroke="#444" stroke-linecap="round" stroke-linejoin="round" stroke-width="1.5"/>
    <path id="Shape" d="m42.369 207h-2.3688" stroke="#444" stroke-linecap="round" stroke-linejoin="round" stroke-width="1.5"/>
    <path id="Shape" d="m490.37 231h-2.3688" stroke="#444" stroke-linecap="round" stroke-linejoin="round" stroke-width="1.5"/>
    <path id="Shape" d="m483.16 231.55h-59.156" stroke="#444" stroke-linecap="round" stroke-linejoin="round" stroke-width="1.5"/>
    <path id="Shape" d="m419.37 232h-2.3688" stroke="#444" stroke-linecap="round" stroke-linejoin="round" stroke-width="1.5"/>
    <g id="Group-2" transform="translate(391 150)" fill-rule="nonzero" stroke="#444" stroke-linecap="round" stroke-width="1.5">
     <path id="Path-36" d="m0.033975 1.6458h29.244"/>
     <path id="Path-36" d="m34.808 1.6458h8.6935"/>
     <path id="Path-36" d="m3.9856 9.6458h31.615"/>
     <path id="Path-36" d="m41.131 9.6458h7.1129"/>
    </g>
    <g id="Group-28" transform="translate(61 86)" stroke="#444" stroke-linecap="round" stroke-linejoin="round" stroke-width="1.5">
     <path id="Shape" d="m15.119 9.195h28.863"/>
     <path id="Shape" d="m26.113 0.5h28.863"/>
     <path id="Shape" d="m11 0.5h8.6128"/>
     <path id="Shape" d="m0 9.195h8.6189"/>
    </g>
    <g id="Group-28" transform="translate(119 177)" stroke="#444" stroke-linecap="round" stroke-linejoin="round" stroke-width="1.5">
     <path id="Shape" d="m15.889 6.4365h30.332"/>
     <path id="Shape" d="m27.442 0.35h30.332"/>
     <path id="Shape" d="m11.56 0.35h9.0512"/>
     <path id="Shape" d="m0 6.4365h9.0577"/>
    </g>
    <g id="Group-28" transform="translate(238 122)" stroke="#444" stroke-linecap="round" stroke-linejoin="round" stroke-width="1.5">
     <path id="Shape" d="m10.391 6.4365h19.837"/>
     <path id="Shape" d="m17.947 0.35h19.837"/>
     <path id="Shape" d="m7.56 0.35h5.9193"/>
     <path id="Shape" d="m0 6.4365h5.9235"/>
    </g>
    <g id="Group-7" transform="translate(0 145)" stroke="#444" stroke-linecap="round" stroke-linejoin="round" stroke-width="1.5">
     <g id="Group-6" transform="translate(32.615 12.048) scale(-1 1) translate(-14.731 -11.741)">
      <path id="Path-5" d="m29.425 13.595v-11.595c0-1.1046-0.89543-2-2-2l-25.326 2.2204e-16c-1.1046 2.0291e-16 -2 0.89543-2 2v14.498c0 1.1046 0.89543 2 2 2h3.4571l4.8614 4.8864v-4.8864h7.06" fill="#fff"/>
      <path id="Path-4" d="m4.8444 4.4451h19.741"/>
      <path id="Path-4" d="m4.3014 9.0794h20.495"/>
      <path id="Path-4" d="m4.3014 13.43h10.72"/>
     </g>
     <g id="Group-6" transform="translate(0 13.659)">
      <path id="Path-2" d="m6.0683 18.782 4.628 4.6343v-4.6343h17.173c1.1046 0 2-0.89543 2-2v-14.537c0-1.1046-0.89543-2-2-2h-25.759c-1.1046 0-2 0.89543-2 2l-4.9e-7 14.537c0 1.1046 0.89543 2 2 2h4.9e-7l3.9576-1.5e-6z" fill="#40E0D0"/>
      <path id="Path-4" d="m4.746 4.6896h13.223"/>
      <path id="Path-4" d="m4.746 9.3238h20.495"/>
      <path id="Path-4" d="m4.746 13.674h20.495"/>
     </g>
    </g>
    <g id="Group-7" transform="translate(504 221)" stroke="#444" stroke-linecap="round" stroke-linejoin="round" stroke-width="1.5">
     <g id="Group-6" transform="translate(32.615 12.048) scale(-1 1) translate(-14.731 -11.741)">
      <path id="Path-5" d="m29.425 13.595v-11.595c0-1.1046-0.89543-2-2-2l-25.326 2.2204e-16c-1.1046 2.0291e-16 -2 0.89543-2 2v14.498c0 1.1046 0.89543 2 2 2h3.4571l4.8614 4.8864v-4.8864h7.06" fill="#fff"/>
      <path id="Path-4" d="m4.8444 4.4451h19.741"/>
      <path id="Path-4" d="m4.3014 9.0794h20.495"/>
      <path id="Path-4" d="m4.3014 13.43h10.72"/>
     </g>
     <g id="Group-6" transform="translate(0 13.659)">
      <path id="Path-2" d="m6.0683 18.782 4.628 4.6343v-4.6343h17.173c1.1046 0 2-0.89543 2-2v-14.537c0-1.1046-0.89543-2-2-2h-25.759c-1.1046 0-2 0.89543-2 2l-4.9e-7 14.537c0 1.1046 0.89543 2 2 2h4.9e-7l3.9576-1.5e-6z" fill="#40E0D0"/>
      <path id="Path-4" d="m4.746 4.6896h13.223"/>
      <path id="Path-4" d="m4.746 9.3238h20.495"/>
      <path id="Path-4" d="m4.746 13.674h20.495"/>
     </g>
    </g>
    <g id="Group-7" transform="translate(395 63)" stroke="#444" stroke-linecap="round" stroke-linejoin="round" stroke-width="1.5">
     <g id="Group-6" transform="translate(32.615 12.048) scale(-1 1) translate(-14.731 -11.741)">
      <path id="Path-5" d="m29.425 13.595v-11.595c0-1.1046-0.89543-2-2-2l-25.326 2.2204e-16c-1.1046 2.0291e-16 -2 0.89543-2 2v14.498c0 1.1046 0.89543 2 2 2h3.4571l4.8614 4.8864v-4.8864h7.06" fill="#fff"/>
      <path id="Path-4" d="m4.8444 4.4451h19.741"/>
      <path id="Path-4" d="m4.3014 9.0794h20.495"/>
      <path id="Path-4" d="m4.3014 13.43h10.72"/>
     </g>
     <g id="Group-6" transform="translate(0 13.659)">
      <path id="Path-2" d="m6.0683 18.782 4.628 4.6343v-4.6343h17.173c1.1046 0 2-0.89543 2-2v-14.537c0-1.1046-0.89543-2-2-2h-25.759c-1.1046 0-2 0.89543-2 2l-4.9e-7 14.537c0 1.1046 0.89543 2 2 2h4.9e-7l3.9576-1.5e-6z" fill="#40E0D0"/>
      <path id="Path-4" d="m4.746 4.6896h13.223"/>
      <path id="Path-4" d="m4.746 9.3238h20.495"/>
      <path id="Path-4" d="m4.746 13.674h20.495"/>
     </g>
    </g>
    <g id="Group-7" transform="translate(202 170)" stroke="#444" stroke-linecap="round" stroke-linejoin="round" stroke-width="1.5">
     <g id="Group-6" transform="translate(32.615 12.048) scale(-1 1) translate(-14.731 -11.741)">
      <path id="Path-5" d="m29.425 13.595v-11.595c0-1.1046-0.89543-2-2-2l-25.326 2.2204e-16c-1.1046 2.0291e-16 -2 0.89543-2 2v14.498c0 1.1046 0.89543 2 2 2h3.4571l4.8614 4.8864v-4.8864h7.06" fill="#fff"/>
      <path id="Path-4" d="m4.8444 4.4451h19.741"/>
      <path id="Path-4" d="m4.3014 9.0794h20.495"/>
      <path id="Path-4" d="m4.3014 13.43h10.72"/>
     </g>
     <g id="Group-6" transform="translate(0 13.659)">
      <path id="Path-2" d="m6.0683 18.782 4.628 4.6343v-4.6343h17.173c1.1046 0 2-0.89543 2-2v-14.537c0-1.1046-0.89543-2-2-2h-25.759c-1.1046 0-2 0.89543-2 2l-4.9e-7 14.537c0 1.1046 0.89543 2 2 2h4.9e-7l3.9576-1.5e-6z" fill="#40E0D0"/>
      <path id="Path-4" d="m4.746 4.6896h13.223"/>
      <path id="Path-4" d="m4.746 9.3238h20.495"/>
      <path id="Path-4" d="m4.746 13.674h20.495"/>
     </g>
    </g>
    <g id="Group-7" transform="translate(207 37)" stroke="#444" stroke-linecap="round" stroke-linejoin="round" stroke-width="1.5">
     <g id="Group-6" transform="translate(32.615 12.048) scale(-1 1) translate(-14.731 -11.741)">
      <path id="Path-5" d="m29.425 13.595v-11.595c0-1.1046-0.89543-2-2-2l-25.326 2.2204e-16c-1.1046 2.0291e-16 -2 0.89543-2 2v14.498c0 1.1046 0.89543 2 2 2h3.4571l4.8614 4.8864v-4.8864h7.06" fill="#fff"/>
      <path id="Path-4" d="m4.8444 4.4451h19.741"/>
      <path id="Path-4" d="m4.3014 9.0794h20.495"/>
      <path id="Path-4" d="m4.3014 13.43h10.72"/>
     </g>
     <g id="Group-6" transform="translate(0 13.659)">
      <path id="Path-2" d="m6.0683 18.782 4.628 4.6343v-4.6343h17.173c1.1046 0 2-0.89543 2-2v-14.537c0-1.1046-0.89543-2-2-2h-25.759c-1.1046 0-2 0.89543-2 2l-4.9e-7 14.537c0 1.1046 0.89543 2 2 2h4.9e-7l3.9576-1.5e-6z" fill="#40E0D0"/>
      <path id="Path-4" d="m4.746 4.6896h13.223"/>
      <path id="Path-4" d="m4.746 9.3238h20.495"/>
      <path id="Path-4" d="m4.746 13.674h20.495"/>
     </g>
    </g>
   </g>
  </g>
 </g>
</svg>
