<svg xmlns="http://www.w3.org/2000/svg" xmlns:xlink="http://www.w3.org/1999/xlink" version="1.1" x="0px" y="0px" viewBox="0 0 150 150" style="enable-background:new 0 0 150 150;" xml:space="preserve"><style type="text/css">
	.st0{fill:#030000;}
</style><g><path class="st0" d="M28.3,48.8c0,0-12.3,0.4-12.3,10.5c0,0.2,0,0.4,0,0.6c0,9.6,0,12.5,0,12.5c0,0.2,0,0.4,0,0.6   C16,83,28.3,83.4,28.3,83.4c44.7,0,66.8,23.5,66.8,23.5V72.4V59.9V25.3C95.1,25.3,72.9,48.8,28.3,48.8z"></path><path class="st0" d="M28.3,85.8c0,0,4.4,15.5,5.4,25.8c1,10.3-2,10.7,0.6,12.9c2.6,2.2,14.9-1.2,14.9-1.2v-34   C47.8,86.6,28.3,85.8,28.3,85.8z"></path><path class="st0" d="M2.5,67.5c0,9.1,9.9,9.1,9.9,9.1V58.7C12.4,58.7,2.5,58.5,2.5,67.5z"></path><path class="st0" d="M99.5,56.9v19.5c4.5-1,7.8-5,7.8-9.7C107.3,61.8,104,57.9,99.5,56.9z"></path><path class="st0" d="M128.5,68.5c0-9.8-4.9-19-13-24.5l-3.3-2.3l-4.5,6.7l3.3,2.3c5.9,4,9.5,10.7,9.5,17.8c0,6.8-3.3,13.3-8.8,17.3   l-3.2,2.4l4.8,6.5l3.2-2.4C123.9,86.8,128.5,77.8,128.5,68.5z"></path><path class="st0" d="M125.6,27l-3.3-2.3l-4.5,6.7l3.3,2.3c11.5,7.8,18.3,20.6,18.3,34.5c0,13.1-6.3,25.6-16.9,33.4l-3.2,2.4   l4.8,6.5l3.2-2.4c12.6-9.3,20.1-24.3,20.1-39.9C147.5,51.7,139.3,36.3,125.6,27z"></path></g></svg>