<?xml version="1.0" encoding="UTF-8" standalone="no"?>
<!-- Created with Inkscape (http://www.inkscape.org/) -->

<svg
   xmlns:dc="http://purl.org/dc/elements/1.1/"
   xmlns:cc="http://creativecommons.org/ns#"
   xmlns:rdf="http://www.w3.org/1999/02/22-rdf-syntax-ns#"
   xmlns:svg="http://www.w3.org/2000/svg"
   xmlns="http://www.w3.org/2000/svg"
   xmlns:sodipodi="http://sodipodi.sourceforge.net/DTD/sodipodi-0.dtd"
   xmlns:inkscape="http://www.inkscape.org/namespaces/inkscape"
   id="svg4293"
   version="1.1"
   inkscape:version="0.91 r13725"
   width="862.5"
   height="360"
   viewBox="0 0 862.5 360"
   sodipodi:docname="harry-potter-and-the-prisoner-of-azkaban-52849ee6f0db4.svg">
  <metadata
     id="metadata4299">
    <rdf:RDF>
      <cc:Work
         rdf:about="">
        <dc:format>image/svg+xml</dc:format>
        <dc:type
           rdf:resource="http://purl.org/dc/dcmitype/StillImage" />
        <dc:title></dc:title>
      </cc:Work>
    </rdf:RDF>
  </metadata>
  <defs
     id="defs4297" />
  <sodipodi:namedview
     pagecolor="#ffffff"
     bordercolor="#666666"
     borderopacity="1"
     objecttolerance="10"
     gridtolerance="10"
     guidetolerance="10"
     inkscape:pageopacity="0"
     inkscape:pageshadow="2"
     inkscape:window-width="1440"
     inkscape:window-height="837"
     id="namedview4295"
     showgrid="false"
     inkscape:zoom="1.22"
     inkscape:cx="431.25"
     inkscape:cy="180"
     inkscape:window-x="-8"
     inkscape:window-y="-8"
     inkscape:window-maximized="1"
     inkscape:current-layer="svg4293" />
  <path
     style="fill:#000000"
     d="m 627.38428,320.88473 c 0.9518,-6.94427 -0.1006,-10.33871 -2.5701,-8.28927 -0.9521,0.79021 -1.4424,2.54106 -1.0894,3.89078 0.5677,2.1708 -0.01,2.45404 -4.9953,2.45404 -5.7176,0 -8.2826,-2.12191 -5.6941,-4.71041 1.3552,-1.35518 0.7989,-15.2597 -0.7992,-19.97709 -0.9051,-2.67152 -0.6359,-2.8125 5.3692,-2.8125 6.4665,0 9.0893,1.63024 6.6107,4.10891 -1.678,1.67795 -1.8695,9.64109 -0.2319,9.64109 1.5987,0 6.3408,-6.20258 6.3408,-8.29358 0,-1.78431 6.7568,-2.39283 10.5227,-0.94768 3.0045,1.15292 2.4316,2.3364 -2.9294,6.0516 -2.6987,1.87017 -5.2278,4.2372 -5.6203,5.26004 -1.1319,2.94961 1.8744,12.89381 4.2886,14.18586 1.2068,0.64587 2.524,2.03369 2.9271,3.08404 0.6021,1.56898 -0.4826,1.90972 -6.079,1.90972 l -6.8119,0 0.7615,-5.55555 z m -70.5593,2.80555 c -2.2038,-2.20374 -1.8334,-3.5 1,-3.5 2.883,0 3.292,-3.14397 1.0493,-8.06619 -1.2846,-2.81952 -2.1968,-3.18381 -7.9719,-3.18381 -8.3225,0 -11.0882,2.54704 -6.6621,6.13534 1.6278,1.31971 2.634,2.72671 2.2359,3.12668 -1.534,1.54127 -11.941,2.14155 -15.2137,0.87753 -4.2552,-1.6435 -4.3566,-3.0695 -0.3481,-4.8959 2.0094,-0.91554 4.8498,-4.90889 8.125,-11.4229 5.4961,-10.93116 5.9952,-13.18504 3.1606,-14.27279 -1.0313,-0.39572 -1.875,-1.5809 -1.875,-2.63373 0,-2.88249 23.134,-2.82237 24.2412,0.063 1.1006,2.868 1.0114,3.02277 -1.7412,3.02277 -3.3105,0 -3.1743,1.4309 1.2235,12.85194 5.3047,13.77596 7.2376,17.10011 10.7113,18.42082 1.6859,0.64095 3.0652,2.02304 3.0652,3.0713 0,1.54502 -1.8464,1.90594 -9.75,1.90594 -5.9167,0 -10.3398,-0.58974 -11.25,-1.5 z m -2.7943,-23.1875 c -0.024,-1.20313 -0.7561,-3.46957 -1.6261,-5.03656 -1.5795,-2.8451 -1.5846,-2.84312 -3.6247,1.43512 -2.2817,4.78475 -1.8691,5.78894 2.3784,5.78894 1.9613,0 2.9022,-0.71651 2.8724,-2.1875 z m 213.2167,11.43155 -13.3307,-13.61905 0.8188,7.5 c 0.4504,4.125 1.611,8.38804 2.5792,9.47342 2.8515,3.19683 2.0995,3.81033 -4.1772,3.40757 -5.1693,-0.3317 -5.876,-0.70444 -5.4618,-2.88099 0.2617,-1.375 0.7244,-6.47535 1.0283,-11.33411 0.4373,-6.99163 0.1425,-9.17438 -1.4133,-10.46557 -3.7233,-3.09011 -2.2445,-4.46953 4.3052,-4.01572 6.0319,0.41794 6.5912,0.78939 14.5865,9.6875 4.5728,5.0891 8.7818,9.2529 9.3534,9.2529 2.4691,0 0.9152,-7.62436 -2.0858,-10.23369 -1.7188,-1.49444 -3.125,-3.17821 -3.125,-3.74174 0,-1.45968 11.5029,-1.23522 13.75,0.26833 1.6265,1.08831 1.5608,1.49451 -0.495,3.06457 -2.1276,1.62489 -2.2881,2.93269 -1.5694,12.78875 0.4404,6.03833 0.2982,11.7636 -0.316,12.72283 -0.8519,1.3306 -4.2767,-1.48445 -14.4472,-11.875 z m -99.5015,10.03568 c -1.278,-1.53991 -1.3008,-2.17689 -0.1046,-2.91621 1.126,-0.69593 1.1923,-1.83552 0.2509,-4.31176 -1.5126,-3.97842 -3.88,-5.12076 -8.3087,-4.00923 -2.4268,0.6091 -3.0212,1.34597 -2.3773,2.94731 0.4722,1.17434 1.1461,2.83828 1.4974,3.69766 0.4564,1.11634 -1.0055,1.5625 -5.1199,1.5625 -4.8002,0 -5.7587,-0.39064 -5.7587,-2.34695 0,-1.29081 0.7821,-2.99603 1.738,-3.78935 3.1059,-2.57768 7.2977,-13.99775 6.5359,-17.8065 l -0.7114,-3.5572 7.96,0 c 5.9224,0 8.1442,0.47995 8.6795,1.875 0.4383,1.14214 0,1.875 -1.1163,1.875 -1.0096,0 -1.8357,0.58065 -1.8357,1.29032 0,3.13121 7.8636,21.28894 9.6534,22.29058 1.1758,0.658 1.6658,1.93574 1.2039,3.13936 -1.0444,2.72177 -9.9409,2.76518 -12.1864,0.0595 z m -3.6709,-18.58096 c 0,-0.99067 -0.5625,-2.14887 -1.25,-2.57377 -0.6875,-0.4249 -1.25,-0.5041 -1.25,-0.176 0,0.32809 -0.3415,1.48629 -0.7588,2.57376 -0.4978,1.29749 -0.068,1.97724 1.25,1.97724 1.1049,0 2.0088,-0.81055 2.0088,-1.80123 z m 68.125,18.79809 c -2.1016,-1.63865 -2.2125,-2.1381 -0.6961,-3.13359 1.4598,-0.95829 1.5245,-1.79755 0.3393,-4.39876 -1.296,-2.84442 -2.2027,-3.21451 -7.8752,-3.21451 -4.6358,0 -6.2336,0.43258 -5.7717,1.5625 2.6146,6.39519 3.7956,5.9375 -15.3198,5.9375 -11.321,0 -18.7014,-0.53636 -20.4462,-1.4859 l -2.7303,-1.48589 3.125,-0.75401 c 2.9256,-0.70592 3.1483,-1.32466 3.4909,-9.70025 0.3434,-8.39413 0.1699,-9.07477 -2.8125,-11.02886 -1.7481,-1.14544 -3.1784,-2.58043 -3.1784,-3.18885 0,-2.02329 20.4193,-1.29843 23.4622,0.83286 4.2378,2.9683 5.6327,6.33071 3.9391,9.49524 -1.0887,2.03432 -1.0714,3.90322 0.072,7.71802 l 1.5082,5.0337 3.7104,-5.96129 c 5.523,-8.87348 6.2894,-11.47711 3.9499,-13.4187 -1.7545,-1.45606 -1.643,-1.73008 1.0052,-2.47222 4.7144,-1.32111 11.8793,-1.20275 15.7096,0.25952 3.3694,1.28633 3.4175,1.41784 1.1317,3.09634 -2.3275,1.70904 -2.3006,1.95674 1.0702,9.88813 1.9017,4.47434 5.1855,9.82455 7.2974,11.88935 2.1119,2.0648 3.4862,4.10783 3.054,4.54007 -1.8944,1.89442 -11.6008,1.88722 -14.0344,-0.01 z m -33.8523,-9.0056 c 3.3286,-1.27729 2.4478,-5.49126 -1.1477,-5.49126 -2.5,0 -3.125,0.625 -3.125,3.125 0,3.21406 0.8445,3.68179 4.2727,2.36626 z m 28.5895,-10.49126 c -0.3596,-1.375 -1.1309,-2.5 -1.714,-2.5 -0.5832,0 -1.6623,1.125 -2.3982,2.5 -1.1682,2.1827 -0.9506,2.5 1.714,2.5 2.4365,0 2.9201,-0.50411 2.3982,-2.5 z m -26.8664,-3.9557 c 0.4986,-2.6177 -4.6264,-4.51014 -6.0362,-2.22892 -1.5494,2.50694 0.111,5.10231 2.9992,4.68821 1.4524,-0.20823 2.819,-1.3149 3.037,-2.45929 z m -268.99241,-6.9818 c -1.90925,-17.01563 -5.58642,-48.375 -8.17152,-69.6875 -2.58509,-21.3125 -4.58531,-38.90386 -4.44494,-39.09193 0.69509,-0.93122 4.36304,1.44169 4.36304,2.82261 0,0.87352 0.79391,2.2471 1.76425,3.05241 1.47869,1.2272 1.67674,0.69555 1.22352,-3.28444 -8.06345,-70.81106 -9.79076,-87.873652 -8.89576,-87.873652 2.37716,0 4.39955,1.71901 3.81489,3.242622 -0.49305,1.28486 -0.0745,1.55136 1.49226,0.95014 2.44583,-0.93855 2.30277,-4.915352 -1.38746,-38.567762 -2.40121,-21.89739 -3.26799,-24.62789 -9.34601,-29.44178 -5.332,-4.22302 -6.15161,-6.03183 -2.72819,-6.0208 1.20313,0.004 9.5,-0.58012 18.4375,-1.29777 27.84653,-2.23598 48.63054,-2.28246 51.25943,-0.11465 1.25058,1.03125 7.5257,8.85363 13.94468,17.38307 l 11.67089,15.50807 -0.12526,12.61693 c -0.0689,6.93931 -0.52538,18.24193 -1.01439,25.11693 -0.89206,12.541282 -0.12936,18.125002 2.47574,18.125002 0.76887,0 1.67662,-1.0656 2.01721,-2.36801 0.86272,-3.29909 9.89874,-9.50722 21.34853,-14.667372 5.3202,-2.39771 10.8794,-4.95262 12.3536,-5.67758 3.8012,-1.86924 9.5078,0.31354 18.5696,7.10286 12.0888,9.057252 11.8388,8.382822 13.3008,35.878302 0.705,13.25874 1.0944,29.90551 0.8655,36.99281 -0.3888,12.03313 -0.6232,13.04484 -3.5413,15.28565 -4.8981,3.7611 -18.7048,10.67791 -26.1207,13.08573 -6.4466,2.09311 -6.9177,2.09141 -10.625,-0.0381 -6.0979,-3.50275 -20.57199,-15.57724 -23.35048,-19.47927 -2.17636,-3.05641 -2.73905,-7.06353 -4.12505,-29.37638 -1.40368,-22.59711 -1.89545,-26.04961 -3.92156,-27.53115 -1.97322,-1.44285 -2.77615,-1.39287 -5.41652,0.33716 -8.1703,5.35339 -11.54133,6.73062 -20.04306,8.1885 l -9.17335,1.57305 -2.67465,-3.22313 c -1.47106,-1.77273 -3.31181,-4.28848 -4.09056,-5.59058 -0.77874,-1.30209 -1.65188,-2.08619 -1.9403,-1.74244 -0.28843,0.34375 -0.0651,11.03125 0.49615,23.75 0.56131,12.71876 0.87195,25.9375 0.69031,29.375 l -0.33026,6.25 -3.63957,-6.56876 c -2.00177,-3.61282 -3.97052,-6.23856 -4.375,-5.83499 -0.40449,0.40358 -1.01668,19.39077 -1.36043,42.19377 l -0.625,41.45998 -3.29339,-3.46453 c -2.75458,-2.89773 -3.41917,-3.13675 -4.06222,-1.46098 -0.72168,1.88064 -3.28221,31.38618 -5.22755,60.23801 -0.47514,7.04688 -1.2471,12.8125 -1.71548,12.8125 -0.46837,0 -2.4137,-13.92187 -4.32293,-30.9375 z m 112.05941,-101.78523 3.8237,-2.72272 -0.8164,-28.98676 c -0.449,-15.94273 -1.1675,-30.74215 -1.5966,-32.88762 -0.8252,-4.12625 -2.0311,-4.27422 -10.2232,-1.25445 l -2.8746,1.05967 0.3746,30.53405 c 0.3725,30.35758 0.3922,30.55267 3.4051,33.7573 1.6667,1.7728 3.2673,3.22326 3.557,3.22326 0.2897,0 2.2473,-1.22523 4.3504,-2.72273 z M 472.0757,103.92494 c 1.19149,-1.17605 -1.15846,-60.736712 -2.53821,-64.332292 -0.59368,-1.54707 -2.145,-1.93787 -6.55759,-1.65192 l -5.77995,0.37455 -0.41939,7.5 c -0.23066,4.125 -0.0256,19.51705 0.45572,34.20454 l 0.87508,26.704542 6.4193,-0.84413 c 3.53062,-0.46427 6.92588,-1.34415 7.54504,-1.95529 z m 122.62428,216.26534 c -2.0625,-0.52481 -7.8282,-1.02076 -12.8125,-1.10211 -7.7058,-0.12575 -9.0625,-0.47209 -9.0625,-2.31348 0,-1.19109 4.0781,-5.9454 9.0625,-10.56515 l 9.0625,-8.39953 -5.0344,-0.0599 c -2.7689,-0.0329 -6.2888,0.81878 -7.822,1.89266 -2.4359,1.70618 -2.877,1.7195 -3.4963,0.10563 -0.3898,-1.01582 -0.5262,-3.38754 -0.303,-5.27049 l 0.4057,-3.42356 10.625,0.29646 c 23.2091,0.64757 23.6558,1.2045 10.625,13.24797 l -10,9.24233 4.2944,0.0496 c 2.7119,0.0314 5.3372,-0.93001 7.124,-2.60862 l 2.8295,-2.65821 0.8241,3.28321 c 0.8929,3.55797 -0.179,9.62477 -1.6583,9.38532 -0.5026,-0.0814 -2.6012,-0.57736 -4.6637,-1.10217 z m -93.81204,-15.5442 c -3.20452,-4.89071 -1.9229,-9.72125 3.25073,-12.25239 3.43747,-1.68175 5.37238,-1.90382 8.57782,-0.98451 7.68569,2.20423 9.69669,8.0565 4.54027,13.21291 -4.37462,4.37464 -13.5094,4.38801 -16.36882,0.024 z m 13.05666,-3.09879 c 3.31761,-2.1007 0.51755,-5.10701 -4.75665,-5.10701 -5.20674,0 -7.05548,1.39247 -5.888,4.43486 0.77333,2.01525 7.82071,2.46025 10.64465,0.67215 z m 8.28518,4.58049 c -0.2841,-0.85938 -0.6883,-4.50225 -0.8982,-8.09528 -0.356,-6.09342 -0.1715,-6.57703 2.7434,-7.19088 4.5462,-0.9574 10.5542,1.03617 11.0618,3.67053 0.3566,1.85099 -0.179,2.14938 -2.9183,1.62574 -2.9307,-0.56024 -3.267,-0.30499 -2.6588,2.01801 0.9591,3.66305 -1.8608,9.53438 -4.5791,9.53438 -1.2288,0 -2.4666,-0.70313 -2.7508,-1.5625 z m 127.1501,-37.49237 -12.8049,-12.80488 0,7.02681 c 0,4.72113 0.6152,7.53743 1.875,8.58294 3.3266,2.76086 2.0116,3.89574 -4.0625,3.50599 -5.1455,-0.33016 -5.882,-0.71449 -5.5215,-2.88099 0.2288,-1.375 0.7076,-6.18076 1.064,-10.67947 0.5175,-6.53274 0.245,-8.5139 -1.3535,-9.84057 -3.8998,-3.23647 -2.3827,-5.10496 4.1449,-5.10496 6.1247,0 6.1821,0.0387 16.2386,10.9375 9.6113,10.41629 10.092,10.7588 10.0865,7.1875 -0.01,-5.88479 -1.158,-8.7501 -4.0301,-10.04921 -4.9254,-2.22786 -4.0645,-4.3271 1.7669,-4.30873 10.3236,0.0325 13.0928,1.86039 9.0077,5.94553 -1.6812,1.6812 -1.8951,3.70003 -1.233,11.63911 0.7601,9.11451 0.2413,13.6483 -1.5619,13.6483 -0.4462,0 -6.5736,-5.7622 -13.6162,-12.80487 z m 37.3563,9.35613 c -0.9255,-1.72938 -3.1875,-2.71481 -7.5644,-3.29543 -6.5739,-0.87207 -8.8065,-2.5461 -6.4879,-4.86474 2.0758,-2.07585 1.7474,-16.19218 -0.4442,-19.08968 -1.0093,-1.33452 -1.8531,-2.769 -1.875,-3.18771 -0.022,-0.41872 4.8133,-1.06407 10.7447,-1.43412 7.0672,-0.4409 11.1423,-1.25203 11.8229,-2.35324 0.7079,-1.14536 1.4457,-1.27331 2.3172,-0.40183 1.9725,1.97248 2.7948,8.48333 1.3356,10.57549 -1.1452,1.64206 -1.5159,1.60324 -2.9842,-0.3125 -1.1198,-1.46106 -3.395,-2.1875 -6.8512,-2.1875 -4.6798,0 -5.1747,0.29745 -5.1747,3.11026 0,2.47109 0.5716,3.04908 2.7816,2.8125 2.9,-0.31043 3.3949,1.09474 5.5472,15.74812 0.825,5.61689 -1.1472,8.65553 -3.1676,4.88038 z m -1.4112,-10.14821 c 0,-0.60331 -0.8438,-1.79719 -1.875,-2.65305 -1.5665,-1.30009 -1.875,-1.1196 -1.875,1.09695 0,1.52494 0.7973,2.65305 1.875,2.65305 1.0312,0 1.875,-0.49363 1.875,-1.09695 z m -170.88684,9.71014 c -0.76275,-0.76275 -4.71138,-1.51065 -8.77474,-1.662 -7.3645,-0.27433 -10.33845,-1.17447 -10.33845,-3.12918 0,-0.56674 1.125,-1.32462 2.5,-1.6842 2.17001,-0.56746 2.5,-1.70501 2.5,-8.61798 0,-6.6954 -0.44807,-8.35699 -2.8125,-10.42953 l -2.8125,-2.4653 10.625,-0.38761 c 14.01873,-0.51144 20.74133,0.57115 23.77633,3.82885 3.8653,4.14888 3.0953,7.7101 -2.7097,12.53206 l -5.1835,4.30564 3.9335,2.9081 c 5.9127,4.37151 5.1226,6.18796 -2.6916,6.18796 -3.64378,0 -7.24909,-0.62406 -8.01184,-1.38681 z m 0.88681,-4.30027 c 0,-0.37788 -0.82955,-2.29124 -1.84344,-4.25189 -1.83533,-3.54914 -1.8214,-3.57366 3.16675,-5.56952 2.75562,-1.10257 5.36402,-2.92681 5.79652,-4.05386 1.1134,-2.90124 -2.9022,-5.43765 -8.60874,-5.43765 l -4.76109,0 0,7.71407 c 0,5.42388 0.61417,8.39274 2.06874,10 1.98733,2.19598 4.18126,3.0349 4.18126,1.59885 z m 42.64903,2.79321 c -1.5473,-3.89176 -1.8,-8.35674 -0.6436,-11.37023 0.5914,-1.54126 1.3469,-1.08861 3.4804,2.08526 2.8994,4.31319 7.2837,5.79865 10.1337,3.4334 2.4221,-2.01022 1.0686,-4.62682 -2.8975,-5.60141 -6.2637,-1.53916 -8.972,-4.15146 -8.972,-8.65391 0,-5.03944 1.9472,-6.87731 8.3259,-7.85818 2.6395,-0.40589 5.526,-1.31107 6.4146,-2.01154 2.5319,-1.99604 3.7396,0.31062 4.448,8.49548 0.357,4.125 1.022,9.55426 1.4778,12.06504 1.256,6.91975 -2.2241,9.80996 -11.8122,9.80996 -4.7739,0 -7.6015,0.55392 -7.976,1.5625 -0.3234,0.87116 -1.1991,0.005 -1.9791,-1.95637 z m 16.101,-20.15736 c 0,-2.61799 -2.1688,-3.55292 -6.0071,-2.58958 -3.2418,0.81363 -3.2762,0.90943 -0.94,2.61767 3.1355,2.29273 6.9471,2.27732 6.9471,-0.0281 z m 145,19.92623 c -1.0557,-1.272 -3.886,-1.875 -8.8009,-1.875 -3.9845,0 -8.1344,-0.34143 -9.2219,-0.75874 -2.8325,-1.08695 -2.4437,-4.24126 0.5228,-4.24126 2.2576,0 2.5,-0.83334 2.5,-8.59695 0,-6.11679 -0.541,-9.04586 -1.875,-10.15305 -1.0313,-0.85586 -1.875,-2.40178 -1.875,-3.43535 0,-1.59663 2.1889,-1.79545 14.5556,-1.32209 14.5094,0.55538 14.5668,0.5698 18.125,4.55201 1.9631,2.19718 3.5694,4.60474 3.5694,5.35016 0,1.67602 -7.4419,9.20951 -10,10.12312 -1.4347,0.51239 -0.7552,1.83898 2.8936,5.64918 l 4.7686,4.97953 -4.7686,0.78797 c -7.0788,1.16968 -8.6789,1.00657 -10.3936,-1.05953 z m 1.25,-4.13609 c 0,-0.5561 -0.8259,-2.10297 -1.8353,-3.4375 -2.8711,-3.79603 -2.2917,-5.30831 3.0853,-8.05141 6.6259,-3.38029 6.7524,-6.89583 0.3125,-8.68428 -8.7729,-2.43633 -9.0625,-2.22409 -9.0625,6.6407 0,6.15657 0.586,8.70149 2.5907,11.25 2.5244,3.20933 4.9093,4.31812 4.9093,2.28249 z m -255.83114,3.79819 c -3.90657,-0.42425 -7.08229,-4.0371 -3.54864,-4.0371 2.96413,0 4.37975,-4.35511 4.37975,-13.47409 0,-7.05095 -0.45943,-9.05421 -2.5,-10.90091 -1.375,-1.24436 -2.5,-2.69301 -2.5,-3.21924 0,-1.50321 15.59417,-2.78797 22.06386,-1.81777 7.14839,1.07196 12.93845,6.22259 12.93146,11.50336 -0.007,5.91199 -4.22346,11.35445 -9.99977,12.90985 -9.55841,2.57381 -14.27099,-2.07453 -4.93804,-4.87075 6.50869,-1.95005 8.72835,-6.10679 5.71599,-10.70425 -1.65137,-2.5203 -3.1077,-3.1762 -7.05231,-3.1762 l -4.97119,0 0,10.83907 c 0,8.34631 0.47736,11.36655 2.07568,13.13267 1.14161,1.26147 1.84473,2.49177 1.5625,2.734 -0.9694,0.83195 -9.26623,1.51065 -13.21929,1.08136 z m 74.68044,-0.14405 c -4.9564,-0.89034 -6.3944,-3.31355 -2.6681,-4.49621 2.2484,-0.71364 2.5688,-1.83978 2.5688,-9.03078 0,-6.19746 -0.5075,-8.58652 -2.066,-9.72612 -1.1363,-0.83088 -1.6656,-2.15852 -1.1762,-2.95032 1.2383,-2.0037 12.2633,-1.806 15.1035,0.27083 2.2606,1.65295 2.2476,1.75951 -0.3861,3.16899 -2.371,1.26892 -2.7252,2.5141 -2.7252,9.57877 0,6.06489 0.4746,8.30236 1.875,8.83975 2.7032,1.03735 2.3095,4.20204 -0.5228,4.20204 -1.3188,0 -3.1469,0.205 -4.0625,0.45555 -0.9156,0.25056 -3.5888,0.11 -5.9404,-0.3125 z m 55.638,0.24319 c -5.3159,-0.86355 -8.9903,-3.68912 -11.3995,-8.76614 -1.9551,-4.12 -1.9676,-4.81889 -0.1548,-8.62031 5.2751,-11.06218 28.3294,-13.2374 37.983,-3.5838 2.2462,2.2462 4.084,5.2221 4.084,6.6131 0,3.11747 -5.4088,9.72171 -9.8377,12.01198 -3.7284,1.92802 -15.2193,3.23143 -20.675,2.34517 z m 18.8696,-8.10413 c 2.8731,-2.69912 3.6965,-6.64647 1.9364,-9.28249 -3.2737,-4.90278 -17.8075,-5.93978 -23.2497,-1.6589 -3.1942,2.51252 -4.2153,6.61597 -2.337,9.3911 1.9255,2.84482 6.1779,4.19349 13.3378,4.23017 5.9306,0.0304 8,-0.50739 10.3125,-2.67988 z m -480.54443,-6.96636 c -10.87263,-0.25491 -16.5625,-0.85594 -16.5625,-1.74951 0,-0.74866 1.75786,-3.3633 3.90637,-5.81031 6.80596,-7.75156 7.17752,-9.83275 8.10802,-45.4142 0.47425,-18.13508 0.46357,-35.63158 -0.0237,-38.88113 l -0.886,-5.90825 -7.04513,3.75949 c -3.87481,2.06771 -10.11351,4.6515 -13.86377,5.74172 l -6.818654,1.98224 0.883834,32.6696 0.88382,32.6696 3.92283,4.0625 3.92282,4.0625 -5.55771,-0.004 c -7.701767,-0.005 -43.90811,-3.55504 -44.73965,-4.38656 -0.37336,-0.37336 1.39921,-2.39175 3.93905,-4.4853 l 4.61791,-3.8064 0,-29.73201 0,-29.73203 -6.83213,-4.53628 c -14.14307,-9.39018 -26.57041,-24.84267 -23.22311,-28.87592 1.74209,-2.0991 10.93404,-4.45441 17.17122,-4.39991 l 4.75897,0.0416 -3.125,2.52548 c -8.51806,6.88391 -7.9919,6.02027 -5.42789,8.90922 3.20055,3.60616 14.15928,12.23211 15.54014,12.23211 0.66307,0 1.13775,-19.20495 1.13775,-46.03211 l 0,-46.032102 -3.125,-2.93579 c -1.71875,-1.61468 -3.125,-3.40023 -3.125,-3.96789 0,-0.56766 10.43488,-1.03211 23.18862,-1.03211 l 23.18862,0 -3.08472,4.0625 c -3.02411,3.98267 -3.10239,4.67725 -3.98331,35.344392 -1.036364,36.07855 -0.0737,55.59311 2.7425,55.59311 2.29673,0 13.55247,-7.16183 19.5979,-12.46978 l 4.6004,-4.0392 0,-40.627572 0,-40.62756 -3.125,-3.71385 c -1.71875,-2.04262 -3.125,-4.14982 -3.125,-4.68267 0,-1.27384 17.18645,-2.57248 34.16896,-2.58188 l 13.54397,-0.007 -4.48147,6.10497 -4.48146,6.10498 0,33.27002 0,33.270032 15.9375,0.0137 c 8.76562,0.008 18.09961,0.37096 20.74219,0.80756 l 4.80468,0.79381 -0.844,-14.24506 c -1.25226,-21.135432 -1.41043,-21.366022 -9.88663,-14.412932 -3.64949,2.993692 -5.6192,5.877932 -6.82921,10.000002 -2.77212,9.44356 -6.82489,7.28671 -14.40107,-7.66417 -4.47496,-8.830902 -4.28615,-12.962272 0.78904,-17.264502 5.0633,-4.29212 20.99016,-11.77841 25.0583,-11.77841 3.35109,0 19.75505,16.13544 26.68682,26.25 l 3.85498,5.625002 1.48224,28.75 c 1.76321,34.19996 2.10645,36.53219 5.89303,40.04146 l 2.92398,2.70986 -9.04343,9.37043 c -10.08163,10.44617 -12.78156,12.25325 -18.30743,12.25325 -2.67757,0 -4.40944,-0.925 -5.85094,-3.125 -2.47424,-3.77616 -3.56851,-3.84535 -9.88505,-0.625 -10.00876,5.10275 -17.83425,2.21935 -20.65973,-7.61234 -1.96193,-6.82682 -7.46527,-34.78067 -7.46527,-37.91935 0,-1.58679 2.34376,-5.529 5.25031,-8.831 4.62953,-5.25942 4.88816,-5.8527 2.1875,-5.01764 -6.23932,1.92923 -10.08087,4.59104 -11.36917,7.8777 -0.90574,2.31069 -1.05003,18.97444 -0.45679,52.75263 0.94049,53.55043 0.96822,53.75577 8.19583,60.68025 2.03077,1.94561 3.69232,3.99474 3.69232,4.55361 0,0.55888 -5.20313,0.8933 -11.5625,0.74318 -6.35938,-0.15014 -19.01563,-0.44772 -28.125,-0.66129 z m 68.4375,-106.01453 c 0,-14.18368 -0.48499,-24.30122 -1.16489,-24.30122 -0.64067,0 -2.40992,1.74851 -3.93166,3.88559 -2.56725,3.60537 -2.71029,4.79977 -1.9834,16.5625 0.7389,11.95735 2.85494,26.51682 4.16169,28.6348 2.11988,3.43586 2.91826,-3.34393 2.91826,-24.78167 z m 105.62982,89.9786 c -7.55983,-0.91617 -17.96608,-2.59031 -23.125,-3.7203 -10.64083,-2.33073 -29.22595,-9.70828 -37.30589,-14.80895 -4.7912,-3.02454 -5.32849,-3.81732 -4.59202,-6.77544 1.1874,-4.76928 7.44979,-15.38802 11.09425,-18.81182 3.06142,-2.87603 3.23398,-2.89111 16.61374,-1.45056 7.4361,0.80062 13.72431,1.65979 13.97377,1.90926 0.24948,0.24948 -1.99154,1.6813 -4.98003,3.18185 -9.24285,4.6409 -16.70393,13.55085 -13.78858,16.4662 1.19644,1.19644 37.3372,4.64498 49.2747,4.70178 5.49118,0.0261 6.14935,-0.31877 9.09083,-4.76363 5.16147,-7.79951 16.86441,-34.76976 16.86441,-38.86522 0,-7.19162 -9.48431,-49.73763 -14.58011,-65.40549 -0.65429,-2.01171 0.66861,-2.1875 16.46178,-2.1875 l 17.17326,0 -1.86305,2.80591 c -1.96818,2.96424 -1.79851,3.91153 4.87097,27.19409 l 1.96939,6.875 3.08524,-6.875 c 6.09176,-13.57463 12.88252,-31.34575 12.88252,-33.71301 0,-1.32702 -0.97969,-2.96103 -2.17709,-3.63112 -1.1974,-0.6701 -1.78476,-1.61069 -1.30525,-2.0902 1.28675,-1.28674 27.23234,0.72195 27.23234,2.10832 0,2.06878 -18.79103,43.77373 -24.70299,54.82601 -20.64118,38.5882 -45.0953,81.502 -47.54622,83.4375 -2.36068,1.86421 -6.43048,1.79682 -24.62096,-0.40768 z m 281.87021,-1.09028 c -2.604,-1.43479 -3.2324,-2.89462 -3.769,-8.75558 -0.7016,-7.66424 -1.3224,-6.96611 7.7855,-8.75521 2.7512,-0.54041 5.2417,2.44377 4.2331,5.07215 -0.4964,1.29374 -1.6834,1.7965 -3.2648,1.38294 -2.5741,-0.67313 -3.4317,0.88342 -1.2348,2.24116 1.4382,0.88887 1.7264,10.64751 0.3125,10.5807 -0.5157,-0.0244 -2.3438,-0.81914 -4.0625,-1.76616 z m 2.5,-5.06454 c 0,-1.03125 -0.8438,-1.875 -1.875,-1.875 -1.0313,0 -1.875,0.84375 -1.875,1.875 0,1.03125 0.8437,1.875 1.875,1.875 1.0312,0 1.875,-0.84375 1.875,-1.875 z m -43.4251,2.51854 c -0.9772,-1.11039 -1.0926,-2.04407 -0.3125,-2.52623 2.4199,-1.49555 1.3653,-5.61731 -1.4371,-5.61731 -1.4711,0 -3.3144,-0.87478 -4.0962,-1.94395 -1.18,-1.61385 -2.3709,-1.72516 -7.0128,-0.65556 -3.0752,0.70862 -7.6318,1.30215 -10.1258,1.31895 -2.5439,0.0171 -5.2424,0.88367 -6.1473,1.97397 -1.41112,1.70028 -2.62189,0.95743 -9.67754,-5.9375 l -8.06464,-7.88091 0.64429,5.22872 c 0.48721,3.95393 0.18027,5.40678 -1.25895,5.95907 -3.52354,1.3521 -4.94899,-1.42793 -4.36194,-8.50702 0.34642,-4.1773 0.0303,-7.05987 -0.83303,-7.59337 -2.6333,-1.62746 -1.48443,-4.4624 1.80841,-4.4624 2.13736,0 5.45774,2.13545 10,6.43133 6.67548,6.3134 8.77099,6.48857 4.78141,0.39969 -1.97723,-3.01762 -1.94792,-3.08102 1.4247,-3.08102 1.8939,0 4.06796,-0.76801 4.83126,-1.70671 1.07223,-1.31858 3.45783,-1.50169 10.49043,-0.80517 10.827,1.07232 15.2724,4.19242 15.2724,10.71927 0,4.7706 2.9709,6.02723 10.3191,4.36483 2.7046,-0.61184 4.9875,-0.58731 5.3863,0.0579 0.3807,0.61592 2.2214,1.11986 4.0905,1.11986 1.8692,0 4.3617,1.125 5.539,2.5 2.2429,2.61945 5.2878,3.27616 6.4525,1.39164 0.3768,-0.6096 -0.1463,-1.79834 -1.1624,-2.64164 -2.5815,-2.14242 -1.3006,-3.53246 2.5728,-2.79201 3.7013,0.70754 3.8444,1.00733 4.7627,9.97951 0.6691,6.53671 0.6577,6.5625 -2.8857,6.5625 -3.6216,0 -6.1574,-3.09092 -3.4421,-4.19555 0.8208,-0.3339 -0.3359,-0.65148 -2.5702,-0.70576 -3.3065,-0.0804 -4.0625,0.38275 -4.0625,2.48825 0,1.96778 -0.6732,2.49134 -2.8125,2.1875 -2.234,-0.31726 -2.89,-1.32495 -3.1892,-4.89854 -0.3379,-4.0347 -0.7572,-4.50992 -4.0625,-4.6039 -3.4741,-0.0987 -3.6858,0.17763 -3.6858,4.8116 0,4.27924 -0.3645,4.91024 -2.8125,4.86885 -1.5469,-0.0261 -3.5101,-0.84016 -4.3626,-1.80891 z m -28.2161,-21.59562 c -0.3128,-1.19511 -0.5575,0.0771 -0.5436,2.82708 0.014,2.75 0.2699,3.72781 0.5688,2.17292 0.299,-1.55488 0.2877,-3.80488 -0.025,-5 z m 16.6032,4.02572 c 2.9905,-2.99048 0.1185,-6.12747 -6.0268,-6.58302 -5.1364,-0.38075 -5.1852,-0.34446 -5.1852,3.85418 0,2.33119 0.4179,4.6565 0.9288,5.16735 1.3477,1.3477 8.0977,-0.25295 10.2833,-2.43851 z m -50.11828,8.80136 c -0.24628,-2.95536 -0.44133,-3.64651 -1.49916,-5.3125 -1.55079,-2.44232 -3.29784,-1.8482 -4.59459,1.5625 -1.30319,3.42764 -5.86919,4.32186 -7.00146,1.37119 -0.37015,-0.96459 0.49125,-4.03594 1.91423,-6.8252 1.42298,-2.78927 2.58723,-6.50005 2.58723,-8.24619 0,-2.75241 0.54049,-3.17225 4.0625,-3.15566 5.51151,0.026 6.80652,1.14121 6.92331,5.96221 0.0548,2.2585 1.54279,6.68872 3.30683,9.84495 1.76405,3.15622 3.20736,5.94899 3.20736,6.20614 0,0.25716 -1.96875,0.46756 -4.375,0.46756 -2.98611,0 -4.4246,-0.59524 -4.53125,-1.875 z m -1.09375,-12.5 c 0,-1.03125 -0.84375,-1.875 -1.875,-1.875 -1.03125,0 -1.875,0.84375 -1.875,1.875 0,1.03125 0.84375,1.875 1.875,1.875 1.03125,0 1.875,-0.84375 1.875,-1.875 z m 177.50003,9.80815 c -30.2455,-12.8788 -38.5498,-17.01773 -39.2742,-19.57464 -0.426,-1.50342 -1.0634,-21.85851 -1.4165,-45.23351 -0.3531,-23.375 -0.9552,-47.14063 -1.3379,-52.8125 l -0.6959,-10.3125 -4.189,0 c -2.3039,0 -4.4721,-0.45803 -4.818,-1.01783 -0.346,-0.559812 2.7917,-5.200442 6.9727,-10.312502 7.2509,-8.86566 21.499,-28.84854 24.1177,-33.82482 0.6786,-1.28967 1.8787,-2.34485 2.6667,-2.34485 2.0534,0 2.9246,4.28428 3.05,15 0.06,5.15625 0.4899,11.90625 0.9545,15 l 0.8449,5.625 6.875,0.625 6.875,0.625 0,4.375 c 0,4.28034 -0.1381,4.39957 -6.3811,5.510602 l -6.381,1.13559 -0.8065,14.99816 c -1.0332,19.21512 -1.0435,70.17386 -0.017,82.32126 l 0.7898,9.3428 19.4748,1.52702 c 10.7111,0.83986 19.7079,1.76017 19.9929,2.04515 0.285,0.28498 -3.278,4.75968 -7.9177,9.94378 -9.1748,10.25111 -10.9785,10.93603 -19.3795,7.35879 z m -61.05,-13.57196 c -5.7338,-3.07838 -12.765,-7.16754 -15.625,-9.08704 l -5.2,-3.48999 -1.039,-57.45184 c -0.5714,-31.59851 -1.3207,-57.734322 -1.6652,-58.079582 -0.3445,-0.34525 -4.012,-0.90899 -8.1499,-1.25274 l -7.5235,-0.625 4.1888,-3.99042 c 2.3038,-2.19474 11.8479,-11.37464 21.209,-20.39978 13.2189,-12.74438 17.1973,-15.94825 17.8125,-14.34484 0.4358,1.13548 0.7923,7.62413 0.7923,14.41922 l 0,12.35471 6.3153,0.83776 6.3154,0.83776 -0.3779,4.48508 c -0.3516,4.17361 -0.7388,4.556 -5.5761,5.50628 -2.8591,0.56166 -5.529,1.88282 -5.9331,2.9359 -0.4041,1.05309 -1.0768,28.170772 -1.4949,60.261522 l -0.7601,58.34681 5.7609,6.04834 c 5.4054,5.67492 6.3294,8.35439 2.8642,8.30577 -0.8188,-0.0112 -6.18,-2.53955 -11.9137,-5.61792 z m 141.772,-9.0986 c -24.8981,-4.24738 -26.0097,-4.55565 -23.1659,-6.42452 1.6429,-1.07968 4.4117,-3.17898 6.153,-4.6651 l 3.1659,-2.70203 0.4145,-27.92297 c 0.228,-15.35763 0.029,-35.3799 -0.441,-44.49391 -0.8327,-16.12844 -0.9356,-16.59102 -3.852,-17.32301 -1.6481,-0.41364 -2.9965,-1.16094 -2.9965,-1.66067 0,-1.781992 29.9856,-30.226822 31.123,-29.523842 0.6377,0.39411 1.5386,2.96067 2.002,5.70346 0.4634,2.7428 1.2176,5.21873 1.6761,5.50207 0.4584,0.28334 4.1822,-0.84723 8.2751,-2.51237 7.1045,-2.89045 7.5383,-2.92763 9.5792,-0.82112 3.2257,3.32931 11.2495,18.60077 12.3599,23.524312 0.9466,4.19704 0.6937,4.59837 -7.7596,12.31348 -10.3517,9.44782 -16.5675,13.18188 -18.5847,11.16462 -0.9981,-0.99807 -0.7098,-2.69563 1.0545,-6.20977 l 2.4281,-4.83622 -3.481,-7.5 -3.4811,-7.5 -0.063,21.875 c -0.1,34.63375 1.9653,73.56906 4.0723,76.78477 0.9829,1.49997 5.2209,4.55749 9.418,6.79452 4.1971,2.23702 7.6311,4.31557 7.6311,4.61901 0,1.29372 -11.0146,-0.004 -35.528,-4.18571 z m -60.3852,-12.39157 c -3.6779,-0.71037 -22.8328,-21.42027 -22.8506,-24.70562 -0.01,-1.39723 -0.1935,-8.1654 -0.4131,-15.0404 -0.2197,-6.875 5e-4,-20.26715 0.4893,-29.76033 0.7583,-14.73013 1.2541,-17.66193 3.3819,-20 1.3713,-1.50682 3.1458,-4.00529 3.9434,-5.552172 0.7976,-1.54687 2.195,-2.8125 3.1053,-2.8125 0.9102,0 4.1248,-2.14445 7.1435,-4.76544 9.9325,-8.624 10.7686,-8.99533 16.0548,-7.13024 6.5946,2.32668 14.9989,6.66808 19.637,10.14377 2.9999,2.24813 4.7332,5.30445 7.1875,12.673992 4.6784,14.04796 4.255,19.24438 -2.1399,26.26542 -3.1091,3.41353 -7.3368,3.57455 -20.1175,0.7662 -13.7603,-3.02359 -13.4288,-3.42995 -12.6028,15.4528 1.1382,26.01855 1.6047,28.78708 5.6025,33.2501 l 3.5547,3.9684 1.4701,-3.75 c 0.8085,-2.0625 1.7704,-6 2.1374,-8.75 0.367,-2.75 1.0805,-5.5625 1.5856,-6.25 0.505,-0.6875 1.5977,-3.35937 2.4281,-5.9375 0.8304,-2.57812 1.9787,-4.6875 2.5518,-4.6875 1.4544,0 6.4341,6.1391 9.2321,11.38168 l 2.343,4.38993 -5.9322,8.6767 c -3.2627,4.77218 -7.4108,9.65735 -9.218,10.85595 -3.1481,2.08798 -11.5113,2.68087 -18.5739,1.31677 z m 13.8013,-84.6533 c -3.3072,-7.94955 -6.6427,-14.456882 -7.4121,-14.460722 -3.0242,-0.0151 -4.2792,24.855322 -1.3759,27.264902 2.0137,1.67116 13.8905,3.778 14.413,2.55672 0.2134,-0.49895 -2.3178,-7.41135 -5.625,-15.3609 z m -464.13813,78.63335 c 0,-0.47585 1.46975,-2.61188 3.26612,-4.74675 l 3.26613,-3.88156 -0.90921,-48.17389 c -0.50008,-26.49562 -1.15928,-48.595742 -1.4649,-49.111372 -0.30563,-0.51562 -3.05374,-0.9375 -6.10692,-0.9375 -3.05317,0 -5.55122,-0.53854 -5.55122,-1.19676 0,-2.23039 30.23955,-25.05324 33.19475,-25.05324 2.10186,0 3.05525,2.93436 3.05525,9.40347 0,2.99694 0.50788,5.76287 1.1286,6.1465 0.62072,0.38363 4.10878,-0.68322 7.75121,-2.37079 5.04918,-2.33932 7.02673,-2.73293 8.32351,-1.65669 2.57783,2.13941 8.87927,16.3268 11.22638,25.27566 2.52392,9.623072 2.4373,9.771112 -10.77759,18.417442 -10.60497,6.9387 -13.31131,7.58105 -12.13126,2.87936 0.8476,-3.37714 -1.36694,-18.735402 -3.14989,-21.844952 -1.12812,-1.96753 -1.0004,1.51183 2.03926,55.548312 1.80292,32.05064 1.86107,32.46211 5.05933,35.80038 1.7795,1.85738 2.76745,3.64995 2.19545,3.98345 -1.71596,1.0005 -40.415,2.45495 -40.415,1.51893 z m 56.31729,-12.54397 4.30771,-4.44291 0.39325,-48.14421 c 0.28986,-35.485732 0.007,-48.608512 -1.0723,-49.910102 -1.17149,-1.41156 -0.45414,-2.96171 3.57501,-7.72539 8.37786,-9.90516 22.59626,-23.38393 23.60404,-22.37616 0.52025,0.52026 1.23932,5.69727 1.59795,11.50448 l 0.65205,10.55856 6.15752,-4.38568 c 3.38664,-2.41213 7.15789,-4.38569 8.38057,-4.38569 2.4353,0 9.6827,13.88863 12.27767,23.52845 l 1.45458,5.40344 -5.9298,5.22156 c -9.04372,7.96355 -16.38652,13.346712 -18.20305,13.345052 -1.23184,-10e-4 -1.63749,-2.86542 -1.63749,-11.562502 0,-6.89515 -0.61526,-12.56996 -1.52449,-14.061 -1.21668,-1.99522 -1.53216,7.17708 -1.5625,45.427842 -0.0365,46.06575 0.0591,48.05132 2.46199,51.10607 1.375,1.74803 2.5,3.66488 2.5,4.25966 0,0.59479 -9.3916,1.08143 -20.87021,1.08143 l -20.8702,0 4.3077,-4.4429 z"
     id="path4303"
     inkscape:connector-curvature="0" />
</svg>
