<?xml version="1.0" encoding="UTF-8" standalone="no"?>
<!DOCTYPE svg PUBLIC "-//W3C//DTD SVG 20010904//EN" "http://www.w3.org/TR/2001/REC-SVG-20010904/DTD/svg10.dtd">
<svg version="1.0" xmlns="http://www.w3.org/2000/svg" width="900.000000pt" height="675.000000pt" viewBox="0 0 900.000000 675.000000" preserveAspectRatio="xMidYMid meet">
<metadata>
Created by potrace 1.10, written by Peter Selinger 2001-2011
</metadata>
<g transform="translate(0.000000,675.000000) scale(0.100000,-0.100000)" fill="#000000" stroke="none">
<path d="M4850 5408 c-58 -5 -174 -12 -259 -16 -171 -8 -184 -14 -131 -60 86 -73 87 -74 104 -160 9 -45 16 -106 16 -135 0 -28 6 -104 14 -167 8 -63 20 -164 26 -225 9 -98 8 -111 -6 -122 -12 -9 -22 -9 -36 -2 -10 5 -23 7 -29 3 -12 -7 -7 -99 16 -294 8 -69 22 -190 30 -270 9 -80 23 -203 31 -275 9 -71 15 -143 13 -160 -4 -28 -6 -30 -43 -27 l-39 4 7 -39 c4 -21 11 -78 16 -128 4 -49 13 -128 19 -175 6 -47 17 -146 25 -220 47 -433 71 -647 87 -780 5 -47 13 -127 18 -178 9 -96 17 -122 25 -81 6 34 26 323 36 536 9 172 22 266 41 287 5 6 21 -2 39 -19 26 -25 33 -27 41 -15 7 10 9 185 7 509 -2 323 0 495 7 497 6 2 19 -15 30 -39 37 -79 57 -109 68 -98 6 6 4 123 -7 336 -9 179 -14 331 -10 336 7 12 54 -28 54 -47 0 -22 51 -74 73 -74 29 0 153 27 197 42 20 7 59 30 87 51 58 42 68 44 102 18 23 -18 25 -25 32 -182 20 -411 25 -466 48 -498 31 -43 166 -166 234 -213 66 -45 91 -47 183 -11 122 48 275 138 294 173 23 43 7 780 -19 878 -20 74 -228 242 -300 242 -35 0 -279 -123 -354 -178 -41 -31 -59 -52 -64 -73 -8 -41 -19 -44 -49 -14 -23 23 -25 31 -20 78 4 28 11 161 16 293 12 284 12 283 -83 413 -35 47 -89 124 -120 171 -76 116 -86 120 -239 119 -67 -1 -170 -6 -228 -11z m288 -150 c9 -12 26 -281 39 -625 l6 -163 -34 -14 c-47 -19 -135 -30 -143 -17 -4 5 -11 188 -17 406 -9 311 -9 398 1 410 16 19 133 21 148 3z m794 -829 c-5 -33 -69 -109 -93 -109 -36 0 -23 44 29 94 50 49 69 54 64 15z m-782 -108 c7 -14 7 -28 0 -47 -10 -26 -11 -26 -33 -8 -57 49 -61 74 -12 74 24 0 37 -6 45 -19z m850 -123 c18 -91 26 -723 10 -753 -7 -13 -30 -31 -51 -41 -37 -16 -40 -16 -59 1 -57 52 -57 52 -64 441 -6 320 -5 363 9 374 14 11 99 37 131 39 7 1 17 -27 24 -61z"/>
<path d="M3405 5188 c-11 -6 -22 -14 -25 -18 -10 -14 -220 -251 -229 -260 -3 -3 -15 -15 -25 -28 -19 -22 -19 -23 0 -36 22 -16 21 4 17 -767 l-3 -416 -42 -47 c-48 -56 -41 -70 31 -61 24 3 117 5 207 5 96 0 164 4 164 9 0 6 -13 25 -30 43 l-30 32 0 583 c0 483 2 583 14 583 31 0 62 -213 43 -302 -7 -32 -5 -38 8 -38 23 0 265 209 265 229 0 16 -26 100 -54 176 -31 83 -76 165 -92 165 -15 0 -55 -18 -64 -29 -15 -18 -100 -81 -109 -81 -7 0 -11 41 -11 123 0 135 -5 151 -35 135z"/>
<path d="M6613 5103 c-28 -32 -127 -136 -222 -232 -94 -96 -171 -177 -171 -181 0 -4 34 -10 76 -12 41 -3 79 -9 84 -14 4 -5 13 -319 20 -699 l12 -690 26 -20 c55 -43 315 -195 334 -195 10 0 21 7 25 17 5 11 -11 32 -54 72 -33 31 -63 67 -66 79 -7 29 10 1234 19 1355 7 102 17 117 78 117 50 0 66 13 66 54 0 50 -13 61 -82 66 l-63 5 -2 145 c-3 150 -7 190 -22 190 -4 0 -31 -26 -58 -57z"/>
<path d="M1338 5136 c-86 -6 -160 -14 -164 -19 -4 -4 4 -20 18 -35 62 -67 58 -31 58 -568 l0 -491 -27 -21 c-16 -11 -46 -35 -68 -52 -84 -64 -188 -130 -206 -130 -11 0 -21 9 -24 23 -4 13 -5 248 -3 523 3 529 2 518 51 571 11 13 19 25 16 27 -7 8 -488 10 -496 3 -4 -4 10 -24 30 -45 l37 -38 0 -556 c0 -308 -4 -559 -9 -562 -9 -6 -106 64 -180 131 -39 34 -43 41 -33 60 7 12 30 35 52 53 47 37 51 54 13 46 -16 -3 -56 -8 -91 -12 -68 -7 -102 -30 -102 -68 0 -27 38 -93 87 -152 37 -46 169 -154 231 -190 l32 -18 3 -246 c1 -135 2 -298 2 -363 l0 -119 -53 -46 c-30 -26 -50 -51 -46 -55 4 -4 29 -7 55 -7 27 0 97 -6 156 -14 143 -19 320 -29 327 -18 3 5 -15 30 -38 56 l-44 47 -1 384 -2 383 23 16 c12 9 35 16 50 16 16 0 36 4 46 9 9 5 40 20 67 32 28 12 67 36 88 52 24 19 42 26 48 20 6 -6 8 -190 6 -479 -3 -520 0 -497 -72 -593 -22 -30 -44 -60 -50 -67 -5 -7 -6 -16 -2 -21 8 -8 587 -33 600 -26 14 8 7 23 -37 80 -82 110 -76 48 -76 746 l0 623 32 25 c53 40 71 48 106 49 39 0 40 -9 6 -41 -48 -44 -84 -101 -84 -133 0 -17 6 -62 14 -101 9 -38 22 -106 31 -150 19 -91 45 -212 52 -237 2 -10 20 -33 38 -53 32 -33 37 -34 82 -29 26 4 72 19 100 35 68 37 85 37 114 -6 48 -70 130 -57 206 33 26 31 75 86 107 121 58 63 59 64 36 76 -40 21 -53 70 -60 225 -27 545 -31 605 -48 640 -21 44 -62 99 -131 175 -29 33 -72 82 -94 110 -73 93 -102 95 -251 20 -192 -96 -217 -143 -151 -276 60 -121 94 -168 122 -169 11 0 44 50 43 65 -1 42 6 56 66 112 42 40 73 63 88 63 43 0 47 -47 53 -550 5 -420 4 -467 -11 -479 -12 -10 -20 -11 -29 -2 -28 23 -73 444 -54 511 5 19 23 52 40 73 24 32 28 41 16 48 -8 5 -108 9 -224 8 l-210 -1 -7 258 c-4 143 -5 329 -1 414 l6 155 44 58 c24 32 41 62 38 67 -8 12 -149 10 -357 -4z"/>
<path d="M2687 5033 c-19 -16 -72 -57 -117 -93 -45 -36 -109 -87 -143 -113 -34 -27 -62 -54 -62 -60 0 -7 21 -13 51 -15 95 -5 88 40 92 -628 l4 -584 -31 -35 c-17 -20 -31 -40 -31 -46 0 -7 30 -9 93 -5 50 3 149 8 220 12 70 3 129 10 132 14 3 4 -7 15 -21 25 -47 31 -53 63 -64 371 -6 159 -15 336 -20 394 -14 162 -13 373 3 368 6 -3 15 -27 18 -54 4 -27 11 -67 18 -89 6 -22 11 -70 11 -107 0 -44 4 -68 11 -68 6 0 46 25 88 55 42 31 95 69 119 85 48 34 50 47 28 150 -18 79 -34 125 -80 223 -47 101 -73 108 -159 46 -22 -16 -50 -29 -62 -29 -21 0 -23 6 -31 102 -5 56 -14 103 -20 105 -6 2 -27 -9 -47 -24z"/>
<path d="M7106 5038 c-8 -13 -47 -77 -86 -142 -76 -127 -139 -214 -204 -284 -70 -74 -73 -102 -12 -102 67 0 64 25 76 -685 8 -440 14 -643 22 -653 6 -7 36 -24 67 -38 31 -15 83 -38 116 -54 171 -79 203 -93 235 -108 19 -8 47 -21 62 -29 62 -31 93 -13 165 96 20 31 49 68 65 83 15 15 28 31 28 36 0 5 -53 12 -117 15 -65 4 -151 10 -190 13 -46 4 -73 3 -73 -3 0 -13 93 -43 134 -43 50 0 61 -12 43 -46 -8 -16 -24 -37 -35 -47 -20 -18 -22 -18 -87 14 -36 18 -79 45 -95 59 l-28 25 -7 666 c-6 589 -5 667 8 681 9 8 43 18 77 21 34 4 66 9 71 13 15 9 10 71 -7 88 -11 11 -34 16 -78 16 -39 0 -68 5 -74 13 -5 6 -13 103 -17 215 -7 188 -9 202 -26 202 -10 0 -25 -10 -33 -22z"/>
<path d="M8197 4679 c-92 -94 -165 -175 -161 -180 3 -5 14 -9 24 -9 11 0 25 -10 31 -22 16 -30 27 -313 28 -725 l1 -321 -33 -44 c-18 -23 -44 -48 -57 -55 -59 -30 -25 -44 185 -79 55 -9 131 -22 169 -30 38 -8 80 -14 94 -14 14 0 55 -7 90 -16 43 -11 67 -13 74 -6 10 10 7 12 -84 59 -24 13 -59 38 -77 56 -31 33 -33 39 -42 148 -5 63 -12 329 -16 593 -4 378 -3 478 7 474 7 -2 18 -19 25 -38 6 -19 22 -63 34 -97 l22 -61 -30 -55 c-17 -29 -28 -57 -24 -60 3 -4 20 -7 37 -7 31 1 46 12 229 180 40 37 55 87 38 125 -33 73 -110 225 -125 248 -24 36 -46 34 -134 -9 -44 -22 -77 -33 -83 -27 -5 5 -15 37 -22 73 -7 35 -17 65 -23 67 -6 2 -85 -74 -177 -168z"/>
<path d="M7630 4703 c-45 -18 -270 -226 -295 -274 -11 -20 -16 -113 -21 -397 l-7 -371 49 -58 c65 -78 121 -140 167 -185 l38 -38 103 0 c119 0 111 -5 211 135 85 119 84 112 36 191 -61 101 -78 121 -91 107 -12 -11 -40 -103 -60 -193 -22 -98 -38 -145 -49 -144 -6 1 -15 2 -19 3 -5 0 -24 22 -43 49 l-34 47 -11 270 c-9 235 -8 272 4 282 18 15 27 13 230 -43 83 -23 106 -14 157 60 37 53 40 63 38 120 -1 33 -7 75 -13 91 -7 17 -16 46 -20 65 -28 119 -61 158 -196 227 -101 51 -147 66 -174 56z m48 -165 c10 -24 27 -63 36 -88 10 -25 24 -58 31 -75 38 -89 55 -136 55 -156 0 -20 -4 -21 -40 -15 -22 3 -59 9 -82 12 -24 4 -49 11 -55 17 -18 13 -18 318 -1 335 21 21 36 13 56 -30z"/>
<path d="M4095 4451 c-3 -6 4 -15 15 -21 24 -13 27 -68 6 -108 -8 -15 -21 -47 -31 -72 -9 -25 -23 -58 -30 -75 -7 -16 -19 -48 -28 -70 -61 -160 -88 -210 -99 -188 -5 9 -32 107 -54 198 -9 33 -22 80 -30 105 -18 58 -18 77 3 88 25 14 9 46 -20 38 -12 -3 -91 -6 -174 -6 -157 0 -170 -3 -140 -39 13 -15 31 -88 62 -246 20 -102 45 -221 60 -290 7 -33 21 -104 31 -157 19 -106 21 -95 -36 -223 -105 -234 -167 -360 -188 -378 -20 -18 -27 -18 -179 -3 -87 8 -222 20 -300 26 -78 5 -149 13 -157 16 -19 7 -20 27 -3 74 22 61 48 89 112 121 54 26 84 53 72 65 -8 9 -272 22 -292 14 -47 -18 -164 -234 -146 -268 19 -35 50 -57 150 -107 211 -105 351 -143 611 -166 58 -5 135 -12 172 -16 72 -6 91 1 109 42 5 11 24 47 42 80 19 33 60 110 92 170 32 61 67 126 78 145 11 19 45 82 75 140 31 58 77 146 103 195 52 97 172 339 195 392 8 18 21 48 30 68 8 19 22 52 31 72 23 54 37 87 73 178 18 44 38 91 45 105 7 14 16 39 19 57 6 26 3 34 -13 42 -24 14 -258 15 -266 2z"/>
<path d="M5623 3058 c-21 -10 -23 -18 -23 -88 0 -63 3 -80 19 -94 24 -22 78 -15 136 17 34 19 40 28 43 60 3 33 -2 43 -36 78 -33 32 -46 39 -78 38 -22 0 -49 -5 -61 -11z m106 -61 c12 -13 19 -31 16 -39 -7 -18 -73 -51 -86 -43 -10 7 -12 88 -2 98 14 15 50 6 72 -16z"/>
<path d="M5157 3053 c-4 -3 -7 -15 -7 -25 0 -11 -6 -31 -14 -46 -19 -38 -27 -85 -17 -101 12 -18 47 -6 54 19 9 34 46 25 62 -14 16 -37 52 -57 65 -36 8 13 0 53 -18 86 -6 10 -18 40 -27 66 -12 31 -24 48 -39 52 -28 8 -51 7 -59 -1z m53 -79 c0 -16 -16 -19 -25 -4 -8 13 4 32 16 25 5 -4 9 -13 9 -21z"/>
<path d="M5332 2968 c3 -77 5 -83 25 -86 21 -3 22 -1 16 47 -4 32 -2 51 4 51 6 0 41 -31 78 -70 38 -38 72 -67 77 -64 4 3 8 43 8 90 0 75 -2 84 -18 84 -26 0 -33 -10 -22 -29 5 -10 5 -23 0 -31 -6 -10 -21 0 -62 39 -38 35 -63 51 -82 51 l-27 0 3 -82z"/>
<path d="M6268 2873 c-28 -7 -21 -31 12 -38 23 -5 30 -12 30 -30 0 -25 -17 -35 -60 -35 -27 0 -47 18 -49 45 0 6 -15 11 -33 13 l-33 3 3 -83 c4 -105 5 -108 42 -108 30 0 31 2 28 38 l-3 37 44 3 c68 5 77 -2 52 -41 -25 -40 -20 -47 31 -47 43 0 59 20 40 51 -15 24 -16 141 -1 156 23 23 2 43 -43 42 -24 -1 -51 -3 -60 -6z"/>
<path d="M6585 2861 c-3 -6 -35 -11 -71 -11 -36 0 -74 -5 -85 -11 -19 -10 -20 -12 -4 -29 13 -15 16 -34 14 -92 -2 -40 0 -79 4 -85 8 -12 82 -16 120 -6 30 8 19 32 -18 39 -43 8 -49 39 -9 54 30 12 27 34 -5 38 -14 2 -21 9 -19 20 4 23 55 28 77 7 16 -13 20 -14 30 -1 18 21 10 80 -11 84 -9 2 -19 -2 -23 -7z"/>
<path d="M6047 2846 c-17 -14 -167 -14 -210 0 -15 5 -17 2 -11 -23 10 -40 16 -44 52 -31 28 11 34 10 42 -2 12 -19 13 -86 1 -109 -13 -23 -1 -40 34 -46 43 -8 58 5 45 39 -15 41 -13 111 5 126 13 10 19 10 33 -4 35 -31 60 -8 42 39 -11 29 -10 28 -33 11z"/>
<path d="M8477 2623 c-14 -14 -6 -48 20 -85 19 -28 29 -35 34 -26 10 15 12 79 3 102 -6 16 -45 22 -57 9z"/>
<path d="M5947 2564 c-4 -4 2 -19 13 -34 17 -24 20 -45 20 -138 0 -102 -1 -111 -22 -124 -20 -13 -21 -18 -9 -31 16 -20 71 -32 100 -22 24 7 28 37 6 55 -22 18 -21 216 1 248 26 37 12 52 -49 52 -30 0 -57 -3 -60 -6z"/>
<path d="M8001 2563 l-83 -4 8 -27 c4 -15 8 -92 9 -172 l0 -145 65 0 65 0 -2 33 c-1 41 -8 49 -28 32 -16 -14 -45 -7 -45 11 0 6 14 23 30 37 40 35 42 83 4 100 -21 10 -25 18 -22 45 3 30 6 32 45 35 35 3 42 0 48 -18 11 -34 27 -8 23 36 -3 44 3 42 -117 37z"/>
<path d="M8164 2558 c-3 -4 0 -16 6 -27 13 -26 13 -254 -1 -268 -17 -17 18 -43 57 -43 29 0 34 3 34 23 0 13 -4 27 -9 32 -6 6 -7 58 -3 125 6 99 9 115 25 118 24 5 65 -23 79 -53 9 -19 6 -30 -12 -60 -12 -20 -33 -41 -46 -45 -27 -11 -32 -41 -9 -60 8 -7 15 -21 15 -31 0 -29 28 -49 71 -49 48 0 51 16 9 53 -37 33 -37 47 -5 77 14 13 30 41 37 62 9 32 8 44 -7 78 -27 60 -55 74 -153 74 -46 1 -86 -2 -88 -6z"/>
<path d="M5634 2545 c-4 -8 -4 -22 -1 -30 6 -14 9 -207 4 -254 -3 -33 43 -62 67 -42 11 9 13 19 5 37 -5 14 -9 43 -9 64 0 46 22 63 73 58 32 -3 32 -3 30 -58 0 -30 -3 -66 -5 -80 -3 -23 0 -25 32 -25 31 0 35 3 32 25 -21 179 -23 219 -9 253 17 40 12 53 -26 62 -33 9 -46 -15 -27 -49 20 -38 10 -70 -24 -74 -50 -6 -76 6 -76 33 0 14 5 34 12 44 9 15 9 23 -1 35 -17 20 -70 21 -77 1z"/>
<path d="M6150 2552 c1 -4 7 -18 15 -32 21 -36 21 -233 0 -250 -38 -32 -3 -60 73 -60 35 0 52 -4 56 -15 10 -28 25 -15 31 29 10 67 -13 118 -30 66 -3 -11 -15 -20 -26 -20 -18 0 -19 8 -19 110 0 61 5 120 12 135 6 14 9 28 6 31 -9 8 -118 13 -118 6z"/>
<path d="M6467 2545 c-79 -29 -119 -114 -97 -207 7 -29 22 -64 34 -77 70 -79 193 -57 250 44 31 57 34 111 7 163 -25 49 -47 68 -96 81 -48 13 -50 13 -98 -4z m122 -72 c75 -57 28 -203 -66 -203 -51 0 -108 39 -116 79 -13 62 12 122 58 142 30 13 95 3 124 -18z"/>
<path d="M6783 2549 c-33 -8 -44 -17 -58 -45 -9 -20 -14 -46 -11 -58 9 -36 45 -75 82 -91 28 -11 34 -19 34 -44 0 -22 -7 -35 -26 -48 -27 -17 -27 -17 -54 15 -14 18 -30 32 -33 32 -4 0 -7 -18 -7 -40 0 -34 4 -42 26 -50 14 -6 44 -10 68 -10 59 0 86 29 86 94 0 63 -27 107 -80 131 -31 14 -40 24 -38 38 5 34 33 44 58 22 18 -16 23 -17 30 -5 12 19 12 27 0 51 -12 21 -16 21 -77 8z"/>
<path d="M7030 2548 c-135 -37 -151 -263 -23 -320 80 -35 164 -4 203 77 70 144 -33 282 -180 243z m81 -59 c66 -22 92 -83 62 -146 -23 -50 -51 -72 -91 -73 -69 0 -122 48 -122 112 0 52 19 89 55 104 38 16 53 17 96 3z"/>
<path d="M7617 2553 c-14 -4 -17 -11 -13 -26 3 -12 6 -84 6 -159 0 -128 1 -138 20 -148 31 -17 63 -3 55 23 -28 93 -12 137 50 137 54 0 72 -58 39 -122 -18 -35 -9 -48 37 -48 36 0 40 8 24 41 -18 33 -21 244 -5 254 30 19 -13 62 -50 50 -21 -7 -27 -39 -10 -50 6 -3 10 -22 10 -41 0 -34 -1 -34 -44 -34 -58 0 -74 18 -57 67 7 19 9 39 5 43 -13 12 -47 18 -67 13z"/>
<path d="M8611 2546 c-40 -14 -55 -49 -47 -105 6 -38 41 -81 67 -81 9 0 24 -11 33 -25 19 -29 10 -57 -25 -76 -17 -9 -25 -7 -45 12 -13 12 -24 29 -24 37 0 7 -6 12 -12 10 -8 -3 -13 -21 -13 -44 0 -47 26 -64 97 -64 71 0 96 36 85 126 -5 52 -23 75 -77 99 -42 19 -51 43 -25 65 13 11 21 10 43 -1 15 -7 30 -15 35 -17 4 -2 7 10 7 27 0 48 -34 61 -99 37z"/>
<path d="M5304 2538 c-3 -5 1 -17 10 -27 23 -26 23 -217 0 -242 -9 -10 -14 -25 -11 -33 8 -20 70 -31 96 -17 20 11 20 14 6 41 -10 19 -15 58 -15 117 0 124 4 133 50 133 93 0 110 -135 20 -155 -38 -8 -41 -40 -5 -49 36 -9 92 20 112 57 25 49 13 124 -25 158 -29 26 -36 27 -131 27 -56 0 -104 -4 -107 -10z"/>
<path d="M7276 2541 c-3 -4 1 -17 9 -27 21 -28 21 -227 0 -244 -24 -20 -17 -38 19 -50 60 -20 111 11 76 46 -7 7 -10 56 -8 125 l3 114 32 3 c18 2 43 -4 57 -14 21 -13 26 -24 26 -59 0 -45 -13 -62 -62 -83 -32 -13 -35 -24 -13 -42 20 -16 84 1 109 29 42 46 39 132 -4 180 -29 31 -29 31 -134 31 -58 0 -107 -4 -110 -9z"/>
<path d="M6910 2164 c-14 -7 -44 -14 -66 -14 -82 0 -125 -69 -85 -134 22 -35 39 -46 70 -46 10 0 30 -10 45 -21 33 -26 31 -58 -6 -78 -45 -26 -82 -5 -112 64 -9 19 -26 -20 -26 -60 0 -51 12 -70 36 -60 11 4 47 6 82 5 77 -2 107 15 123 69 10 35 9 43 -16 90 -22 39 -34 51 -52 51 -13 0 -40 7 -59 15 -42 17 -43 45 -2 59 35 12 74 -7 87 -43 8 -21 10 -12 10 47 1 39 0 72 -1 71 -2 -1 -14 -7 -28 -15z"/>
<path d="M8100 2076 c-26 -10 -34 -18 -31 -32 3 -11 5 -61 5 -112 1 -108 4 -112 84 -112 52 0 53 1 50 28 -2 22 -8 28 -35 30 -37 4 -44 21 -13 29 13 3 20 14 20 29 0 13 -9 29 -20 36 -22 14 -26 43 -8 54 19 12 70 5 88 -11 9 -8 20 -12 23 -8 13 12 7 51 -9 67 -19 20 -103 20 -154 2z"/>
<path d="M7409 2062 c-14 -4 -43 -21 -63 -39 -29 -27 -36 -39 -36 -70 0 -43 27 -90 62 -109 13 -8 50 -13 84 -14 76 0 137 29 167 81 21 36 21 38 3 75 -9 22 -28 47 -41 57 -27 19 -132 31 -176 19z m131 -60 c43 -21 50 -56 20 -95 -20 -25 -28 -27 -89 -27 -81 0 -121 23 -121 70 0 63 108 93 190 52z"/>
<path d="M7697 1958 c1 -62 2 -116 2 -120 1 -5 15 -8 32 -8 28 0 31 2 24 23 -12 38 -21 127 -14 138 4 6 41 -21 94 -68 48 -43 94 -78 103 -78 14 0 18 15 22 86 3 47 11 93 17 101 18 21 -2 38 -43 38 -36 0 -51 -14 -36 -33 14 -19 22 -71 12 -87 -7 -11 -24 0 -78 53 -58 55 -76 67 -104 67 l-33 0 2 -112z"/>
<path d="M7014 2048 c-3 -5 -2 -17 1 -28 7 -22 26 -25 55 -10 33 18 48 2 52 -53 3 -35 0 -60 -10 -76 -14 -23 -13 -26 8 -43 23 -19 38 -22 63 -12 12 4 13 22 9 94 -4 78 -3 90 12 96 11 4 26 -2 41 -16 21 -20 25 -21 31 -7 3 8 4 26 2 38 -3 22 -6 23 -131 24 -71 0 -131 -3 -133 -7z"/>
</g>
</svg>