<?xml version="1.0" encoding="iso-8859-1"?>
<!-- Generator: Adobe Illustrator 19.0.0, SVG Export Plug-In . SVG Version: 6.00 Build 0)  -->
<svg version="1.1" id="Layer_1" xmlns="http://www.w3.org/2000/svg" xmlns:xlink="http://www.w3.org/1999/xlink" x="0px" y="0px"
	 viewBox="0 0 512 512" style="enable-background:new 0 0 512 512;" xml:space="preserve">
<g>
	<path style="fill:#ECF0F1;" d="M216.277,348.778V145.567c0-7.265,5.888-13.153,13.153-13.153h83.95V26.147
		C313.38,11.705,301.675,0,287.242,0H57.036C42.603,0,30.897,11.705,30.897,26.147v459.714c0,14.433,11.705,26.138,26.138,26.138
		h230.206c14.433,0,26.138-11.705,26.138-26.138v-123.93h-83.95C222.165,361.931,216.277,356.043,216.277,348.778"/>
	<polygon style="fill:#35495E;" points="30.897,52.967 30.897,441.381 313.38,441.381 313.38,361.933 313.38,132.416 313.38,52.967 
			"/>
	<path style="fill:#ECF0F1;" d="M485.605,361.933H229.428c-7.265,0-13.153-5.888-13.153-13.153v-57.468h282.483v57.468
		C498.758,356.045,492.87,361.933,485.605,361.933"/>
	<path style="fill:#E64C3C;" d="M485.605,132.416H229.428c-7.265,0-13.153,5.888-13.153,13.153v145.743h282.483V145.569
		C498.758,138.304,492.87,132.416,485.605,132.416"/>
	<g>
		<path style="fill:#BDC3C7;" d="M207.449,35.312h-44.138c-4.873,0-8.828-3.955-8.828-8.828s3.955-8.828,8.828-8.828h44.138
			c4.873,0,8.828,3.955,8.828,8.828S212.322,35.312,207.449,35.312"/>
		<path style="fill:#BDC3C7;" d="M136.828,35.312h-8.828c-4.873,0-8.828-3.955-8.828-8.828s3.955-8.828,8.828-8.828h8.828
			c4.873,0,8.828,3.955,8.828,8.828S141.701,35.312,136.828,35.312"/>
		<path style="fill:#BDC3C7;" d="M22.07,97.105c-4.873,0-8.828-3.955-8.828-8.828V79.45c0-4.873,3.955-8.828,8.828-8.828
			s8.828,3.955,8.828,8.828v8.828C30.897,93.15,26.943,97.105,22.07,97.105"/>
		<path style="fill:#BDC3C7;" d="M22.07,132.416c-4.873,0-8.828-3.955-8.828-8.828v-8.828c0-4.873,3.955-8.828,8.828-8.828
			s8.828,3.955,8.828,8.828v8.828C30.897,128.461,26.943,132.416,22.07,132.416"/>
		<path style="fill:#BDC3C7;" d="M22.07,167.726c-4.873,0-8.828-3.955-8.828-8.828v-8.828c0-4.873,3.955-8.828,8.828-8.828
			s8.828,3.955,8.828,8.828v8.828C30.897,163.771,26.943,167.726,22.07,167.726"/>
		<path style="fill:#BDC3C7;" d="M198.622,476.691c0,14.627-11.855,26.483-26.483,26.483s-26.483-11.855-26.483-26.483
			c0-14.627,11.855-26.483,26.483-26.483S198.622,462.064,198.622,476.691"/>
	</g>
	<polygon style="fill:#FFFFFF;" points="339.863,247.174 339.863,176.553 392.828,211.864 	"/>
	<path style="fill:#BDC3C7;" d="M286.897,335.45h-35.31c-4.873,0-8.828-3.955-8.828-8.828c0-4.873,3.955-8.828,8.828-8.828h35.31
		c4.873,0,8.828,3.955,8.828,8.828C295.725,331.495,291.77,335.45,286.897,335.45"/>
	<g>
		<path style="fill:#FFFFFF;" d="M269.242,176.553h-17.655c-4.873,0-8.828-3.955-8.828-8.828c0-4.873,3.955-8.828,8.828-8.828
			h17.655c4.873,0,8.828,3.955,8.828,8.828C278.07,172.599,274.115,176.553,269.242,176.553"/>
		<path style="fill:#FFFFFF;" d="M463.449,176.553h-17.655c-4.873,0-8.828-3.955-8.828-8.828c0-4.873,3.955-8.828,8.828-8.828
			h17.655c4.873,0,8.828,3.955,8.828,8.828C472.277,172.599,468.322,176.553,463.449,176.553"/>
		<path style="fill:#FFFFFF;" d="M269.242,264.829h-17.655c-4.873,0-8.828-3.955-8.828-8.828s3.955-8.828,8.828-8.828h17.655
			c4.873,0,8.828,3.955,8.828,8.828S274.115,264.829,269.242,264.829"/>
		<path style="fill:#FFFFFF;" d="M463.449,264.829h-17.655c-4.873,0-8.828-3.955-8.828-8.828s3.955-8.828,8.828-8.828h17.655
			c4.873,0,8.828,3.955,8.828,8.828S468.322,264.829,463.449,264.829"/>
	</g>
	<path style="fill:#BDC3C7;" d="M463.449,335.45H331.035c-4.873,0-8.828-3.955-8.828-8.828c0-4.873,3.955-8.828,8.828-8.828h132.414
		c4.873,0,8.828,3.955,8.828,8.828C472.277,331.495,468.322,335.45,463.449,335.45"/>
</g>
<g>
</g>
<g>
</g>
<g>
</g>
<g>
</g>
<g>
</g>
<g>
</g>
<g>
</g>
<g>
</g>
<g>
</g>
<g>
</g>
<g>
</g>
<g>
</g>
<g>
</g>
<g>
</g>
<g>
</g>
</svg>
