<svg id="Capa_1" enable-background="new 0 0 512 512" height="512" viewBox="0 0 512 512" width="512" xmlns="http://www.w3.org/2000/svg"><g><path d="m277.401 492h-229.493c-16.569 0-30-49.033-30-65.602v-396.398c0-16.569 13.431-30 30-30h37.734l77.013 10 77.012-10h37.734c16.569 0 30 13.431 30 30v396.398c0 16.569-13.431 65.602-30 65.602z" fill="#07485e"/><path d="m277.401 0h-37.734l-77.012 10v482h114.747c16.569 0 30-49.033 30-65.602v-396.398c-.001-16.569-13.432-30-30.001-30z" fill="#03232e"/><path d="m47.908 512h229.494c16.569 0 30-13.431 30-30v-55.602c0 17.6-14.267 31.867-31.867 31.867h-225.76c-17.6 0-31.867-14.267-31.867-31.867v55.602c0 16.569 13.431 30 30 30z" fill="#dce6eb"/><path d="m275.534 458.266h-112.88v53.734h114.747c16.569 0 30-13.431 30-30v-55.602c0 17.6-14.267 31.868-31.867 31.868z" fill="#c8d2dc"/><path d="m85.642 0 21.245 43.734h111.535l21.245-43.734z" fill="#dce6eb"/><path d="m162.655 0v43.734h55.767l21.245-43.734z" fill="#c8d2dc"/><g><path d="m234.214 143.428v154.43l-48.455 70.714h48.455 259.878v-225.144z" fill="#ffe477"/><path d="m364.153 143.428h129.939v225.145h-129.939z" fill="#ffb655"/><g><path d="m295.075 209.575h138.157v30h-138.157z" fill="#ffb655"/></g><g><path d="m295.075 281.574h138.157v30h-138.157z" fill="#ffb655"/></g><g><path d="m364.153 209.575h69.079v30h-69.079z" fill="#ff7c48"/></g><g><path d="m364.153 281.574h69.079v30h-69.079z" fill="#ff7c48"/></g></g></g></svg>