<svg height="512pt" viewBox="0 -36 512 512" width="512pt" xmlns="http://www.w3.org/2000/svg" xmlns:xlink="http://www.w3.org/1999/xlink"><linearGradient id="a" gradientUnits="userSpaceOnUse" x1="256" x2="256" y1="0" y2="439"><stop offset="0" stop-color="#2af598"/><stop offset="1" stop-color="#009efd"/></linearGradient><path d="m512 60v82.40625l-19.34375.632812c-21.675781.710938-38.65625 18.265626-38.65625 39.960938 0 5.695312 1.179688 11.105469 3.300781 16h-41.691406c-1.054687-5.214844-1.609375-10.566406-1.609375-16 0-20.902344 8.015625-40.679688 22.566406-55.679688 9.894532-10.199218 22.082032-17.449218 35.433594-21.246093v-46.074219c0-11.027344-8.972656-20-20-20h-84c-11.027344 0-20 8.972656-20 20h-40c0-11.027344-8.972656-20-20-20h-228c-11.027344 0-20 8.972656-20 20v45.53125c34.464844 8.902344 60 40.257812 60 77.46875s-25.535156 68.566406-60 77.46875v39.53125c0 11.027344 8.972656 20 20 20h214v40h-214c-33.085938 0-60-26.914062-60-60v-77h20c22.054688 0 40-17.945312 40-40s-17.945312-40-40-40h-20v-83c0-33.085938 26.914062-60 60-60h228c15.355469 0 29.375 5.804688 40 15.328125 10.625-9.523437 24.644531-15.328125 40-15.328125h84c33.085938 0 60 26.914062 60 60zm-164 41h-40v40h40zm-40 110h40v-40h-40zm0 70h40v-40h-40zm125-40h-40v79h-79v40h79v79h40v-79h79v-40h-79zm0 0" fill="url(#a)"/></svg>