<svg id="Capa_1" enable-background="new 0 0 512 512" height="512" viewBox="0 0 512 512" width="512" xmlns="http://www.w3.org/2000/svg"><g><g><g fill="#ececec"><path d="m466.511 11.79 21.815 79.985-79.985 21.815-16.266-38.53z"/><path d="m194.401 86.005-90.703 24.739-52.885 39.223-5.285 62.577 90.703-24.739 74.437-63.269z"/><path d="m375.808 36.529-90.704 24.738-74.436 63.269 16.266 38.531 90.704-24.738 74.437-63.269z"/></g><path d="m275.014 279.242-229.486 26.42v121.945c0 40.1 32.503 72.603 72.613 72.603h313.756c40.1 0 72.603-32.503 72.603-72.603v-121.945z" fill="#77728d"/><path d="m45.528 305.661v121.945c0 40.1 32.503 72.603 72.613 72.603h30c-40.11 0-72.613-32.503-72.613-72.603v-121.945z" fill="#5c576e"/><path d="m504.5 222.755v82.907h-82.907l-5.555-41.454z" fill="#ececec"/><path d="m222.451 222.755h-94.017l-61.341 23.926-21.565 58.981h94.016l88.462-41.454z" fill="#ececec"/><path d="m410.483 222.755h-94.016l-88.461 41.453 5.555 41.454h94.016l88.461-41.454z" fill="#ececec"/><path d="m504.5 222.755-82.907 82.907h-94.016l82.906-82.907z" fill="#5c576e"/><path d="m316.467 222.755-82.906 82.907h-94.017l82.907-82.907z" fill="#5c576e"/><path d="m128.434 222.755-82.906 82.907v-82.907z" fill="#5c576e"/><path d="m75.528 275.661h-19.031l-10.969 30h30z" fill="#dededc"/><path d="m75.528 222.755h-30v82.906l30-30z" fill="#423e4f"/><path d="m466.511 11.79-58.17 101.8-90.703 24.739 58.17-101.8z" fill="#5c576e"/><path d="m285.104 61.267-58.17 101.8-90.703 24.738 58.17-101.8z" fill="#5c576e"/><path d="m111.149 194.646c-6.907-25.293-28.068-44.749-54.284-49.167l-6.052 4.488-5.286 62.577z" fill="#dededc"/><path d="m65.727 121.1c-23.204 6.329-36.884 30.269-30.555 53.473l10.356 37.971 58.17-101.8z" fill="#5c576e"/><path d="m79.262 153.507c-9.951-5.708-21.463-8.991-33.734-8.991-2.686 0-5.331.174-7.937.478-4.102 8.952-5.213 19.336-2.419 29.578l10.356 37.971z" fill="#423e4f"/><circle cx="45.528" cy="212.544" fill="#ececec" r="38.028"/></g><g><path d="m504.5 357.121c-4.142 0-7.5 3.358-7.5 7.5v62.983c0 35.898-29.205 65.103-65.103 65.103h-313.756c-35.903 0-65.113-29.205-65.113-65.103v-23.767c0-4.142-3.357-7.5-7.5-7.5-4.142 0-7.5 3.358-7.5 7.5v23.767c0 44.169 35.939 80.103 80.113 80.103h313.756c44.169 0 80.103-35.934 80.103-80.103v-62.983c0-4.142-3.358-7.5-7.5-7.5z"/><path d="m504.5 215.253h-413.532c.139-2.347.124-4.636-.143-7.292l399.475-108.952c3.993-1.089 6.352-5.214 5.262-9.209l-21.815-79.985c-1.05-3.875-5.194-6.358-9.208-5.263l-400.786 109.31c-25.335 6.91-41.011 31.848-36.986 57.213-15.768 7.163-26.767 23.05-26.767 41.467 0 22.549 16.481 41.311 38.027 44.899v48.219 68.178c0 4.142 3.358 7.5 7.5 7.5 4.143 0 7.5-3.358 7.5-7.5v-60.678h443.973v21.462c0 4.142 3.358 7.5 7.5 7.5s7.5-3.358 7.5-7.5v-111.869c0-4.133-3.419-7.5-7.5-7.5zm-180.03 82.906h-72.803l67.906-67.906h72.803zm-188.032 0h-72.803l67.906-67.906h72.803zm-26.11-67.906-57.3 57.3v-30.109c15.956-2.686 28.618-13.461 34.442-27.191zm89.044-137.831 70.237-19.157-47.646 83.381-70.237 19.157zm160.941-43.895-47.646 83.381-70.237 19.157 47.646-83.382zm90.703-24.739-47.646 83.382-70.237 19.156 47.646-83.382zm-27.18 77.801 40.204-70.358 15.077 55.28zm-292.575 79.796-44.394 12.108c-3.306-6.875-7.376-11.883-12.559-16.201l34.359-60.131 70.238-19.157zm-89.894-14.18c-1.997-17.375 8.952-34.13 26.333-38.871l20.502-5.592-26.908 47.09c-6.18-2.289-13.123-3.252-19.927-2.627zm-26.367 45.337c0-22.313 23.183-36.937 43.201-27.762 19.083 8.689 23.946 33.804 9.316 48.904-19.06 19.766-52.517 6.222-52.517-21.142zm210.558 17.711h72.803l-67.906 67.906h-72.803zm188.032 0h72.803l-67.906 67.906h-72.803zm26.11 67.906 28.65-28.65 28.65-28.649v57.3h-57.3z"/><path d="m175.944 384.288c4.142 0 7.5-3.357 7.5-7.499.002-5.864 4.746-10.611 10.613-10.611h.002c5.852.001 10.612 4.763 10.611 10.615-.001 4.142 3.356 7.501 7.499 7.501h.001c4.142 0 7.499-3.357 7.5-7.499.004-22.677-27.627-34.207-43.721-18.119-4.838 4.837-7.504 11.269-7.505 18.11 0 4.143 3.357 7.502 7.5 7.502z"/><path d="m337.856 384.317c4.142 0 7.5-3.357 7.5-7.499.002-5.864 4.746-10.611 10.613-10.611h.002c5.852.001 10.612 4.763 10.611 10.615-.001 4.142 3.356 7.501 7.499 7.501h.001c4.142 0 7.499-3.357 7.5-7.499.002-14.123-11.485-25.615-25.608-25.618-.002 0-.003 0-.005 0-14.152 0-25.61 11.451-25.613 25.608 0 4.144 3.357 7.503 7.5 7.503z"/><path d="m275.007 414.23h.006c9.529 0 18.591-4.126 24.864-11.322 2.722-3.122 2.397-7.86-.725-10.582-3.123-2.723-7.86-2.398-10.582.725-3.424 3.927-8.364 6.178-13.557 6.178-.001 0-.002 0-.003 0-5.194-.001-10.136-2.255-13.559-6.183-2.721-3.124-7.458-3.45-10.581-.729s-3.45 7.458-.729 10.582c6.271 7.199 15.335 11.329 24.866 11.331z"/></g></g></svg>