<?xml version="1.0" encoding="iso-8859-1"?>
<!-- Generator: Adobe Illustrator 19.0.0, SVG Export Plug-In . SVG Version: 6.00 Build 0)  -->
<svg version="1.1" id="Layer_1" xmlns="http://www.w3.org/2000/svg" xmlns:xlink="http://www.w3.org/1999/xlink" x="0px" y="0px"
	 viewBox="0 0 512 512" style="enable-background:new 0 0 512 512;" xml:space="preserve">
<path style="fill:#F4F4F4;" d="M503.467,256c0,136.67-110.797,247.467-247.467,247.467c-7.168,0-14.336,0-21.333-1.024
	C98.56,490.018-1.707,369.621,10.709,233.515C21.564,114.611,115.763,20.412,234.667,9.557c6.997-1.024,14.165-1.024,21.333-1.024
	C392.67,8.533,503.467,119.33,503.467,256z"/>
<path style="fill:#FFFFFF;" d="M460.8,256c-0.094,128.333-98.278,235.298-226.133,246.357
	C98.56,489.933-1.707,369.536,10.709,233.429C21.564,114.526,115.763,20.326,234.667,9.472C362.581,20.54,460.792,127.607,460.8,256
	z"/>
<path style="fill:#B71C1C;" d="M409.6,221.867c0.017,10.283-2.108,20.446-6.229,29.867L401.067,256L262.571,406.187
	c-3.43,3.627-9.156,3.789-12.783,0.358c-0.119-0.111-0.239-0.23-0.358-0.358l-10.496-11.435L110.933,256l-2.56-4.267
	c-12.459-28.86-5.649-62.421,17.067-84.139c7.202-7.083,15.727-12.681,25.088-16.469c4.42-1.818,8.986-3.243,13.653-4.267
	c15.991-3.413,32.649-1.929,47.787,4.267c9.361,3.789,17.886,9.387,25.088,16.469l1.707,1.792
	c7.049,7.799,12.809,16.674,17.067,26.283c4.557-10.394,10.914-19.891,18.773-28.075c7.202-7.083,15.727-12.681,25.088-16.469
	c9.745-4.011,20.181-6.076,30.72-6.059c10.539-0.034,20.983,2.022,30.72,6.059c9.361,3.789,17.886,9.387,25.088,16.469
	C401.075,181.743,409.523,201.344,409.6,221.867z"/>
<path style="fill:#D50000;" d="M375.467,221.867c0.017,10.283-2.108,20.446-6.229,29.867L366.933,256l-128,138.752L110.933,256
	l-2.56-4.267c-12.459-28.86-5.649-62.421,17.067-84.139c7.202-7.083,15.727-12.681,25.088-16.469
	c4.42-1.818,8.986-3.243,13.653-4.267c4.668,1.007,9.242,2.441,13.653,4.267c9.045,4.369,17.476,9.907,25.088,16.469
	c12.885,11.52,24.917,23.953,36.011,37.205c10.325,1.451,13.483-0.683,17.067-9.131c6.656,7.083-3.584-8.533,0,0
	c4.557-10.394,10.914-19.891,18.773-28.075c7.202-7.083,15.727-12.681,25.088-16.469c4.446-1.826,9.037-3.26,13.739-4.267
	c4.642,1.024,9.182,2.449,13.568,4.267c9.361,3.789,17.886,9.387,25.088,16.469C367.053,181.777,375.433,201.37,375.467,221.867z"/>
<path d="M256,512C114.611,512,0,397.389,0,256S114.611,0,256,0s256,114.611,256,256S397.389,512,256,512z M256,17.067
	C124.041,17.067,17.067,124.041,17.067,256S124.041,494.933,256,494.933S494.933,387.96,494.933,256S387.96,17.067,256,17.067z"/>
<path d="M256,417.536c-4.873,0.034-9.532-2.014-12.8-5.632L104.875,261.717c-0.393-0.444-0.734-0.93-1.024-1.451l-2.56-4.267
	l-0.427-0.939c-13.969-32.154-6.443-69.606,18.859-93.867c7.996-7.825,17.442-13.995,27.819-18.176
	c21.871-8.969,46.396-8.969,68.267,0c10.385,4.198,19.831,10.411,27.819,18.261c4.881,4.89,9.173,10.334,12.8,16.213
	c3.652-5.914,7.979-11.375,12.885-16.299c7.996-7.825,17.442-13.995,27.819-18.176c21.871-8.969,46.396-8.969,68.267,0
	c10.155,4.335,19.371,10.59,27.136,18.432c8.021,7.689,14.404,16.922,18.773,27.136c9.259,21.222,9.259,45.338,0,66.56l-0.427,0.939
	l-2.56,4.267c-0.29,0.521-0.631,1.007-1.024,1.451L268.8,411.904C265.532,415.522,260.873,417.57,256,417.536z M118.016,250.795
	L256,400.384l138.24-149.589l1.792-3.072c7.202-16.725,7.202-35.669,0-52.395c-3.49-8.166-8.602-15.539-15.019-21.675
	c-6.485-6.349-14.174-11.341-22.613-14.677c-17.613-7.202-37.342-7.202-54.955,0c-8.38,3.362-16.009,8.346-22.443,14.677
	c-7.159,7.458-12.937,16.119-17.067,25.6c-1.843,4.335-6.861,6.357-11.196,4.506c-2.031-0.862-3.644-2.475-4.506-4.506
	c-4.13-9.481-9.907-18.142-17.067-25.6c-6.409-6.315-14.012-11.307-22.357-14.677c-17.613-7.211-37.342-7.211-54.955,0
	c-8.38,3.362-16.009,8.346-22.443,14.677c-6.451,6.127-11.588,13.5-15.104,21.675c-7.228,16.751-7.228,35.729,0,52.48
	L118.016,250.795z"/>
<g>
</g>
<g>
</g>
<g>
</g>
<g>
</g>
<g>
</g>
<g>
</g>
<g>
</g>
<g>
</g>
<g>
</g>
<g>
</g>
<g>
</g>
<g>
</g>
<g>
</g>
<g>
</g>
<g>
</g>
</svg>
