<svg xmlns="http://www.w3.org/2000/svg" width="1249.885" height="1249.885"><defs><style>.a{fill:#e82426}.b{fill:#248a45}.c{fill:#f4b319}.d{fill:#ea67a2}.e{fill:#fff}</style></defs><path d="M209.615 492.234l5.017-15.442-179.69-58.384q-5.506 15.727-10.183 31.831l179.546 58.337zm833.574 2.731c5.26 16.317 15.16 20.464 41.662 11.92l70.747-22.81c26.501-8.544 32.115-17.692 26.854-34.009l-2.616-8.115-2.06-6.389-139.263 44.9 2.06 6.388zM628.53 458.44c13.63 0 18.768-6.774 18.768-32.758V.402Q636.167.01 624.942 0q-7.939 0-15.83.198v425.484c0 25.984 5.139 32.758 19.417 32.758zm192.287 106.219c5.845 18.129 16.33 24.088 44.77 14.918l95.936-30.93c28.44-9.17 33.47-20.13 27.625-38.259l-2.032-6.303-2.06-6.388-168.33 54.27 2.06 6.388z"/><path d="M1233.34 481.528c-1.63 33.36-25.727 56.49-63.47 68.66l-73.042 23.549a59.195 59.195 0 0 1-65.037-28.662l-.953.19a58.065 58.065 0 0 1-1.798 19.434c-10.611 39.245-60.457 52.758-66.077 54.198l-73.042 23.549c-54.943 17.714-104.556 7.692-121.897-46.091l-29.03-90.041 452.336-145.836C1104.307 174.426 928.308 38.321 718.092 6.905v415.273c0 67.125-47.378 96.613-90.212 96.613-42.185 0-89.562-29.488-89.562-96.613V5.96C329.235 34.952 153.228 167.386 63.625 349.917l443.775 144.19-22.868 70.38-4.611-1.497-202.533-65.807-5.018 15.442-5.31 16.342 202.533 65.807 4.612 1.498-22.568 69.456L8.483 521.74A629.237 629.237 0 0 0 0 624.942c0 194.135 88.52 367.595 227.4 482.219l239.692-327.94-49.644-36.284 38.592-52.8 6.109 4.466 149.229 109.072-38.592 52.799-49.11-35.895-239.81 328.098a625.3 625.3 0 0 0 688.607-4.268L635.949 804.378l60.097-43.046s173.819 188.56 207.187 225.566l1.134-.813C872.845 934.892 759.545 715.85 759.545 715.85l60.097-43.046 211.026 427.471c134.16-114.623 219.217-285.042 219.217-475.333a626.712 626.712 0 0 0-16.544-143.414z"/><path class="a" d="M572.786 856.474l38.592-52.8-149.23-109.071-6.108-4.465-38.592 52.799 49.644 36.285L227.4 1107.16a627.09 627.09 0 0 0 56.466 41.516l239.81-328.098z"/><path class="b" d="M759.545 715.85s113.3 219.041 144.822 270.235l-1.134.813c-33.368-37.005-207.187-225.566-207.187-225.566l-60.097 43.046 336.524 340.03a627.384 627.384 0 0 0 58.195-44.133l-211.026-427.47z"/><path class="c" d="M768.024 596.355c17.34 53.783 66.954 63.805 121.897 46.09l73.042-23.548c5.62-1.44 55.466-14.953 66.077-54.198a58.065 58.065 0 0 0 1.798-19.433l.953-.191a59.195 59.195 0 0 0 65.037 28.662l73.042-23.55c37.743-12.168 61.84-35.299 63.47-68.659a620.325 620.325 0 0 0-42.01-121.05L738.995 506.314zm409.753-160.793l2.06 6.389 2.615 8.115c5.261 16.317-.353 25.465-26.854 34.009l-70.747 22.81c-26.502 8.544-36.401 4.397-41.662-11.92l-2.616-8.115-2.06-6.389zm-192.722 62.135l2.06 6.388 2.032 6.303c5.845 18.13.816 29.09-27.625 38.26l-95.935 30.93c-28.441 9.169-38.926 3.21-44.77-14.92l-2.033-6.303-2.059-6.388z"/><path class="d" d="M627.88 518.791c42.834 0 90.212-29.488 90.212-96.613V6.905A628.194 628.194 0 0 0 647.297.4v425.28c0 25.985-5.139 32.759-18.768 32.759-14.278 0-19.417-6.774-19.417-32.758V.198a629.137 629.137 0 0 0-70.794 5.762v416.218c0 67.125 47.377 96.613 89.562 96.613z"/><path class="e" d="M474.206 596.272l-4.612-1.498-202.532-65.807 5.31-16.342 5.017-15.442 202.533 65.807 4.611 1.498 22.868-70.381-443.775-144.19a621.022 621.022 0 0 0-28.685 68.49l179.691 58.385-5.017 15.442-5.31 16.342L24.76 450.24a621.003 621.003 0 0 0-16.276 71.5l443.155 143.99z"/></svg>