<?xml version="1.0" encoding="iso-8859-1"?>
<!-- Generator: Adobe Illustrator 19.0.0, SVG Export Plug-In . SVG Version: 6.00 Build 0)  -->
<svg version="1.1" id="Layer_1" xmlns="http://www.w3.org/2000/svg" xmlns:xlink="http://www.w3.org/1999/xlink" x="0px" y="0px"
	 viewBox="0 0 511.999 511.999" style="enable-background:new 0 0 511.999 511.999;" xml:space="preserve">
<g>
	<path style="fill:#ABB8B9;" d="M440.622,277.855c-116.424-25.684-145.007-117.242-151.5-182.264l-33.121-21.333l-33.125,21.333
		c-6.49,65.022-35.076,156.58-151.5,182.263c39.107,39.104,62.963,85.902,66.753,159.476h235.739
		C377.66,363.757,401.516,316.958,440.622,277.855z"/>
	<path style="fill:#ED8C18;" d="M256.001,74.258l33.121,21.333c-2.953-29.61-1.327-53.715-1.327-63.592h-63.592
		c0,9.876,1.629,33.982-1.327,63.592L256.001,74.258z"/>
	<g>
		<path style="fill:#D12D4E;" d="M71.376,277.855c116.424-25.684,145.01-117.242,151.5-182.264
			c2.956-29.61,1.327-53.715,1.327-63.592h-51.267h-49.833h-53.25H10.667v223.999l23.527,8.47l20.522,7.389L71.376,277.855z"/>
		<path style="fill:#D12D4E;" d="M53.333,458.666c0,0.163,0,0.325,0.004,0.486C53.342,458.991,53.344,458.828,53.333,458.666
			L53.333,458.666z M95.999,458.666c0,11.782-9.551,21.335-21.333,21.335c-11.62,0-21.068-9.29-21.329-20.849
			c-0.269,11.558-9.717,20.849-21.339,20.849c-11.78,0-21.331-9.553-21.331-21.335V255.998l23.527,8.47l20.522,7.389l16.659,5.996
			c39.107,39.104,62.963,85.902,66.753,159.476c0.356,6.873,0.533,13.98,0.533,21.334c0.002,11.782-9.548,21.335-21.333,21.335
			C105.549,480.001,95.999,470.447,95.999,458.666z"/>
		<path style="fill:#D12D4E;" d="M440.622,277.855C324.198,252.171,295.614,160.613,289.124,95.591
			c-2.955-29.61-1.329-53.715-1.329-63.592h51.267h49.833h53.252h59.185v223.999l-23.529,8.47l-20.518,7.389L440.622,277.855z"/>
		<path style="fill:#D12D4E;" d="M458.667,458.666c0,0.163-0.002,0.325-0.006,0.486
			C458.658,458.991,458.654,458.828,458.667,458.666L458.667,458.666z M416.001,458.666c0,11.782,9.551,21.335,21.333,21.335
			c11.62,0,21.068-9.29,21.326-20.849c0.269,11.558,9.719,20.849,21.339,20.849c11.782,0,21.333-9.553,21.333-21.335V255.998
			l-23.529,8.47l-20.518,7.389l-16.664,5.996c-39.105,39.104-62.961,85.902-66.753,159.476c-0.354,6.873-0.531,13.98-0.531,21.334
			c-0.002,11.782,9.548,21.335,21.331,21.335S416.001,470.447,416.001,458.666z"/>
	</g>
</g>
<g>
	<path style="fill:#000003;" d="M90.044,205.482c1.583,0.832,3.281,1.227,4.955,1.227c3.836,0,7.542-2.075,9.452-5.706l0.282-0.541
		c2.744-5.213,0.741-11.664-4.471-14.408c-5.213-2.744-11.666-0.742-14.41,4.472l-0.286,0.549
		C82.826,196.291,84.829,202.741,90.044,205.482z"/>
	<path style="fill:#000003;" d="M501.333,21.332H287.795h-63.592H10.667C4.776,21.332,0,26.108,0,31.999v426.665
		c0,17.646,14.353,32.002,31.998,32.002c8.19,0,15.668-3.096,21.335-8.174c5.664,5.079,13.142,8.174,21.333,8.174
		c8.188,0,15.666-3.096,21.333-8.174c5.665,5.079,13.142,8.174,21.331,8.174c17.647,0,32.002-14.356,32.002-32.002
		c0-0.017-0.002-0.033-0.002-0.05c0-3.593-0.059-7.12-0.142-10.617h213.623c-0.083,3.497-0.142,7.025-0.142,10.617
		c0,0.017-0.002,0.033-0.002,0.05c0,17.646,14.355,32.002,32,32.002c8.188,0,15.666-3.096,21.333-8.174
		c5.664,5.079,13.142,8.174,21.333,8.174c8.19,0,15.668-3.096,21.333-8.174c5.665,5.079,13.142,8.174,21.333,8.174
		c17.645,0,32-14.356,32-32.002V31.999C512,26.108,507.222,21.332,501.333,21.332z M261.776,65.29
		c-0.075-0.049-0.156-0.086-0.231-0.133c-0.194-0.117-0.387-0.233-0.588-0.337c-0.14-0.074-0.279-0.138-0.421-0.205
		c-0.164-0.078-0.332-0.156-0.5-0.224c-0.175-0.071-0.35-0.134-0.527-0.196c-0.142-0.049-0.284-0.098-0.427-0.142
		c-0.196-0.06-0.394-0.111-0.594-0.158c-0.131-0.032-0.265-0.064-0.398-0.09c-0.202-0.041-0.404-0.073-0.606-0.101
		c-0.142-0.02-0.284-0.038-0.427-0.053c-0.188-0.018-0.378-0.031-0.564-0.039c-0.164-0.007-0.328-0.013-0.49-0.013
		c-0.166,0-0.334,0.004-0.5,0.013c-0.186,0.009-0.371,0.021-0.556,0.039c-0.146,0.015-0.291,0.033-0.435,0.053
		c-0.201,0.028-0.398,0.061-0.596,0.099c-0.138,0.028-0.273,0.06-0.411,0.093c-0.196,0.047-0.389,0.097-0.584,0.156
		c-0.146,0.045-0.291,0.094-0.435,0.145c-0.175,0.061-0.348,0.123-0.518,0.193c-0.173,0.07-0.341,0.149-0.511,0.228
		c-0.138,0.065-0.275,0.128-0.411,0.199c-0.205,0.107-0.4,0.223-0.596,0.342c-0.075,0.046-0.153,0.083-0.227,0.13l-15.269,9.834
		c0.542-13.14,0.35-24.321,0.146-32.458h41.799c-0.204,8.137-0.396,19.317,0.146,32.457L261.776,65.29z M112.569,42.667
		c0.244,28.394-0.662,76.483-15.182,120.167c-1.856,5.591,1.169,11.63,6.759,13.488c1.117,0.371,2.252,0.547,3.367,0.547
		c4.469,0,8.634-2.832,10.121-7.306c15.553-46.804,16.524-97.231,16.272-126.896h28.55c0.332,25.763-0.387,68.656-12.613,110.876
		c-16.397,56.62-48.299,92.619-94.834,107.081l-22.787-8.203c31.566-32.819,47.784-103.163,48.296-209.754H112.569z
		 M170.336,159.478c12.93-44.651,13.759-90.721,13.453-116.811h29.969c0.317,12.277,0.629,30.019-1.209,50.293
		c-0.275,1.077-0.387,2.194-0.317,3.312c-5.332,52.684-25.654,120.993-97.433,155.619
		C140.188,230.231,158.79,199.352,170.336,159.478z M299.448,92.962c-1.838-20.274-1.525-38.017-1.211-50.294h29.971
		c-0.306,26.089,0.525,72.17,13.459,116.824c11.549,39.87,30.148,70.745,55.536,92.403
		c-71.785-34.627-92.107-102.939-97.439-155.626C299.835,95.152,299.723,94.038,299.448,92.962z M378.112,42.667
		c-0.133,24.929,0.767,70.448,10.878,113.883c10.263,44.093,27.6,76.832,51.711,97.856c-37.751-17.29-64.132-51.109-78.539-100.85
		c-12.23-42.223-12.951-85.126-12.62-110.889C349.542,42.667,378.112,42.667,378.112,42.667z M478.037,253.048
		c-52.308-22.48-78.712-93.2-78.556-210.38h32c0.514,106.591,16.733,176.935,48.295,209.754L478.037,253.048z M490.665,232.424
		c-13.284-16.895-23.435-44.404-29.777-81.165c-5.233-30.331-7.88-65.953-8.071-108.593h37.848V232.424z M59.182,42.667
		c-0.19,42.638-2.835,78.26-8.069,108.593c-6.344,36.76-16.495,64.269-29.777,81.165V42.667H59.182z M31.998,469.333
		c-5.88,0-10.663-4.785-10.663-10.667V297.395c14.501,37.082,21.674,89.465,21.357,156.494c-0.009,1.719-0.015,3.241-0.017,4.565
		c0,0.071-0.011,0.14-0.011,0.211C42.666,464.548,37.88,469.333,31.998,469.333z M74.666,469.333
		c-5.846,0-10.603-4.73-10.659-10.564c0-0.035,0.004-0.068,0.004-0.103c0-1.341,0.009-2.906,0.017-4.674
		c0.138-29.017,0.494-105.746-23.16-165.232c7.486,10.317,14.113,22.146,19.803,35.37c22.256,51.733,24.66,111.32,24.66,134.536
		C85.331,464.548,80.546,469.333,74.666,469.333z M117.33,469.333c-5.88,0-10.663-4.785-10.663-10.667
		c0-24.538-2.573-87.591-26.396-142.968c-4.429-10.292-9.397-19.859-14.869-28.656l0.059,0.021
		c43.798,44.588,62.536,96.064,62.536,171.604c0,0.006,0.002,0.014,0.002,0.02C127.985,464.558,123.205,469.333,117.33,469.333z
		 M148.118,426.663c-2.315-29.426-7.976-55.34-17.138-78.57c-9.19-23.296-22.2-44.504-39.557-64.411
		c30.721-9.176,56.931-23.742,78.102-43.433c20.952-19.49,37.159-44.173,48.166-73.365c8.376-22.207,12.855-44.764,15.199-65.054
		l23.112-14.883l23.108,14.883c2.344,20.29,6.825,42.846,15.199,65.052c11.007,29.193,27.215,53.876,48.168,73.366
		c21.169,19.69,47.376,34.258,78.1,43.433c-17.358,19.908-30.367,41.116-39.555,64.411c-9.163,23.23-14.824,49.144-17.138,78.57
		H148.118z M437.334,469.333c-5.882,0-10.665-4.785-10.665-10.667c0-16.121,1.139-48.43,8.772-83.693
		c1.246-5.758-2.411-11.437-8.169-12.684c-5.755-1.245-11.437,2.411-12.683,8.169c-8.053,37.204-9.255,71.233-9.255,88.207
		c0,5.882-4.785,10.667-10.665,10.667c-5.876,0-10.653-4.775-10.665-10.647c0-0.006,0.002-0.014,0.002-0.02
		c0-75.54,18.736-127.017,62.534-171.604l14.119-5.083c0.006-0.002,0.013-0.004,0.017-0.006l15.927-5.733
		c-29.18,60.744-28.78,146.653-28.632,177.753c0.009,1.769,0.017,3.332,0.017,4.672c0,0.046,0.006,0.09,0.006,0.134
		C447.919,464.619,443.169,469.333,437.334,469.333z M480,469.333c-5.882,0-10.665-4.785-10.665-10.667
		c0-0.093-0.011-0.182-0.013-0.274c-0.002-1.309-0.009-2.808-0.017-4.499c-0.317-67.03,6.859-119.414,21.36-156.497v161.27
		C490.665,464.548,485.88,469.333,480,469.333z"/>
	<path style="fill:#000003;" d="M436.688,331.467c-5.598-1.831-11.623,1.224-13.453,6.824l-0.208,0.639
		c-1.794,5.612,1.303,11.615,6.913,13.408c1.08,0.346,2.173,0.509,3.25,0.509c4.516,0,8.711-2.891,10.159-7.422l0.164-0.502
		C445.343,339.322,442.288,333.298,436.688,331.467z"/>
</g>
<g>
</g>
<g>
</g>
<g>
</g>
<g>
</g>
<g>
</g>
<g>
</g>
<g>
</g>
<g>
</g>
<g>
</g>
<g>
</g>
<g>
</g>
<g>
</g>
<g>
</g>
<g>
</g>
<g>
</g>
</svg>
