<svg id="Layer_1" enable-background="new 0 0 256 256" height="512" viewBox="0 0 256 256" width="512" xmlns="http://www.w3.org/2000/svg"><path d="m142.523 252c-1.999 0-3.953-.995-5.098-2.81l-40.744-64.648-40.743 64.648c-1.773 2.812-5.487 3.655-8.301 1.883-2.812-1.772-3.655-5.488-1.883-8.301l45.835-72.727c1.103-1.749 3.025-2.809 5.092-2.809s3.989 1.061 5.092 2.809l45.835 72.727c1.772 2.812.929 6.528-1.883 8.301-.995.627-2.105.926-3.202.927z" fill="#ff4397"/><path d="m142.524 254c-.001 0-.001 0 0 0-2.775 0-5.313-1.4-6.791-3.744l-39.052-61.963-39.051 61.963c-2.357 3.74-7.318 4.864-11.059 2.509-3.74-2.358-4.866-7.319-2.509-11.059l45.836-72.727c1.478-2.344 4.014-3.743 6.784-3.743s5.306 1.399 6.784 3.743l45.835 72.727c2.357 3.741 1.231 8.702-2.508 11.059-1.282.807-2.758 1.235-4.269 1.235zm-45.842-71.458c.687 0 1.326.353 1.692.934l40.744 64.648c.741 1.175 2.014 1.877 3.405 1.877.756 0 1.495-.215 2.137-.62 1.875-1.182 2.438-3.668 1.257-5.543l-45.835-72.726c-.741-1.174-2.012-1.876-3.4-1.876s-2.659.702-3.4 1.876l-45.835 72.726c-1.181 1.875-.617 4.361 1.257 5.542 1.875 1.181 4.362.616 5.542-1.258l40.744-64.647c.366-.581 1.005-.933 1.692-.933z" fill="#690589"/><ellipse cx="136.866" cy="44.184" fill="#fcc24c" rx="40.184" ry="40.184" transform="matrix(.924 -.383 .383 .924 -6.49 55.74)"/><path d="m158.309 206.891h-123.255c-9.066 0-16.416-7.35-16.416-16.416v-89.691c0-9.066 7.349-16.416 16.416-16.416h123.255c9.066 0 16.415 7.35 16.415 16.416v89.691c.001 9.066-7.348 16.416-16.415 16.416z" fill="#f4efed"/><path d="m239.686 201.218-64.961-32.831v-45.515l64.961-32.831z" fill="#f4efed"/><path d="m158.309 84.368h-9.872c9.066 0 16.415 7.349 16.415 16.416v89.691c0 9.066-7.349 16.415-16.415 16.415h9.872c9.066 0 16.415-7.35 16.415-16.415v-89.691c.001-9.066-7.348-16.416-16.415-16.416z" fill="#d6d1cf"/><path d="m35.054 206.891h9.872c-9.066 0-16.416-7.35-16.416-16.415v-89.691c0-9.066 7.35-16.416 16.416-16.416h-9.872c-9.066 0-16.416 7.349-16.416 16.416v89.691c.001 9.065 7.35 16.415 16.416 16.415z" fill="#fff"/><ellipse cx="56.498" cy="44.184" fill="#fcc24c" rx="40.184" ry="40.184" transform="matrix(.062 -.998 .998 .062 8.888 97.827)"/><path d="m136.866 4c-1.354 0-2.692.069-4.012.2 20.309 2.014 36.172 19.145 36.172 39.984s-15.863 37.971-36.172 39.984c1.32.131 2.658.2 4.012.2 22.193 0 40.184-17.991 40.184-40.184s-17.991-40.184-40.184-40.184z" fill="#dea42e"/><path d="m56.498 84.368c1.354 0 2.692-.069 4.012-.2-20.309-2.014-36.172-19.145-36.172-39.984s15.863-37.97 36.172-39.984c-1.32-.131-2.658-.2-4.012-.2-22.193 0-40.184 17.991-40.184 40.184s17.991 40.184 40.184 40.184z" fill="#fce06a"/><circle cx="56.498" cy="44.184" fill="#7bac51" r="13.88"/><circle cx="136.866" cy="44.184" fill="#7bac51" r="13.88"/><path d="m229.815 95.03v101.199l9.871 4.989v-111.177z" fill="#d6d1cf"/><g fill="#690589"><path d="m158.31 208.891h-123.256c-10.154 0-18.416-8.261-18.416-18.416v-89.691c0-10.155 8.261-18.416 18.416-18.416h123.256c10.154 0 18.416 8.261 18.416 18.416v89.691c-.001 10.154-8.262 18.416-18.416 18.416zm-123.256-122.523c-7.949 0-14.416 6.467-14.416 14.416v89.691c0 7.949 6.467 14.416 14.416 14.416h123.256c7.949 0 14.416-6.467 14.416-14.416v-89.691c0-7.949-6.467-14.416-14.416-14.416z"/><path d="m26.536 123.383c-1.104 0-2-.896-2-2v-11.846c0-1.104.896-2 2-2s2 .896 2 2v11.846c0 1.105-.895 2-2 2z"/><path d="m239.687 203.218c-.309 0-.618-.071-.902-.215l-64.961-32.831c-.673-.34-1.098-1.031-1.098-1.785v-45.515c0-.754.424-1.445 1.098-1.785l64.961-32.831c.621-.313 1.358-.282 1.95.082s.952 1.009.952 1.704v111.177c0 .695-.36 1.34-.952 1.704-.321.195-.684.295-1.048.295zm-62.962-36.061 60.961 30.81v-104.675l-60.961 30.81z"/><path d="m56.498 86.368c-23.26 0-42.184-18.924-42.184-42.184s18.923-42.184 42.184-42.184 42.184 18.924 42.184 42.184-18.924 42.184-42.184 42.184zm0-80.368c-21.055 0-38.185 17.129-38.185 38.184s17.129 38.184 38.184 38.184 38.184-17.129 38.184-38.184-17.129-38.184-38.183-38.184z"/><path d="m56.498 60.064c-8.756 0-15.88-7.124-15.88-15.88s7.124-15.88 15.88-15.88 15.88 7.124 15.88 15.88-7.124 15.88-15.88 15.88zm0-27.76c-6.551 0-11.88 5.329-11.88 11.88s5.33 11.88 11.88 11.88 11.88-5.33 11.88-11.88-5.33-11.88-11.88-11.88z"/><path d="m136.866 60.064c-8.756 0-15.88-7.124-15.88-15.88s7.124-15.88 15.88-15.88 15.88 7.124 15.88 15.88-7.123 15.88-15.88 15.88zm0-27.76c-6.551 0-11.88 5.329-11.88 11.88s5.33 11.88 11.88 11.88 11.88-5.33 11.88-11.88-5.329-11.88-11.88-11.88z"/><path d="m136.866 86.368c-23.261 0-42.185-18.924-42.185-42.184s18.924-42.184 42.185-42.184c23.26 0 42.184 18.924 42.184 42.184s-18.924 42.184-42.184 42.184zm0-80.368c-21.055 0-38.185 17.129-38.185 38.184s17.129 38.184 38.185 38.184c21.055 0 38.184-17.129 38.184-38.184s-17.129-38.184-38.184-38.184z"/></g><path d="m114.29 164.175h-35.217c-10.242 0-18.545-8.303-18.545-18.545 0-10.242 8.303-18.545 18.545-18.545h35.217c10.242 0 18.545 8.303 18.545 18.545 0 10.242-8.302 18.545-18.545 18.545z" fill="#fcc24c"/><path d="m114.29 127.084h-7.022c10.242 0 18.545 8.303 18.545 18.545s-8.303 18.545-18.545 18.545h7.022c10.242 0 18.545-8.303 18.545-18.545s-8.302-18.545-18.545-18.545z" fill="#dea42e"/><path d="m79.073 164.175h7.022c-10.242 0-18.545-8.303-18.545-18.545s8.303-18.545 18.545-18.545h-7.022c-10.242 0-18.545 8.303-18.545 18.545s8.303 18.545 18.545 18.545z" fill="#fce06a"/><path d="m114.291 166.175h-35.218c-11.329 0-20.545-9.217-20.545-20.545s9.217-20.545 20.545-20.545h35.217c11.329 0 20.545 9.216 20.545 20.545s-9.216 20.545-20.544 20.545zm-35.218-37.091c-9.123 0-16.545 7.422-16.545 16.545s7.422 16.545 16.545 16.545h35.217c9.123 0 16.545-7.422 16.545-16.545s-7.422-16.545-16.545-16.545z" fill="#690589"/><path d="m96.682 164.811c-1.104 0-2-.896-2-2v-34.557c0-1.104.896-2 2-2s2 .896 2 2v34.557c0 1.105-.895 2-2 2z" fill="#690589"/></svg>