<svg height="512pt" viewBox="0 0 512 512.00506" width="512pt" xmlns="http://www.w3.org/2000/svg"><path d="m340.222656 55.894531c-.035156 26.140625-21.21875 47.324219-47.363281 47.359375-3.972656.015625-7.933594-.5-11.773437-1.535156-20.980469-5.304688-35.679688-24.183594-35.679688-45.824219 0-21.644531 14.699219-40.519531 35.679688-45.824219 3.839843-1.035156 7.800781-1.550781 11.773437-1.535156 12.5625 0 24.609375 4.988282 33.492187 13.871094 8.878907 8.878906 13.871094 20.925781 13.871094 33.488281zm0 0" fill="#cab596"/><path d="m316.667969 55.894531c-.035157 21.597657-14.667969 40.4375-35.582031 45.824219-20.980469-5.304688-35.679688-24.183594-35.679688-45.824219 0-21.644531 14.699219-40.519531 35.679688-45.824219 20.945312 5.335938 35.601562 24.207032 35.582031 45.824219zm0 0" fill="#ffe4be"/><path d="m173.222656 351.488281-13.3125 24.40625c-.996094 1.765625-2.140625 3.449219-3.410156 5.035157l-94.808594 111.871093c-6.949218 8.214844-17.753906 12.097657-28.347656 10.1875-10.589844-1.910156-19.355469-9.328125-22.996094-19.457031-3.640625-10.125-1.601562-21.425781 5.351563-29.644531l92.757812-109.566407 9.128907-16.726562zm0 0" fill="#ffe4be"/><path d="m344.488281 471.550781c.476563 7.980469-2.246093 15.824219-7.5625 21.796875-5.3125 5.96875-12.785156 9.582032-20.769531 10.035156-.59375.070313-1.191406.097657-1.792969.082032-2.359375.023437-4.710937-.265625-6.996093-.851563-12.933594-3.015625-22.324219-14.214843-23.039063-27.476562l-7.679687-128.9375-16.382813-8.195313 29.695313-29.695312 15.273437-15.1875.085937-.085938 13.992188 6.996094c9.605469 4.847656 15.910156 14.433594 16.554688 25.175781zm0 0" fill="#cab596"/><path d="m315.644531 480.085938c.503907 8.335937-2.5 16.5-8.277343 22.527343-12.933594-3.015625-22.324219-14.214843-23.039063-27.476562l-7.679687-128.9375-16.382813-8.195313 29.695313-29.695312.511718.257812c9.601563 4.847656 15.90625 14.433594 16.554688 25.171875zm0 0" fill="#ffe4be"/><path d="m159.398438 182.441406-14.589844.597656-72.875 80.898438c-4.109375 4.515625-9.9375 7.089844-16.042969 7.082031-8.484375.007813-16.179687-4.980469-19.632813-12.734375-3.449218-7.75-2.007812-16.808594 3.675782-23.105468l77.480468-86.101563c3.066407-3.332031 7.09375-5.628906 11.523438-6.570313l30.035156-6.402343.339844 1.539062v43.007813zm0 0" fill="#ffe4be"/><path d="m330.578125 164.863281-24.832031 33.023438-1.023438 1.367187-12.800781-8.960937-41.214844 75.519531 2.132813 1.023438c-68.011719 8.195312-93.527344-17.320313-93.527344-17.320313l-1.449219-.597656 20.054688-50.175781 6.910156-17.152344v-.171875l-6.742187.257812-6.652344.253907c-.230469-.054688-.476563-.023438-.683594.085937l-11.351562.425781-.085938-1.789062v-43.007813l-.339844-1.539062 81.410156-17.492188c14.371094 12.039063 32.453126 18.757813 51.199219 19.03125zm0 0" fill="#fddc42"/><path d="m443.902344 174.507812-94.804688 43.007813c-3.625 1.574219-7.597656 2.160156-11.523437 1.707031-3.464844-.414062-6.777344-1.671875-9.640625-3.671875l-23.210938-16.210937v-.085938l1.023438-1.367187 10.410156-13.824219 13.226562-17.578125 1.195313-1.621094 9.386719 6.570313 2.476562 1.792968 77.652344-35.242187 6.058594-2.730469c7.011718-3.171875 15.183594-2.359375 21.433594 2.128906 6.253906 4.484376 9.636718 11.96875 8.875 19.625-.761719 7.65625-5.546876 14.328126-12.558594 17.5zm0 0" fill="#cab596"/><path d="m416.679688 174.507812-74.582032 43.007813c-1.40625.804687-2.933594 1.378906-4.523437 1.707031-4.386719.683594-8.84375-.667968-12.117188-3.671875l-18.261719-16.210937v-.085938l.769532-1.367187 8.191406-13.824219 11.351562-19.199219 1.875 1.621094 7.511719 6.742187 3.070313-1.792968 2.476562 1.792968 77.652344-35.242187c2.300781 2.230469 4.027344 4.980469 5.035156 8.019531 3.988282 10.316406.519532 22.027344-8.449218 28.503906zm0 0" fill="#ffe4be"/><path d="m305.320312 293.035156-.085937.085938-44.96875 44.882812-40.195313-20.136718c-12.441406-6.25-27.597656-1.539063-34.300781 10.667968l-12.546875 22.953125-55.636718-23.894531 33.195312-60.839844h-.085938l7.167969-17.835937 1.449219.597656s25.515625 25.515625 93.527344 17.320313c.023437.023437.054687.039062.085937.039062s.0625-.015625.085938-.039062zm0 0" fill="#f85b44"/><path d="m503.464844 452.265625c.011718 17.179687-8.613282 33.214844-22.957032 42.667969-1.339843.933594-2.738281 1.789062-4.179687 2.558594-7.40625 3.949218-15.671875 6.003906-24.0625 5.972656-4.320313.03125-8.625-.515625-12.800781-1.621094-3.914063-1-7.695313-2.460938-11.265625-4.351562-1.441407-.769532-2.835938-1.625-4.179688-2.558594-14.332031-9.464844-22.953125-25.492188-22.953125-42.667969 0-17.171875 8.621094-33.199219 22.953125-42.664063 1.34375-.933593 2.738281-1.789062 4.179688-2.5625 3.570312-1.886718 7.351562-3.347656 11.265625-4.351562 4.175781-1.105469 8.480468-1.648438 12.800781-1.621094 8.390625-.027344 16.65625 2.023438 24.0625 5.972656 1.441406.773438 2.839844 1.628907 4.179687 2.5625 14.34375 9.453126 22.96875 25.488282 22.957032 42.664063zm0 0" fill="#728f9c"/><path d="m477.863281 452.265625c.015625 17.179687-8.613281 33.214844-22.953125 42.667969-1.34375.933594-2.738281 1.789062-4.183594 2.558594-3.570312 1.890624-7.351562 3.351562-11.261718 4.351562-3.914063-1-7.695313-2.460938-11.265625-4.351562-1.441407-.769532-2.835938-1.625-4.179688-2.558594-14.332031-9.464844-22.953125-25.492188-22.953125-42.667969 0-17.171875 8.621094-33.199219 22.953125-42.664063 1.34375-.933593 2.738281-1.789062 4.179688-2.5625 3.570312-1.886718 7.351562-3.347656 11.265625-4.351562 3.910156 1.003906 7.691406 2.464844 11.261718 4.351562 1.445313.773438 2.839844 1.628907 4.183594 2.5625 14.339844 9.453126 22.96875 25.488282 22.953125 42.664063zm0 0" fill="#d7dee2"/><path d="m330.578125 164.863281-24.832031 33.023438-1.023438 1.367187-12.800781-8.960937-41.214844 75.519531 2.132813 1.023438c-9.507813 1.183593-19.089844 1.699218-28.671875 1.539062l5.207031-10.242188 33.730469-61.804687c1.90625-3.492187 5.207031-6.003906 9.078125-6.914063 3.871094-.90625 7.949218-.121093 11.207031 2.160157l1.023437-1.367188 24.832032-33.023437-29.613282-20.648438c3.949219.671875 7.945313 1.042969 11.949219 1.109375zm0 0" fill="#ffc900"/><path d="m305.320312 293.035156-.085937.085938-15.445313 15.359375-78.847656-40.789063c13.957032 1.214844 28.003906.929688 41.898438-.855468.023437.023437.054687.039062.085937.039062s.0625-.015625.085938-.039062zm0 0" fill="#d13d34"/><path d="m292.835938 0c-30.855469.0234375-55.851563 25.050781-55.835938 55.90625.019531 30.851562 25.039062 55.855469 55.890625 55.847656 30.855469-.007812 55.863281-25.023437 55.863281-55.878906-.046875-30.855469-25.0625-55.8515625-55.917968-55.875zm0 94.71875c-21.425782-.023438-38.777344-17.402344-38.765626-38.824219.007813-21.425781 17.375-38.789062 38.800782-38.792969 21.421875-.003906 38.796875 17.351563 38.816406 38.773438-.015625 21.453125-17.402344 38.835938-38.851562 38.84375zm0 0"/><path d="m323.101562 292.4375-60.660156-30.3125 32.375-59.339844 28.21875 19.765625c8.707032 6.019531 19.921875 7.058594 29.585938 2.738281l94.8125-43.050781c15.125-6.859375 21.828125-24.683593 14.96875-39.808593s-24.683594-21.828126-39.808594-14.96875l-79.230469 35.953124-7.570312-5.292968-.09375-.101563c-.058594 0-.128907 0-.179688-.085937l-39.089843-27.304688c-.230469-.121094-.46875-.226562-.710938-.316406-.496094-.285156-1.023438-.511719-1.570312-.683594-.550782-.1875-1.125-.3125-1.707032-.375-.261718 0-.476562-.160156-.742187-.171875-16.78125-.289062-32.960938-6.3125-45.847657-17.066406-.136718-.109375-.308593-.136719-.445312-.238281-.496094-.339844-1.027344-.628906-1.585938-.851563-.441406-.230469-.90625-.417969-1.382812-.5625-.546875-.109375-1.097656-.167969-1.65625-.171875-.550781-.054687-1.105469-.054687-1.65625 0-.175781 0-.355469 0-.535156 0l-111.371094 23.925782c-6.214844 1.316406-11.859375 4.554687-16.125 9.261718l-77.527344 86.074219c-5.339844 5.925781-8.101562 13.734375-7.675781 21.703125.425781 7.964844 4.003906 15.433594 9.945313 20.757812 12.355468 11.085938 31.347656 10.074219 42.453124-2.261718l70.476563-78.242188 23.304687-.9375-29.3125 73.113282v.070312l-41.359374 75.800781-92.210938 108.894531c-6.644531 7.816407-9.902344 17.957032-9.050781 28.183594.847656 10.222656 5.738281 19.6875 13.582031 26.300782 16.292969 13.765624 40.65625 11.757812 54.476562-4.488282l94.789063-111.992187c1.65625-1.976563 3.125-4.109375 4.378906-6.367188l25.863281-47.324219c4.445313-8.214843 14.625-11.390624 22.953126-7.167968l52.207031 26.136718 7.375 124.007813c1.226562 20.425781 18.15625 36.363281 38.621093 36.359375.761719.019531 1.527344-.015625 2.285157-.101562 10.238281-.585938 19.820312-5.226563 26.632812-12.894532 6.808594-7.664062 10.285157-17.726562 9.660157-27.964844l-8.609376-146.3125c-.792968-13.789062-8.894531-26.105468-21.25-32.289062zm22.886719-111.472656 83.671875-37.964844c4.261719-2.0625 9.304688-1.644531 13.171875 1.089844 3.863281 2.730468 5.941407 7.347656 5.417969 12.054687-.523438 4.703125-3.5625 8.753907-7.933594 10.570313l-94.71875 43.027344c-4.183594 1.859374-9.035156 1.40625-12.800781-1.195313l-15.964844-11.179687 15.597657-20.777344 5.121093 3.601562c2.476563 1.734375 5.6875 2.03125 8.4375.773438zm-201.496093-6.484375c-2.289063.097656-4.441407 1.109375-5.972657 2.808593l-72.882812 80.878907c-4.855469 5.234375-12.976563 5.691406-18.390625 1.039062-2.566406-2.3125-4.101563-5.558593-4.265625-9.007812-.191407-3.425781.996093-6.78125 3.300781-9.320313l77.535156-86.074218c1.847656-2.035157 4.296875-3.433594 6.988282-3.996094l20.011718-4.265625v27.699219zm58.230468 14.730469c3.050782-.125 5.800782-1.863282 7.21875-4.5625 1.421875-2.703126 1.289063-5.957032-.339844-8.535157-1.628906-2.578125-4.511718-4.09375-7.5625-3.96875l-34.199218 1.371094v-30.640625l70.484375-15.089844c14.566406 11.003906 32.113281 17.355469 50.347656 18.230469l29.796875 20.800781-15.625 20.753906-6.066406-4.265624c-.136719-.09375-.296875-.109376-.441406-.195313-.148438-.085937-.214844-.222656-.359376-.308594-.378906-.144531-.765624-.261719-1.160156-.359375-.523437-.21875-1.066406-.386718-1.621094-.503906-.535156-.054688-1.074218-.054688-1.605468 0-.546875-.003906-1.09375.046875-1.628906.15625-.507813.140625-1.003907.328125-1.476563.5625-.519531.203125-1.011719.460938-1.476563.769531-.4375.339844-.839843.71875-1.203124 1.132813-.324219.261718-.625.546875-.90625.855468-.101563.144532-.109376.304688-.195313.449219s-.230469.214844-.308594.359375l-39.753906 72.890625c-45.175781 3.933594-68.550781-8.132812-76.332031-13.386719l22.460937-56.046874zm-52.769531 186.160156-94.78125 111.882812c-7.710937 9.097656-21.328125 10.242188-30.453125 2.558594-4.386719-3.6875-7.121094-8.972656-7.59375-14.683594-.476562-5.710937 1.34375-11.375 5.058594-15.738281l92.800781-109.523437c.375-.441407.703125-.917969.980469-1.425782l5.394531-9.890625 39.917969 17.066407-8.839844 16.214843c-.71875 1.253907-1.550781 2.4375-2.484375 3.539063zm28.332031-50.890625-8.789062 16.078125-39.929688-17.070313 28.699219-52.605469c.105469-.277343.195313-.5625.265625-.855468.152344-.273438.289062-.558594.40625-.851563l2.910156-7.269531c20.011719 10.910156 42.621094 16.160156 65.390625 15.1875 8.011719-.050781 16.011719-.53125 23.972657-1.441406l39.644531 19.8125-32.253907 32.222656-34.757812-17.398438c-16.527344-8.367187-36.707031-2.078124-45.558594 14.191407zm152.269532 163.183593c-3.785157 4.289063-9.136719 6.882813-14.851563 7.191407-.238281 0-1.082031.042969-1.320313.078125-11.421874-.011719-20.863281-8.902344-21.554687-20.300782l-7.679687-128.9375c-.1875-3.042968-1.976563-5.753906-4.703126-7.117187l-5.769531-2.894531 32.265625-32.238282 8.53125 4.265626c6.886719 3.445312 11.402344 10.3125 11.835938 17.996093l8.621094 146.355469c.371093 5.710938-1.566407 11.332031-5.375 15.601562zm0 0"/><path d="m452.265625 392.535156c-32.992187 0-59.734375 26.742188-59.734375 59.730469 0 32.992187 26.742188 59.734375 59.734375 59.734375 32.988281 0 59.730469-26.742188 59.730469-59.734375-.035156-32.972656-26.757813-59.695313-59.730469-59.730469zm0 102.398438c-23.566406 0-42.667969-19.101563-42.667969-42.667969 0-23.5625 19.101563-42.664063 42.667969-42.664063 23.5625 0 42.664063 19.101563 42.664063 42.664063-.027344 23.554687-19.113282 42.640625-42.664063 42.667969zm0 0"/></svg>