<svg height="512pt" viewBox="-9 0 511 512" width="512pt" xmlns="http://www.w3.org/2000/svg"><path d="m468.109375 469.859375c0 23.273437-18.867187 42.140625-42.140625 42.140625s-42.140625-18.867188-42.140625-42.140625 18.867187-42.140625 42.140625-42.140625 42.140625 18.867188 42.140625 42.140625zm0 0" fill="#b4d7dc"/><path d="m472.917969 294.234375-60.109375-32.726563v-21.226562h-107.699219v247.320312c0 13.472657 10.925781 24.398438 24.398437 24.398438 13.476563 0 24.402344-10.925781 24.402344-24.398438v-195.03125h14.691406c1.101563.875 65.332032 36 65.332032 36l-14.589844 76.097657c-2.535156 13.234375 6.136719 26.019531 19.371094 28.554687 13.230468 2.539063 26.019531-6.132812 28.554687-19.367187l17.945313-93.601563c2-10.425781-2.972656-20.945312-12.296875-26.019531zm0 0" fill="#80391b"/><path d="m489.675781 175.691406-35.984375-54.132812c-9.109375-14.722656-25.457031-23.84375-42.785156-23.84375-11.246094 0-93.910156 0-106.308594 0-26.8125 0-48.738281 21.476562-48.871094 47.875v.101562 149.378906c0 11.230469 9.105469 20.332032 20.335938 20.332032s20.332031-9.101563 20.332031-20.332032v-149.3125c.042969-3.863281 3.941407-7.378906 8.203125-7.378906h.511719v154.191406h107.699219v-41.152343c.078125.003906.15625.007812.234375.007812 4.199219 0 8.433593-1.296875 12.070312-3.984375l59.714844-44.144531c8.714844-6.441406 10.84375-18.582031 4.847656-27.605469zm-76.867187 30.273438v-67.371094c2.609375.53125 4.945312 2.121094 6.347656 4.4375.332031.550781 7.992188 12.050781 25.945312 39.0625zm0 0" fill="#80391b"/><path d="m453.691406 121.558594c-9.109375-14.722656-25.457031-23.84375-42.785156-23.84375h-22.382812c0 16.207031-13.140626 29.34375-29.347657 29.34375s-29.34375-13.136719-29.34375-29.34375h-25.234375c-26.8125 0-48.734375 21.476562-48.867187 47.875v48.890625s40.375.015625 40.664062.042969v-48.765626c.042969-3.863281 3.941407-7.378906 8.203125-7.378906h.511719v154.191406h107.699219v-153.976562c2.609375.53125 4.945312 2.121094 6.347656 4.4375.289062.480469 21.160156 31.867188 21.160156 31.867188l33.734375-22.710938zm0 0" fill="#64afff"/><path d="m401.316406 42.140625c0 23.273437-18.867187 42.140625-42.140625 42.140625-23.273437 0-42.140625-18.867188-42.140625-42.140625s18.867188-42.140625 42.140625-42.140625c23.273438 0 42.140625 18.867188 42.140625 42.140625zm0 0" fill="#80391b"/><path d="m450.84375 282.214844-38.035156-20.707032v-3.167968h-107.699219v105.359375h48.800781v-71.128907h14.691406c.769532.613282 57.367188 31.640626 57.367188 31.640626zm0 0" fill="#414b82"/><path d="m428.101562 194.660156-27.160156 20.082032c-9.03125 6.675781-10.941406 19.40625-4.265625 28.4375 3.988281 5.394531 10.136719 8.246093 16.367188 8.246093 4.199219 0 8.433593-1.296875 12.070312-3.984375l24.867188-18.382812zm0 0" fill="#80391b"/><path d="m334.523438 188.214844v-16.914063c0-10.980469 6.832031-15.066406 15.644531-15.066406 8.808593 0 15.703125 4.082031 15.703125 15.066406v16.914063c0 10.980468-6.894532 15.066406-15.703125 15.066406-8.8125 0-15.644531-4.085938-15.644531-15.066406zm21.386718-16.914063c0-4.40625-2.171875-6.386719-5.746094-6.386719-3.574218 0-5.679687 1.980469-5.679687 6.386719v16.914063c0 4.40625 2.105469 6.386718 5.679687 6.386718 3.574219 0 5.746094-1.980468 5.746094-6.386718zm0 0" fill="#fff"/><path d="m374.808594 167.339844-1.851563 1.148437c-.574219.386719-1.148437.511719-1.597656.511719-1.847656 0-3.125-1.976562-3.125-3.957031 0-1.339844.574219-2.617188 1.851563-3.382813l8.425781-5.109375c.511719-.316406 1.148437-.445312 1.851562-.445312 2.042969 0 4.40625 1.214843 4.40625 3.128906v40.601563c0 2.042968-2.492187 3.0625-4.980469 3.0625-2.492187 0-4.980468-1.019532-4.980468-3.0625zm0 0" fill="#fff"/><g fill="#ffb69e"><path d="m207.394531 145.589844c-.132812-26.398438-22.054687-47.875-48.867187-47.875-26.285156 0-90.972656 0-109.160156 0-26.8125 0-48.734376 21.476562-48.867188 47.875v.101562 149.378906c0 11.230469 9.105469 20.332032 20.332031 20.332032 11.230469 0 20.335938-9.101563 20.335938-20.332032v-149.3125c.042969-3.863281 3.941406-7.378906 8.199219-7.378906h.730468v154.191406h107.699219v-154.191406h.730469c4.261718 0 8.160156 3.515625 8.203125 7.378906v149.3125c0 11.230469 9.101562 20.332032 20.332031 20.332032s20.332031-9.101563 20.332031-20.332032v-149.378906c0-.03125 0-.066406 0-.101562zm0 0"/><path d="m133.394531 512c-13.476562 0-24.398437-10.925781-24.398437-24.398438v-195.03125c0-13.472656 10.921875-24.398437 24.398437-24.398437 13.476563 0 24.402344 10.921875 24.402344 24.398437v195.03125c0 13.472657-10.925781 24.398438-24.402344 24.398438zm0 0"/><path d="m74.5 511.984375c-13.476562 0-24.398438-10.925781-24.398438-24.402344l-.003906-195.011719c0-13.476562 10.925782-24.414062 24.402344-24.414062s24.398438 10.921875 24.398438 24.398438v195.027343c0 13.476563-10.921876 24.402344-24.398438 24.402344zm0 0"/></g><path d="m98.898438 364.359375v-71.789063h10.097656v71.789063h48.800781l.003906-107.691406h-107.703125v107.691406zm0 0" fill="#414b82"/><path d="m207.394531 145.589844c-.132812-26.398438-22.054687-47.875-48.867187-47.875h-24.929688c-.390625 15.820312-13.371094 28.570312-29.28125 28.570312-15.914062 0-28.894531-12.75-29.28125-28.570312h-25.667968c-26.8125 0-48.734376 21.476562-48.867188 47.875v.101562 48.796875h40.667969v-48.730469c.042969-3.863281 3.941406-7.378906 8.199219-7.378906h.730468v130.113282h107.699219c0-16.050782 0-113.980469 0-130.113282h.730469c4.261718 0 8.160156 3.515625 8.203125 7.378906v48.730469h40.664062v-48.796875c0-.03125 0-.066406 0-.101562zm0 0" fill="#64afff"/><path d="m70.660156 186.554688v-16.917969c0-10.980469 6.832032-15.066407 15.640625-15.066407 8.808594 0 15.707031 4.085938 15.707031 15.066407v16.917969c0 10.980468-6.894531 15.066406-15.707031 15.066406-8.808593 0-15.640625-4.085938-15.640625-15.066406zm21.386719-16.917969c0-4.40625-2.171875-6.382813-5.746094-6.382813s-5.679687 1.976563-5.679687 6.382813v16.917969c0 4.402343 2.105468 6.382812 5.679687 6.382812s5.746094-1.980469 5.746094-6.382812zm0 0" fill="#fff"/><path d="m126.90625 187.191406v-1.210937c0-4.277344-2.617188-5.109375-6.128906-5.109375-2.171875 0-2.871094-1.914063-2.871094-3.828125 0-1.917969.703125-3.832031 2.871094-3.832031 2.425781 0 4.980468-.320313 4.980468-5.488282 0-3.703125-2.109374-4.597656-4.722656-4.597656-3.128906 0-4.726562.765625-4.726562 3.257812 0 2.167969-.957032 3.636719-4.660156 3.636719-4.59375 0-5.167969-.957031-5.167969-4.023437 0-4.976563 3.574219-11.425782 14.554687-11.425782 8.105469 0 14.234375 2.9375 14.234375 11.554688 0 4.660156-1.722656 9-4.914062 10.46875 3.765625 1.40625 6.511719 4.214844 6.511719 9.386719v1.210937c0 10.46875-7.214844 14.429688-16.152344 14.429688-10.980469 0-15.195313-6.703125-15.195313-12.066406 0-2.875 1.214844-3.640626 4.722657-3.640626 4.085937 0 5.109374.894532 5.109374 3.320313 0 3 2.808594 3.703125 5.679688 3.703125 4.339844 0 5.875-1.59375 5.875-5.746094zm0 0" fill="#fff"/><path d="m146.085938 42.140625c0 23.273437-18.863282 42.140625-42.136719 42.140625-23.273438 0-42.140625-18.867188-42.140625-42.140625s18.867187-42.140625 42.140625-42.140625c23.273437 0 42.136719 18.867188 42.136719 42.140625zm0 0" fill="#ffb69e"/></svg>