<svg id="Layer_3" enable-background="new 0 0 64 64" height="512" viewBox="0 0 64 64" width="512" xmlns="http://www.w3.org/2000/svg"><g><g><path d="m62 52-4 10-4-10z" fill="#fadfb2"/></g><g><path d="m60.4 56h-4.8l2.4 6z" fill="#4e4a40"/></g><g><path d="m62 52h-8v-46c0-2.209 1.791-4 4-4 2.209 0 4 1.791 4 4z" fill="#e5f385"/></g><g><path d="m54 8h8v-2c0-2.209-1.791-4-4-4-2.209 0-4 1.791-4 4z" fill="#9d958c"/></g><g><path d="m4 8h40c2.209 0 4 1.791 4 4v46c0 2.209-1.791 4-4 4h-40z" fill="#243242"/></g><g><path d="m41.995 8h-37.995v45.661c2.35.525 4.791.81 7.299.81 18.43 0 33.37-14.94 33.37-33.37 0-4.65-.954-9.078-2.674-13.101z" fill="#4d5d7a"/></g><g><path d="m34 8h6v54h-6z" fill="#f0fec5"/></g><g><path d="m34 45.552c2.337-2.17 4.361-4.67 6-7.428v-30.124h-6z" fill="#ebf7fe"/></g><g><path d="m15 14h12v6h-12z" fill="#b4e05d"/></g><g><path d="m8 19h-4c-1.105 0-2-.895-2-2 0-1.105.895-2 2-2h4c1.105 0 2 .895 2 2 0 1.105-.895 2-2 2z" fill="#f5ba5b"/></g><g><path d="m8 29h-4c-1.105 0-2-.895-2-2 0-1.105.895-2 2-2h4c1.105 0 2 .895 2 2 0 1.105-.895 2-2 2z" fill="#f8cf6a"/></g><g><path d="m8 49h-4c-1.105 0-2-.895-2-2 0-1.105.895-2 2-2h4c1.105 0 2 .895 2 2 0 1.105-.895 2-2 2z" fill="#f8cf6a"/></g><g><path d="m8 39h-4c-1.105 0-2-.895-2-2 0-1.105.895-2 2-2h4c1.105 0 2 .895 2 2 0 1.105-.895 2-2 2z" fill="#f5ba5b"/></g><g><path d="m8 8v-6l4 2 4-2v6z" fill="#ed634a"/></g><g><path d="m44 63h-40c-.552 0-1-.447-1-1v-13h2v12h39c1.654 0 3-1.346 3-3v-46c0-1.654-1.346-3-3-3h-39v6h-2v-7c0-.553.448-1 1-1h40c2.757 0 5 2.243 5 5v46c0 2.757-2.243 5-5 5z"/></g><g><path d="m8 20h-4c-1.654 0-3-1.346-3-3s1.346-3 3-3h4c1.654 0 3 1.346 3 3s-1.346 3-3 3zm-4-4c-.551 0-1 .448-1 1s.449 1 1 1h4c.551 0 1-.448 1-1s-.449-1-1-1z"/></g><g><path d="m8 30h-4c-1.654 0-3-1.346-3-3s1.346-3 3-3h4c1.654 0 3 1.346 3 3s-1.346 3-3 3zm-4-4c-.551 0-1 .448-1 1s.449 1 1 1h4c.551 0 1-.448 1-1s-.449-1-1-1z"/></g><g><path d="m8 40h-4c-1.654 0-3-1.346-3-3s1.346-3 3-3h4c1.654 0 3 1.346 3 3s-1.346 3-3 3zm-4-4c-.551 0-1 .448-1 1s.449 1 1 1h4c.551 0 1-.448 1-1s-.449-1-1-1z"/></g><g><path d="m8 50h-4c-1.654 0-3-1.346-3-3s1.346-3 3-3h4c1.654 0 3 1.346 3 3s-1.346 3-3 3zm-4-4c-.551 0-1 .448-1 1s.449 1 1 1h4c.551 0 1-.448 1-1s-.449-1-1-1z"/></g><g><path d="m3 19h2v6h-2z"/></g><g><path d="m3 29h2v6h-2z"/></g><g><path d="m3 39h2v6h-2z"/></g><g><path d="m17 8h-2v-4.382l-2.553 1.276c-.281.141-.613.141-.895 0l-2.552-1.276v4.382h-2v-6c0-.347.18-.668.474-.851.295-.183.664-.198.973-.044l3.553 1.777 3.553-1.776c.31-.154.678-.139.973.044.294.182.474.503.474.85z"/></g><g><path d="m39 8h2v54h-2z"/></g><g><path d="m33 8h2v54h-2z"/></g><g><path d="m62 53h-8c-.552 0-1-.447-1-1v-46c0-2.757 2.243-5 5-5s5 2.243 5 5v46c0 .553-.448 1-1 1zm-7-2h6v-45c0-1.654-1.346-3-3-3s-3 1.346-3 3z"/></g><g><path d="m58 63c-.409 0-.776-.249-.929-.629l-4-10 1.857-.742 3.072 7.679 3.071-7.679 1.857.742-4 10c-.152.38-.519.629-.928.629z"/></g><g><path d="m54 7h8v2h-8z"/></g><g><path d="m57 8h2v44h-2z"/></g><g><path d="m56 55h4v2h-4z"/></g><g><path d="m27 21h-12c-.552 0-1-.447-1-1v-6c0-.553.448-1 1-1h12c.552 0 1 .447 1 1v6c0 .553-.448 1-1 1zm-11-2h10v-4h-10z"/></g></g></svg>