<?xml version="1.0"?>
<svg xmlns="http://www.w3.org/2000/svg" width="512" height="512" viewBox="0 0 512 512"><g><g><path d="M496,96v48H16V96A16,16,0,0,1,32,80H480A16,16,0,0,1,496,96Z" fill="#ff1d25"/><path d="M496,144V416a16,16,0,0,1-16,16H32a16,16,0,0,1-16-16V144Z" fill="#e0e0e2"/></g><g><path d="M480,72H456V48a8,8,0,0,0-16,0V72H392V48a8,8,0,0,0-16,0V72H328V48a8,8,0,0,0-16,0V72H264V48a8,8,0,0,0-16,0V72H200V48a8,8,0,0,0-16,0V72H136V48a8,8,0,0,0-16,0V72H72V48a8,8,0,0,0-16,0V72H32A24.027,24.027,0,0,0,8,96V416a24.027,24.027,0,0,0,24,24H480a24.027,24.027,0,0,0,24-24V96A24.027,24.027,0,0,0,480,72ZM24,96a8.009,8.009,0,0,1,8-8H56v24a8,8,0,0,0,16,0V88h48v24a8,8,0,0,0,16,0V88h48v24a8,8,0,0,0,16,0V88h48v24a8,8,0,0,0,16,0V88h48v24a8,8,0,0,0,16,0V88h48v24a8,8,0,0,0,16,0V88h48v24a8,8,0,0,0,16,0V88h24a8.009,8.009,0,0,1,8,8v40H24ZM488,416a8.009,8.009,0,0,1-8,8H32a8.009,8.009,0,0,1-8-8V152H488Z"/><path d="M175.457,263a8,8,0,0,0-8.123,8.072l.666,73A8,8,0,0,0,176,352h64a8,8,0,0,0,0-16H183.927l-.519-56.874,56.468.873a8.093,8.093,0,0,0,5.737-2.3A8,8,0,0,0,248,272V216a8,8,0,0,0-8-8H176a8,8,0,0,0,0,16h56v39.875Z"/><path d="M272,336a8,8,0,0,0,0,16h64a8,8,0,0,0,8-8V272a8,8,0,0,0-8-8H280V224h56a8,8,0,0,0,0-16H272a8,8,0,0,0-8,8v56a8,8,0,0,0,8,8h56v56Z"/><path d="M48,408h88a8,8,0,0,0,0-16H48a8,8,0,0,0,0,16Z"/><path d="M160,408h8a8,8,0,0,0,0-16h-8a8,8,0,0,0,0,16Z"/></g></g></svg>
