<svg height="512pt" viewBox="0 -79 512 512" width="512pt" xmlns="http://www.w3.org/2000/svg"><path d="m79.449219 0v353.101562h-61.792969c-9.742188-.027343-17.6289062-7.914062-17.65625-17.652343v-317.792969c.0273438-9.742188 7.914062-17.6289062 17.65625-17.65625zm0 0" fill="#e6e7e8"/><path d="m512 17.65625v317.792969c-.027344 9.738281-7.914062 17.625-17.65625 17.652343h-414.894531v-353.101562h414.894531c9.742188.0273438 17.628906 7.917969 17.65625 17.65625zm0 0" fill="#4c8056"/><g fill="#e6e7e8"><path d="m386.613281 44.136719 11.464844 23.246093 25.644531 3.722657-18.554687 18.089843 4.378906 25.535157-22.933594-12.054688-22.941406 12.054688 4.378906-25.535157-18.558593-18.089843 25.644531-3.722657zm0 0"/><path d="m404.304688 185.378906c0 63.378906-51.378907 114.761719-114.761719 114.761719-63.378907 0-114.757813-51.378906-114.757813-114.761719 0-63.378906 51.378906-114.757812 114.757813-114.757812 10.296875-.019532 20.542969 1.375 30.457031 4.148437v.089844c-43.703125.382813-78.894531 35.984375-78.765625 79.6875.128906 43.707031 35.527344 79.101563 79.230469 79.230469s79.304687-35.0625 79.6875-78.765625c2.773437 9.882812 4.171875 20.101562 4.152344 30.367187zm0 0"/></g></svg>