<svg height="512pt" viewBox="0 0 512 512" width="512pt" xmlns="http://www.w3.org/2000/svg"><path d="m105.8125 421.160156c-41.277344 0-74.867188 34.585938-74.867188 75.867188v14.972656h119.789063l28.433594-30.945312c-6.957031-34.132813-37.199219-59.894532-73.355469-59.894532zm0 0" fill="#f27281"/><path d="m105.8125 421.160156c-33.03125 0-59.894531-26.863281-59.894531-59.894531 0-33.035156 26.863281-59.894531 59.894531-59.894531 33.035156 0 59.894531 26.859375 59.894531 59.894531 0 33.03125-26.859375 59.894531-59.894531 59.894531zm0 0" fill="#f27281"/><path d="m405.285156 421.160156c-36.152344 0-66.394531 25.761719-73.351562 59.894532l28.433594 30.945312h119.789062v-14.972656c0-41.28125-33.589844-75.867188-74.871094-75.867188zm0 0" fill="#e63950"/><path d="m405.285156 421.160156c-33.03125 0-59.894531-26.863281-59.894531-59.894531 0-33.035156 26.863281-59.894531 59.894531-59.894531 33.035156 0 59.894532 26.859375 59.894532 59.894531 0 33.03125-26.859376 59.894531-59.894532 59.894531zm0 0" fill="#e63950"/><path d="m346.589844 67.183594-62.886719-9.285156-28.152344-57.898438-28.152343 57.898438-62.886719 9.285156 45.519531 44.320312-10.78125 62.292969 56.300781-29.347656 56.300781 29.347656-10.78125-62.292969zm0 0" fill="#fdbf00"/><path d="m473.472656 275.75-56.210937-29.535156-56.179688 29.535156 10.734375-62.570312-45.449218-44.304688 62.804687-9.125 28.09375-56.925781 28.089844 56.925781 65.746093 9.125-48.390624 44.304688zm0 0" fill="#ff9100"/><path d="m150.019531 275.75-56.179687-29.535156-56.210938 29.535156 10.761719-62.570312-48.390625-44.304688 65.746094-9.125 28.089844-56.925781 28.09375 56.925781 62.804687 9.125-45.449219 44.304688zm0 0" fill="#fdbf00"/><path d="m255.550781 211.527344c-41.328125 0-74.867187 33.542968-74.867187 74.871094 0 41.324218 33.539062 74.867187 74.867187 74.867187s74.867188-33.542969 74.867188-74.867187c0-41.328126-33.539063-74.871094-74.867188-74.871094zm0 0" fill="#979fef"/><path d="m255.550781 361.265625c-57.796875 0-104.816406 47.015625-104.816406 104.816406v45.917969h209.632813v-45.917969c0-57.800781-47.019532-104.816406-104.816407-104.816406zm0 0" fill="#979fef"/><path d="m255.550781 361.265625v-149.738281c41.328125 0 74.867188 33.542968 74.867188 74.871094 0 41.324218-33.539063 74.867187-74.867188 74.867187zm0 0" fill="#737ee6"/><path d="m311.851562 173.796875-56.300781-29.351563v-144.445312l28.152344 57.898438 62.886719 9.285156-45.519532 44.320312zm0 0" fill="#ff9100"/><path d="m360.367188 466.082031v45.917969h-104.816407v-150.734375c57.796875 0 104.816407 47.015625 104.816407 104.816406zm0 0" fill="#737ee6"/></svg>