<svg id="Layer_1" enable-background="new 0 0 256 256" height="512" viewBox="0 0 256 256" width="512" xmlns="http://www.w3.org/2000/svg"><path d="m231.899 13.441-17.873 17.873-103.943 103.943-9.697 9.697 15.868 15.868 8.283-8.283c.781-.781 2.047-.781 2.828 0l7.727 7.727c.777.777 2.042.777 2.825.006 122.929-121.123 93.982-146.831 93.982-146.831z" fill="#e0ebfc"/><path d="m136.507 162.847c-1.025 0-2.051-.389-2.828-1.167l-7.727-7.727-8.283 8.283c-.75.75-2.078.75-2.828 0l-15.868-15.868c-.781-.781-.781-2.047 0-2.828l131.512-131.514c.749-.749 1.952-.783 2.742-.082.351.312 3.431 3.263 3.629 10.913.403 15.563-11.732 54.296-97.535 138.84-.777.767-1.796 1.15-2.814 1.15zm-10.555-12.892c1.024 0 2.049.39 2.828 1.17l7.727 7.727c84.734-83.488 96.737-120.976 96.352-135.891-.08-3.073-.697-5.123-1.27-6.381l-128.374 128.374 13.04 13.04 6.868-6.869c.779-.78 1.805-1.17 2.829-1.17z" fill="#3762cc"/><path d="m115.61 175.892-29.813-29.813c-1.062-1.062-1.062-2.785 0-3.847l6.011-6.011c1.062-1.062 2.785-1.062 3.847 0l29.813 29.813c1.062 1.062 1.062 2.785 0 3.847l-6.011 6.011c-1.063 1.063-2.785 1.063-3.847 0z" fill="#4671c6"/><path d="m115.129 175.411-28.851-28.851-66.999 66.999c-4.78 4.78-4.78 12.531 0 17.311l11.54 11.54c4.78 4.78 12.53 4.78 17.311 0z" fill="#a4c9ff"/><ellipse cx="154.381" cy="237.45" fill="#f9a7a7" rx="29.071" ry="10.55"/><ellipse cx="189.742" cy="227.521" fill="#f9a7a7" rx="29.071" ry="10.55"/><path d="m184.197 191.5c-4.034 0-7.303-3.27-7.303-7.303v-8.893c0-4.034 3.27-7.303 7.303-7.303 4.034 0 7.303 3.27 7.303 7.303v8.893c0 4.033-3.27 7.303-7.303 7.303z" fill="#f9a7a7"/><path d="m239.985 23.192.312-.395c-.223-8.931-4.024-12.749-4.784-13.424-2.153-1.912-5.423-1.816-7.459.22l-88.091 88.091c-1.093 1.093-1.612 2.535-1.58 3.968h-.193v63.043c0 5.151 3.887 9.648 9.027 9.981 5.632.365 10.314-4.096 10.314-9.65v-41.762l.021.021v5.836c0 5.341 4.33 9.671 9.671 9.671 5.341 0 9.671-4.33 9.671-9.671v-25.163c0-.449.151-.885.429-1.238l19.593-24.866c1.175-1.491 3.571-.66 3.571 1.238v18.244c0 5.151 3.887 9.648 9.027 9.981 5.632.365 10.314-4.096 10.314-9.65v-48.892l1.138-1.445v3.404c0 5.341 4.33 9.671 9.671 9.671 5.341 0 9.671-4.33 9.671-9.671v-27.542z" fill="#f9a7a7"/><g fill="#3762cc"><path d="m117.533 178.689c-1.261 0-2.446-.491-3.338-1.383l-29.813-29.813c-1.841-1.84-1.841-4.835 0-6.675l6.011-6.011c1.84-1.838 4.835-1.84 6.675 0l29.813 29.813c1.841 1.84 1.841 4.835 0 6.675l-6.011 6.01c-.891.893-2.076 1.384-3.337 1.384zm-23.802-41.263c-.185 0-.369.07-.51.21l-6.011 6.01c-.28.281-.28.738 0 1.019l29.813 29.813c.184.184.398.211.51.211s.325-.027.508-.21l6.012-6.011c.28-.281.28-.738 0-1.019l-29.813-29.813c-.14-.14-.325-.21-.509-.21z"/><path d="m39.475 247.996c-3.804 0-7.38-1.481-10.069-4.171l-11.541-11.541c-2.689-2.689-4.171-6.265-4.171-10.069s1.481-7.38 4.171-10.069l66.999-66.999c.781-.781 2.047-.781 2.828 0l28.852 28.852c.375.375.586.884.586 1.414s-.211 1.039-.586 1.414l-66.999 66.999c-2.691 2.688-6.267 4.17-10.07 4.17zm46.802-98.607-65.585 65.584c-1.934 1.935-2.999 4.506-2.999 7.241s1.064 5.307 2.999 7.241l11.541 11.541c1.935 1.934 4.506 3 7.241 3s5.307-1.065 7.241-3l65.585-65.584z"/><path d="m154.381 250c-15.063 0-31.071-4.398-31.071-12.55 0-8.151 16.009-12.549 31.071-12.549 1.605 0 3.221.048 4.821.143 2.86-6.621 16.94-10.072 30.54-10.072 15.063 0 31.071 4.398 31.071 12.55 0 8.151-16.009 12.549-31.071 12.549-1.605 0-3.221-.048-4.821-.143-2.86 6.621-16.941 10.072-30.54 10.072zm0-21.099c-16.772 0-27.071 4.979-27.071 8.549s10.299 8.55 27.071 8.55c16.91 0 26.731-4.949 27.055-8.37.103-1.088 1.06-1.889 2.151-1.805 2.03.164 4.101.246 6.155.246 16.772 0 27.071-4.979 27.071-8.549s-10.299-8.55-27.071-8.55c-16.91 0-26.731 4.949-27.055 8.37-.103 1.088-1.052 1.89-2.151 1.805-2.03-.164-4.1-.246-6.155-.246z"/><path d="m184.196 193.5c-5.13 0-9.303-4.173-9.303-9.303v-8.894c0-5.13 4.173-9.303 9.303-9.303s9.304 4.173 9.304 9.303v8.894c0 5.13-4.174 9.303-9.304 9.303zm0-23.5c-2.924 0-5.303 2.379-5.303 5.303v8.894c0 2.924 2.379 5.303 5.303 5.303 2.925 0 5.304-2.379 5.304-5.303v-8.894c0-2.924-2.379-5.303-5.304-5.303z"/><path d="m147.871 176.698c-.26 0-.521-.008-.783-.025-6.111-.395-10.898-5.656-10.898-11.977v-63.043c0-.34.085-.661.234-.941.179-1.682.915-3.232 2.124-4.441l88.092-88.092c2.782-2.782 7.263-2.912 10.2-.301 1.22 1.082 5.218 5.354 5.455 14.869.002.064 0 .128-.004.192.01.083.016.167.016.253v27.542c0 6.435-5.235 11.67-11.671 11.67-3.513 0-6.667-1.56-8.809-4.022v39.286c0 3.213-1.345 6.317-3.69 8.516-2.378 2.229-5.479 3.341-8.753 3.13-6.111-.396-10.898-5.657-10.898-11.977v-18.244l-19.592 24.867v25.163c0 6.436-5.235 11.671-11.671 11.671-2.943 0-5.636-1.095-7.691-2.9v27.133c0 3.213-1.345 6.317-3.69 8.516-2.189 2.05-4.993 3.155-7.971 3.155zm-7.682-74.188v62.186c0 4.218 3.144 7.726 7.156 7.985 2.141.129 4.196-.591 5.76-2.057 1.564-1.467 2.426-3.455 2.426-5.598v-41.762c0-.817.497-1.553 1.256-1.856.759-.304 1.626-.116 2.19.476.355.372.574.888.574 1.402v5.836c0 4.23 3.441 7.671 7.671 7.671s7.671-3.441 7.671-7.671v-25.163c0-.896.305-1.775.859-2.477l19.591-24.865c1.069-1.358 2.814-1.869 4.451-1.304 1.635.566 2.69 2.05 2.69 3.78v18.245c0 4.218 3.144 7.725 7.156 7.985 2.153.135 4.196-.591 5.76-2.057 1.564-1.467 2.426-3.455 2.426-5.598v-48.893c0-.449.151-.885.429-1.237l1.138-1.445c.527-.67 1.425-.931 2.226-.652.806.279 1.346 1.038 1.346 1.89v3.404c0 4.229 3.441 7.67 7.671 7.67s7.671-3.441 7.671-7.67v-26.454c-.045-.069-.085-.141-.121-.216-.298-.614-.261-1.331.086-1.905-.376-7.776-3.699-10.946-4.087-11.291-1.361-1.208-3.431-1.146-4.717.139l-88.092 88.091c-.662.663-1.016 1.554-.994 2.509.008.314-.06.623-.193.902z"/></g></svg>