<?xml version="1.0" encoding="iso-8859-1"?>
<!-- Generator: Adobe Illustrator 19.0.0, SVG Export Plug-In . SVG Version: 6.00 Build 0)  -->
<svg version="1.1" id="Capa_1" xmlns="http://www.w3.org/2000/svg" xmlns:xlink="http://www.w3.org/1999/xlink" x="0px" y="0px"
	 viewBox="0 0 512 512" style="enable-background:new 0 0 512 512;" xml:space="preserve">
<path style="fill:#004A7B;" d="M271,377v60c0,8.399-6.599,15-15,15s-15-6.601-15-15v-60c0-8.401,6.599-15,15-15S271,368.599,271,377
	z"/>
<path style="fill:#00345B;" d="M271,377v60c0,8.399-6.599,15-15,15v-90C264.401,362,271,368.599,271,377z"/>
<path style="fill:#E1E4FB;" d="M421,150.099V377c0,8.399-6.599,15-15,15H106c-8.401,0-15-6.601-15-15V150.099l165-136L421,150.099z"
	/>
<path style="fill:#C5C9F7;" d="M421,150.099V377c0,8.399-6.599,15-15,15H256V14.099L421,150.099z"/>
<path style="fill:#004A7B;" d="M256,151c-41.4,0-75,33.6-75,75s33.6,75,75,75s75-33.6,75-75S297.4,151,256,151z"/>
<path style="fill:#001E38;" d="M346,331c-3.838,0-7.676-1.465-10.605-4.395l-47.578-47.578c-5.859-5.859-5.859-15.352,0-21.211
	s15.352-5.859,21.211,0l47.578,47.578c5.859,5.859,5.859,15.352,0,21.211C353.676,329.535,349.838,331,346,331z"/>
<path style="fill:#00345B;" d="M331,226c0,41.4-33.6,75-75,75V151C297.4,151,331,184.6,331,226z"/>
<path style="fill:#004A7B;" d="M226,482H75c-8.291,0-15-6.709-15-15s6.709-15,15-15h151c8.291,0,15,6.709,15,15S234.291,482,226,482
	z"/>
<path style="fill:#00345B;" d="M437,482H286c-8.291,0-15-6.709-15-15s6.709-15,15-15h151c8.291,0,15,6.709,15,15
	S445.291,482,437,482z"/>
<path style="fill:#17ACE8;" d="M256,422c-24.901,0-45,20.099-45,45c0,24.899,20.099,45,45,45s45-20.101,45-45
	C301,442.099,280.901,422,256,422z"/>
<path style="fill:#1689FC;" d="M467,512c-24.814,0-45-20.186-45-45s20.186-45,45-45s45,20.186,45,45S491.814,512,467,512z"/>
<path style="fill:#17ACE8;" d="M45,512c-24.814,0-45-20.186-45-45s20.186-45,45-45s45,20.186,45,45S69.814,512,45,512z"/>
<path style="fill:#1689FC;" d="M301,467c0,24.899-20.099,45-45,45v-90C280.901,422,301,442.099,301,467z"/>
<path style="fill:#FD3C65;" d="M474.101,200.2c-10.801,12.9-29.7,14.399-42.301,3.898L256,70L80.2,204.099
	c-12.601,10.501-31.5,9.001-42.301-3.898c-10.499-12.601-9-31.501,3.9-42.301l195-151C242.199,2.399,249.101,0,256,0
	c6.899,0,13.801,2.399,19.2,6.899l195,151C482.8,168.699,484.6,187.599,474.101,200.2z"/>
<path style="fill:#E50027;" d="M474.101,200.2c-10.801,12.9-29.7,14.399-42.301,3.898L256,70V0c6.899,0,13.801,2.399,19.2,6.899
	l195,151C482.8,168.699,484.6,187.599,474.101,200.2z"/>
<path style="fill:#1DE8F1;" d="M256,181c-24.901,0-45,20.099-45,45c0,24.899,20.099,45,45,45s45-20.101,45-45
	C301,201.099,280.901,181,256,181z"/>
<path style="fill:#1BD9DE;" d="M301,226c0,24.899-20.099,45-45,45v-90C280.901,181,301,201.099,301,226z"/>
<g>
</g>
<g>
</g>
<g>
</g>
<g>
</g>
<g>
</g>
<g>
</g>
<g>
</g>
<g>
</g>
<g>
</g>
<g>
</g>
<g>
</g>
<g>
</g>
<g>
</g>
<g>
</g>
<g>
</g>
</svg>
